G04 EAGLE Gerber RS-274X export*
G75*
%MOMM*%
%FSLAX34Y34*%
%LPD*%
%INSoldermask Top*%
%IPPOS*%
%AMOC8*
5,1,8,0,0,1.08239X$1,22.5*%
G01*
G04 Define Apertures*
%ADD10C,0.711200*%
%ADD11C,6.303200*%
%ADD12R,1.203200X1.303200*%
%ADD13R,1.303200X1.203200*%
%ADD14R,0.833200X1.033200*%
%ADD15R,1.003200X1.003200*%
%ADD16R,1.033200X0.833200*%
%ADD17R,0.863600X2.235200*%
%ADD18R,2.603200X2.203200*%
%ADD19C,1.803200*%
%ADD20C,2.003200*%
%ADD21C,1.203200*%
%ADD22C,0.853200*%
%ADD23R,1.703200X0.803200*%
%ADD24R,1.703200X0.503200*%
%ADD25R,1.453200X2.203200*%
%ADD26R,1.703200X1.303200*%
%ADD27C,0.344606*%
%ADD28R,2.003200X2.803200*%
%ADD29R,0.830000X0.010000*%
%ADD30R,0.160000X0.010000*%
%ADD31R,0.170000X0.010000*%
%ADD32R,0.340000X0.010000*%
%ADD33R,0.330000X0.010000*%
%ADD34R,0.670000X0.010000*%
%ADD35R,0.500000X0.010000*%
%ADD36R,1.000000X0.010000*%
%ADD37R,0.660000X0.010000*%
%ADD38R,1.340000X0.010000*%
%ADD39R,0.840000X0.010000*%
%ADD40R,2.000000X0.010000*%
%ADD41C,0.705600*%
G36*
X41847Y139524D02*
X43638Y140004D01*
X45319Y140788D01*
X46838Y141851D01*
X48149Y143162D01*
X49212Y144681D01*
X49996Y146362D01*
X50476Y148153D01*
X50637Y150000D01*
X50476Y151847D01*
X49996Y153638D01*
X49212Y155319D01*
X48149Y156838D01*
X46838Y158149D01*
X45319Y159212D01*
X43638Y159996D01*
X41847Y160476D01*
X40000Y160637D01*
X38153Y160476D01*
X36362Y159996D01*
X34681Y159212D01*
X33162Y158149D01*
X31851Y156838D01*
X30788Y155319D01*
X30004Y153638D01*
X29524Y151847D01*
X29363Y150000D01*
X29524Y148153D01*
X30004Y146362D01*
X30788Y144681D01*
X31851Y143162D01*
X33162Y141851D01*
X34681Y140788D01*
X36362Y140004D01*
X38153Y139524D01*
X40000Y139363D01*
X41847Y139524D01*
G37*
G36*
X41847Y1859524D02*
X43638Y1860004D01*
X45319Y1860788D01*
X46838Y1861851D01*
X48149Y1863162D01*
X49212Y1864681D01*
X49996Y1866362D01*
X50476Y1868153D01*
X50637Y1870000D01*
X50476Y1871847D01*
X49996Y1873638D01*
X49212Y1875319D01*
X48149Y1876838D01*
X46838Y1878149D01*
X45319Y1879212D01*
X43638Y1879996D01*
X41847Y1880476D01*
X40000Y1880637D01*
X38153Y1880476D01*
X36362Y1879996D01*
X34681Y1879212D01*
X33162Y1878149D01*
X31851Y1876838D01*
X30788Y1875319D01*
X30004Y1873638D01*
X29524Y1871847D01*
X29363Y1870000D01*
X29524Y1868153D01*
X30004Y1866362D01*
X30788Y1864681D01*
X31851Y1863162D01*
X33162Y1861851D01*
X34681Y1860788D01*
X36362Y1860004D01*
X38153Y1859524D01*
X40000Y1859363D01*
X41847Y1859524D01*
G37*
G36*
X185476Y986847D02*
X184996Y988638D01*
X184212Y990319D01*
X183149Y991838D01*
X181838Y993149D01*
X180319Y994212D01*
X178638Y994996D01*
X176847Y995476D01*
X175000Y995637D01*
X173153Y995476D01*
X171362Y994996D01*
X169681Y994212D01*
X168162Y993149D01*
X166851Y991838D01*
X165788Y990319D01*
X165004Y988638D01*
X164524Y986847D01*
X164363Y985000D01*
X164524Y983153D01*
X165004Y981362D01*
X165788Y979681D01*
X166851Y978162D01*
X168162Y976851D01*
X169681Y975788D01*
X171362Y975004D01*
X173153Y974524D01*
X175000Y974363D01*
X176847Y974524D01*
X178638Y975004D01*
X180319Y975788D01*
X181838Y976851D01*
X183149Y978162D01*
X184212Y979681D01*
X184996Y981362D01*
X185476Y983153D01*
X185637Y985000D01*
X185476Y986847D01*
G37*
G36*
X185476Y2006847D02*
X184996Y2008638D01*
X184212Y2010319D01*
X183149Y2011838D01*
X181838Y2013149D01*
X180319Y2014212D01*
X178638Y2014996D01*
X176847Y2015476D01*
X175000Y2015637D01*
X173153Y2015476D01*
X171362Y2014996D01*
X169681Y2014212D01*
X168162Y2013149D01*
X166851Y2011838D01*
X165788Y2010319D01*
X165004Y2008638D01*
X164524Y2006847D01*
X164363Y2005000D01*
X164524Y2003153D01*
X165004Y2001362D01*
X165788Y1999681D01*
X166851Y1998162D01*
X168162Y1996851D01*
X169681Y1995788D01*
X171362Y1995004D01*
X173153Y1994524D01*
X175000Y1994363D01*
X176847Y1994524D01*
X178638Y1995004D01*
X180319Y1995788D01*
X181838Y1996851D01*
X183149Y1998162D01*
X184212Y1999681D01*
X184996Y2001362D01*
X185476Y2003153D01*
X185637Y2005000D01*
X185476Y2006847D01*
G37*
G36*
X430476Y21847D02*
X429996Y23638D01*
X429212Y25319D01*
X428149Y26838D01*
X426838Y28149D01*
X425319Y29212D01*
X423638Y29996D01*
X421847Y30476D01*
X420000Y30637D01*
X418153Y30476D01*
X416362Y29996D01*
X414681Y29212D01*
X413162Y28149D01*
X411851Y26838D01*
X410788Y25319D01*
X410004Y23638D01*
X409524Y21847D01*
X409363Y20000D01*
X409524Y18153D01*
X410004Y16362D01*
X410788Y14681D01*
X411851Y13162D01*
X413162Y11851D01*
X414681Y10788D01*
X416362Y10004D01*
X418153Y9524D01*
X420000Y9363D01*
X421847Y9524D01*
X423638Y10004D01*
X425319Y10788D01*
X426838Y11851D01*
X428149Y13162D01*
X429212Y14681D01*
X429996Y16362D01*
X430476Y18153D01*
X430637Y20000D01*
X430476Y21847D01*
G37*
G36*
X430476Y1041847D02*
X429996Y1043638D01*
X429212Y1045319D01*
X428149Y1046838D01*
X426838Y1048149D01*
X425319Y1049212D01*
X423638Y1049996D01*
X421847Y1050476D01*
X420000Y1050637D01*
X418153Y1050476D01*
X416362Y1049996D01*
X414681Y1049212D01*
X413162Y1048149D01*
X411851Y1046838D01*
X410788Y1045319D01*
X410004Y1043638D01*
X409524Y1041847D01*
X409363Y1040000D01*
X409524Y1038153D01*
X410004Y1036362D01*
X410788Y1034681D01*
X411851Y1033162D01*
X413162Y1031851D01*
X414681Y1030788D01*
X416362Y1030004D01*
X418153Y1029524D01*
X420000Y1029363D01*
X421847Y1029524D01*
X423638Y1030004D01*
X425319Y1030788D01*
X426838Y1031851D01*
X428149Y1033162D01*
X429212Y1034681D01*
X429996Y1036362D01*
X430476Y1038153D01*
X430637Y1040000D01*
X430476Y1041847D01*
G37*
G36*
X435476Y986847D02*
X434996Y988638D01*
X434212Y990319D01*
X433149Y991838D01*
X431838Y993149D01*
X430319Y994212D01*
X428638Y994996D01*
X426847Y995476D01*
X425000Y995637D01*
X423153Y995476D01*
X421362Y994996D01*
X419681Y994212D01*
X418162Y993149D01*
X416851Y991838D01*
X415788Y990319D01*
X415004Y988638D01*
X414524Y986847D01*
X414363Y985000D01*
X414524Y983153D01*
X415004Y981362D01*
X415788Y979681D01*
X416851Y978162D01*
X418162Y976851D01*
X419681Y975788D01*
X421362Y975004D01*
X423153Y974524D01*
X425000Y974363D01*
X426847Y974524D01*
X428638Y975004D01*
X430319Y975788D01*
X431838Y976851D01*
X433149Y978162D01*
X434212Y979681D01*
X434996Y981362D01*
X435476Y983153D01*
X435637Y985000D01*
X435476Y986847D01*
G37*
G36*
X435476Y2006847D02*
X434996Y2008638D01*
X434212Y2010319D01*
X433149Y2011838D01*
X431838Y2013149D01*
X430319Y2014212D01*
X428638Y2014996D01*
X426847Y2015476D01*
X425000Y2015637D01*
X423153Y2015476D01*
X421362Y2014996D01*
X419681Y2014212D01*
X418162Y2013149D01*
X416851Y2011838D01*
X415788Y2010319D01*
X415004Y2008638D01*
X414524Y2006847D01*
X414363Y2005000D01*
X414524Y2003153D01*
X415004Y2001362D01*
X415788Y1999681D01*
X416851Y1998162D01*
X418162Y1996851D01*
X419681Y1995788D01*
X421362Y1995004D01*
X423153Y1994524D01*
X425000Y1994363D01*
X426847Y1994524D01*
X428638Y1995004D01*
X430319Y1995788D01*
X431838Y1996851D01*
X433149Y1998162D01*
X434212Y1999681D01*
X434996Y2001362D01*
X435476Y2003153D01*
X435637Y2005000D01*
X435476Y2006847D01*
G37*
G36*
X635476Y986847D02*
X634996Y988638D01*
X634212Y990319D01*
X633149Y991838D01*
X631838Y993149D01*
X630319Y994212D01*
X628638Y994996D01*
X626847Y995476D01*
X625000Y995637D01*
X623153Y995476D01*
X621362Y994996D01*
X619681Y994212D01*
X618162Y993149D01*
X616851Y991838D01*
X615788Y990319D01*
X615004Y988638D01*
X614524Y986847D01*
X614363Y985000D01*
X614524Y983153D01*
X615004Y981362D01*
X615788Y979681D01*
X616851Y978162D01*
X618162Y976851D01*
X619681Y975788D01*
X621362Y975004D01*
X623153Y974524D01*
X625000Y974363D01*
X626847Y974524D01*
X628638Y975004D01*
X630319Y975788D01*
X631838Y976851D01*
X633149Y978162D01*
X634212Y979681D01*
X634996Y981362D01*
X635476Y983153D01*
X635637Y985000D01*
X635476Y986847D01*
G37*
G36*
X635476Y2006847D02*
X634996Y2008638D01*
X634212Y2010319D01*
X633149Y2011838D01*
X631838Y2013149D01*
X630319Y2014212D01*
X628638Y2014996D01*
X626847Y2015476D01*
X625000Y2015637D01*
X623153Y2015476D01*
X621362Y2014996D01*
X619681Y2014212D01*
X618162Y2013149D01*
X616851Y2011838D01*
X615788Y2010319D01*
X615004Y2008638D01*
X614524Y2006847D01*
X614363Y2005000D01*
X614524Y2003153D01*
X615004Y2001362D01*
X615788Y1999681D01*
X616851Y1998162D01*
X618162Y1996851D01*
X619681Y1995788D01*
X621362Y1995004D01*
X623153Y1994524D01*
X625000Y1994363D01*
X626847Y1994524D01*
X628638Y1995004D01*
X630319Y1995788D01*
X631838Y1996851D01*
X633149Y1998162D01*
X634212Y1999681D01*
X634996Y2001362D01*
X635476Y2003153D01*
X635637Y2005000D01*
X635476Y2006847D01*
G37*
G36*
X880476Y21847D02*
X879996Y23638D01*
X879212Y25319D01*
X878149Y26838D01*
X876838Y28149D01*
X875319Y29212D01*
X873638Y29996D01*
X871847Y30476D01*
X870000Y30637D01*
X868153Y30476D01*
X866362Y29996D01*
X864681Y29212D01*
X863162Y28149D01*
X861851Y26838D01*
X860788Y25319D01*
X860004Y23638D01*
X859524Y21847D01*
X859363Y20000D01*
X859524Y18153D01*
X860004Y16362D01*
X860788Y14681D01*
X861851Y13162D01*
X863162Y11851D01*
X864681Y10788D01*
X866362Y10004D01*
X868153Y9524D01*
X870000Y9363D01*
X871847Y9524D01*
X873638Y10004D01*
X875319Y10788D01*
X876838Y11851D01*
X878149Y13162D01*
X879212Y14681D01*
X879996Y16362D01*
X880476Y18153D01*
X880637Y20000D01*
X880476Y21847D01*
G37*
G36*
X880476Y1041847D02*
X879996Y1043638D01*
X879212Y1045319D01*
X878149Y1046838D01*
X876838Y1048149D01*
X875319Y1049212D01*
X873638Y1049996D01*
X871847Y1050476D01*
X870000Y1050637D01*
X868153Y1050476D01*
X866362Y1049996D01*
X864681Y1049212D01*
X863162Y1048149D01*
X861851Y1046838D01*
X860788Y1045319D01*
X860004Y1043638D01*
X859524Y1041847D01*
X859363Y1040000D01*
X859524Y1038153D01*
X860004Y1036362D01*
X860788Y1034681D01*
X861851Y1033162D01*
X863162Y1031851D01*
X864681Y1030788D01*
X866362Y1030004D01*
X868153Y1029524D01*
X870000Y1029363D01*
X871847Y1029524D01*
X873638Y1030004D01*
X875319Y1030788D01*
X876838Y1031851D01*
X878149Y1033162D01*
X879212Y1034681D01*
X879996Y1036362D01*
X880476Y1038153D01*
X880637Y1040000D01*
X880476Y1041847D01*
G37*
G36*
X885476Y986847D02*
X884996Y988638D01*
X884212Y990319D01*
X883149Y991838D01*
X881838Y993149D01*
X880319Y994212D01*
X878638Y994996D01*
X876847Y995476D01*
X875000Y995637D01*
X873153Y995476D01*
X871362Y994996D01*
X869681Y994212D01*
X868162Y993149D01*
X866851Y991838D01*
X865788Y990319D01*
X865004Y988638D01*
X864524Y986847D01*
X864363Y985000D01*
X864524Y983153D01*
X865004Y981362D01*
X865788Y979681D01*
X866851Y978162D01*
X868162Y976851D01*
X869681Y975788D01*
X871362Y975004D01*
X873153Y974524D01*
X875000Y974363D01*
X876847Y974524D01*
X878638Y975004D01*
X880319Y975788D01*
X881838Y976851D01*
X883149Y978162D01*
X884212Y979681D01*
X884996Y981362D01*
X885476Y983153D01*
X885637Y985000D01*
X885476Y986847D01*
G37*
G36*
X885476Y2006847D02*
X884996Y2008638D01*
X884212Y2010319D01*
X883149Y2011838D01*
X881838Y2013149D01*
X880319Y2014212D01*
X878638Y2014996D01*
X876847Y2015476D01*
X875000Y2015637D01*
X873153Y2015476D01*
X871362Y2014996D01*
X869681Y2014212D01*
X868162Y2013149D01*
X866851Y2011838D01*
X865788Y2010319D01*
X865004Y2008638D01*
X864524Y2006847D01*
X864363Y2005000D01*
X864524Y2003153D01*
X865004Y2001362D01*
X865788Y1999681D01*
X866851Y1998162D01*
X868162Y1996851D01*
X869681Y1995788D01*
X871362Y1995004D01*
X873153Y1994524D01*
X875000Y1994363D01*
X876847Y1994524D01*
X878638Y1995004D01*
X880319Y1995788D01*
X881838Y1996851D01*
X883149Y1998162D01*
X884212Y1999681D01*
X884996Y2001362D01*
X885476Y2003153D01*
X885637Y2005000D01*
X885476Y2006847D01*
G37*
G36*
X1085476Y986847D02*
X1084996Y988638D01*
X1084212Y990319D01*
X1083149Y991838D01*
X1081838Y993149D01*
X1080319Y994212D01*
X1078638Y994996D01*
X1076847Y995476D01*
X1075000Y995637D01*
X1073153Y995476D01*
X1071362Y994996D01*
X1069681Y994212D01*
X1068162Y993149D01*
X1066851Y991838D01*
X1065788Y990319D01*
X1065004Y988638D01*
X1064524Y986847D01*
X1064363Y985000D01*
X1064524Y983153D01*
X1065004Y981362D01*
X1065788Y979681D01*
X1066851Y978162D01*
X1068162Y976851D01*
X1069681Y975788D01*
X1071362Y975004D01*
X1073153Y974524D01*
X1075000Y974363D01*
X1076847Y974524D01*
X1078638Y975004D01*
X1080319Y975788D01*
X1081838Y976851D01*
X1083149Y978162D01*
X1084212Y979681D01*
X1084996Y981362D01*
X1085476Y983153D01*
X1085637Y985000D01*
X1085476Y986847D01*
G37*
G36*
X1085476Y2006847D02*
X1084996Y2008638D01*
X1084212Y2010319D01*
X1083149Y2011838D01*
X1081838Y2013149D01*
X1080319Y2014212D01*
X1078638Y2014996D01*
X1076847Y2015476D01*
X1075000Y2015637D01*
X1073153Y2015476D01*
X1071362Y2014996D01*
X1069681Y2014212D01*
X1068162Y2013149D01*
X1066851Y2011838D01*
X1065788Y2010319D01*
X1065004Y2008638D01*
X1064524Y2006847D01*
X1064363Y2005000D01*
X1064524Y2003153D01*
X1065004Y2001362D01*
X1065788Y1999681D01*
X1066851Y1998162D01*
X1068162Y1996851D01*
X1069681Y1995788D01*
X1071362Y1995004D01*
X1073153Y1994524D01*
X1075000Y1994363D01*
X1076847Y1994524D01*
X1078638Y1995004D01*
X1080319Y1995788D01*
X1081838Y1996851D01*
X1083149Y1998162D01*
X1084212Y1999681D01*
X1084996Y2001362D01*
X1085476Y2003153D01*
X1085637Y2005000D01*
X1085476Y2006847D01*
G37*
G36*
X1330476Y21847D02*
X1329996Y23638D01*
X1329212Y25319D01*
X1328149Y26838D01*
X1326838Y28149D01*
X1325319Y29212D01*
X1323638Y29996D01*
X1321847Y30476D01*
X1320000Y30637D01*
X1318153Y30476D01*
X1316362Y29996D01*
X1314681Y29212D01*
X1313162Y28149D01*
X1311851Y26838D01*
X1310788Y25319D01*
X1310004Y23638D01*
X1309524Y21847D01*
X1309363Y20000D01*
X1309524Y18153D01*
X1310004Y16362D01*
X1310788Y14681D01*
X1311851Y13162D01*
X1313162Y11851D01*
X1314681Y10788D01*
X1316362Y10004D01*
X1318153Y9524D01*
X1320000Y9363D01*
X1321847Y9524D01*
X1323638Y10004D01*
X1325319Y10788D01*
X1326838Y11851D01*
X1328149Y13162D01*
X1329212Y14681D01*
X1329996Y16362D01*
X1330476Y18153D01*
X1330637Y20000D01*
X1330476Y21847D01*
G37*
G36*
X1330476Y1041847D02*
X1329996Y1043638D01*
X1329212Y1045319D01*
X1328149Y1046838D01*
X1326838Y1048149D01*
X1325319Y1049212D01*
X1323638Y1049996D01*
X1321847Y1050476D01*
X1320000Y1050637D01*
X1318153Y1050476D01*
X1316362Y1049996D01*
X1314681Y1049212D01*
X1313162Y1048149D01*
X1311851Y1046838D01*
X1310788Y1045319D01*
X1310004Y1043638D01*
X1309524Y1041847D01*
X1309363Y1040000D01*
X1309524Y1038153D01*
X1310004Y1036362D01*
X1310788Y1034681D01*
X1311851Y1033162D01*
X1313162Y1031851D01*
X1314681Y1030788D01*
X1316362Y1030004D01*
X1318153Y1029524D01*
X1320000Y1029363D01*
X1321847Y1029524D01*
X1323638Y1030004D01*
X1325319Y1030788D01*
X1326838Y1031851D01*
X1328149Y1033162D01*
X1329212Y1034681D01*
X1329996Y1036362D01*
X1330476Y1038153D01*
X1330637Y1040000D01*
X1330476Y1041847D01*
G37*
G36*
X1335476Y986847D02*
X1334996Y988638D01*
X1334212Y990319D01*
X1333149Y991838D01*
X1331838Y993149D01*
X1330319Y994212D01*
X1328638Y994996D01*
X1326847Y995476D01*
X1325000Y995637D01*
X1323153Y995476D01*
X1321362Y994996D01*
X1319681Y994212D01*
X1318162Y993149D01*
X1316851Y991838D01*
X1315788Y990319D01*
X1315004Y988638D01*
X1314524Y986847D01*
X1314363Y985000D01*
X1314524Y983153D01*
X1315004Y981362D01*
X1315788Y979681D01*
X1316851Y978162D01*
X1318162Y976851D01*
X1319681Y975788D01*
X1321362Y975004D01*
X1323153Y974524D01*
X1325000Y974363D01*
X1326847Y974524D01*
X1328638Y975004D01*
X1330319Y975788D01*
X1331838Y976851D01*
X1333149Y978162D01*
X1334212Y979681D01*
X1334996Y981362D01*
X1335476Y983153D01*
X1335637Y985000D01*
X1335476Y986847D01*
G37*
G36*
X1335476Y2006847D02*
X1334996Y2008638D01*
X1334212Y2010319D01*
X1333149Y2011838D01*
X1331838Y2013149D01*
X1330319Y2014212D01*
X1328638Y2014996D01*
X1326847Y2015476D01*
X1325000Y2015637D01*
X1323153Y2015476D01*
X1321362Y2014996D01*
X1319681Y2014212D01*
X1318162Y2013149D01*
X1316851Y2011838D01*
X1315788Y2010319D01*
X1315004Y2008638D01*
X1314524Y2006847D01*
X1314363Y2005000D01*
X1314524Y2003153D01*
X1315004Y2001362D01*
X1315788Y1999681D01*
X1316851Y1998162D01*
X1318162Y1996851D01*
X1319681Y1995788D01*
X1321362Y1995004D01*
X1323153Y1994524D01*
X1325000Y1994363D01*
X1326847Y1994524D01*
X1328638Y1995004D01*
X1330319Y1995788D01*
X1331838Y1996851D01*
X1333149Y1998162D01*
X1334212Y1999681D01*
X1334996Y2001362D01*
X1335476Y2003153D01*
X1335637Y2005000D01*
X1335476Y2006847D01*
G37*
G36*
X1461847Y139524D02*
X1463638Y140004D01*
X1465319Y140788D01*
X1466838Y141851D01*
X1468149Y143162D01*
X1469212Y144681D01*
X1469996Y146362D01*
X1470476Y148153D01*
X1470637Y150000D01*
X1470476Y151847D01*
X1469996Y153638D01*
X1469212Y155319D01*
X1468149Y156838D01*
X1466838Y158149D01*
X1465319Y159212D01*
X1463638Y159996D01*
X1461847Y160476D01*
X1460000Y160637D01*
X1458153Y160476D01*
X1456362Y159996D01*
X1454681Y159212D01*
X1453162Y158149D01*
X1451851Y156838D01*
X1450788Y155319D01*
X1450004Y153638D01*
X1449524Y151847D01*
X1449363Y150000D01*
X1449524Y148153D01*
X1450004Y146362D01*
X1450788Y144681D01*
X1451851Y143162D01*
X1453162Y141851D01*
X1454681Y140788D01*
X1456362Y140004D01*
X1458153Y139524D01*
X1460000Y139363D01*
X1461847Y139524D01*
G37*
G36*
X1461847Y1859524D02*
X1463638Y1860004D01*
X1465319Y1860788D01*
X1466838Y1861851D01*
X1468149Y1863162D01*
X1469212Y1864681D01*
X1469996Y1866362D01*
X1470476Y1868153D01*
X1470637Y1870000D01*
X1470476Y1871847D01*
X1469996Y1873638D01*
X1469212Y1875319D01*
X1468149Y1876838D01*
X1466838Y1878149D01*
X1465319Y1879212D01*
X1463638Y1879996D01*
X1461847Y1880476D01*
X1460000Y1880637D01*
X1458153Y1880476D01*
X1456362Y1879996D01*
X1454681Y1879212D01*
X1453162Y1878149D01*
X1451851Y1876838D01*
X1450788Y1875319D01*
X1450004Y1873638D01*
X1449524Y1871847D01*
X1449363Y1870000D01*
X1449524Y1868153D01*
X1450004Y1866362D01*
X1450788Y1864681D01*
X1451851Y1863162D01*
X1453162Y1861851D01*
X1454681Y1860788D01*
X1456362Y1860004D01*
X1458153Y1859524D01*
X1460000Y1859363D01*
X1461847Y1859524D01*
G37*
D10*
X550000Y930000D03*
X550000Y937500D03*
X550000Y922500D03*
X550000Y915000D03*
X550000Y945000D03*
X500000Y930000D03*
X500000Y937500D03*
X500000Y922500D03*
X500000Y915000D03*
X500000Y945000D03*
X550000Y90000D03*
X550000Y97500D03*
X550000Y82500D03*
X550000Y75000D03*
X550000Y105000D03*
X500000Y90000D03*
X500000Y97500D03*
X500000Y82500D03*
X500000Y75000D03*
X500000Y105000D03*
X1000000Y930000D03*
X1000000Y937500D03*
X1000000Y922500D03*
X1000000Y915000D03*
X1000000Y945000D03*
X950000Y930000D03*
X950000Y937500D03*
X950000Y922500D03*
X950000Y915000D03*
X950000Y945000D03*
X1000000Y90000D03*
X1000000Y97500D03*
X1000000Y82500D03*
X1000000Y75000D03*
X1000000Y105000D03*
X950000Y90000D03*
X950000Y97500D03*
X950000Y82500D03*
X950000Y75000D03*
X950000Y105000D03*
X550000Y1950000D03*
X550000Y1957500D03*
X550000Y1942500D03*
X550000Y1935000D03*
X550000Y1965000D03*
X500000Y1950000D03*
X500000Y1957500D03*
X500000Y1942500D03*
X500000Y1935000D03*
X500000Y1965000D03*
X550000Y1110000D03*
X550000Y1117500D03*
X550000Y1102500D03*
X550000Y1095000D03*
X550000Y1125000D03*
X500000Y1110000D03*
X500000Y1117500D03*
X500000Y1102500D03*
X500000Y1095000D03*
X500000Y1125000D03*
X1000000Y1950000D03*
X1000000Y1957500D03*
X1000000Y1942500D03*
X1000000Y1935000D03*
X1000000Y1965000D03*
X950000Y1950000D03*
X950000Y1957500D03*
X950000Y1942500D03*
X950000Y1935000D03*
X950000Y1965000D03*
X1000000Y1110000D03*
X1000000Y1117500D03*
X1000000Y1102500D03*
X1000000Y1095000D03*
X1000000Y1125000D03*
X950000Y1110000D03*
X950000Y1117500D03*
X950000Y1102500D03*
X950000Y1095000D03*
X950000Y1125000D03*
X80000Y90000D03*
X80000Y82500D03*
X80000Y97500D03*
X80000Y105000D03*
X80000Y75000D03*
X100000Y90000D03*
X100000Y82500D03*
X100000Y97500D03*
X100000Y105000D03*
X100000Y75000D03*
X80000Y930000D03*
X80000Y922500D03*
X80000Y937500D03*
X80000Y945000D03*
X80000Y915000D03*
X100000Y930000D03*
X100000Y922500D03*
X100000Y937500D03*
X100000Y945000D03*
X100000Y915000D03*
X80000Y1110000D03*
X80000Y1102500D03*
X80000Y1117500D03*
X80000Y1125000D03*
X80000Y1095000D03*
X100000Y1110000D03*
X100000Y1102500D03*
X100000Y1117500D03*
X100000Y1125000D03*
X100000Y1095000D03*
X80000Y1950000D03*
X80000Y1942500D03*
X80000Y1957500D03*
X80000Y1965000D03*
X80000Y1935000D03*
X100000Y1950000D03*
X100000Y1942500D03*
X100000Y1957500D03*
X100000Y1965000D03*
X100000Y1935000D03*
X1400000Y1950000D03*
X1400000Y1942500D03*
X1400000Y1957500D03*
X1400000Y1965000D03*
X1400000Y1935000D03*
X1420000Y1950000D03*
X1420000Y1942500D03*
X1420000Y1957500D03*
X1420000Y1965000D03*
X1420000Y1935000D03*
X1400000Y1110000D03*
X1400000Y1102500D03*
X1400000Y1117500D03*
X1400000Y1125000D03*
X1400000Y1095000D03*
X1420000Y1110000D03*
X1420000Y1102500D03*
X1420000Y1117500D03*
X1420000Y1125000D03*
X1420000Y1095000D03*
X1400000Y930000D03*
X1400000Y922500D03*
X1400000Y937500D03*
X1400000Y945000D03*
X1400000Y915000D03*
X1420000Y930000D03*
X1420000Y922500D03*
X1420000Y937500D03*
X1420000Y945000D03*
X1420000Y915000D03*
X1400000Y90000D03*
X1400000Y82500D03*
X1400000Y97500D03*
X1400000Y105000D03*
X1400000Y75000D03*
X1420000Y90000D03*
X1420000Y82500D03*
X1420000Y97500D03*
X1420000Y105000D03*
X1420000Y75000D03*
D11*
X40000Y1970000D03*
X1460000Y1970000D03*
X1460000Y50000D03*
X40000Y50000D03*
D12*
X182525Y86225D03*
X182525Y69225D03*
D13*
X213250Y49150D03*
X196250Y49150D03*
X213250Y26925D03*
X196250Y26925D03*
X199425Y344425D03*
X216425Y344425D03*
D12*
X388900Y221625D03*
X388900Y238625D03*
X388900Y146550D03*
X388900Y129550D03*
D14*
X448025Y465075D03*
X425025Y465075D03*
D15*
X407950Y38475D03*
X407950Y53475D03*
D14*
X136875Y84075D03*
X113875Y84075D03*
D16*
X160300Y101925D03*
X160300Y78925D03*
X198400Y267025D03*
X198400Y244025D03*
X198400Y304350D03*
X198400Y327350D03*
D17*
X407950Y85091D03*
X407950Y146559D03*
X420650Y85091D03*
X433350Y85091D03*
X420650Y146559D03*
X433350Y146559D03*
X446050Y85091D03*
X446050Y146559D03*
X458750Y85091D03*
X471450Y85091D03*
X458750Y146559D03*
X471450Y146559D03*
X484150Y85091D03*
X484150Y146559D03*
X407950Y172404D03*
X407950Y233872D03*
X420650Y172404D03*
X433350Y172404D03*
X420650Y233872D03*
X433350Y233872D03*
X446050Y172404D03*
X446050Y233872D03*
X458750Y172404D03*
X471450Y172404D03*
X458750Y233872D03*
X471450Y233872D03*
X484150Y172404D03*
X484150Y233872D03*
D18*
X130000Y220000D03*
X192000Y220000D03*
X192000Y110000D03*
X130000Y110000D03*
D19*
X130000Y165000D03*
D20*
X175000Y165000D03*
D21*
X126000Y333200D02*
X116000Y333200D01*
X116000Y246800D02*
X126000Y246800D01*
X157800Y246800D02*
X167800Y246800D01*
X167800Y333200D02*
X157800Y333200D01*
D22*
X157800Y318900D03*
X157800Y261100D03*
D23*
X170700Y258000D03*
X170700Y322000D03*
X170700Y314500D03*
X170700Y266000D03*
D24*
X170700Y272500D03*
X170700Y307500D03*
X170700Y302500D03*
X170700Y277500D03*
X170700Y282500D03*
X170700Y297500D03*
X170700Y292500D03*
X170700Y287500D03*
D11*
X460000Y960000D03*
X140000Y40000D03*
X460000Y40000D03*
X140000Y960000D03*
D25*
X480975Y260288D03*
X455575Y260288D03*
X430175Y260288D03*
X404775Y260288D03*
X404775Y349188D03*
X430175Y349188D03*
X455575Y349188D03*
X480975Y349188D03*
D13*
X408975Y484125D03*
X425975Y484125D03*
X469300Y369825D03*
X486300Y369825D03*
X448200Y577788D03*
X431200Y577788D03*
D12*
X217450Y264025D03*
X217450Y247025D03*
X217450Y307350D03*
X217450Y324350D03*
D13*
X486300Y477775D03*
X469300Y477775D03*
D12*
X388900Y37475D03*
X388900Y54475D03*
D26*
X359500Y92700D03*
X359500Y118100D03*
X359500Y67300D03*
X359500Y41900D03*
X270500Y118100D03*
X270500Y92700D03*
X270500Y67300D03*
X270500Y41900D03*
X359500Y212700D03*
X359500Y238100D03*
X359500Y187300D03*
X359500Y161900D03*
X270500Y238100D03*
X270500Y212700D03*
X270500Y187300D03*
X270500Y161900D03*
X359500Y332700D03*
X359500Y358100D03*
X359500Y307300D03*
X359500Y281900D03*
X270500Y358100D03*
X270500Y332700D03*
X270500Y307300D03*
X270500Y281900D03*
X359500Y452700D03*
X359500Y478100D03*
X359500Y427300D03*
X359500Y401900D03*
X270500Y478100D03*
X270500Y452700D03*
X270500Y427300D03*
X270500Y401900D03*
X359500Y572700D03*
X359500Y598100D03*
X359500Y547300D03*
X359500Y521900D03*
X270500Y598100D03*
X270500Y572700D03*
X270500Y547300D03*
X270500Y521900D03*
X359500Y692700D03*
X359500Y718100D03*
X359500Y667300D03*
X359500Y641900D03*
X270500Y718100D03*
X270500Y692700D03*
X270500Y667300D03*
X270500Y641900D03*
X359500Y812700D03*
X359500Y838100D03*
X359500Y787300D03*
X359500Y761900D03*
X270500Y838100D03*
X270500Y812700D03*
X270500Y787300D03*
X270500Y761900D03*
X359500Y932700D03*
X359500Y958100D03*
X359500Y907300D03*
X359500Y881900D03*
X270500Y958100D03*
X270500Y932700D03*
X270500Y907300D03*
X270500Y881900D03*
D27*
X208868Y85032D02*
X196382Y85032D01*
X196382Y89418D01*
X208868Y89418D01*
X208868Y85032D01*
X208868Y88306D02*
X196382Y88306D01*
X196382Y75532D02*
X208868Y75532D01*
X196382Y75532D02*
X196382Y79918D01*
X208868Y79918D01*
X208868Y75532D01*
X208868Y78806D02*
X196382Y78806D01*
X196382Y66032D02*
X208868Y66032D01*
X196382Y66032D02*
X196382Y70418D01*
X208868Y70418D01*
X208868Y66032D01*
X208868Y69306D02*
X196382Y69306D01*
X219682Y66032D02*
X232168Y66032D01*
X219682Y66032D02*
X219682Y70418D01*
X232168Y70418D01*
X232168Y66032D01*
X232168Y69306D02*
X219682Y69306D01*
X219682Y85032D02*
X232168Y85032D01*
X219682Y85032D02*
X219682Y89418D01*
X232168Y89418D01*
X232168Y85032D01*
X232168Y88306D02*
X219682Y88306D01*
D13*
X199425Y285375D03*
X216425Y285375D03*
X130700Y468250D03*
X113700Y468250D03*
X151800Y482538D03*
X168800Y482538D03*
D12*
X173000Y368800D03*
X173000Y351800D03*
X150775Y368800D03*
X150775Y351800D03*
D13*
X151800Y598425D03*
X168800Y598425D03*
X130700Y582550D03*
X113700Y582550D03*
X215300Y477775D03*
X232300Y477775D03*
X191025Y461900D03*
X174025Y461900D03*
X130700Y693675D03*
X113700Y693675D03*
X151800Y712725D03*
X168800Y712725D03*
X215300Y595250D03*
X232300Y595250D03*
X191025Y577475D03*
X174025Y577475D03*
X151800Y827025D03*
X168800Y827025D03*
X130700Y811150D03*
X113700Y811150D03*
X215300Y709550D03*
X232300Y709550D03*
X191025Y692088D03*
X174025Y692088D03*
X199425Y941325D03*
X216425Y941325D03*
X199425Y963550D03*
X216425Y963550D03*
X215300Y823850D03*
X232300Y823850D03*
X174025Y806388D03*
X191025Y806388D03*
X466125Y595250D03*
X483125Y595250D03*
X425975Y598425D03*
X408975Y598425D03*
D12*
X379375Y702175D03*
X379375Y685175D03*
D13*
X431200Y690500D03*
X448200Y690500D03*
X466125Y712725D03*
X483125Y712725D03*
X425975Y712725D03*
X408975Y712725D03*
X425975Y827025D03*
X408975Y827025D03*
D12*
X379375Y936000D03*
X379375Y953000D03*
X401600Y936000D03*
X401600Y953000D03*
X401600Y970925D03*
X401600Y987925D03*
X379375Y970925D03*
X379375Y987925D03*
D13*
X431200Y806388D03*
X448200Y806388D03*
D19*
X470000Y415000D03*
X410000Y415000D03*
D28*
X405500Y450000D03*
X474500Y450000D03*
X447000Y380000D03*
X389000Y380000D03*
D19*
X470000Y530000D03*
X410000Y530000D03*
D28*
X405500Y565000D03*
X474500Y565000D03*
X447000Y495000D03*
X389000Y495000D03*
D19*
X130000Y415000D03*
X190000Y415000D03*
D28*
X194500Y380000D03*
X125500Y380000D03*
X153000Y450000D03*
X211000Y450000D03*
D19*
X130000Y530000D03*
X190000Y530000D03*
D28*
X194500Y495000D03*
X125500Y495000D03*
X153000Y565000D03*
X211000Y565000D03*
D19*
X130000Y645000D03*
X190000Y645000D03*
D28*
X194500Y610000D03*
X125500Y610000D03*
X153000Y680000D03*
X211000Y680000D03*
D19*
X130000Y760000D03*
X190000Y760000D03*
D28*
X194500Y725000D03*
X125500Y725000D03*
X153000Y795000D03*
X211000Y795000D03*
D19*
X130000Y875000D03*
X190000Y875000D03*
D28*
X194500Y840000D03*
X125500Y840000D03*
X153000Y910000D03*
X211000Y910000D03*
D19*
X470000Y645000D03*
X410000Y645000D03*
D28*
X405500Y680000D03*
X474500Y680000D03*
X447000Y610000D03*
X389000Y610000D03*
D19*
X470000Y760000D03*
X410000Y760000D03*
D28*
X405500Y795000D03*
X474500Y795000D03*
X447000Y725000D03*
X389000Y725000D03*
D19*
X470000Y875000D03*
X410000Y875000D03*
D28*
X405500Y910000D03*
X474500Y910000D03*
X447000Y840000D03*
X389000Y840000D03*
D12*
X632525Y86225D03*
X632525Y69225D03*
D13*
X663250Y49150D03*
X646250Y49150D03*
X663250Y26925D03*
X646250Y26925D03*
X649425Y344425D03*
X666425Y344425D03*
D12*
X838900Y221625D03*
X838900Y238625D03*
X838900Y146550D03*
X838900Y129550D03*
D14*
X898025Y465075D03*
X875025Y465075D03*
D15*
X857950Y38475D03*
X857950Y53475D03*
D14*
X586875Y84075D03*
X563875Y84075D03*
D16*
X610300Y101925D03*
X610300Y78925D03*
X648400Y267025D03*
X648400Y244025D03*
X648400Y304350D03*
X648400Y327350D03*
D17*
X857950Y85091D03*
X857950Y146559D03*
X870650Y85091D03*
X883350Y85091D03*
X870650Y146559D03*
X883350Y146559D03*
X896050Y85091D03*
X896050Y146559D03*
X908750Y85091D03*
X921450Y85091D03*
X908750Y146559D03*
X921450Y146559D03*
X934150Y85091D03*
X934150Y146559D03*
X857950Y172404D03*
X857950Y233872D03*
X870650Y172404D03*
X883350Y172404D03*
X870650Y233872D03*
X883350Y233872D03*
X896050Y172404D03*
X896050Y233872D03*
X908750Y172404D03*
X921450Y172404D03*
X908750Y233872D03*
X921450Y233872D03*
X934150Y172404D03*
X934150Y233872D03*
D18*
X580000Y220000D03*
X642000Y220000D03*
X642000Y110000D03*
X580000Y110000D03*
D19*
X580000Y165000D03*
D20*
X625000Y165000D03*
D21*
X576000Y333200D02*
X566000Y333200D01*
X566000Y246800D02*
X576000Y246800D01*
X607800Y246800D02*
X617800Y246800D01*
X617800Y333200D02*
X607800Y333200D01*
D22*
X607800Y318900D03*
X607800Y261100D03*
D23*
X620700Y258000D03*
X620700Y322000D03*
X620700Y314500D03*
X620700Y266000D03*
D24*
X620700Y272500D03*
X620700Y307500D03*
X620700Y302500D03*
X620700Y277500D03*
X620700Y282500D03*
X620700Y297500D03*
X620700Y292500D03*
X620700Y287500D03*
D11*
X910000Y960000D03*
X590000Y40000D03*
X910000Y40000D03*
X590000Y960000D03*
D25*
X930975Y260288D03*
X905575Y260288D03*
X880175Y260288D03*
X854775Y260288D03*
X854775Y349188D03*
X880175Y349188D03*
X905575Y349188D03*
X930975Y349188D03*
D13*
X858975Y484125D03*
X875975Y484125D03*
X919300Y369825D03*
X936300Y369825D03*
X898200Y577788D03*
X881200Y577788D03*
D12*
X667450Y264025D03*
X667450Y247025D03*
X667450Y307350D03*
X667450Y324350D03*
D13*
X936300Y477775D03*
X919300Y477775D03*
D12*
X838900Y37475D03*
X838900Y54475D03*
D26*
X809500Y92700D03*
X809500Y118100D03*
X809500Y67300D03*
X809500Y41900D03*
X720500Y118100D03*
X720500Y92700D03*
X720500Y67300D03*
X720500Y41900D03*
X809500Y212700D03*
X809500Y238100D03*
X809500Y187300D03*
X809500Y161900D03*
X720500Y238100D03*
X720500Y212700D03*
X720500Y187300D03*
X720500Y161900D03*
X809500Y332700D03*
X809500Y358100D03*
X809500Y307300D03*
X809500Y281900D03*
X720500Y358100D03*
X720500Y332700D03*
X720500Y307300D03*
X720500Y281900D03*
X809500Y452700D03*
X809500Y478100D03*
X809500Y427300D03*
X809500Y401900D03*
X720500Y478100D03*
X720500Y452700D03*
X720500Y427300D03*
X720500Y401900D03*
X809500Y572700D03*
X809500Y598100D03*
X809500Y547300D03*
X809500Y521900D03*
X720500Y598100D03*
X720500Y572700D03*
X720500Y547300D03*
X720500Y521900D03*
X809500Y692700D03*
X809500Y718100D03*
X809500Y667300D03*
X809500Y641900D03*
X720500Y718100D03*
X720500Y692700D03*
X720500Y667300D03*
X720500Y641900D03*
X809500Y812700D03*
X809500Y838100D03*
X809500Y787300D03*
X809500Y761900D03*
X720500Y838100D03*
X720500Y812700D03*
X720500Y787300D03*
X720500Y761900D03*
X809500Y932700D03*
X809500Y958100D03*
X809500Y907300D03*
X809500Y881900D03*
X720500Y958100D03*
X720500Y932700D03*
X720500Y907300D03*
X720500Y881900D03*
D27*
X658868Y85032D02*
X646382Y85032D01*
X646382Y89418D01*
X658868Y89418D01*
X658868Y85032D01*
X658868Y88306D02*
X646382Y88306D01*
X646382Y75532D02*
X658868Y75532D01*
X646382Y75532D02*
X646382Y79918D01*
X658868Y79918D01*
X658868Y75532D01*
X658868Y78806D02*
X646382Y78806D01*
X646382Y66032D02*
X658868Y66032D01*
X646382Y66032D02*
X646382Y70418D01*
X658868Y70418D01*
X658868Y66032D01*
X658868Y69306D02*
X646382Y69306D01*
X669682Y66032D02*
X682168Y66032D01*
X669682Y66032D02*
X669682Y70418D01*
X682168Y70418D01*
X682168Y66032D01*
X682168Y69306D02*
X669682Y69306D01*
X669682Y85032D02*
X682168Y85032D01*
X669682Y85032D02*
X669682Y89418D01*
X682168Y89418D01*
X682168Y85032D01*
X682168Y88306D02*
X669682Y88306D01*
D13*
X649425Y285375D03*
X666425Y285375D03*
X580700Y468250D03*
X563700Y468250D03*
X601800Y482538D03*
X618800Y482538D03*
D12*
X623000Y368800D03*
X623000Y351800D03*
X600775Y368800D03*
X600775Y351800D03*
D13*
X601800Y598425D03*
X618800Y598425D03*
X580700Y582550D03*
X563700Y582550D03*
X665300Y477775D03*
X682300Y477775D03*
X641025Y461900D03*
X624025Y461900D03*
X580700Y693675D03*
X563700Y693675D03*
X601800Y712725D03*
X618800Y712725D03*
X665300Y595250D03*
X682300Y595250D03*
X641025Y577475D03*
X624025Y577475D03*
X601800Y827025D03*
X618800Y827025D03*
X580700Y811150D03*
X563700Y811150D03*
X665300Y709550D03*
X682300Y709550D03*
X641025Y692088D03*
X624025Y692088D03*
X649425Y941325D03*
X666425Y941325D03*
X649425Y963550D03*
X666425Y963550D03*
X665300Y823850D03*
X682300Y823850D03*
X624025Y806388D03*
X641025Y806388D03*
X916125Y595250D03*
X933125Y595250D03*
X875975Y598425D03*
X858975Y598425D03*
D12*
X829375Y702175D03*
X829375Y685175D03*
D13*
X881200Y690500D03*
X898200Y690500D03*
X916125Y712725D03*
X933125Y712725D03*
X875975Y712725D03*
X858975Y712725D03*
X875975Y827025D03*
X858975Y827025D03*
D12*
X829375Y936000D03*
X829375Y953000D03*
X851600Y936000D03*
X851600Y953000D03*
X851600Y970925D03*
X851600Y987925D03*
X829375Y970925D03*
X829375Y987925D03*
D13*
X881200Y806388D03*
X898200Y806388D03*
D19*
X920000Y415000D03*
X860000Y415000D03*
D28*
X855500Y450000D03*
X924500Y450000D03*
X897000Y380000D03*
X839000Y380000D03*
D19*
X920000Y530000D03*
X860000Y530000D03*
D28*
X855500Y565000D03*
X924500Y565000D03*
X897000Y495000D03*
X839000Y495000D03*
D19*
X580000Y415000D03*
X640000Y415000D03*
D28*
X644500Y380000D03*
X575500Y380000D03*
X603000Y450000D03*
X661000Y450000D03*
D19*
X580000Y530000D03*
X640000Y530000D03*
D28*
X644500Y495000D03*
X575500Y495000D03*
X603000Y565000D03*
X661000Y565000D03*
D19*
X580000Y645000D03*
X640000Y645000D03*
D28*
X644500Y610000D03*
X575500Y610000D03*
X603000Y680000D03*
X661000Y680000D03*
D19*
X580000Y760000D03*
X640000Y760000D03*
D28*
X644500Y725000D03*
X575500Y725000D03*
X603000Y795000D03*
X661000Y795000D03*
D19*
X580000Y875000D03*
X640000Y875000D03*
D28*
X644500Y840000D03*
X575500Y840000D03*
X603000Y910000D03*
X661000Y910000D03*
D19*
X920000Y645000D03*
X860000Y645000D03*
D28*
X855500Y680000D03*
X924500Y680000D03*
X897000Y610000D03*
X839000Y610000D03*
D19*
X920000Y760000D03*
X860000Y760000D03*
D28*
X855500Y795000D03*
X924500Y795000D03*
X897000Y725000D03*
X839000Y725000D03*
D19*
X920000Y875000D03*
X860000Y875000D03*
D28*
X855500Y910000D03*
X924500Y910000D03*
X897000Y840000D03*
X839000Y840000D03*
D12*
X1082525Y86225D03*
X1082525Y69225D03*
D13*
X1113250Y49150D03*
X1096250Y49150D03*
X1113250Y26925D03*
X1096250Y26925D03*
X1099425Y344425D03*
X1116425Y344425D03*
D12*
X1288900Y221625D03*
X1288900Y238625D03*
X1288900Y146550D03*
X1288900Y129550D03*
D14*
X1348025Y465075D03*
X1325025Y465075D03*
D15*
X1307950Y38475D03*
X1307950Y53475D03*
D14*
X1036875Y84075D03*
X1013875Y84075D03*
D16*
X1060300Y101925D03*
X1060300Y78925D03*
X1098400Y267025D03*
X1098400Y244025D03*
X1098400Y304350D03*
X1098400Y327350D03*
D17*
X1307950Y85091D03*
X1307950Y146559D03*
X1320650Y85091D03*
X1333350Y85091D03*
X1320650Y146559D03*
X1333350Y146559D03*
X1346050Y85091D03*
X1346050Y146559D03*
X1358750Y85091D03*
X1371450Y85091D03*
X1358750Y146559D03*
X1371450Y146559D03*
X1384150Y85091D03*
X1384150Y146559D03*
X1307950Y172404D03*
X1307950Y233872D03*
X1320650Y172404D03*
X1333350Y172404D03*
X1320650Y233872D03*
X1333350Y233872D03*
X1346050Y172404D03*
X1346050Y233872D03*
X1358750Y172404D03*
X1371450Y172404D03*
X1358750Y233872D03*
X1371450Y233872D03*
X1384150Y172404D03*
X1384150Y233872D03*
D18*
X1030000Y220000D03*
X1092000Y220000D03*
X1092000Y110000D03*
X1030000Y110000D03*
D19*
X1030000Y165000D03*
D20*
X1075000Y165000D03*
D21*
X1026000Y333200D02*
X1016000Y333200D01*
X1016000Y246800D02*
X1026000Y246800D01*
X1057800Y246800D02*
X1067800Y246800D01*
X1067800Y333200D02*
X1057800Y333200D01*
D22*
X1057800Y318900D03*
X1057800Y261100D03*
D23*
X1070700Y258000D03*
X1070700Y322000D03*
X1070700Y314500D03*
X1070700Y266000D03*
D24*
X1070700Y272500D03*
X1070700Y307500D03*
X1070700Y302500D03*
X1070700Y277500D03*
X1070700Y282500D03*
X1070700Y297500D03*
X1070700Y292500D03*
X1070700Y287500D03*
D11*
X1360000Y960000D03*
X1040000Y40000D03*
X1360000Y40000D03*
X1040000Y960000D03*
D25*
X1380975Y260288D03*
X1355575Y260288D03*
X1330175Y260288D03*
X1304775Y260288D03*
X1304775Y349188D03*
X1330175Y349188D03*
X1355575Y349188D03*
X1380975Y349188D03*
D13*
X1308975Y484125D03*
X1325975Y484125D03*
X1369300Y369825D03*
X1386300Y369825D03*
X1348200Y577788D03*
X1331200Y577788D03*
D12*
X1117450Y264025D03*
X1117450Y247025D03*
X1117450Y307350D03*
X1117450Y324350D03*
D13*
X1386300Y477775D03*
X1369300Y477775D03*
D12*
X1288900Y37475D03*
X1288900Y54475D03*
D26*
X1259500Y92700D03*
X1259500Y118100D03*
X1259500Y67300D03*
X1259500Y41900D03*
X1170500Y118100D03*
X1170500Y92700D03*
X1170500Y67300D03*
X1170500Y41900D03*
X1259500Y212700D03*
X1259500Y238100D03*
X1259500Y187300D03*
X1259500Y161900D03*
X1170500Y238100D03*
X1170500Y212700D03*
X1170500Y187300D03*
X1170500Y161900D03*
X1259500Y332700D03*
X1259500Y358100D03*
X1259500Y307300D03*
X1259500Y281900D03*
X1170500Y358100D03*
X1170500Y332700D03*
X1170500Y307300D03*
X1170500Y281900D03*
X1259500Y452700D03*
X1259500Y478100D03*
X1259500Y427300D03*
X1259500Y401900D03*
X1170500Y478100D03*
X1170500Y452700D03*
X1170500Y427300D03*
X1170500Y401900D03*
X1259500Y572700D03*
X1259500Y598100D03*
X1259500Y547300D03*
X1259500Y521900D03*
X1170500Y598100D03*
X1170500Y572700D03*
X1170500Y547300D03*
X1170500Y521900D03*
X1259500Y692700D03*
X1259500Y718100D03*
X1259500Y667300D03*
X1259500Y641900D03*
X1170500Y718100D03*
X1170500Y692700D03*
X1170500Y667300D03*
X1170500Y641900D03*
X1259500Y812700D03*
X1259500Y838100D03*
X1259500Y787300D03*
X1259500Y761900D03*
X1170500Y838100D03*
X1170500Y812700D03*
X1170500Y787300D03*
X1170500Y761900D03*
X1259500Y932700D03*
X1259500Y958100D03*
X1259500Y907300D03*
X1259500Y881900D03*
X1170500Y958100D03*
X1170500Y932700D03*
X1170500Y907300D03*
X1170500Y881900D03*
D27*
X1108868Y85032D02*
X1096382Y85032D01*
X1096382Y89418D01*
X1108868Y89418D01*
X1108868Y85032D01*
X1108868Y88306D02*
X1096382Y88306D01*
X1096382Y75532D02*
X1108868Y75532D01*
X1096382Y75532D02*
X1096382Y79918D01*
X1108868Y79918D01*
X1108868Y75532D01*
X1108868Y78806D02*
X1096382Y78806D01*
X1096382Y66032D02*
X1108868Y66032D01*
X1096382Y66032D02*
X1096382Y70418D01*
X1108868Y70418D01*
X1108868Y66032D01*
X1108868Y69306D02*
X1096382Y69306D01*
X1119682Y66032D02*
X1132168Y66032D01*
X1119682Y66032D02*
X1119682Y70418D01*
X1132168Y70418D01*
X1132168Y66032D01*
X1132168Y69306D02*
X1119682Y69306D01*
X1119682Y85032D02*
X1132168Y85032D01*
X1119682Y85032D02*
X1119682Y89418D01*
X1132168Y89418D01*
X1132168Y85032D01*
X1132168Y88306D02*
X1119682Y88306D01*
D13*
X1099425Y285375D03*
X1116425Y285375D03*
X1030700Y468250D03*
X1013700Y468250D03*
X1051800Y482538D03*
X1068800Y482538D03*
D12*
X1073000Y368800D03*
X1073000Y351800D03*
X1050775Y368800D03*
X1050775Y351800D03*
D13*
X1051800Y598425D03*
X1068800Y598425D03*
X1030700Y582550D03*
X1013700Y582550D03*
X1115300Y477775D03*
X1132300Y477775D03*
X1091025Y461900D03*
X1074025Y461900D03*
X1030700Y693675D03*
X1013700Y693675D03*
X1051800Y712725D03*
X1068800Y712725D03*
X1115300Y595250D03*
X1132300Y595250D03*
X1091025Y577475D03*
X1074025Y577475D03*
X1051800Y827025D03*
X1068800Y827025D03*
X1030700Y811150D03*
X1013700Y811150D03*
X1115300Y709550D03*
X1132300Y709550D03*
X1091025Y692088D03*
X1074025Y692088D03*
X1099425Y941325D03*
X1116425Y941325D03*
X1099425Y963550D03*
X1116425Y963550D03*
X1115300Y823850D03*
X1132300Y823850D03*
X1074025Y806388D03*
X1091025Y806388D03*
X1366125Y595250D03*
X1383125Y595250D03*
X1325975Y598425D03*
X1308975Y598425D03*
D12*
X1279375Y702175D03*
X1279375Y685175D03*
D13*
X1331200Y690500D03*
X1348200Y690500D03*
X1366125Y712725D03*
X1383125Y712725D03*
X1325975Y712725D03*
X1308975Y712725D03*
X1325975Y827025D03*
X1308975Y827025D03*
D12*
X1279375Y936000D03*
X1279375Y953000D03*
X1301600Y936000D03*
X1301600Y953000D03*
X1301600Y970925D03*
X1301600Y987925D03*
X1279375Y970925D03*
X1279375Y987925D03*
D13*
X1331200Y806388D03*
X1348200Y806388D03*
D19*
X1370000Y415000D03*
X1310000Y415000D03*
D28*
X1305500Y450000D03*
X1374500Y450000D03*
X1347000Y380000D03*
X1289000Y380000D03*
D19*
X1370000Y530000D03*
X1310000Y530000D03*
D28*
X1305500Y565000D03*
X1374500Y565000D03*
X1347000Y495000D03*
X1289000Y495000D03*
D19*
X1030000Y415000D03*
X1090000Y415000D03*
D28*
X1094500Y380000D03*
X1025500Y380000D03*
X1053000Y450000D03*
X1111000Y450000D03*
D19*
X1030000Y530000D03*
X1090000Y530000D03*
D28*
X1094500Y495000D03*
X1025500Y495000D03*
X1053000Y565000D03*
X1111000Y565000D03*
D19*
X1030000Y645000D03*
X1090000Y645000D03*
D28*
X1094500Y610000D03*
X1025500Y610000D03*
X1053000Y680000D03*
X1111000Y680000D03*
D19*
X1030000Y760000D03*
X1090000Y760000D03*
D28*
X1094500Y725000D03*
X1025500Y725000D03*
X1053000Y795000D03*
X1111000Y795000D03*
D19*
X1030000Y875000D03*
X1090000Y875000D03*
D28*
X1094500Y840000D03*
X1025500Y840000D03*
X1053000Y910000D03*
X1111000Y910000D03*
D19*
X1370000Y645000D03*
X1310000Y645000D03*
D28*
X1305500Y680000D03*
X1374500Y680000D03*
X1347000Y610000D03*
X1289000Y610000D03*
D19*
X1370000Y760000D03*
X1310000Y760000D03*
D28*
X1305500Y795000D03*
X1374500Y795000D03*
X1347000Y725000D03*
X1289000Y725000D03*
D19*
X1370000Y875000D03*
X1310000Y875000D03*
D28*
X1305500Y910000D03*
X1374500Y910000D03*
X1347000Y840000D03*
X1289000Y840000D03*
D12*
X182525Y1106225D03*
X182525Y1089225D03*
D13*
X213250Y1069150D03*
X196250Y1069150D03*
X213250Y1046925D03*
X196250Y1046925D03*
X199425Y1364425D03*
X216425Y1364425D03*
D12*
X388900Y1241625D03*
X388900Y1258625D03*
X388900Y1166550D03*
X388900Y1149550D03*
D14*
X448025Y1485075D03*
X425025Y1485075D03*
D15*
X407950Y1058475D03*
X407950Y1073475D03*
D14*
X136875Y1104075D03*
X113875Y1104075D03*
D16*
X160300Y1121925D03*
X160300Y1098925D03*
X198400Y1287025D03*
X198400Y1264025D03*
X198400Y1324350D03*
X198400Y1347350D03*
D17*
X407950Y1105091D03*
X407950Y1166559D03*
X420650Y1105091D03*
X433350Y1105091D03*
X420650Y1166559D03*
X433350Y1166559D03*
X446050Y1105091D03*
X446050Y1166559D03*
X458750Y1105091D03*
X471450Y1105091D03*
X458750Y1166559D03*
X471450Y1166559D03*
X484150Y1105091D03*
X484150Y1166559D03*
X407950Y1192404D03*
X407950Y1253872D03*
X420650Y1192404D03*
X433350Y1192404D03*
X420650Y1253872D03*
X433350Y1253872D03*
X446050Y1192404D03*
X446050Y1253872D03*
X458750Y1192404D03*
X471450Y1192404D03*
X458750Y1253872D03*
X471450Y1253872D03*
X484150Y1192404D03*
X484150Y1253872D03*
D18*
X130000Y1240000D03*
X192000Y1240000D03*
X192000Y1130000D03*
X130000Y1130000D03*
D19*
X130000Y1185000D03*
D20*
X175000Y1185000D03*
D21*
X126000Y1353200D02*
X116000Y1353200D01*
X116000Y1266800D02*
X126000Y1266800D01*
X157800Y1266800D02*
X167800Y1266800D01*
X167800Y1353200D02*
X157800Y1353200D01*
D22*
X157800Y1338900D03*
X157800Y1281100D03*
D23*
X170700Y1278000D03*
X170700Y1342000D03*
X170700Y1334500D03*
X170700Y1286000D03*
D24*
X170700Y1292500D03*
X170700Y1327500D03*
X170700Y1322500D03*
X170700Y1297500D03*
X170700Y1302500D03*
X170700Y1317500D03*
X170700Y1312500D03*
X170700Y1307500D03*
D11*
X460000Y1980000D03*
X140000Y1060000D03*
X460000Y1060000D03*
X140000Y1980000D03*
D25*
X480975Y1280288D03*
X455575Y1280288D03*
X430175Y1280288D03*
X404775Y1280288D03*
X404775Y1369188D03*
X430175Y1369188D03*
X455575Y1369188D03*
X480975Y1369188D03*
D13*
X408975Y1504125D03*
X425975Y1504125D03*
X469300Y1389825D03*
X486300Y1389825D03*
X448200Y1597788D03*
X431200Y1597788D03*
D12*
X217450Y1284025D03*
X217450Y1267025D03*
X217450Y1327350D03*
X217450Y1344350D03*
D13*
X486300Y1497775D03*
X469300Y1497775D03*
D12*
X388900Y1057475D03*
X388900Y1074475D03*
D26*
X359500Y1112700D03*
X359500Y1138100D03*
X359500Y1087300D03*
X359500Y1061900D03*
X270500Y1138100D03*
X270500Y1112700D03*
X270500Y1087300D03*
X270500Y1061900D03*
X359500Y1232700D03*
X359500Y1258100D03*
X359500Y1207300D03*
X359500Y1181900D03*
X270500Y1258100D03*
X270500Y1232700D03*
X270500Y1207300D03*
X270500Y1181900D03*
X359500Y1352700D03*
X359500Y1378100D03*
X359500Y1327300D03*
X359500Y1301900D03*
X270500Y1378100D03*
X270500Y1352700D03*
X270500Y1327300D03*
X270500Y1301900D03*
X359500Y1472700D03*
X359500Y1498100D03*
X359500Y1447300D03*
X359500Y1421900D03*
X270500Y1498100D03*
X270500Y1472700D03*
X270500Y1447300D03*
X270500Y1421900D03*
X359500Y1592700D03*
X359500Y1618100D03*
X359500Y1567300D03*
X359500Y1541900D03*
X270500Y1618100D03*
X270500Y1592700D03*
X270500Y1567300D03*
X270500Y1541900D03*
X359500Y1712700D03*
X359500Y1738100D03*
X359500Y1687300D03*
X359500Y1661900D03*
X270500Y1738100D03*
X270500Y1712700D03*
X270500Y1687300D03*
X270500Y1661900D03*
X359500Y1832700D03*
X359500Y1858100D03*
X359500Y1807300D03*
X359500Y1781900D03*
X270500Y1858100D03*
X270500Y1832700D03*
X270500Y1807300D03*
X270500Y1781900D03*
X359500Y1952700D03*
X359500Y1978100D03*
X359500Y1927300D03*
X359500Y1901900D03*
X270500Y1978100D03*
X270500Y1952700D03*
X270500Y1927300D03*
X270500Y1901900D03*
D27*
X208868Y1105032D02*
X196382Y1105032D01*
X196382Y1109418D01*
X208868Y1109418D01*
X208868Y1105032D01*
X208868Y1108306D02*
X196382Y1108306D01*
X196382Y1095532D02*
X208868Y1095532D01*
X196382Y1095532D02*
X196382Y1099918D01*
X208868Y1099918D01*
X208868Y1095532D01*
X208868Y1098806D02*
X196382Y1098806D01*
X196382Y1086032D02*
X208868Y1086032D01*
X196382Y1086032D02*
X196382Y1090418D01*
X208868Y1090418D01*
X208868Y1086032D01*
X208868Y1089306D02*
X196382Y1089306D01*
X219682Y1086032D02*
X232168Y1086032D01*
X219682Y1086032D02*
X219682Y1090418D01*
X232168Y1090418D01*
X232168Y1086032D01*
X232168Y1089306D02*
X219682Y1089306D01*
X219682Y1105032D02*
X232168Y1105032D01*
X219682Y1105032D02*
X219682Y1109418D01*
X232168Y1109418D01*
X232168Y1105032D01*
X232168Y1108306D02*
X219682Y1108306D01*
D13*
X199425Y1305375D03*
X216425Y1305375D03*
X130700Y1488250D03*
X113700Y1488250D03*
X151800Y1502538D03*
X168800Y1502538D03*
D12*
X173000Y1388800D03*
X173000Y1371800D03*
X150775Y1388800D03*
X150775Y1371800D03*
D13*
X151800Y1618425D03*
X168800Y1618425D03*
X130700Y1602550D03*
X113700Y1602550D03*
X215300Y1497775D03*
X232300Y1497775D03*
X191025Y1481900D03*
X174025Y1481900D03*
X130700Y1713675D03*
X113700Y1713675D03*
X151800Y1732725D03*
X168800Y1732725D03*
X215300Y1615250D03*
X232300Y1615250D03*
X191025Y1597475D03*
X174025Y1597475D03*
X151800Y1847025D03*
X168800Y1847025D03*
X130700Y1831150D03*
X113700Y1831150D03*
X215300Y1729550D03*
X232300Y1729550D03*
X191025Y1712088D03*
X174025Y1712088D03*
X199425Y1961325D03*
X216425Y1961325D03*
X199425Y1983550D03*
X216425Y1983550D03*
X215300Y1843850D03*
X232300Y1843850D03*
X174025Y1826388D03*
X191025Y1826388D03*
X466125Y1615250D03*
X483125Y1615250D03*
X425975Y1618425D03*
X408975Y1618425D03*
D12*
X379375Y1722175D03*
X379375Y1705175D03*
D13*
X431200Y1710500D03*
X448200Y1710500D03*
X466125Y1732725D03*
X483125Y1732725D03*
X425975Y1732725D03*
X408975Y1732725D03*
X425975Y1847025D03*
X408975Y1847025D03*
D12*
X379375Y1956000D03*
X379375Y1973000D03*
X401600Y1956000D03*
X401600Y1973000D03*
X401600Y1990925D03*
X401600Y2007925D03*
X379375Y1990925D03*
X379375Y2007925D03*
D13*
X431200Y1826388D03*
X448200Y1826388D03*
D19*
X470000Y1435000D03*
X410000Y1435000D03*
D28*
X405500Y1470000D03*
X474500Y1470000D03*
X447000Y1400000D03*
X389000Y1400000D03*
D19*
X470000Y1550000D03*
X410000Y1550000D03*
D28*
X405500Y1585000D03*
X474500Y1585000D03*
X447000Y1515000D03*
X389000Y1515000D03*
D19*
X130000Y1435000D03*
X190000Y1435000D03*
D28*
X194500Y1400000D03*
X125500Y1400000D03*
X153000Y1470000D03*
X211000Y1470000D03*
D19*
X130000Y1550000D03*
X190000Y1550000D03*
D28*
X194500Y1515000D03*
X125500Y1515000D03*
X153000Y1585000D03*
X211000Y1585000D03*
D19*
X130000Y1665000D03*
X190000Y1665000D03*
D28*
X194500Y1630000D03*
X125500Y1630000D03*
X153000Y1700000D03*
X211000Y1700000D03*
D19*
X130000Y1780000D03*
X190000Y1780000D03*
D28*
X194500Y1745000D03*
X125500Y1745000D03*
X153000Y1815000D03*
X211000Y1815000D03*
D19*
X130000Y1895000D03*
X190000Y1895000D03*
D28*
X194500Y1860000D03*
X125500Y1860000D03*
X153000Y1930000D03*
X211000Y1930000D03*
D19*
X470000Y1665000D03*
X410000Y1665000D03*
D28*
X405500Y1700000D03*
X474500Y1700000D03*
X447000Y1630000D03*
X389000Y1630000D03*
D19*
X470000Y1780000D03*
X410000Y1780000D03*
D28*
X405500Y1815000D03*
X474500Y1815000D03*
X447000Y1745000D03*
X389000Y1745000D03*
D19*
X470000Y1895000D03*
X410000Y1895000D03*
D28*
X405500Y1930000D03*
X474500Y1930000D03*
X447000Y1860000D03*
X389000Y1860000D03*
D12*
X632525Y1106225D03*
X632525Y1089225D03*
D13*
X663250Y1069150D03*
X646250Y1069150D03*
X663250Y1046925D03*
X646250Y1046925D03*
X649425Y1364425D03*
X666425Y1364425D03*
D12*
X838900Y1241625D03*
X838900Y1258625D03*
X838900Y1166550D03*
X838900Y1149550D03*
D14*
X898025Y1485075D03*
X875025Y1485075D03*
D15*
X857950Y1058475D03*
X857950Y1073475D03*
D14*
X586875Y1104075D03*
X563875Y1104075D03*
D16*
X610300Y1121925D03*
X610300Y1098925D03*
X648400Y1287025D03*
X648400Y1264025D03*
X648400Y1324350D03*
X648400Y1347350D03*
D17*
X857950Y1105091D03*
X857950Y1166559D03*
X870650Y1105091D03*
X883350Y1105091D03*
X870650Y1166559D03*
X883350Y1166559D03*
X896050Y1105091D03*
X896050Y1166559D03*
X908750Y1105091D03*
X921450Y1105091D03*
X908750Y1166559D03*
X921450Y1166559D03*
X934150Y1105091D03*
X934150Y1166559D03*
X857950Y1192404D03*
X857950Y1253872D03*
X870650Y1192404D03*
X883350Y1192404D03*
X870650Y1253872D03*
X883350Y1253872D03*
X896050Y1192404D03*
X896050Y1253872D03*
X908750Y1192404D03*
X921450Y1192404D03*
X908750Y1253872D03*
X921450Y1253872D03*
X934150Y1192404D03*
X934150Y1253872D03*
D18*
X580000Y1240000D03*
X642000Y1240000D03*
X642000Y1130000D03*
X580000Y1130000D03*
D19*
X580000Y1185000D03*
D20*
X625000Y1185000D03*
D21*
X576000Y1353200D02*
X566000Y1353200D01*
X566000Y1266800D02*
X576000Y1266800D01*
X607800Y1266800D02*
X617800Y1266800D01*
X617800Y1353200D02*
X607800Y1353200D01*
D22*
X607800Y1338900D03*
X607800Y1281100D03*
D23*
X620700Y1278000D03*
X620700Y1342000D03*
X620700Y1334500D03*
X620700Y1286000D03*
D24*
X620700Y1292500D03*
X620700Y1327500D03*
X620700Y1322500D03*
X620700Y1297500D03*
X620700Y1302500D03*
X620700Y1317500D03*
X620700Y1312500D03*
X620700Y1307500D03*
D11*
X910000Y1980000D03*
X590000Y1060000D03*
X910000Y1060000D03*
X590000Y1980000D03*
D25*
X930975Y1280288D03*
X905575Y1280288D03*
X880175Y1280288D03*
X854775Y1280288D03*
X854775Y1369188D03*
X880175Y1369188D03*
X905575Y1369188D03*
X930975Y1369188D03*
D13*
X858975Y1504125D03*
X875975Y1504125D03*
X919300Y1389825D03*
X936300Y1389825D03*
X898200Y1597788D03*
X881200Y1597788D03*
D12*
X667450Y1284025D03*
X667450Y1267025D03*
X667450Y1327350D03*
X667450Y1344350D03*
D13*
X936300Y1497775D03*
X919300Y1497775D03*
D12*
X838900Y1057475D03*
X838900Y1074475D03*
D26*
X809500Y1112700D03*
X809500Y1138100D03*
X809500Y1087300D03*
X809500Y1061900D03*
X720500Y1138100D03*
X720500Y1112700D03*
X720500Y1087300D03*
X720500Y1061900D03*
X809500Y1232700D03*
X809500Y1258100D03*
X809500Y1207300D03*
X809500Y1181900D03*
X720500Y1258100D03*
X720500Y1232700D03*
X720500Y1207300D03*
X720500Y1181900D03*
X809500Y1352700D03*
X809500Y1378100D03*
X809500Y1327300D03*
X809500Y1301900D03*
X720500Y1378100D03*
X720500Y1352700D03*
X720500Y1327300D03*
X720500Y1301900D03*
X809500Y1472700D03*
X809500Y1498100D03*
X809500Y1447300D03*
X809500Y1421900D03*
X720500Y1498100D03*
X720500Y1472700D03*
X720500Y1447300D03*
X720500Y1421900D03*
X809500Y1592700D03*
X809500Y1618100D03*
X809500Y1567300D03*
X809500Y1541900D03*
X720500Y1618100D03*
X720500Y1592700D03*
X720500Y1567300D03*
X720500Y1541900D03*
X809500Y1712700D03*
X809500Y1738100D03*
X809500Y1687300D03*
X809500Y1661900D03*
X720500Y1738100D03*
X720500Y1712700D03*
X720500Y1687300D03*
X720500Y1661900D03*
X809500Y1832700D03*
X809500Y1858100D03*
X809500Y1807300D03*
X809500Y1781900D03*
X720500Y1858100D03*
X720500Y1832700D03*
X720500Y1807300D03*
X720500Y1781900D03*
X809500Y1952700D03*
X809500Y1978100D03*
X809500Y1927300D03*
X809500Y1901900D03*
X720500Y1978100D03*
X720500Y1952700D03*
X720500Y1927300D03*
X720500Y1901900D03*
D27*
X658868Y1105032D02*
X646382Y1105032D01*
X646382Y1109418D01*
X658868Y1109418D01*
X658868Y1105032D01*
X658868Y1108306D02*
X646382Y1108306D01*
X646382Y1095532D02*
X658868Y1095532D01*
X646382Y1095532D02*
X646382Y1099918D01*
X658868Y1099918D01*
X658868Y1095532D01*
X658868Y1098806D02*
X646382Y1098806D01*
X646382Y1086032D02*
X658868Y1086032D01*
X646382Y1086032D02*
X646382Y1090418D01*
X658868Y1090418D01*
X658868Y1086032D01*
X658868Y1089306D02*
X646382Y1089306D01*
X669682Y1086032D02*
X682168Y1086032D01*
X669682Y1086032D02*
X669682Y1090418D01*
X682168Y1090418D01*
X682168Y1086032D01*
X682168Y1089306D02*
X669682Y1089306D01*
X669682Y1105032D02*
X682168Y1105032D01*
X669682Y1105032D02*
X669682Y1109418D01*
X682168Y1109418D01*
X682168Y1105032D01*
X682168Y1108306D02*
X669682Y1108306D01*
D13*
X649425Y1305375D03*
X666425Y1305375D03*
X580700Y1488250D03*
X563700Y1488250D03*
X601800Y1502538D03*
X618800Y1502538D03*
D12*
X623000Y1388800D03*
X623000Y1371800D03*
X600775Y1388800D03*
X600775Y1371800D03*
D13*
X601800Y1618425D03*
X618800Y1618425D03*
X580700Y1602550D03*
X563700Y1602550D03*
X665300Y1497775D03*
X682300Y1497775D03*
X641025Y1481900D03*
X624025Y1481900D03*
X580700Y1713675D03*
X563700Y1713675D03*
X601800Y1732725D03*
X618800Y1732725D03*
X665300Y1615250D03*
X682300Y1615250D03*
X641025Y1597475D03*
X624025Y1597475D03*
X601800Y1847025D03*
X618800Y1847025D03*
X580700Y1831150D03*
X563700Y1831150D03*
X665300Y1729550D03*
X682300Y1729550D03*
X641025Y1712088D03*
X624025Y1712088D03*
X649425Y1961325D03*
X666425Y1961325D03*
X649425Y1983550D03*
X666425Y1983550D03*
X665300Y1843850D03*
X682300Y1843850D03*
X624025Y1826388D03*
X641025Y1826388D03*
X916125Y1615250D03*
X933125Y1615250D03*
X875975Y1618425D03*
X858975Y1618425D03*
D12*
X829375Y1722175D03*
X829375Y1705175D03*
D13*
X881200Y1710500D03*
X898200Y1710500D03*
X916125Y1732725D03*
X933125Y1732725D03*
X875975Y1732725D03*
X858975Y1732725D03*
X875975Y1847025D03*
X858975Y1847025D03*
D12*
X829375Y1956000D03*
X829375Y1973000D03*
X851600Y1956000D03*
X851600Y1973000D03*
X851600Y1990925D03*
X851600Y2007925D03*
X829375Y1990925D03*
X829375Y2007925D03*
D13*
X881200Y1826388D03*
X898200Y1826388D03*
D19*
X920000Y1435000D03*
X860000Y1435000D03*
D28*
X855500Y1470000D03*
X924500Y1470000D03*
X897000Y1400000D03*
X839000Y1400000D03*
D19*
X920000Y1550000D03*
X860000Y1550000D03*
D28*
X855500Y1585000D03*
X924500Y1585000D03*
X897000Y1515000D03*
X839000Y1515000D03*
D19*
X580000Y1435000D03*
X640000Y1435000D03*
D28*
X644500Y1400000D03*
X575500Y1400000D03*
X603000Y1470000D03*
X661000Y1470000D03*
D19*
X580000Y1550000D03*
X640000Y1550000D03*
D28*
X644500Y1515000D03*
X575500Y1515000D03*
X603000Y1585000D03*
X661000Y1585000D03*
D19*
X580000Y1665000D03*
X640000Y1665000D03*
D28*
X644500Y1630000D03*
X575500Y1630000D03*
X603000Y1700000D03*
X661000Y1700000D03*
D19*
X580000Y1780000D03*
X640000Y1780000D03*
D28*
X644500Y1745000D03*
X575500Y1745000D03*
X603000Y1815000D03*
X661000Y1815000D03*
D19*
X580000Y1895000D03*
X640000Y1895000D03*
D28*
X644500Y1860000D03*
X575500Y1860000D03*
X603000Y1930000D03*
X661000Y1930000D03*
D19*
X920000Y1665000D03*
X860000Y1665000D03*
D28*
X855500Y1700000D03*
X924500Y1700000D03*
X897000Y1630000D03*
X839000Y1630000D03*
D19*
X920000Y1780000D03*
X860000Y1780000D03*
D28*
X855500Y1815000D03*
X924500Y1815000D03*
X897000Y1745000D03*
X839000Y1745000D03*
D19*
X920000Y1895000D03*
X860000Y1895000D03*
D28*
X855500Y1930000D03*
X924500Y1930000D03*
X897000Y1860000D03*
X839000Y1860000D03*
D12*
X1082525Y1106225D03*
X1082525Y1089225D03*
D13*
X1113250Y1069150D03*
X1096250Y1069150D03*
X1113250Y1046925D03*
X1096250Y1046925D03*
X1099425Y1364425D03*
X1116425Y1364425D03*
D12*
X1288900Y1241625D03*
X1288900Y1258625D03*
X1288900Y1166550D03*
X1288900Y1149550D03*
D14*
X1348025Y1485075D03*
X1325025Y1485075D03*
D15*
X1307950Y1058475D03*
X1307950Y1073475D03*
D14*
X1036875Y1104075D03*
X1013875Y1104075D03*
D16*
X1060300Y1121925D03*
X1060300Y1098925D03*
X1098400Y1287025D03*
X1098400Y1264025D03*
X1098400Y1324350D03*
X1098400Y1347350D03*
D17*
X1307950Y1105091D03*
X1307950Y1166559D03*
X1320650Y1105091D03*
X1333350Y1105091D03*
X1320650Y1166559D03*
X1333350Y1166559D03*
X1346050Y1105091D03*
X1346050Y1166559D03*
X1358750Y1105091D03*
X1371450Y1105091D03*
X1358750Y1166559D03*
X1371450Y1166559D03*
X1384150Y1105091D03*
X1384150Y1166559D03*
X1307950Y1192404D03*
X1307950Y1253872D03*
X1320650Y1192404D03*
X1333350Y1192404D03*
X1320650Y1253872D03*
X1333350Y1253872D03*
X1346050Y1192404D03*
X1346050Y1253872D03*
X1358750Y1192404D03*
X1371450Y1192404D03*
X1358750Y1253872D03*
X1371450Y1253872D03*
X1384150Y1192404D03*
X1384150Y1253872D03*
D18*
X1030000Y1240000D03*
X1092000Y1240000D03*
X1092000Y1130000D03*
X1030000Y1130000D03*
D19*
X1030000Y1185000D03*
D20*
X1075000Y1185000D03*
D21*
X1026000Y1353200D02*
X1016000Y1353200D01*
X1016000Y1266800D02*
X1026000Y1266800D01*
X1057800Y1266800D02*
X1067800Y1266800D01*
X1067800Y1353200D02*
X1057800Y1353200D01*
D22*
X1057800Y1338900D03*
X1057800Y1281100D03*
D23*
X1070700Y1278000D03*
X1070700Y1342000D03*
X1070700Y1334500D03*
X1070700Y1286000D03*
D24*
X1070700Y1292500D03*
X1070700Y1327500D03*
X1070700Y1322500D03*
X1070700Y1297500D03*
X1070700Y1302500D03*
X1070700Y1317500D03*
X1070700Y1312500D03*
X1070700Y1307500D03*
D11*
X1360000Y1980000D03*
X1040000Y1060000D03*
X1360000Y1060000D03*
X1040000Y1980000D03*
D25*
X1380975Y1280288D03*
X1355575Y1280288D03*
X1330175Y1280288D03*
X1304775Y1280288D03*
X1304775Y1369188D03*
X1330175Y1369188D03*
X1355575Y1369188D03*
X1380975Y1369188D03*
D13*
X1308975Y1504125D03*
X1325975Y1504125D03*
X1369300Y1389825D03*
X1386300Y1389825D03*
X1348200Y1597788D03*
X1331200Y1597788D03*
D12*
X1117450Y1284025D03*
X1117450Y1267025D03*
X1117450Y1327350D03*
X1117450Y1344350D03*
D13*
X1386300Y1497775D03*
X1369300Y1497775D03*
D12*
X1288900Y1057475D03*
X1288900Y1074475D03*
D26*
X1259500Y1112700D03*
X1259500Y1138100D03*
X1259500Y1087300D03*
X1259500Y1061900D03*
X1170500Y1138100D03*
X1170500Y1112700D03*
X1170500Y1087300D03*
X1170500Y1061900D03*
X1259500Y1232700D03*
X1259500Y1258100D03*
X1259500Y1207300D03*
X1259500Y1181900D03*
X1170500Y1258100D03*
X1170500Y1232700D03*
X1170500Y1207300D03*
X1170500Y1181900D03*
X1259500Y1352700D03*
X1259500Y1378100D03*
X1259500Y1327300D03*
X1259500Y1301900D03*
X1170500Y1378100D03*
X1170500Y1352700D03*
X1170500Y1327300D03*
X1170500Y1301900D03*
X1259500Y1472700D03*
X1259500Y1498100D03*
X1259500Y1447300D03*
X1259500Y1421900D03*
X1170500Y1498100D03*
X1170500Y1472700D03*
X1170500Y1447300D03*
X1170500Y1421900D03*
X1259500Y1592700D03*
X1259500Y1618100D03*
X1259500Y1567300D03*
X1259500Y1541900D03*
X1170500Y1618100D03*
X1170500Y1592700D03*
X1170500Y1567300D03*
X1170500Y1541900D03*
X1259500Y1712700D03*
X1259500Y1738100D03*
X1259500Y1687300D03*
X1259500Y1661900D03*
X1170500Y1738100D03*
X1170500Y1712700D03*
X1170500Y1687300D03*
X1170500Y1661900D03*
X1259500Y1832700D03*
X1259500Y1858100D03*
X1259500Y1807300D03*
X1259500Y1781900D03*
X1170500Y1858100D03*
X1170500Y1832700D03*
X1170500Y1807300D03*
X1170500Y1781900D03*
X1259500Y1952700D03*
X1259500Y1978100D03*
X1259500Y1927300D03*
X1259500Y1901900D03*
X1170500Y1978100D03*
X1170500Y1952700D03*
X1170500Y1927300D03*
X1170500Y1901900D03*
D27*
X1108868Y1105032D02*
X1096382Y1105032D01*
X1096382Y1109418D01*
X1108868Y1109418D01*
X1108868Y1105032D01*
X1108868Y1108306D02*
X1096382Y1108306D01*
X1096382Y1095532D02*
X1108868Y1095532D01*
X1096382Y1095532D02*
X1096382Y1099918D01*
X1108868Y1099918D01*
X1108868Y1095532D01*
X1108868Y1098806D02*
X1096382Y1098806D01*
X1096382Y1086032D02*
X1108868Y1086032D01*
X1096382Y1086032D02*
X1096382Y1090418D01*
X1108868Y1090418D01*
X1108868Y1086032D01*
X1108868Y1089306D02*
X1096382Y1089306D01*
X1119682Y1086032D02*
X1132168Y1086032D01*
X1119682Y1086032D02*
X1119682Y1090418D01*
X1132168Y1090418D01*
X1132168Y1086032D01*
X1132168Y1089306D02*
X1119682Y1089306D01*
X1119682Y1105032D02*
X1132168Y1105032D01*
X1119682Y1105032D02*
X1119682Y1109418D01*
X1132168Y1109418D01*
X1132168Y1105032D01*
X1132168Y1108306D02*
X1119682Y1108306D01*
D13*
X1099425Y1305375D03*
X1116425Y1305375D03*
X1030700Y1488250D03*
X1013700Y1488250D03*
X1051800Y1502538D03*
X1068800Y1502538D03*
D12*
X1073000Y1388800D03*
X1073000Y1371800D03*
X1050775Y1388800D03*
X1050775Y1371800D03*
D13*
X1051800Y1618425D03*
X1068800Y1618425D03*
X1030700Y1602550D03*
X1013700Y1602550D03*
X1115300Y1497775D03*
X1132300Y1497775D03*
X1091025Y1481900D03*
X1074025Y1481900D03*
X1030700Y1713675D03*
X1013700Y1713675D03*
X1051800Y1732725D03*
X1068800Y1732725D03*
X1115300Y1615250D03*
X1132300Y1615250D03*
X1091025Y1597475D03*
X1074025Y1597475D03*
X1051800Y1847025D03*
X1068800Y1847025D03*
X1030700Y1831150D03*
X1013700Y1831150D03*
X1115300Y1729550D03*
X1132300Y1729550D03*
X1091025Y1712088D03*
X1074025Y1712088D03*
X1099425Y1961325D03*
X1116425Y1961325D03*
X1099425Y1983550D03*
X1116425Y1983550D03*
X1115300Y1843850D03*
X1132300Y1843850D03*
X1074025Y1826388D03*
X1091025Y1826388D03*
X1366125Y1615250D03*
X1383125Y1615250D03*
X1325975Y1618425D03*
X1308975Y1618425D03*
D12*
X1279375Y1722175D03*
X1279375Y1705175D03*
D13*
X1331200Y1710500D03*
X1348200Y1710500D03*
X1366125Y1732725D03*
X1383125Y1732725D03*
X1325975Y1732725D03*
X1308975Y1732725D03*
X1325975Y1847025D03*
X1308975Y1847025D03*
D12*
X1279375Y1956000D03*
X1279375Y1973000D03*
X1301600Y1956000D03*
X1301600Y1973000D03*
X1301600Y1990925D03*
X1301600Y2007925D03*
X1279375Y1990925D03*
X1279375Y2007925D03*
D13*
X1331200Y1826388D03*
X1348200Y1826388D03*
D19*
X1370000Y1435000D03*
X1310000Y1435000D03*
D28*
X1305500Y1470000D03*
X1374500Y1470000D03*
X1347000Y1400000D03*
X1289000Y1400000D03*
D19*
X1370000Y1550000D03*
X1310000Y1550000D03*
D28*
X1305500Y1585000D03*
X1374500Y1585000D03*
X1347000Y1515000D03*
X1289000Y1515000D03*
D19*
X1030000Y1435000D03*
X1090000Y1435000D03*
D28*
X1094500Y1400000D03*
X1025500Y1400000D03*
X1053000Y1470000D03*
X1111000Y1470000D03*
D19*
X1030000Y1550000D03*
X1090000Y1550000D03*
D28*
X1094500Y1515000D03*
X1025500Y1515000D03*
X1053000Y1585000D03*
X1111000Y1585000D03*
D19*
X1030000Y1665000D03*
X1090000Y1665000D03*
D28*
X1094500Y1630000D03*
X1025500Y1630000D03*
X1053000Y1700000D03*
X1111000Y1700000D03*
D19*
X1030000Y1780000D03*
X1090000Y1780000D03*
D28*
X1094500Y1745000D03*
X1025500Y1745000D03*
X1053000Y1815000D03*
X1111000Y1815000D03*
D19*
X1030000Y1895000D03*
X1090000Y1895000D03*
D28*
X1094500Y1860000D03*
X1025500Y1860000D03*
X1053000Y1930000D03*
X1111000Y1930000D03*
D19*
X1370000Y1665000D03*
X1310000Y1665000D03*
D28*
X1305500Y1700000D03*
X1374500Y1700000D03*
X1347000Y1630000D03*
X1289000Y1630000D03*
D19*
X1370000Y1780000D03*
X1310000Y1780000D03*
D28*
X1305500Y1815000D03*
X1374500Y1815000D03*
X1347000Y1745000D03*
X1289000Y1745000D03*
D19*
X1370000Y1895000D03*
X1310000Y1895000D03*
D28*
X1305500Y1930000D03*
X1374500Y1930000D03*
X1347000Y1860000D03*
X1289000Y1860000D03*
D29*
X14000Y1760100D03*
D30*
X20650Y1760100D03*
D31*
X24000Y1760100D03*
D32*
X33150Y1760100D03*
D31*
X37300Y1760100D03*
D33*
X44800Y1760100D03*
D34*
X51500Y1760100D03*
D32*
X63150Y1760100D03*
D31*
X67300Y1760100D03*
D29*
X14000Y1760200D03*
D30*
X20650Y1760200D03*
D31*
X24000Y1760200D03*
D32*
X33150Y1760200D03*
D31*
X37300Y1760200D03*
D33*
X44800Y1760200D03*
D34*
X51500Y1760200D03*
D32*
X63150Y1760200D03*
D31*
X67300Y1760200D03*
D29*
X14000Y1760300D03*
D30*
X20650Y1760300D03*
D31*
X24000Y1760300D03*
D32*
X33150Y1760300D03*
D31*
X37300Y1760300D03*
D33*
X44800Y1760300D03*
D34*
X51500Y1760300D03*
D32*
X63150Y1760300D03*
D31*
X67300Y1760300D03*
D29*
X14000Y1760400D03*
D30*
X20650Y1760400D03*
D31*
X24000Y1760400D03*
D32*
X33150Y1760400D03*
D31*
X37300Y1760400D03*
D33*
X44800Y1760400D03*
D34*
X51500Y1760400D03*
D32*
X63150Y1760400D03*
D31*
X67300Y1760400D03*
D29*
X14000Y1760500D03*
D30*
X20650Y1760500D03*
D31*
X24000Y1760500D03*
D32*
X33150Y1760500D03*
D31*
X37300Y1760500D03*
D33*
X44800Y1760500D03*
D34*
X51500Y1760500D03*
D32*
X63150Y1760500D03*
D31*
X67300Y1760500D03*
D29*
X14000Y1760600D03*
D30*
X20650Y1760600D03*
D31*
X24000Y1760600D03*
D32*
X33150Y1760600D03*
D31*
X37300Y1760600D03*
D33*
X44800Y1760600D03*
D34*
X51500Y1760600D03*
D32*
X63150Y1760600D03*
D31*
X67300Y1760600D03*
D29*
X14000Y1760700D03*
D30*
X20650Y1760700D03*
D31*
X24000Y1760700D03*
D32*
X33150Y1760700D03*
D31*
X37300Y1760700D03*
D33*
X44800Y1760700D03*
D34*
X51500Y1760700D03*
D32*
X63150Y1760700D03*
D31*
X67300Y1760700D03*
D29*
X14000Y1760800D03*
D30*
X20650Y1760800D03*
D31*
X24000Y1760800D03*
D32*
X33150Y1760800D03*
D31*
X37300Y1760800D03*
D33*
X44800Y1760800D03*
D34*
X51500Y1760800D03*
D32*
X63150Y1760800D03*
D31*
X67300Y1760800D03*
D29*
X14000Y1760900D03*
D30*
X20650Y1760900D03*
D31*
X24000Y1760900D03*
D32*
X33150Y1760900D03*
D31*
X37300Y1760900D03*
D33*
X44800Y1760900D03*
D34*
X51500Y1760900D03*
D32*
X63150Y1760900D03*
D31*
X67300Y1760900D03*
D29*
X14000Y1761000D03*
D30*
X20650Y1761000D03*
D31*
X24000Y1761000D03*
D32*
X33150Y1761000D03*
D31*
X37300Y1761000D03*
D33*
X44800Y1761000D03*
D34*
X51500Y1761000D03*
D32*
X63150Y1761000D03*
D31*
X67300Y1761000D03*
D29*
X14000Y1761100D03*
D30*
X20650Y1761100D03*
D31*
X24000Y1761100D03*
D32*
X33150Y1761100D03*
D31*
X37300Y1761100D03*
D33*
X44800Y1761100D03*
D34*
X51500Y1761100D03*
D32*
X63150Y1761100D03*
D31*
X67300Y1761100D03*
D29*
X14000Y1761200D03*
D30*
X20650Y1761200D03*
D31*
X24000Y1761200D03*
D32*
X33150Y1761200D03*
D31*
X37300Y1761200D03*
D33*
X44800Y1761200D03*
D34*
X51500Y1761200D03*
D32*
X63150Y1761200D03*
D31*
X67300Y1761200D03*
D29*
X14000Y1761300D03*
D30*
X20650Y1761300D03*
D31*
X24000Y1761300D03*
D32*
X33150Y1761300D03*
D31*
X37300Y1761300D03*
D33*
X44800Y1761300D03*
D34*
X51500Y1761300D03*
D32*
X63150Y1761300D03*
D31*
X67300Y1761300D03*
D29*
X14000Y1761400D03*
D30*
X20650Y1761400D03*
D31*
X24000Y1761400D03*
D32*
X33150Y1761400D03*
D31*
X37300Y1761400D03*
D33*
X44800Y1761400D03*
D34*
X51500Y1761400D03*
D32*
X63150Y1761400D03*
D31*
X67300Y1761400D03*
D29*
X14000Y1761500D03*
D30*
X20650Y1761500D03*
D31*
X24000Y1761500D03*
D32*
X33150Y1761500D03*
D31*
X37300Y1761500D03*
D33*
X44800Y1761500D03*
D34*
X51500Y1761500D03*
D32*
X63150Y1761500D03*
D31*
X67300Y1761500D03*
D29*
X14000Y1761600D03*
D30*
X20650Y1761600D03*
D31*
X24000Y1761600D03*
D32*
X33150Y1761600D03*
D31*
X37300Y1761600D03*
D33*
X44800Y1761600D03*
D34*
X51500Y1761600D03*
D32*
X63150Y1761600D03*
D31*
X67300Y1761600D03*
D29*
X14000Y1761700D03*
D30*
X20650Y1761700D03*
D31*
X27300Y1761700D03*
D35*
X32350Y1761700D03*
D33*
X46500Y1761700D03*
D30*
X50650Y1761700D03*
D35*
X57350Y1761700D03*
D31*
X62300Y1761700D03*
D30*
X65650Y1761700D03*
D29*
X14000Y1761800D03*
D30*
X20650Y1761800D03*
D31*
X27300Y1761800D03*
D35*
X32350Y1761800D03*
D33*
X46500Y1761800D03*
D30*
X50650Y1761800D03*
D35*
X57350Y1761800D03*
D31*
X62300Y1761800D03*
D30*
X65650Y1761800D03*
D29*
X14000Y1761900D03*
D30*
X20650Y1761900D03*
D31*
X27300Y1761900D03*
D35*
X32350Y1761900D03*
D33*
X46500Y1761900D03*
D30*
X50650Y1761900D03*
D35*
X57350Y1761900D03*
D31*
X62300Y1761900D03*
D30*
X65650Y1761900D03*
D29*
X14000Y1762000D03*
D30*
X20650Y1762000D03*
D31*
X27300Y1762000D03*
D35*
X32350Y1762000D03*
D33*
X46500Y1762000D03*
D30*
X50650Y1762000D03*
D35*
X57350Y1762000D03*
D31*
X62300Y1762000D03*
D30*
X65650Y1762000D03*
D29*
X14000Y1762100D03*
D30*
X20650Y1762100D03*
D31*
X27300Y1762100D03*
D35*
X32350Y1762100D03*
D33*
X46500Y1762100D03*
D30*
X50650Y1762100D03*
D35*
X57350Y1762100D03*
D31*
X62300Y1762100D03*
D30*
X65650Y1762100D03*
D29*
X14000Y1762200D03*
D30*
X20650Y1762200D03*
D31*
X27300Y1762200D03*
D35*
X32350Y1762200D03*
D33*
X46500Y1762200D03*
D30*
X50650Y1762200D03*
D35*
X57350Y1762200D03*
D31*
X62300Y1762200D03*
D30*
X65650Y1762200D03*
D29*
X14000Y1762300D03*
D30*
X20650Y1762300D03*
D31*
X27300Y1762300D03*
D35*
X32350Y1762300D03*
D33*
X46500Y1762300D03*
D30*
X50650Y1762300D03*
D35*
X57350Y1762300D03*
D31*
X62300Y1762300D03*
D30*
X65650Y1762300D03*
D29*
X14000Y1762400D03*
D30*
X20650Y1762400D03*
D31*
X27300Y1762400D03*
D35*
X32350Y1762400D03*
D33*
X46500Y1762400D03*
D30*
X50650Y1762400D03*
D35*
X57350Y1762400D03*
D31*
X62300Y1762400D03*
D30*
X65650Y1762400D03*
D29*
X14000Y1762500D03*
D30*
X20650Y1762500D03*
D31*
X27300Y1762500D03*
D35*
X32350Y1762500D03*
D33*
X46500Y1762500D03*
D30*
X50650Y1762500D03*
D35*
X57350Y1762500D03*
D31*
X62300Y1762500D03*
D30*
X65650Y1762500D03*
D29*
X14000Y1762600D03*
D30*
X20650Y1762600D03*
D31*
X27300Y1762600D03*
D35*
X32350Y1762600D03*
D33*
X46500Y1762600D03*
D30*
X50650Y1762600D03*
D35*
X57350Y1762600D03*
D31*
X62300Y1762600D03*
D30*
X65650Y1762600D03*
D29*
X14000Y1762700D03*
D30*
X20650Y1762700D03*
D31*
X27300Y1762700D03*
D35*
X32350Y1762700D03*
D33*
X46500Y1762700D03*
D30*
X50650Y1762700D03*
D35*
X57350Y1762700D03*
D31*
X62300Y1762700D03*
D30*
X65650Y1762700D03*
D29*
X14000Y1762800D03*
D30*
X20650Y1762800D03*
D31*
X27300Y1762800D03*
D35*
X32350Y1762800D03*
D33*
X46500Y1762800D03*
D30*
X50650Y1762800D03*
D35*
X57350Y1762800D03*
D31*
X62300Y1762800D03*
D30*
X65650Y1762800D03*
D29*
X14000Y1762900D03*
D30*
X20650Y1762900D03*
D31*
X27300Y1762900D03*
D35*
X32350Y1762900D03*
D33*
X46500Y1762900D03*
D30*
X50650Y1762900D03*
D35*
X57350Y1762900D03*
D31*
X62300Y1762900D03*
D30*
X65650Y1762900D03*
D29*
X14000Y1763000D03*
D30*
X20650Y1763000D03*
D31*
X27300Y1763000D03*
D35*
X32350Y1763000D03*
D33*
X46500Y1763000D03*
D30*
X50650Y1763000D03*
D35*
X57350Y1763000D03*
D31*
X62300Y1763000D03*
D30*
X65650Y1763000D03*
D29*
X14000Y1763100D03*
D30*
X20650Y1763100D03*
D31*
X27300Y1763100D03*
D35*
X32350Y1763100D03*
D33*
X46500Y1763100D03*
D30*
X50650Y1763100D03*
D35*
X57350Y1763100D03*
D31*
X62300Y1763100D03*
D30*
X65650Y1763100D03*
D29*
X14000Y1763200D03*
D30*
X20650Y1763200D03*
D31*
X27300Y1763200D03*
D35*
X32350Y1763200D03*
D33*
X46500Y1763200D03*
D30*
X50650Y1763200D03*
D35*
X57350Y1763200D03*
D31*
X62300Y1763200D03*
D30*
X65650Y1763200D03*
D29*
X14000Y1763300D03*
D30*
X20650Y1763300D03*
D31*
X27300Y1763300D03*
D35*
X32350Y1763300D03*
D33*
X46500Y1763300D03*
D30*
X50650Y1763300D03*
D35*
X57350Y1763300D03*
D31*
X62300Y1763300D03*
D30*
X65650Y1763300D03*
D31*
X14000Y1763400D03*
X17300Y1763400D03*
D35*
X23950Y1763400D03*
D31*
X32300Y1763400D03*
X37300Y1763400D03*
D32*
X43150Y1763400D03*
D31*
X47300Y1763400D03*
D33*
X51500Y1763400D03*
D30*
X55650Y1763400D03*
D34*
X64800Y1763400D03*
D31*
X14000Y1763500D03*
X17300Y1763500D03*
D35*
X23950Y1763500D03*
D31*
X32300Y1763500D03*
X37300Y1763500D03*
D32*
X43150Y1763500D03*
D31*
X47300Y1763500D03*
D33*
X51500Y1763500D03*
D30*
X55650Y1763500D03*
D34*
X64800Y1763500D03*
D31*
X14000Y1763600D03*
X17300Y1763600D03*
D35*
X23950Y1763600D03*
D31*
X32300Y1763600D03*
X37300Y1763600D03*
D32*
X43150Y1763600D03*
D31*
X47300Y1763600D03*
D33*
X51500Y1763600D03*
D30*
X55650Y1763600D03*
D34*
X64800Y1763600D03*
D31*
X14000Y1763700D03*
X17300Y1763700D03*
D35*
X23950Y1763700D03*
D31*
X32300Y1763700D03*
X37300Y1763700D03*
D32*
X43150Y1763700D03*
D31*
X47300Y1763700D03*
D33*
X51500Y1763700D03*
D30*
X55650Y1763700D03*
D34*
X64800Y1763700D03*
D31*
X14000Y1763800D03*
X17300Y1763800D03*
D35*
X23950Y1763800D03*
D31*
X32300Y1763800D03*
X37300Y1763800D03*
D32*
X43150Y1763800D03*
D31*
X47300Y1763800D03*
D33*
X51500Y1763800D03*
D30*
X55650Y1763800D03*
D34*
X64800Y1763800D03*
D31*
X14000Y1763900D03*
X17300Y1763900D03*
D35*
X23950Y1763900D03*
D31*
X32300Y1763900D03*
X37300Y1763900D03*
D32*
X43150Y1763900D03*
D31*
X47300Y1763900D03*
D33*
X51500Y1763900D03*
D30*
X55650Y1763900D03*
D34*
X64800Y1763900D03*
D31*
X14000Y1764000D03*
X17300Y1764000D03*
D35*
X23950Y1764000D03*
D31*
X32300Y1764000D03*
X37300Y1764000D03*
D32*
X43150Y1764000D03*
D31*
X47300Y1764000D03*
D33*
X51500Y1764000D03*
D30*
X55650Y1764000D03*
D34*
X64800Y1764000D03*
D31*
X14000Y1764100D03*
X17300Y1764100D03*
D35*
X23950Y1764100D03*
D31*
X32300Y1764100D03*
X37300Y1764100D03*
D32*
X43150Y1764100D03*
D31*
X47300Y1764100D03*
D33*
X51500Y1764100D03*
D30*
X55650Y1764100D03*
D34*
X64800Y1764100D03*
D31*
X14000Y1764200D03*
X17300Y1764200D03*
D35*
X23950Y1764200D03*
D31*
X32300Y1764200D03*
X37300Y1764200D03*
D32*
X43150Y1764200D03*
D31*
X47300Y1764200D03*
D33*
X51500Y1764200D03*
D30*
X55650Y1764200D03*
D34*
X64800Y1764200D03*
D31*
X14000Y1764300D03*
X17300Y1764300D03*
D35*
X23950Y1764300D03*
D31*
X32300Y1764300D03*
X37300Y1764300D03*
D32*
X43150Y1764300D03*
D31*
X47300Y1764300D03*
D33*
X51500Y1764300D03*
D30*
X55650Y1764300D03*
D34*
X64800Y1764300D03*
D31*
X14000Y1764400D03*
X17300Y1764400D03*
D35*
X23950Y1764400D03*
D31*
X32300Y1764400D03*
X37300Y1764400D03*
D32*
X43150Y1764400D03*
D31*
X47300Y1764400D03*
D33*
X51500Y1764400D03*
D30*
X55650Y1764400D03*
D34*
X64800Y1764400D03*
D31*
X14000Y1764500D03*
X17300Y1764500D03*
D35*
X23950Y1764500D03*
D31*
X32300Y1764500D03*
X37300Y1764500D03*
D32*
X43150Y1764500D03*
D31*
X47300Y1764500D03*
D33*
X51500Y1764500D03*
D30*
X55650Y1764500D03*
D34*
X64800Y1764500D03*
D31*
X14000Y1764600D03*
X17300Y1764600D03*
D35*
X23950Y1764600D03*
D31*
X32300Y1764600D03*
X37300Y1764600D03*
D32*
X43150Y1764600D03*
D31*
X47300Y1764600D03*
D33*
X51500Y1764600D03*
D30*
X55650Y1764600D03*
D34*
X64800Y1764600D03*
D31*
X14000Y1764700D03*
X17300Y1764700D03*
D35*
X23950Y1764700D03*
D31*
X32300Y1764700D03*
X37300Y1764700D03*
D32*
X43150Y1764700D03*
D31*
X47300Y1764700D03*
D33*
X51500Y1764700D03*
D30*
X55650Y1764700D03*
D34*
X64800Y1764700D03*
D31*
X14000Y1764800D03*
X17300Y1764800D03*
D35*
X23950Y1764800D03*
D31*
X32300Y1764800D03*
X37300Y1764800D03*
D32*
X43150Y1764800D03*
D31*
X47300Y1764800D03*
D33*
X51500Y1764800D03*
D30*
X55650Y1764800D03*
D34*
X64800Y1764800D03*
D31*
X14000Y1764900D03*
X17300Y1764900D03*
D35*
X23950Y1764900D03*
D31*
X32300Y1764900D03*
X37300Y1764900D03*
D32*
X43150Y1764900D03*
D31*
X47300Y1764900D03*
D33*
X51500Y1764900D03*
D30*
X55650Y1764900D03*
D34*
X64800Y1764900D03*
D31*
X14000Y1765000D03*
X17300Y1765000D03*
D35*
X23950Y1765000D03*
D31*
X32300Y1765000D03*
X37300Y1765000D03*
D32*
X43150Y1765000D03*
D31*
X47300Y1765000D03*
D33*
X51500Y1765000D03*
D30*
X55650Y1765000D03*
D34*
X64800Y1765000D03*
D30*
X10650Y1765100D03*
D31*
X14000Y1765100D03*
D33*
X21500Y1765100D03*
D35*
X30650Y1765100D03*
D30*
X45650Y1765100D03*
X55650Y1765100D03*
D29*
X62300Y1765100D03*
D30*
X10650Y1765200D03*
D31*
X14000Y1765200D03*
D33*
X21500Y1765200D03*
D35*
X30650Y1765200D03*
D30*
X45650Y1765200D03*
X55650Y1765200D03*
D29*
X62300Y1765200D03*
D30*
X10650Y1765300D03*
D31*
X14000Y1765300D03*
D33*
X21500Y1765300D03*
D35*
X30650Y1765300D03*
D30*
X45650Y1765300D03*
X55650Y1765300D03*
D29*
X62300Y1765300D03*
D30*
X10650Y1765400D03*
D31*
X14000Y1765400D03*
D33*
X21500Y1765400D03*
D35*
X30650Y1765400D03*
D30*
X45650Y1765400D03*
X55650Y1765400D03*
D29*
X62300Y1765400D03*
D30*
X10650Y1765500D03*
D31*
X14000Y1765500D03*
D33*
X21500Y1765500D03*
D35*
X30650Y1765500D03*
D30*
X45650Y1765500D03*
X55650Y1765500D03*
D29*
X62300Y1765500D03*
D30*
X10650Y1765600D03*
D31*
X14000Y1765600D03*
D33*
X21500Y1765600D03*
D35*
X30650Y1765600D03*
D30*
X45650Y1765600D03*
X55650Y1765600D03*
D29*
X62300Y1765600D03*
D30*
X10650Y1765700D03*
D31*
X14000Y1765700D03*
D33*
X21500Y1765700D03*
D35*
X30650Y1765700D03*
D30*
X45650Y1765700D03*
X55650Y1765700D03*
D29*
X62300Y1765700D03*
D30*
X10650Y1765800D03*
D31*
X14000Y1765800D03*
D33*
X21500Y1765800D03*
D35*
X30650Y1765800D03*
D30*
X45650Y1765800D03*
X55650Y1765800D03*
D29*
X62300Y1765800D03*
D30*
X10650Y1765900D03*
D31*
X14000Y1765900D03*
D33*
X21500Y1765900D03*
D35*
X30650Y1765900D03*
D30*
X45650Y1765900D03*
X55650Y1765900D03*
D29*
X62300Y1765900D03*
D30*
X10650Y1766000D03*
D31*
X14000Y1766000D03*
D33*
X21500Y1766000D03*
D35*
X30650Y1766000D03*
D30*
X45650Y1766000D03*
X55650Y1766000D03*
D29*
X62300Y1766000D03*
D30*
X10650Y1766100D03*
D31*
X14000Y1766100D03*
D33*
X21500Y1766100D03*
D35*
X30650Y1766100D03*
D30*
X45650Y1766100D03*
X55650Y1766100D03*
D29*
X62300Y1766100D03*
D30*
X10650Y1766200D03*
D31*
X14000Y1766200D03*
D33*
X21500Y1766200D03*
D35*
X30650Y1766200D03*
D30*
X45650Y1766200D03*
X55650Y1766200D03*
D29*
X62300Y1766200D03*
D30*
X10650Y1766300D03*
D31*
X14000Y1766300D03*
D33*
X21500Y1766300D03*
D35*
X30650Y1766300D03*
D30*
X45650Y1766300D03*
X55650Y1766300D03*
D29*
X62300Y1766300D03*
D30*
X10650Y1766400D03*
D31*
X14000Y1766400D03*
D33*
X21500Y1766400D03*
D35*
X30650Y1766400D03*
D30*
X45650Y1766400D03*
X55650Y1766400D03*
D29*
X62300Y1766400D03*
D30*
X10650Y1766500D03*
D31*
X14000Y1766500D03*
D33*
X21500Y1766500D03*
D35*
X30650Y1766500D03*
D30*
X45650Y1766500D03*
X55650Y1766500D03*
D29*
X62300Y1766500D03*
D30*
X10650Y1766600D03*
D31*
X14000Y1766600D03*
D33*
X21500Y1766600D03*
D35*
X30650Y1766600D03*
D30*
X45650Y1766600D03*
X55650Y1766600D03*
D29*
X62300Y1766600D03*
D31*
X14000Y1766700D03*
D35*
X25650Y1766700D03*
D31*
X37300Y1766700D03*
X42300Y1766700D03*
D36*
X49850Y1766700D03*
D31*
X57300Y1766700D03*
D30*
X60650Y1766700D03*
D35*
X65650Y1766700D03*
D31*
X14000Y1766800D03*
D35*
X25650Y1766800D03*
D31*
X37300Y1766800D03*
X42300Y1766800D03*
D36*
X49850Y1766800D03*
D31*
X57300Y1766800D03*
D30*
X60650Y1766800D03*
D35*
X65650Y1766800D03*
D31*
X14000Y1766900D03*
D35*
X25650Y1766900D03*
D31*
X37300Y1766900D03*
X42300Y1766900D03*
D36*
X49850Y1766900D03*
D31*
X57300Y1766900D03*
D30*
X60650Y1766900D03*
D35*
X65650Y1766900D03*
D31*
X14000Y1767000D03*
D35*
X25650Y1767000D03*
D31*
X37300Y1767000D03*
X42300Y1767000D03*
D36*
X49850Y1767000D03*
D31*
X57300Y1767000D03*
D30*
X60650Y1767000D03*
D35*
X65650Y1767000D03*
D31*
X14000Y1767100D03*
D35*
X25650Y1767100D03*
D31*
X37300Y1767100D03*
X42300Y1767100D03*
D36*
X49850Y1767100D03*
D31*
X57300Y1767100D03*
D30*
X60650Y1767100D03*
D35*
X65650Y1767100D03*
D31*
X14000Y1767200D03*
D35*
X25650Y1767200D03*
D31*
X37300Y1767200D03*
X42300Y1767200D03*
D36*
X49850Y1767200D03*
D31*
X57300Y1767200D03*
D30*
X60650Y1767200D03*
D35*
X65650Y1767200D03*
D31*
X14000Y1767300D03*
D35*
X25650Y1767300D03*
D31*
X37300Y1767300D03*
X42300Y1767300D03*
D36*
X49850Y1767300D03*
D31*
X57300Y1767300D03*
D30*
X60650Y1767300D03*
D35*
X65650Y1767300D03*
D31*
X14000Y1767400D03*
D35*
X25650Y1767400D03*
D31*
X37300Y1767400D03*
X42300Y1767400D03*
D36*
X49850Y1767400D03*
D31*
X57300Y1767400D03*
D30*
X60650Y1767400D03*
D35*
X65650Y1767400D03*
D31*
X14000Y1767500D03*
D35*
X25650Y1767500D03*
D31*
X37300Y1767500D03*
X42300Y1767500D03*
D36*
X49850Y1767500D03*
D31*
X57300Y1767500D03*
D30*
X60650Y1767500D03*
D35*
X65650Y1767500D03*
D31*
X14000Y1767600D03*
D35*
X25650Y1767600D03*
D31*
X37300Y1767600D03*
X42300Y1767600D03*
D36*
X49850Y1767600D03*
D31*
X57300Y1767600D03*
D30*
X60650Y1767600D03*
D35*
X65650Y1767600D03*
D31*
X14000Y1767700D03*
D35*
X25650Y1767700D03*
D31*
X37300Y1767700D03*
X42300Y1767700D03*
D36*
X49850Y1767700D03*
D31*
X57300Y1767700D03*
D30*
X60650Y1767700D03*
D35*
X65650Y1767700D03*
D31*
X14000Y1767800D03*
D35*
X25650Y1767800D03*
D31*
X37300Y1767800D03*
X42300Y1767800D03*
D36*
X49850Y1767800D03*
D31*
X57300Y1767800D03*
D30*
X60650Y1767800D03*
D35*
X65650Y1767800D03*
D31*
X14000Y1767900D03*
D35*
X25650Y1767900D03*
D31*
X37300Y1767900D03*
X42300Y1767900D03*
D36*
X49850Y1767900D03*
D31*
X57300Y1767900D03*
D30*
X60650Y1767900D03*
D35*
X65650Y1767900D03*
D31*
X14000Y1768000D03*
D35*
X25650Y1768000D03*
D31*
X37300Y1768000D03*
X42300Y1768000D03*
D36*
X49850Y1768000D03*
D31*
X57300Y1768000D03*
D30*
X60650Y1768000D03*
D35*
X65650Y1768000D03*
D31*
X14000Y1768100D03*
D35*
X25650Y1768100D03*
D31*
X37300Y1768100D03*
X42300Y1768100D03*
D36*
X49850Y1768100D03*
D31*
X57300Y1768100D03*
D30*
X60650Y1768100D03*
D35*
X65650Y1768100D03*
D31*
X14000Y1768200D03*
D35*
X25650Y1768200D03*
D31*
X37300Y1768200D03*
X42300Y1768200D03*
D36*
X49850Y1768200D03*
D31*
X57300Y1768200D03*
D30*
X60650Y1768200D03*
D35*
X65650Y1768200D03*
D31*
X14000Y1768300D03*
D35*
X25650Y1768300D03*
D31*
X37300Y1768300D03*
X42300Y1768300D03*
D36*
X49850Y1768300D03*
D31*
X57300Y1768300D03*
D30*
X60650Y1768300D03*
D35*
X65650Y1768300D03*
D30*
X10650Y1768400D03*
X15650Y1768400D03*
D33*
X19800Y1768400D03*
X24800Y1768400D03*
D31*
X29000Y1768400D03*
D33*
X34800Y1768400D03*
X41500Y1768400D03*
D36*
X49850Y1768400D03*
D31*
X57300Y1768400D03*
D33*
X61500Y1768400D03*
D30*
X65650Y1768400D03*
X10650Y1768500D03*
X15650Y1768500D03*
D33*
X19800Y1768500D03*
X24800Y1768500D03*
D31*
X29000Y1768500D03*
D33*
X34800Y1768500D03*
X41500Y1768500D03*
D36*
X49850Y1768500D03*
D31*
X57300Y1768500D03*
D33*
X61500Y1768500D03*
D30*
X65650Y1768500D03*
X10650Y1768600D03*
X15650Y1768600D03*
D33*
X19800Y1768600D03*
X24800Y1768600D03*
D31*
X29000Y1768600D03*
D33*
X34800Y1768600D03*
X41500Y1768600D03*
D36*
X49850Y1768600D03*
D31*
X57300Y1768600D03*
D33*
X61500Y1768600D03*
D30*
X65650Y1768600D03*
X10650Y1768700D03*
X15650Y1768700D03*
D33*
X19800Y1768700D03*
X24800Y1768700D03*
D31*
X29000Y1768700D03*
D33*
X34800Y1768700D03*
X41500Y1768700D03*
D36*
X49850Y1768700D03*
D31*
X57300Y1768700D03*
D33*
X61500Y1768700D03*
D30*
X65650Y1768700D03*
X10650Y1768800D03*
X15650Y1768800D03*
D33*
X19800Y1768800D03*
X24800Y1768800D03*
D31*
X29000Y1768800D03*
D33*
X34800Y1768800D03*
X41500Y1768800D03*
D36*
X49850Y1768800D03*
D31*
X57300Y1768800D03*
D33*
X61500Y1768800D03*
D30*
X65650Y1768800D03*
X10650Y1768900D03*
X15650Y1768900D03*
D33*
X19800Y1768900D03*
X24800Y1768900D03*
D31*
X29000Y1768900D03*
D33*
X34800Y1768900D03*
X41500Y1768900D03*
D36*
X49850Y1768900D03*
D31*
X57300Y1768900D03*
D33*
X61500Y1768900D03*
D30*
X65650Y1768900D03*
X10650Y1769000D03*
X15650Y1769000D03*
D33*
X19800Y1769000D03*
X24800Y1769000D03*
D31*
X29000Y1769000D03*
D33*
X34800Y1769000D03*
X41500Y1769000D03*
D36*
X49850Y1769000D03*
D31*
X57300Y1769000D03*
D33*
X61500Y1769000D03*
D30*
X65650Y1769000D03*
X10650Y1769100D03*
X15650Y1769100D03*
D33*
X19800Y1769100D03*
X24800Y1769100D03*
D31*
X29000Y1769100D03*
D33*
X34800Y1769100D03*
X41500Y1769100D03*
D36*
X49850Y1769100D03*
D31*
X57300Y1769100D03*
D33*
X61500Y1769100D03*
D30*
X65650Y1769100D03*
X10650Y1769200D03*
X15650Y1769200D03*
D33*
X19800Y1769200D03*
X24800Y1769200D03*
D31*
X29000Y1769200D03*
D33*
X34800Y1769200D03*
X41500Y1769200D03*
D36*
X49850Y1769200D03*
D31*
X57300Y1769200D03*
D33*
X61500Y1769200D03*
D30*
X65650Y1769200D03*
X10650Y1769300D03*
X15650Y1769300D03*
D33*
X19800Y1769300D03*
X24800Y1769300D03*
D31*
X29000Y1769300D03*
D33*
X34800Y1769300D03*
X41500Y1769300D03*
D36*
X49850Y1769300D03*
D31*
X57300Y1769300D03*
D33*
X61500Y1769300D03*
D30*
X65650Y1769300D03*
X10650Y1769400D03*
X15650Y1769400D03*
D33*
X19800Y1769400D03*
X24800Y1769400D03*
D31*
X29000Y1769400D03*
D33*
X34800Y1769400D03*
X41500Y1769400D03*
D36*
X49850Y1769400D03*
D31*
X57300Y1769400D03*
D33*
X61500Y1769400D03*
D30*
X65650Y1769400D03*
X10650Y1769500D03*
X15650Y1769500D03*
D33*
X19800Y1769500D03*
X24800Y1769500D03*
D31*
X29000Y1769500D03*
D33*
X34800Y1769500D03*
X41500Y1769500D03*
D36*
X49850Y1769500D03*
D31*
X57300Y1769500D03*
D33*
X61500Y1769500D03*
D30*
X65650Y1769500D03*
X10650Y1769600D03*
X15650Y1769600D03*
D33*
X19800Y1769600D03*
X24800Y1769600D03*
D31*
X29000Y1769600D03*
D33*
X34800Y1769600D03*
X41500Y1769600D03*
D36*
X49850Y1769600D03*
D31*
X57300Y1769600D03*
D33*
X61500Y1769600D03*
D30*
X65650Y1769600D03*
X10650Y1769700D03*
X15650Y1769700D03*
D33*
X19800Y1769700D03*
X24800Y1769700D03*
D31*
X29000Y1769700D03*
D33*
X34800Y1769700D03*
X41500Y1769700D03*
D36*
X49850Y1769700D03*
D31*
X57300Y1769700D03*
D33*
X61500Y1769700D03*
D30*
X65650Y1769700D03*
X10650Y1769800D03*
X15650Y1769800D03*
D33*
X19800Y1769800D03*
X24800Y1769800D03*
D31*
X29000Y1769800D03*
D33*
X34800Y1769800D03*
X41500Y1769800D03*
D36*
X49850Y1769800D03*
D31*
X57300Y1769800D03*
D33*
X61500Y1769800D03*
D30*
X65650Y1769800D03*
X10650Y1769900D03*
X15650Y1769900D03*
D33*
X19800Y1769900D03*
X24800Y1769900D03*
D31*
X29000Y1769900D03*
D33*
X34800Y1769900D03*
X41500Y1769900D03*
D36*
X49850Y1769900D03*
D31*
X57300Y1769900D03*
D33*
X61500Y1769900D03*
D30*
X65650Y1769900D03*
X10650Y1770000D03*
X15650Y1770000D03*
D33*
X19800Y1770000D03*
X24800Y1770000D03*
D31*
X29000Y1770000D03*
D33*
X34800Y1770000D03*
X41500Y1770000D03*
D36*
X49850Y1770000D03*
D31*
X57300Y1770000D03*
D33*
X61500Y1770000D03*
D30*
X65650Y1770000D03*
D33*
X16500Y1770100D03*
X24800Y1770100D03*
D30*
X30650Y1770100D03*
D35*
X35650Y1770100D03*
D34*
X46500Y1770100D03*
D32*
X53150Y1770100D03*
D31*
X57300Y1770100D03*
D30*
X60650Y1770100D03*
D31*
X67300Y1770100D03*
D33*
X16500Y1770200D03*
X24800Y1770200D03*
D30*
X30650Y1770200D03*
D35*
X35650Y1770200D03*
D34*
X46500Y1770200D03*
D32*
X53150Y1770200D03*
D31*
X57300Y1770200D03*
D30*
X60650Y1770200D03*
D31*
X67300Y1770200D03*
D33*
X16500Y1770300D03*
X24800Y1770300D03*
D30*
X30650Y1770300D03*
D35*
X35650Y1770300D03*
D34*
X46500Y1770300D03*
D32*
X53150Y1770300D03*
D31*
X57300Y1770300D03*
D30*
X60650Y1770300D03*
D31*
X67300Y1770300D03*
D33*
X16500Y1770400D03*
X24800Y1770400D03*
D30*
X30650Y1770400D03*
D35*
X35650Y1770400D03*
D34*
X46500Y1770400D03*
D32*
X53150Y1770400D03*
D31*
X57300Y1770400D03*
D30*
X60650Y1770400D03*
D31*
X67300Y1770400D03*
D33*
X16500Y1770500D03*
X24800Y1770500D03*
D30*
X30650Y1770500D03*
D35*
X35650Y1770500D03*
D34*
X46500Y1770500D03*
D32*
X53150Y1770500D03*
D31*
X57300Y1770500D03*
D30*
X60650Y1770500D03*
D31*
X67300Y1770500D03*
D33*
X16500Y1770600D03*
X24800Y1770600D03*
D30*
X30650Y1770600D03*
D35*
X35650Y1770600D03*
D34*
X46500Y1770600D03*
D32*
X53150Y1770600D03*
D31*
X57300Y1770600D03*
D30*
X60650Y1770600D03*
D31*
X67300Y1770600D03*
D33*
X16500Y1770700D03*
X24800Y1770700D03*
D30*
X30650Y1770700D03*
D35*
X35650Y1770700D03*
D34*
X46500Y1770700D03*
D32*
X53150Y1770700D03*
D31*
X57300Y1770700D03*
D30*
X60650Y1770700D03*
D31*
X67300Y1770700D03*
D33*
X16500Y1770800D03*
X24800Y1770800D03*
D30*
X30650Y1770800D03*
D35*
X35650Y1770800D03*
D34*
X46500Y1770800D03*
D32*
X53150Y1770800D03*
D31*
X57300Y1770800D03*
D30*
X60650Y1770800D03*
D31*
X67300Y1770800D03*
D33*
X16500Y1770900D03*
X24800Y1770900D03*
D30*
X30650Y1770900D03*
D35*
X35650Y1770900D03*
D34*
X46500Y1770900D03*
D32*
X53150Y1770900D03*
D31*
X57300Y1770900D03*
D30*
X60650Y1770900D03*
D31*
X67300Y1770900D03*
D33*
X16500Y1771000D03*
X24800Y1771000D03*
D30*
X30650Y1771000D03*
D35*
X35650Y1771000D03*
D34*
X46500Y1771000D03*
D32*
X53150Y1771000D03*
D31*
X57300Y1771000D03*
D30*
X60650Y1771000D03*
D31*
X67300Y1771000D03*
D33*
X16500Y1771100D03*
X24800Y1771100D03*
D30*
X30650Y1771100D03*
D35*
X35650Y1771100D03*
D34*
X46500Y1771100D03*
D32*
X53150Y1771100D03*
D31*
X57300Y1771100D03*
D30*
X60650Y1771100D03*
D31*
X67300Y1771100D03*
D33*
X16500Y1771200D03*
X24800Y1771200D03*
D30*
X30650Y1771200D03*
D35*
X35650Y1771200D03*
D34*
X46500Y1771200D03*
D32*
X53150Y1771200D03*
D31*
X57300Y1771200D03*
D30*
X60650Y1771200D03*
D31*
X67300Y1771200D03*
D33*
X16500Y1771300D03*
X24800Y1771300D03*
D30*
X30650Y1771300D03*
D35*
X35650Y1771300D03*
D34*
X46500Y1771300D03*
D32*
X53150Y1771300D03*
D31*
X57300Y1771300D03*
D30*
X60650Y1771300D03*
D31*
X67300Y1771300D03*
D33*
X16500Y1771400D03*
X24800Y1771400D03*
D30*
X30650Y1771400D03*
D35*
X35650Y1771400D03*
D34*
X46500Y1771400D03*
D32*
X53150Y1771400D03*
D31*
X57300Y1771400D03*
D30*
X60650Y1771400D03*
D31*
X67300Y1771400D03*
D33*
X16500Y1771500D03*
X24800Y1771500D03*
D30*
X30650Y1771500D03*
D35*
X35650Y1771500D03*
D34*
X46500Y1771500D03*
D32*
X53150Y1771500D03*
D31*
X57300Y1771500D03*
D30*
X60650Y1771500D03*
D31*
X67300Y1771500D03*
D33*
X16500Y1771600D03*
X24800Y1771600D03*
D30*
X30650Y1771600D03*
D35*
X35650Y1771600D03*
D34*
X46500Y1771600D03*
D32*
X53150Y1771600D03*
D31*
X57300Y1771600D03*
D30*
X60650Y1771600D03*
D31*
X67300Y1771600D03*
D33*
X11500Y1771700D03*
D31*
X17300Y1771700D03*
D33*
X24800Y1771700D03*
D31*
X32300Y1771700D03*
X47300Y1771700D03*
D35*
X53950Y1771700D03*
D33*
X11500Y1771800D03*
D31*
X17300Y1771800D03*
D33*
X24800Y1771800D03*
D31*
X32300Y1771800D03*
X47300Y1771800D03*
D35*
X53950Y1771800D03*
D33*
X11500Y1771900D03*
D31*
X17300Y1771900D03*
D33*
X24800Y1771900D03*
D31*
X32300Y1771900D03*
X47300Y1771900D03*
D35*
X53950Y1771900D03*
D33*
X11500Y1772000D03*
D31*
X17300Y1772000D03*
D33*
X24800Y1772000D03*
D31*
X32300Y1772000D03*
X47300Y1772000D03*
D35*
X53950Y1772000D03*
D33*
X11500Y1772100D03*
D31*
X17300Y1772100D03*
D33*
X24800Y1772100D03*
D31*
X32300Y1772100D03*
X47300Y1772100D03*
D35*
X53950Y1772100D03*
D33*
X11500Y1772200D03*
D31*
X17300Y1772200D03*
D33*
X24800Y1772200D03*
D31*
X32300Y1772200D03*
X47300Y1772200D03*
D35*
X53950Y1772200D03*
D33*
X11500Y1772300D03*
D31*
X17300Y1772300D03*
D33*
X24800Y1772300D03*
D31*
X32300Y1772300D03*
X47300Y1772300D03*
D35*
X53950Y1772300D03*
D33*
X11500Y1772400D03*
D31*
X17300Y1772400D03*
D33*
X24800Y1772400D03*
D31*
X32300Y1772400D03*
X47300Y1772400D03*
D35*
X53950Y1772400D03*
D33*
X11500Y1772500D03*
D31*
X17300Y1772500D03*
D33*
X24800Y1772500D03*
D31*
X32300Y1772500D03*
X47300Y1772500D03*
D35*
X53950Y1772500D03*
D33*
X11500Y1772600D03*
D31*
X17300Y1772600D03*
D33*
X24800Y1772600D03*
D31*
X32300Y1772600D03*
X47300Y1772600D03*
D35*
X53950Y1772600D03*
D33*
X11500Y1772700D03*
D31*
X17300Y1772700D03*
D33*
X24800Y1772700D03*
D31*
X32300Y1772700D03*
X47300Y1772700D03*
D35*
X53950Y1772700D03*
D33*
X11500Y1772800D03*
D31*
X17300Y1772800D03*
D33*
X24800Y1772800D03*
D31*
X32300Y1772800D03*
X47300Y1772800D03*
D35*
X53950Y1772800D03*
D33*
X11500Y1772900D03*
D31*
X17300Y1772900D03*
D33*
X24800Y1772900D03*
D31*
X32300Y1772900D03*
X47300Y1772900D03*
D35*
X53950Y1772900D03*
D33*
X11500Y1773000D03*
D31*
X17300Y1773000D03*
D33*
X24800Y1773000D03*
D31*
X32300Y1773000D03*
X47300Y1773000D03*
D35*
X53950Y1773000D03*
D33*
X11500Y1773100D03*
D31*
X17300Y1773100D03*
D33*
X24800Y1773100D03*
D31*
X32300Y1773100D03*
X47300Y1773100D03*
D35*
X53950Y1773100D03*
D33*
X11500Y1773200D03*
D31*
X17300Y1773200D03*
D33*
X24800Y1773200D03*
D31*
X32300Y1773200D03*
X47300Y1773200D03*
D35*
X53950Y1773200D03*
D33*
X11500Y1773300D03*
D31*
X17300Y1773300D03*
D33*
X24800Y1773300D03*
D31*
X32300Y1773300D03*
X47300Y1773300D03*
D35*
X53950Y1773300D03*
D34*
X16500Y1773400D03*
X24800Y1773400D03*
D31*
X32300Y1773400D03*
D33*
X36500Y1773400D03*
X41500Y1773400D03*
D31*
X49000Y1773400D03*
X52300Y1773400D03*
D30*
X55650Y1773400D03*
X60650Y1773400D03*
D31*
X67300Y1773400D03*
D34*
X16500Y1773500D03*
X24800Y1773500D03*
D31*
X32300Y1773500D03*
D33*
X36500Y1773500D03*
X41500Y1773500D03*
D31*
X49000Y1773500D03*
X52300Y1773500D03*
D30*
X55650Y1773500D03*
X60650Y1773500D03*
D31*
X67300Y1773500D03*
D34*
X16500Y1773600D03*
X24800Y1773600D03*
D31*
X32300Y1773600D03*
D33*
X36500Y1773600D03*
X41500Y1773600D03*
D31*
X49000Y1773600D03*
X52300Y1773600D03*
D30*
X55650Y1773600D03*
X60650Y1773600D03*
D31*
X67300Y1773600D03*
D34*
X16500Y1773700D03*
X24800Y1773700D03*
D31*
X32300Y1773700D03*
D33*
X36500Y1773700D03*
X41500Y1773700D03*
D31*
X49000Y1773700D03*
X52300Y1773700D03*
D30*
X55650Y1773700D03*
X60650Y1773700D03*
D31*
X67300Y1773700D03*
D34*
X16500Y1773800D03*
X24800Y1773800D03*
D31*
X32300Y1773800D03*
D33*
X36500Y1773800D03*
X41500Y1773800D03*
D31*
X49000Y1773800D03*
X52300Y1773800D03*
D30*
X55650Y1773800D03*
X60650Y1773800D03*
D31*
X67300Y1773800D03*
D34*
X16500Y1773900D03*
X24800Y1773900D03*
D31*
X32300Y1773900D03*
D33*
X36500Y1773900D03*
X41500Y1773900D03*
D31*
X49000Y1773900D03*
X52300Y1773900D03*
D30*
X55650Y1773900D03*
X60650Y1773900D03*
D31*
X67300Y1773900D03*
D34*
X16500Y1774000D03*
X24800Y1774000D03*
D31*
X32300Y1774000D03*
D33*
X36500Y1774000D03*
X41500Y1774000D03*
D31*
X49000Y1774000D03*
X52300Y1774000D03*
D30*
X55650Y1774000D03*
X60650Y1774000D03*
D31*
X67300Y1774000D03*
D34*
X16500Y1774100D03*
X24800Y1774100D03*
D31*
X32300Y1774100D03*
D33*
X36500Y1774100D03*
X41500Y1774100D03*
D31*
X49000Y1774100D03*
X52300Y1774100D03*
D30*
X55650Y1774100D03*
X60650Y1774100D03*
D31*
X67300Y1774100D03*
D34*
X16500Y1774200D03*
X24800Y1774200D03*
D31*
X32300Y1774200D03*
D33*
X36500Y1774200D03*
X41500Y1774200D03*
D31*
X49000Y1774200D03*
X52300Y1774200D03*
D30*
X55650Y1774200D03*
X60650Y1774200D03*
D31*
X67300Y1774200D03*
D34*
X16500Y1774300D03*
X24800Y1774300D03*
D31*
X32300Y1774300D03*
D33*
X36500Y1774300D03*
X41500Y1774300D03*
D31*
X49000Y1774300D03*
X52300Y1774300D03*
D30*
X55650Y1774300D03*
X60650Y1774300D03*
D31*
X67300Y1774300D03*
D34*
X16500Y1774400D03*
X24800Y1774400D03*
D31*
X32300Y1774400D03*
D33*
X36500Y1774400D03*
X41500Y1774400D03*
D31*
X49000Y1774400D03*
X52300Y1774400D03*
D30*
X55650Y1774400D03*
X60650Y1774400D03*
D31*
X67300Y1774400D03*
D34*
X16500Y1774500D03*
X24800Y1774500D03*
D31*
X32300Y1774500D03*
D33*
X36500Y1774500D03*
X41500Y1774500D03*
D31*
X49000Y1774500D03*
X52300Y1774500D03*
D30*
X55650Y1774500D03*
X60650Y1774500D03*
D31*
X67300Y1774500D03*
D34*
X16500Y1774600D03*
X24800Y1774600D03*
D31*
X32300Y1774600D03*
D33*
X36500Y1774600D03*
X41500Y1774600D03*
D31*
X49000Y1774600D03*
X52300Y1774600D03*
D30*
X55650Y1774600D03*
X60650Y1774600D03*
D31*
X67300Y1774600D03*
D34*
X16500Y1774700D03*
X24800Y1774700D03*
D31*
X32300Y1774700D03*
D33*
X36500Y1774700D03*
X41500Y1774700D03*
D31*
X49000Y1774700D03*
X52300Y1774700D03*
D30*
X55650Y1774700D03*
X60650Y1774700D03*
D31*
X67300Y1774700D03*
D34*
X16500Y1774800D03*
X24800Y1774800D03*
D31*
X32300Y1774800D03*
D33*
X36500Y1774800D03*
X41500Y1774800D03*
D31*
X49000Y1774800D03*
X52300Y1774800D03*
D30*
X55650Y1774800D03*
X60650Y1774800D03*
D31*
X67300Y1774800D03*
D34*
X16500Y1774900D03*
X24800Y1774900D03*
D31*
X32300Y1774900D03*
D33*
X36500Y1774900D03*
X41500Y1774900D03*
D31*
X49000Y1774900D03*
X52300Y1774900D03*
D30*
X55650Y1774900D03*
X60650Y1774900D03*
D31*
X67300Y1774900D03*
D34*
X16500Y1775000D03*
X24800Y1775000D03*
D31*
X32300Y1775000D03*
D33*
X36500Y1775000D03*
X41500Y1775000D03*
D31*
X49000Y1775000D03*
X52300Y1775000D03*
D30*
X55650Y1775000D03*
X60650Y1775000D03*
D31*
X67300Y1775000D03*
D30*
X10650Y1775100D03*
D35*
X15650Y1775100D03*
D30*
X20650Y1775100D03*
D31*
X24000Y1775100D03*
X29000Y1775100D03*
D33*
X34800Y1775100D03*
D35*
X42350Y1775100D03*
D31*
X49000Y1775100D03*
X54000Y1775100D03*
D32*
X58150Y1775100D03*
D31*
X62300Y1775100D03*
D30*
X10650Y1775200D03*
D35*
X15650Y1775200D03*
D30*
X20650Y1775200D03*
D31*
X24000Y1775200D03*
X29000Y1775200D03*
D33*
X34800Y1775200D03*
D35*
X42350Y1775200D03*
D31*
X49000Y1775200D03*
X54000Y1775200D03*
D32*
X58150Y1775200D03*
D31*
X62300Y1775200D03*
D30*
X10650Y1775300D03*
D35*
X15650Y1775300D03*
D30*
X20650Y1775300D03*
D31*
X24000Y1775300D03*
X29000Y1775300D03*
D33*
X34800Y1775300D03*
D35*
X42350Y1775300D03*
D31*
X49000Y1775300D03*
X54000Y1775300D03*
D32*
X58150Y1775300D03*
D31*
X62300Y1775300D03*
D30*
X10650Y1775400D03*
D35*
X15650Y1775400D03*
D30*
X20650Y1775400D03*
D31*
X24000Y1775400D03*
X29000Y1775400D03*
D33*
X34800Y1775400D03*
D35*
X42350Y1775400D03*
D31*
X49000Y1775400D03*
X54000Y1775400D03*
D32*
X58150Y1775400D03*
D31*
X62300Y1775400D03*
D30*
X10650Y1775500D03*
D35*
X15650Y1775500D03*
D30*
X20650Y1775500D03*
D31*
X24000Y1775500D03*
X29000Y1775500D03*
D33*
X34800Y1775500D03*
D35*
X42350Y1775500D03*
D31*
X49000Y1775500D03*
X54000Y1775500D03*
D32*
X58150Y1775500D03*
D31*
X62300Y1775500D03*
D30*
X10650Y1775600D03*
D35*
X15650Y1775600D03*
D30*
X20650Y1775600D03*
D31*
X24000Y1775600D03*
X29000Y1775600D03*
D33*
X34800Y1775600D03*
D35*
X42350Y1775600D03*
D31*
X49000Y1775600D03*
X54000Y1775600D03*
D32*
X58150Y1775600D03*
D31*
X62300Y1775600D03*
D30*
X10650Y1775700D03*
D35*
X15650Y1775700D03*
D30*
X20650Y1775700D03*
D31*
X24000Y1775700D03*
X29000Y1775700D03*
D33*
X34800Y1775700D03*
D35*
X42350Y1775700D03*
D31*
X49000Y1775700D03*
X54000Y1775700D03*
D32*
X58150Y1775700D03*
D31*
X62300Y1775700D03*
D30*
X10650Y1775800D03*
D35*
X15650Y1775800D03*
D30*
X20650Y1775800D03*
D31*
X24000Y1775800D03*
X29000Y1775800D03*
D33*
X34800Y1775800D03*
D35*
X42350Y1775800D03*
D31*
X49000Y1775800D03*
X54000Y1775800D03*
D32*
X58150Y1775800D03*
D31*
X62300Y1775800D03*
D30*
X10650Y1775900D03*
D35*
X15650Y1775900D03*
D30*
X20650Y1775900D03*
D31*
X24000Y1775900D03*
X29000Y1775900D03*
D33*
X34800Y1775900D03*
D35*
X42350Y1775900D03*
D31*
X49000Y1775900D03*
X54000Y1775900D03*
D32*
X58150Y1775900D03*
D31*
X62300Y1775900D03*
D30*
X10650Y1776000D03*
D35*
X15650Y1776000D03*
D30*
X20650Y1776000D03*
D31*
X24000Y1776000D03*
X29000Y1776000D03*
D33*
X34800Y1776000D03*
D35*
X42350Y1776000D03*
D31*
X49000Y1776000D03*
X54000Y1776000D03*
D32*
X58150Y1776000D03*
D31*
X62300Y1776000D03*
D30*
X10650Y1776100D03*
D35*
X15650Y1776100D03*
D30*
X20650Y1776100D03*
D31*
X24000Y1776100D03*
X29000Y1776100D03*
D33*
X34800Y1776100D03*
D35*
X42350Y1776100D03*
D31*
X49000Y1776100D03*
X54000Y1776100D03*
D32*
X58150Y1776100D03*
D31*
X62300Y1776100D03*
D30*
X10650Y1776200D03*
D35*
X15650Y1776200D03*
D30*
X20650Y1776200D03*
D31*
X24000Y1776200D03*
X29000Y1776200D03*
D33*
X34800Y1776200D03*
D35*
X42350Y1776200D03*
D31*
X49000Y1776200D03*
X54000Y1776200D03*
D32*
X58150Y1776200D03*
D31*
X62300Y1776200D03*
D30*
X10650Y1776300D03*
D35*
X15650Y1776300D03*
D30*
X20650Y1776300D03*
D31*
X24000Y1776300D03*
X29000Y1776300D03*
D33*
X34800Y1776300D03*
D35*
X42350Y1776300D03*
D31*
X49000Y1776300D03*
X54000Y1776300D03*
D32*
X58150Y1776300D03*
D31*
X62300Y1776300D03*
D30*
X10650Y1776400D03*
D35*
X15650Y1776400D03*
D30*
X20650Y1776400D03*
D31*
X24000Y1776400D03*
X29000Y1776400D03*
D33*
X34800Y1776400D03*
D35*
X42350Y1776400D03*
D31*
X49000Y1776400D03*
X54000Y1776400D03*
D32*
X58150Y1776400D03*
D31*
X62300Y1776400D03*
D30*
X10650Y1776500D03*
D35*
X15650Y1776500D03*
D30*
X20650Y1776500D03*
D31*
X24000Y1776500D03*
X29000Y1776500D03*
D33*
X34800Y1776500D03*
D35*
X42350Y1776500D03*
D31*
X49000Y1776500D03*
X54000Y1776500D03*
D32*
X58150Y1776500D03*
D31*
X62300Y1776500D03*
D30*
X10650Y1776600D03*
D35*
X15650Y1776600D03*
D30*
X20650Y1776600D03*
D31*
X24000Y1776600D03*
X29000Y1776600D03*
D33*
X34800Y1776600D03*
D35*
X42350Y1776600D03*
D31*
X49000Y1776600D03*
X54000Y1776600D03*
D32*
X58150Y1776600D03*
D31*
X62300Y1776600D03*
X14000Y1776700D03*
X19000Y1776700D03*
D30*
X25650Y1776700D03*
D31*
X29000Y1776700D03*
D35*
X35650Y1776700D03*
D33*
X41500Y1776700D03*
D34*
X49800Y1776700D03*
D31*
X59000Y1776700D03*
X64000Y1776700D03*
X67300Y1776700D03*
X14000Y1776800D03*
X19000Y1776800D03*
D30*
X25650Y1776800D03*
D31*
X29000Y1776800D03*
D35*
X35650Y1776800D03*
D33*
X41500Y1776800D03*
D34*
X49800Y1776800D03*
D31*
X59000Y1776800D03*
X64000Y1776800D03*
X67300Y1776800D03*
X14000Y1776900D03*
X19000Y1776900D03*
D30*
X25650Y1776900D03*
D31*
X29000Y1776900D03*
D35*
X35650Y1776900D03*
D33*
X41500Y1776900D03*
D34*
X49800Y1776900D03*
D31*
X59000Y1776900D03*
X64000Y1776900D03*
X67300Y1776900D03*
X14000Y1777000D03*
X19000Y1777000D03*
D30*
X25650Y1777000D03*
D31*
X29000Y1777000D03*
D35*
X35650Y1777000D03*
D33*
X41500Y1777000D03*
D34*
X49800Y1777000D03*
D31*
X59000Y1777000D03*
X64000Y1777000D03*
X67300Y1777000D03*
X14000Y1777100D03*
X19000Y1777100D03*
D30*
X25650Y1777100D03*
D31*
X29000Y1777100D03*
D35*
X35650Y1777100D03*
D33*
X41500Y1777100D03*
D34*
X49800Y1777100D03*
D31*
X59000Y1777100D03*
X64000Y1777100D03*
X67300Y1777100D03*
X14000Y1777200D03*
X19000Y1777200D03*
D30*
X25650Y1777200D03*
D31*
X29000Y1777200D03*
D35*
X35650Y1777200D03*
D33*
X41500Y1777200D03*
D34*
X49800Y1777200D03*
D31*
X59000Y1777200D03*
X64000Y1777200D03*
X67300Y1777200D03*
X14000Y1777300D03*
X19000Y1777300D03*
D30*
X25650Y1777300D03*
D31*
X29000Y1777300D03*
D35*
X35650Y1777300D03*
D33*
X41500Y1777300D03*
D34*
X49800Y1777300D03*
D31*
X59000Y1777300D03*
X64000Y1777300D03*
X67300Y1777300D03*
X14000Y1777400D03*
X19000Y1777400D03*
D30*
X25650Y1777400D03*
D31*
X29000Y1777400D03*
D35*
X35650Y1777400D03*
D33*
X41500Y1777400D03*
D34*
X49800Y1777400D03*
D31*
X59000Y1777400D03*
X64000Y1777400D03*
X67300Y1777400D03*
X14000Y1777500D03*
X19000Y1777500D03*
D30*
X25650Y1777500D03*
D31*
X29000Y1777500D03*
D35*
X35650Y1777500D03*
D33*
X41500Y1777500D03*
D34*
X49800Y1777500D03*
D31*
X59000Y1777500D03*
X64000Y1777500D03*
X67300Y1777500D03*
X14000Y1777600D03*
X19000Y1777600D03*
D30*
X25650Y1777600D03*
D31*
X29000Y1777600D03*
D35*
X35650Y1777600D03*
D33*
X41500Y1777600D03*
D34*
X49800Y1777600D03*
D31*
X59000Y1777600D03*
X64000Y1777600D03*
X67300Y1777600D03*
X14000Y1777700D03*
X19000Y1777700D03*
D30*
X25650Y1777700D03*
D31*
X29000Y1777700D03*
D35*
X35650Y1777700D03*
D33*
X41500Y1777700D03*
D34*
X49800Y1777700D03*
D31*
X59000Y1777700D03*
X64000Y1777700D03*
X67300Y1777700D03*
X14000Y1777800D03*
X19000Y1777800D03*
D30*
X25650Y1777800D03*
D31*
X29000Y1777800D03*
D35*
X35650Y1777800D03*
D33*
X41500Y1777800D03*
D34*
X49800Y1777800D03*
D31*
X59000Y1777800D03*
X64000Y1777800D03*
X67300Y1777800D03*
X14000Y1777900D03*
X19000Y1777900D03*
D30*
X25650Y1777900D03*
D31*
X29000Y1777900D03*
D35*
X35650Y1777900D03*
D33*
X41500Y1777900D03*
D34*
X49800Y1777900D03*
D31*
X59000Y1777900D03*
X64000Y1777900D03*
X67300Y1777900D03*
X14000Y1778000D03*
X19000Y1778000D03*
D30*
X25650Y1778000D03*
D31*
X29000Y1778000D03*
D35*
X35650Y1778000D03*
D33*
X41500Y1778000D03*
D34*
X49800Y1778000D03*
D31*
X59000Y1778000D03*
X64000Y1778000D03*
X67300Y1778000D03*
X14000Y1778100D03*
X19000Y1778100D03*
D30*
X25650Y1778100D03*
D31*
X29000Y1778100D03*
D35*
X35650Y1778100D03*
D33*
X41500Y1778100D03*
D34*
X49800Y1778100D03*
D31*
X59000Y1778100D03*
X64000Y1778100D03*
X67300Y1778100D03*
X14000Y1778200D03*
X19000Y1778200D03*
D30*
X25650Y1778200D03*
D31*
X29000Y1778200D03*
D35*
X35650Y1778200D03*
D33*
X41500Y1778200D03*
D34*
X49800Y1778200D03*
D31*
X59000Y1778200D03*
X64000Y1778200D03*
X67300Y1778200D03*
X14000Y1778300D03*
X19000Y1778300D03*
D30*
X25650Y1778300D03*
D31*
X29000Y1778300D03*
D35*
X35650Y1778300D03*
D33*
X41500Y1778300D03*
D34*
X49800Y1778300D03*
D31*
X59000Y1778300D03*
X64000Y1778300D03*
X67300Y1778300D03*
X12300Y1778400D03*
D33*
X16500Y1778400D03*
D35*
X23950Y1778400D03*
X30650Y1778400D03*
D30*
X35650Y1778400D03*
X40650Y1778400D03*
D31*
X44000Y1778400D03*
D35*
X52350Y1778400D03*
D34*
X59800Y1778400D03*
D30*
X65650Y1778400D03*
D31*
X12300Y1778500D03*
D33*
X16500Y1778500D03*
D35*
X23950Y1778500D03*
X30650Y1778500D03*
D30*
X35650Y1778500D03*
X40650Y1778500D03*
D31*
X44000Y1778500D03*
D35*
X52350Y1778500D03*
D34*
X59800Y1778500D03*
D30*
X65650Y1778500D03*
D31*
X12300Y1778600D03*
D33*
X16500Y1778600D03*
D35*
X23950Y1778600D03*
X30650Y1778600D03*
D30*
X35650Y1778600D03*
X40650Y1778600D03*
D31*
X44000Y1778600D03*
D35*
X52350Y1778600D03*
D34*
X59800Y1778600D03*
D30*
X65650Y1778600D03*
D31*
X12300Y1778700D03*
D33*
X16500Y1778700D03*
D35*
X23950Y1778700D03*
X30650Y1778700D03*
D30*
X35650Y1778700D03*
X40650Y1778700D03*
D31*
X44000Y1778700D03*
D35*
X52350Y1778700D03*
D34*
X59800Y1778700D03*
D30*
X65650Y1778700D03*
D31*
X12300Y1778800D03*
D33*
X16500Y1778800D03*
D35*
X23950Y1778800D03*
X30650Y1778800D03*
D30*
X35650Y1778800D03*
X40650Y1778800D03*
D31*
X44000Y1778800D03*
D35*
X52350Y1778800D03*
D34*
X59800Y1778800D03*
D30*
X65650Y1778800D03*
D31*
X12300Y1778900D03*
D33*
X16500Y1778900D03*
D35*
X23950Y1778900D03*
X30650Y1778900D03*
D30*
X35650Y1778900D03*
X40650Y1778900D03*
D31*
X44000Y1778900D03*
D35*
X52350Y1778900D03*
D34*
X59800Y1778900D03*
D30*
X65650Y1778900D03*
D31*
X12300Y1779000D03*
D33*
X16500Y1779000D03*
D35*
X23950Y1779000D03*
X30650Y1779000D03*
D30*
X35650Y1779000D03*
X40650Y1779000D03*
D31*
X44000Y1779000D03*
D35*
X52350Y1779000D03*
D34*
X59800Y1779000D03*
D30*
X65650Y1779000D03*
D31*
X12300Y1779100D03*
D33*
X16500Y1779100D03*
D35*
X23950Y1779100D03*
X30650Y1779100D03*
D30*
X35650Y1779100D03*
X40650Y1779100D03*
D31*
X44000Y1779100D03*
D35*
X52350Y1779100D03*
D34*
X59800Y1779100D03*
D30*
X65650Y1779100D03*
D31*
X12300Y1779200D03*
D33*
X16500Y1779200D03*
D35*
X23950Y1779200D03*
X30650Y1779200D03*
D30*
X35650Y1779200D03*
X40650Y1779200D03*
D31*
X44000Y1779200D03*
D35*
X52350Y1779200D03*
D34*
X59800Y1779200D03*
D30*
X65650Y1779200D03*
D31*
X12300Y1779300D03*
D33*
X16500Y1779300D03*
D35*
X23950Y1779300D03*
X30650Y1779300D03*
D30*
X35650Y1779300D03*
X40650Y1779300D03*
D31*
X44000Y1779300D03*
D35*
X52350Y1779300D03*
D34*
X59800Y1779300D03*
D30*
X65650Y1779300D03*
D31*
X12300Y1779400D03*
D33*
X16500Y1779400D03*
D35*
X23950Y1779400D03*
X30650Y1779400D03*
D30*
X35650Y1779400D03*
X40650Y1779400D03*
D31*
X44000Y1779400D03*
D35*
X52350Y1779400D03*
D34*
X59800Y1779400D03*
D30*
X65650Y1779400D03*
D31*
X12300Y1779500D03*
D33*
X16500Y1779500D03*
D35*
X23950Y1779500D03*
X30650Y1779500D03*
D30*
X35650Y1779500D03*
X40650Y1779500D03*
D31*
X44000Y1779500D03*
D35*
X52350Y1779500D03*
D34*
X59800Y1779500D03*
D30*
X65650Y1779500D03*
D31*
X12300Y1779600D03*
D33*
X16500Y1779600D03*
D35*
X23950Y1779600D03*
X30650Y1779600D03*
D30*
X35650Y1779600D03*
X40650Y1779600D03*
D31*
X44000Y1779600D03*
D35*
X52350Y1779600D03*
D34*
X59800Y1779600D03*
D30*
X65650Y1779600D03*
D31*
X12300Y1779700D03*
D33*
X16500Y1779700D03*
D35*
X23950Y1779700D03*
X30650Y1779700D03*
D30*
X35650Y1779700D03*
X40650Y1779700D03*
D31*
X44000Y1779700D03*
D35*
X52350Y1779700D03*
D34*
X59800Y1779700D03*
D30*
X65650Y1779700D03*
D31*
X12300Y1779800D03*
D33*
X16500Y1779800D03*
D35*
X23950Y1779800D03*
X30650Y1779800D03*
D30*
X35650Y1779800D03*
X40650Y1779800D03*
D31*
X44000Y1779800D03*
D35*
X52350Y1779800D03*
D34*
X59800Y1779800D03*
D30*
X65650Y1779800D03*
D31*
X12300Y1779900D03*
D33*
X16500Y1779900D03*
D35*
X23950Y1779900D03*
X30650Y1779900D03*
D30*
X35650Y1779900D03*
X40650Y1779900D03*
D31*
X44000Y1779900D03*
D35*
X52350Y1779900D03*
D34*
X59800Y1779900D03*
D30*
X65650Y1779900D03*
D31*
X12300Y1780000D03*
D33*
X16500Y1780000D03*
D35*
X23950Y1780000D03*
X30650Y1780000D03*
D30*
X35650Y1780000D03*
X40650Y1780000D03*
D31*
X44000Y1780000D03*
D35*
X52350Y1780000D03*
D34*
X59800Y1780000D03*
D30*
X65650Y1780000D03*
D31*
X12300Y1780100D03*
D36*
X21450Y1780100D03*
D31*
X29000Y1780100D03*
D35*
X35650Y1780100D03*
D31*
X42300Y1780100D03*
D30*
X45650Y1780100D03*
D33*
X49800Y1780100D03*
D37*
X58150Y1780100D03*
D35*
X65650Y1780100D03*
D31*
X12300Y1780200D03*
D36*
X21450Y1780200D03*
D31*
X29000Y1780200D03*
D35*
X35650Y1780200D03*
D31*
X42300Y1780200D03*
D30*
X45650Y1780200D03*
D33*
X49800Y1780200D03*
D37*
X58150Y1780200D03*
D35*
X65650Y1780200D03*
D31*
X12300Y1780300D03*
D36*
X21450Y1780300D03*
D31*
X29000Y1780300D03*
D35*
X35650Y1780300D03*
D31*
X42300Y1780300D03*
D30*
X45650Y1780300D03*
D33*
X49800Y1780300D03*
D37*
X58150Y1780300D03*
D35*
X65650Y1780300D03*
D31*
X12300Y1780400D03*
D36*
X21450Y1780400D03*
D31*
X29000Y1780400D03*
D35*
X35650Y1780400D03*
D31*
X42300Y1780400D03*
D30*
X45650Y1780400D03*
D33*
X49800Y1780400D03*
D37*
X58150Y1780400D03*
D35*
X65650Y1780400D03*
D31*
X12300Y1780500D03*
D36*
X21450Y1780500D03*
D31*
X29000Y1780500D03*
D35*
X35650Y1780500D03*
D31*
X42300Y1780500D03*
D30*
X45650Y1780500D03*
D33*
X49800Y1780500D03*
D37*
X58150Y1780500D03*
D35*
X65650Y1780500D03*
D31*
X12300Y1780600D03*
D36*
X21450Y1780600D03*
D31*
X29000Y1780600D03*
D35*
X35650Y1780600D03*
D31*
X42300Y1780600D03*
D30*
X45650Y1780600D03*
D33*
X49800Y1780600D03*
D37*
X58150Y1780600D03*
D35*
X65650Y1780600D03*
D31*
X12300Y1780700D03*
D36*
X21450Y1780700D03*
D31*
X29000Y1780700D03*
D35*
X35650Y1780700D03*
D31*
X42300Y1780700D03*
D30*
X45650Y1780700D03*
D33*
X49800Y1780700D03*
D37*
X58150Y1780700D03*
D35*
X65650Y1780700D03*
D31*
X12300Y1780800D03*
D36*
X21450Y1780800D03*
D31*
X29000Y1780800D03*
D35*
X35650Y1780800D03*
D31*
X42300Y1780800D03*
D30*
X45650Y1780800D03*
D33*
X49800Y1780800D03*
D37*
X58150Y1780800D03*
D35*
X65650Y1780800D03*
D31*
X12300Y1780900D03*
D36*
X21450Y1780900D03*
D31*
X29000Y1780900D03*
D35*
X35650Y1780900D03*
D31*
X42300Y1780900D03*
D30*
X45650Y1780900D03*
D33*
X49800Y1780900D03*
D37*
X58150Y1780900D03*
D35*
X65650Y1780900D03*
D31*
X12300Y1781000D03*
D36*
X21450Y1781000D03*
D31*
X29000Y1781000D03*
D35*
X35650Y1781000D03*
D31*
X42300Y1781000D03*
D30*
X45650Y1781000D03*
D33*
X49800Y1781000D03*
D37*
X58150Y1781000D03*
D35*
X65650Y1781000D03*
D31*
X12300Y1781100D03*
D36*
X21450Y1781100D03*
D31*
X29000Y1781100D03*
D35*
X35650Y1781100D03*
D31*
X42300Y1781100D03*
D30*
X45650Y1781100D03*
D33*
X49800Y1781100D03*
D37*
X58150Y1781100D03*
D35*
X65650Y1781100D03*
D31*
X12300Y1781200D03*
D36*
X21450Y1781200D03*
D31*
X29000Y1781200D03*
D35*
X35650Y1781200D03*
D31*
X42300Y1781200D03*
D30*
X45650Y1781200D03*
D33*
X49800Y1781200D03*
D37*
X58150Y1781200D03*
D35*
X65650Y1781200D03*
D31*
X12300Y1781300D03*
D36*
X21450Y1781300D03*
D31*
X29000Y1781300D03*
D35*
X35650Y1781300D03*
D31*
X42300Y1781300D03*
D30*
X45650Y1781300D03*
D33*
X49800Y1781300D03*
D37*
X58150Y1781300D03*
D35*
X65650Y1781300D03*
D31*
X12300Y1781400D03*
D36*
X21450Y1781400D03*
D31*
X29000Y1781400D03*
D35*
X35650Y1781400D03*
D31*
X42300Y1781400D03*
D30*
X45650Y1781400D03*
D33*
X49800Y1781400D03*
D37*
X58150Y1781400D03*
D35*
X65650Y1781400D03*
D31*
X12300Y1781500D03*
D36*
X21450Y1781500D03*
D31*
X29000Y1781500D03*
D35*
X35650Y1781500D03*
D31*
X42300Y1781500D03*
D30*
X45650Y1781500D03*
D33*
X49800Y1781500D03*
D37*
X58150Y1781500D03*
D35*
X65650Y1781500D03*
D31*
X12300Y1781600D03*
D36*
X21450Y1781600D03*
D31*
X29000Y1781600D03*
D35*
X35650Y1781600D03*
D31*
X42300Y1781600D03*
D30*
X45650Y1781600D03*
D33*
X49800Y1781600D03*
D37*
X58150Y1781600D03*
D35*
X65650Y1781600D03*
D30*
X10650Y1781700D03*
X20650Y1781700D03*
D31*
X24000Y1781700D03*
X27300Y1781700D03*
D30*
X40650Y1781700D03*
D35*
X52350Y1781700D03*
D31*
X57300Y1781700D03*
D30*
X60650Y1781700D03*
D33*
X64800Y1781700D03*
D30*
X10650Y1781800D03*
X20650Y1781800D03*
D31*
X24000Y1781800D03*
X27300Y1781800D03*
D30*
X40650Y1781800D03*
D35*
X52350Y1781800D03*
D31*
X57300Y1781800D03*
D30*
X60650Y1781800D03*
D33*
X64800Y1781800D03*
D30*
X10650Y1781900D03*
X20650Y1781900D03*
D31*
X24000Y1781900D03*
X27300Y1781900D03*
D30*
X40650Y1781900D03*
D35*
X52350Y1781900D03*
D31*
X57300Y1781900D03*
D30*
X60650Y1781900D03*
D33*
X64800Y1781900D03*
D30*
X10650Y1782000D03*
X20650Y1782000D03*
D31*
X24000Y1782000D03*
X27300Y1782000D03*
D30*
X40650Y1782000D03*
D35*
X52350Y1782000D03*
D31*
X57300Y1782000D03*
D30*
X60650Y1782000D03*
D33*
X64800Y1782000D03*
D30*
X10650Y1782100D03*
X20650Y1782100D03*
D31*
X24000Y1782100D03*
X27300Y1782100D03*
D30*
X40650Y1782100D03*
D35*
X52350Y1782100D03*
D31*
X57300Y1782100D03*
D30*
X60650Y1782100D03*
D33*
X64800Y1782100D03*
D30*
X10650Y1782200D03*
X20650Y1782200D03*
D31*
X24000Y1782200D03*
X27300Y1782200D03*
D30*
X40650Y1782200D03*
D35*
X52350Y1782200D03*
D31*
X57300Y1782200D03*
D30*
X60650Y1782200D03*
D33*
X64800Y1782200D03*
D30*
X10650Y1782300D03*
X20650Y1782300D03*
D31*
X24000Y1782300D03*
X27300Y1782300D03*
D30*
X40650Y1782300D03*
D35*
X52350Y1782300D03*
D31*
X57300Y1782300D03*
D30*
X60650Y1782300D03*
D33*
X64800Y1782300D03*
D30*
X10650Y1782400D03*
X20650Y1782400D03*
D31*
X24000Y1782400D03*
X27300Y1782400D03*
D30*
X40650Y1782400D03*
D35*
X52350Y1782400D03*
D31*
X57300Y1782400D03*
D30*
X60650Y1782400D03*
D33*
X64800Y1782400D03*
D30*
X10650Y1782500D03*
X20650Y1782500D03*
D31*
X24000Y1782500D03*
X27300Y1782500D03*
D30*
X40650Y1782500D03*
D35*
X52350Y1782500D03*
D31*
X57300Y1782500D03*
D30*
X60650Y1782500D03*
D33*
X64800Y1782500D03*
D30*
X10650Y1782600D03*
X20650Y1782600D03*
D31*
X24000Y1782600D03*
X27300Y1782600D03*
D30*
X40650Y1782600D03*
D35*
X52350Y1782600D03*
D31*
X57300Y1782600D03*
D30*
X60650Y1782600D03*
D33*
X64800Y1782600D03*
D30*
X10650Y1782700D03*
X20650Y1782700D03*
D31*
X24000Y1782700D03*
X27300Y1782700D03*
D30*
X40650Y1782700D03*
D35*
X52350Y1782700D03*
D31*
X57300Y1782700D03*
D30*
X60650Y1782700D03*
D33*
X64800Y1782700D03*
D30*
X10650Y1782800D03*
X20650Y1782800D03*
D31*
X24000Y1782800D03*
X27300Y1782800D03*
D30*
X40650Y1782800D03*
D35*
X52350Y1782800D03*
D31*
X57300Y1782800D03*
D30*
X60650Y1782800D03*
D33*
X64800Y1782800D03*
D30*
X10650Y1782900D03*
X20650Y1782900D03*
D31*
X24000Y1782900D03*
X27300Y1782900D03*
D30*
X40650Y1782900D03*
D35*
X52350Y1782900D03*
D31*
X57300Y1782900D03*
D30*
X60650Y1782900D03*
D33*
X64800Y1782900D03*
D30*
X10650Y1783000D03*
X20650Y1783000D03*
D31*
X24000Y1783000D03*
X27300Y1783000D03*
D30*
X40650Y1783000D03*
D35*
X52350Y1783000D03*
D31*
X57300Y1783000D03*
D30*
X60650Y1783000D03*
D33*
X64800Y1783000D03*
D30*
X10650Y1783100D03*
X20650Y1783100D03*
D31*
X24000Y1783100D03*
X27300Y1783100D03*
D30*
X40650Y1783100D03*
D35*
X52350Y1783100D03*
D31*
X57300Y1783100D03*
D30*
X60650Y1783100D03*
D33*
X64800Y1783100D03*
D30*
X10650Y1783200D03*
X20650Y1783200D03*
D31*
X24000Y1783200D03*
X27300Y1783200D03*
D30*
X40650Y1783200D03*
D35*
X52350Y1783200D03*
D31*
X57300Y1783200D03*
D30*
X60650Y1783200D03*
D33*
X64800Y1783200D03*
D30*
X10650Y1783300D03*
X20650Y1783300D03*
D31*
X24000Y1783300D03*
X27300Y1783300D03*
D30*
X40650Y1783300D03*
D35*
X52350Y1783300D03*
D31*
X57300Y1783300D03*
D30*
X60650Y1783300D03*
D33*
X64800Y1783300D03*
D31*
X12300Y1783400D03*
D30*
X15650Y1783400D03*
D35*
X20650Y1783400D03*
D30*
X25650Y1783400D03*
X30650Y1783400D03*
D31*
X34000Y1783400D03*
X37300Y1783400D03*
D32*
X43150Y1783400D03*
D31*
X49000Y1783400D03*
X52300Y1783400D03*
D30*
X55650Y1783400D03*
X60650Y1783400D03*
D33*
X66500Y1783400D03*
D31*
X12300Y1783500D03*
D30*
X15650Y1783500D03*
D35*
X20650Y1783500D03*
D30*
X25650Y1783500D03*
X30650Y1783500D03*
D31*
X34000Y1783500D03*
X37300Y1783500D03*
D32*
X43150Y1783500D03*
D31*
X49000Y1783500D03*
X52300Y1783500D03*
D30*
X55650Y1783500D03*
X60650Y1783500D03*
D33*
X66500Y1783500D03*
D31*
X12300Y1783600D03*
D30*
X15650Y1783600D03*
D35*
X20650Y1783600D03*
D30*
X25650Y1783600D03*
X30650Y1783600D03*
D31*
X34000Y1783600D03*
X37300Y1783600D03*
D32*
X43150Y1783600D03*
D31*
X49000Y1783600D03*
X52300Y1783600D03*
D30*
X55650Y1783600D03*
X60650Y1783600D03*
D33*
X66500Y1783600D03*
D31*
X12300Y1783700D03*
D30*
X15650Y1783700D03*
D35*
X20650Y1783700D03*
D30*
X25650Y1783700D03*
X30650Y1783700D03*
D31*
X34000Y1783700D03*
X37300Y1783700D03*
D32*
X43150Y1783700D03*
D31*
X49000Y1783700D03*
X52300Y1783700D03*
D30*
X55650Y1783700D03*
X60650Y1783700D03*
D33*
X66500Y1783700D03*
D31*
X12300Y1783800D03*
D30*
X15650Y1783800D03*
D35*
X20650Y1783800D03*
D30*
X25650Y1783800D03*
X30650Y1783800D03*
D31*
X34000Y1783800D03*
X37300Y1783800D03*
D32*
X43150Y1783800D03*
D31*
X49000Y1783800D03*
X52300Y1783800D03*
D30*
X55650Y1783800D03*
X60650Y1783800D03*
D33*
X66500Y1783800D03*
D31*
X12300Y1783900D03*
D30*
X15650Y1783900D03*
D35*
X20650Y1783900D03*
D30*
X25650Y1783900D03*
X30650Y1783900D03*
D31*
X34000Y1783900D03*
X37300Y1783900D03*
D32*
X43150Y1783900D03*
D31*
X49000Y1783900D03*
X52300Y1783900D03*
D30*
X55650Y1783900D03*
X60650Y1783900D03*
D33*
X66500Y1783900D03*
D31*
X12300Y1784000D03*
D30*
X15650Y1784000D03*
D35*
X20650Y1784000D03*
D30*
X25650Y1784000D03*
X30650Y1784000D03*
D31*
X34000Y1784000D03*
X37300Y1784000D03*
D32*
X43150Y1784000D03*
D31*
X49000Y1784000D03*
X52300Y1784000D03*
D30*
X55650Y1784000D03*
X60650Y1784000D03*
D33*
X66500Y1784000D03*
D31*
X12300Y1784100D03*
D30*
X15650Y1784100D03*
D35*
X20650Y1784100D03*
D30*
X25650Y1784100D03*
X30650Y1784100D03*
D31*
X34000Y1784100D03*
X37300Y1784100D03*
D32*
X43150Y1784100D03*
D31*
X49000Y1784100D03*
X52300Y1784100D03*
D30*
X55650Y1784100D03*
X60650Y1784100D03*
D33*
X66500Y1784100D03*
D31*
X12300Y1784200D03*
D30*
X15650Y1784200D03*
D35*
X20650Y1784200D03*
D30*
X25650Y1784200D03*
X30650Y1784200D03*
D31*
X34000Y1784200D03*
X37300Y1784200D03*
D32*
X43150Y1784200D03*
D31*
X49000Y1784200D03*
X52300Y1784200D03*
D30*
X55650Y1784200D03*
X60650Y1784200D03*
D33*
X66500Y1784200D03*
D31*
X12300Y1784300D03*
D30*
X15650Y1784300D03*
D35*
X20650Y1784300D03*
D30*
X25650Y1784300D03*
X30650Y1784300D03*
D31*
X34000Y1784300D03*
X37300Y1784300D03*
D32*
X43150Y1784300D03*
D31*
X49000Y1784300D03*
X52300Y1784300D03*
D30*
X55650Y1784300D03*
X60650Y1784300D03*
D33*
X66500Y1784300D03*
D31*
X12300Y1784400D03*
D30*
X15650Y1784400D03*
D35*
X20650Y1784400D03*
D30*
X25650Y1784400D03*
X30650Y1784400D03*
D31*
X34000Y1784400D03*
X37300Y1784400D03*
D32*
X43150Y1784400D03*
D31*
X49000Y1784400D03*
X52300Y1784400D03*
D30*
X55650Y1784400D03*
X60650Y1784400D03*
D33*
X66500Y1784400D03*
D31*
X12300Y1784500D03*
D30*
X15650Y1784500D03*
D35*
X20650Y1784500D03*
D30*
X25650Y1784500D03*
X30650Y1784500D03*
D31*
X34000Y1784500D03*
X37300Y1784500D03*
D32*
X43150Y1784500D03*
D31*
X49000Y1784500D03*
X52300Y1784500D03*
D30*
X55650Y1784500D03*
X60650Y1784500D03*
D33*
X66500Y1784500D03*
D31*
X12300Y1784600D03*
D30*
X15650Y1784600D03*
D35*
X20650Y1784600D03*
D30*
X25650Y1784600D03*
X30650Y1784600D03*
D31*
X34000Y1784600D03*
X37300Y1784600D03*
D32*
X43150Y1784600D03*
D31*
X49000Y1784600D03*
X52300Y1784600D03*
D30*
X55650Y1784600D03*
X60650Y1784600D03*
D33*
X66500Y1784600D03*
D31*
X12300Y1784700D03*
D30*
X15650Y1784700D03*
D35*
X20650Y1784700D03*
D30*
X25650Y1784700D03*
X30650Y1784700D03*
D31*
X34000Y1784700D03*
X37300Y1784700D03*
D32*
X43150Y1784700D03*
D31*
X49000Y1784700D03*
X52300Y1784700D03*
D30*
X55650Y1784700D03*
X60650Y1784700D03*
D33*
X66500Y1784700D03*
D31*
X12300Y1784800D03*
D30*
X15650Y1784800D03*
D35*
X20650Y1784800D03*
D30*
X25650Y1784800D03*
X30650Y1784800D03*
D31*
X34000Y1784800D03*
X37300Y1784800D03*
D32*
X43150Y1784800D03*
D31*
X49000Y1784800D03*
X52300Y1784800D03*
D30*
X55650Y1784800D03*
X60650Y1784800D03*
D33*
X66500Y1784800D03*
D31*
X12300Y1784900D03*
D30*
X15650Y1784900D03*
D35*
X20650Y1784900D03*
D30*
X25650Y1784900D03*
X30650Y1784900D03*
D31*
X34000Y1784900D03*
X37300Y1784900D03*
D32*
X43150Y1784900D03*
D31*
X49000Y1784900D03*
X52300Y1784900D03*
D30*
X55650Y1784900D03*
X60650Y1784900D03*
D33*
X66500Y1784900D03*
D31*
X12300Y1785000D03*
D30*
X15650Y1785000D03*
D35*
X20650Y1785000D03*
D30*
X25650Y1785000D03*
X30650Y1785000D03*
D31*
X34000Y1785000D03*
X37300Y1785000D03*
D32*
X43150Y1785000D03*
D31*
X49000Y1785000D03*
X52300Y1785000D03*
D30*
X55650Y1785000D03*
X60650Y1785000D03*
D33*
X66500Y1785000D03*
X14800Y1785100D03*
X21500Y1785100D03*
X29800Y1785100D03*
X34800Y1785100D03*
D30*
X40650Y1785100D03*
D33*
X44800Y1785100D03*
D35*
X50650Y1785100D03*
D31*
X57300Y1785100D03*
D33*
X14800Y1785200D03*
X21500Y1785200D03*
X29800Y1785200D03*
X34800Y1785200D03*
D30*
X40650Y1785200D03*
D33*
X44800Y1785200D03*
D35*
X50650Y1785200D03*
D31*
X57300Y1785200D03*
D33*
X14800Y1785300D03*
X21500Y1785300D03*
X29800Y1785300D03*
X34800Y1785300D03*
D30*
X40650Y1785300D03*
D33*
X44800Y1785300D03*
D35*
X50650Y1785300D03*
D31*
X57300Y1785300D03*
D33*
X14800Y1785400D03*
X21500Y1785400D03*
X29800Y1785400D03*
X34800Y1785400D03*
D30*
X40650Y1785400D03*
D33*
X44800Y1785400D03*
D35*
X50650Y1785400D03*
D31*
X57300Y1785400D03*
D33*
X14800Y1785500D03*
X21500Y1785500D03*
X29800Y1785500D03*
X34800Y1785500D03*
D30*
X40650Y1785500D03*
D33*
X44800Y1785500D03*
D35*
X50650Y1785500D03*
D31*
X57300Y1785500D03*
D33*
X14800Y1785600D03*
X21500Y1785600D03*
X29800Y1785600D03*
X34800Y1785600D03*
D30*
X40650Y1785600D03*
D33*
X44800Y1785600D03*
D35*
X50650Y1785600D03*
D31*
X57300Y1785600D03*
D33*
X14800Y1785700D03*
X21500Y1785700D03*
X29800Y1785700D03*
X34800Y1785700D03*
D30*
X40650Y1785700D03*
D33*
X44800Y1785700D03*
D35*
X50650Y1785700D03*
D31*
X57300Y1785700D03*
D33*
X14800Y1785800D03*
X21500Y1785800D03*
X29800Y1785800D03*
X34800Y1785800D03*
D30*
X40650Y1785800D03*
D33*
X44800Y1785800D03*
D35*
X50650Y1785800D03*
D31*
X57300Y1785800D03*
D33*
X14800Y1785900D03*
X21500Y1785900D03*
X29800Y1785900D03*
X34800Y1785900D03*
D30*
X40650Y1785900D03*
D33*
X44800Y1785900D03*
D35*
X50650Y1785900D03*
D31*
X57300Y1785900D03*
D33*
X14800Y1786000D03*
X21500Y1786000D03*
X29800Y1786000D03*
X34800Y1786000D03*
D30*
X40650Y1786000D03*
D33*
X44800Y1786000D03*
D35*
X50650Y1786000D03*
D31*
X57300Y1786000D03*
D33*
X14800Y1786100D03*
X21500Y1786100D03*
X29800Y1786100D03*
X34800Y1786100D03*
D30*
X40650Y1786100D03*
D33*
X44800Y1786100D03*
D35*
X50650Y1786100D03*
D31*
X57300Y1786100D03*
D33*
X14800Y1786200D03*
X21500Y1786200D03*
X29800Y1786200D03*
X34800Y1786200D03*
D30*
X40650Y1786200D03*
D33*
X44800Y1786200D03*
D35*
X50650Y1786200D03*
D31*
X57300Y1786200D03*
D33*
X14800Y1786300D03*
X21500Y1786300D03*
X29800Y1786300D03*
X34800Y1786300D03*
D30*
X40650Y1786300D03*
D33*
X44800Y1786300D03*
D35*
X50650Y1786300D03*
D31*
X57300Y1786300D03*
D33*
X14800Y1786400D03*
X21500Y1786400D03*
X29800Y1786400D03*
X34800Y1786400D03*
D30*
X40650Y1786400D03*
D33*
X44800Y1786400D03*
D35*
X50650Y1786400D03*
D31*
X57300Y1786400D03*
D33*
X14800Y1786500D03*
X21500Y1786500D03*
X29800Y1786500D03*
X34800Y1786500D03*
D30*
X40650Y1786500D03*
D33*
X44800Y1786500D03*
D35*
X50650Y1786500D03*
D31*
X57300Y1786500D03*
D33*
X14800Y1786600D03*
X21500Y1786600D03*
X29800Y1786600D03*
X34800Y1786600D03*
D30*
X40650Y1786600D03*
D33*
X44800Y1786600D03*
D35*
X50650Y1786600D03*
D31*
X57300Y1786600D03*
D30*
X10650Y1786700D03*
D31*
X14000Y1786700D03*
X17300Y1786700D03*
D30*
X20650Y1786700D03*
D31*
X24000Y1786700D03*
X27300Y1786700D03*
D30*
X30650Y1786700D03*
D31*
X34000Y1786700D03*
X37300Y1786700D03*
D30*
X40650Y1786700D03*
D31*
X44000Y1786700D03*
X47300Y1786700D03*
D30*
X50650Y1786700D03*
D31*
X54000Y1786700D03*
X57300Y1786700D03*
D30*
X60650Y1786700D03*
D31*
X64000Y1786700D03*
X67300Y1786700D03*
D30*
X10650Y1786800D03*
D31*
X14000Y1786800D03*
X17300Y1786800D03*
D30*
X20650Y1786800D03*
D31*
X24000Y1786800D03*
X27300Y1786800D03*
D30*
X30650Y1786800D03*
D31*
X34000Y1786800D03*
X37300Y1786800D03*
D30*
X40650Y1786800D03*
D31*
X44000Y1786800D03*
X47300Y1786800D03*
D30*
X50650Y1786800D03*
D31*
X54000Y1786800D03*
X57300Y1786800D03*
D30*
X60650Y1786800D03*
D31*
X64000Y1786800D03*
X67300Y1786800D03*
D30*
X10650Y1786900D03*
D31*
X14000Y1786900D03*
X17300Y1786900D03*
D30*
X20650Y1786900D03*
D31*
X24000Y1786900D03*
X27300Y1786900D03*
D30*
X30650Y1786900D03*
D31*
X34000Y1786900D03*
X37300Y1786900D03*
D30*
X40650Y1786900D03*
D31*
X44000Y1786900D03*
X47300Y1786900D03*
D30*
X50650Y1786900D03*
D31*
X54000Y1786900D03*
X57300Y1786900D03*
D30*
X60650Y1786900D03*
D31*
X64000Y1786900D03*
X67300Y1786900D03*
D30*
X10650Y1787000D03*
D31*
X14000Y1787000D03*
X17300Y1787000D03*
D30*
X20650Y1787000D03*
D31*
X24000Y1787000D03*
X27300Y1787000D03*
D30*
X30650Y1787000D03*
D31*
X34000Y1787000D03*
X37300Y1787000D03*
D30*
X40650Y1787000D03*
D31*
X44000Y1787000D03*
X47300Y1787000D03*
D30*
X50650Y1787000D03*
D31*
X54000Y1787000D03*
X57300Y1787000D03*
D30*
X60650Y1787000D03*
D31*
X64000Y1787000D03*
X67300Y1787000D03*
D30*
X10650Y1787100D03*
D31*
X14000Y1787100D03*
X17300Y1787100D03*
D30*
X20650Y1787100D03*
D31*
X24000Y1787100D03*
X27300Y1787100D03*
D30*
X30650Y1787100D03*
D31*
X34000Y1787100D03*
X37300Y1787100D03*
D30*
X40650Y1787100D03*
D31*
X44000Y1787100D03*
X47300Y1787100D03*
D30*
X50650Y1787100D03*
D31*
X54000Y1787100D03*
X57300Y1787100D03*
D30*
X60650Y1787100D03*
D31*
X64000Y1787100D03*
X67300Y1787100D03*
D30*
X10650Y1787200D03*
D31*
X14000Y1787200D03*
X17300Y1787200D03*
D30*
X20650Y1787200D03*
D31*
X24000Y1787200D03*
X27300Y1787200D03*
D30*
X30650Y1787200D03*
D31*
X34000Y1787200D03*
X37300Y1787200D03*
D30*
X40650Y1787200D03*
D31*
X44000Y1787200D03*
X47300Y1787200D03*
D30*
X50650Y1787200D03*
D31*
X54000Y1787200D03*
X57300Y1787200D03*
D30*
X60650Y1787200D03*
D31*
X64000Y1787200D03*
X67300Y1787200D03*
D30*
X10650Y1787300D03*
D31*
X14000Y1787300D03*
X17300Y1787300D03*
D30*
X20650Y1787300D03*
D31*
X24000Y1787300D03*
X27300Y1787300D03*
D30*
X30650Y1787300D03*
D31*
X34000Y1787300D03*
X37300Y1787300D03*
D30*
X40650Y1787300D03*
D31*
X44000Y1787300D03*
X47300Y1787300D03*
D30*
X50650Y1787300D03*
D31*
X54000Y1787300D03*
X57300Y1787300D03*
D30*
X60650Y1787300D03*
D31*
X64000Y1787300D03*
X67300Y1787300D03*
D30*
X10650Y1787400D03*
D31*
X14000Y1787400D03*
X17300Y1787400D03*
D30*
X20650Y1787400D03*
D31*
X24000Y1787400D03*
X27300Y1787400D03*
D30*
X30650Y1787400D03*
D31*
X34000Y1787400D03*
X37300Y1787400D03*
D30*
X40650Y1787400D03*
D31*
X44000Y1787400D03*
X47300Y1787400D03*
D30*
X50650Y1787400D03*
D31*
X54000Y1787400D03*
X57300Y1787400D03*
D30*
X60650Y1787400D03*
D31*
X64000Y1787400D03*
X67300Y1787400D03*
D30*
X10650Y1787500D03*
D31*
X14000Y1787500D03*
X17300Y1787500D03*
D30*
X20650Y1787500D03*
D31*
X24000Y1787500D03*
X27300Y1787500D03*
D30*
X30650Y1787500D03*
D31*
X34000Y1787500D03*
X37300Y1787500D03*
D30*
X40650Y1787500D03*
D31*
X44000Y1787500D03*
X47300Y1787500D03*
D30*
X50650Y1787500D03*
D31*
X54000Y1787500D03*
X57300Y1787500D03*
D30*
X60650Y1787500D03*
D31*
X64000Y1787500D03*
X67300Y1787500D03*
D30*
X10650Y1787600D03*
D31*
X14000Y1787600D03*
X17300Y1787600D03*
D30*
X20650Y1787600D03*
D31*
X24000Y1787600D03*
X27300Y1787600D03*
D30*
X30650Y1787600D03*
D31*
X34000Y1787600D03*
X37300Y1787600D03*
D30*
X40650Y1787600D03*
D31*
X44000Y1787600D03*
X47300Y1787600D03*
D30*
X50650Y1787600D03*
D31*
X54000Y1787600D03*
X57300Y1787600D03*
D30*
X60650Y1787600D03*
D31*
X64000Y1787600D03*
X67300Y1787600D03*
D30*
X10650Y1787700D03*
D31*
X14000Y1787700D03*
X17300Y1787700D03*
D30*
X20650Y1787700D03*
D31*
X24000Y1787700D03*
X27300Y1787700D03*
D30*
X30650Y1787700D03*
D31*
X34000Y1787700D03*
X37300Y1787700D03*
D30*
X40650Y1787700D03*
D31*
X44000Y1787700D03*
X47300Y1787700D03*
D30*
X50650Y1787700D03*
D31*
X54000Y1787700D03*
X57300Y1787700D03*
D30*
X60650Y1787700D03*
D31*
X64000Y1787700D03*
X67300Y1787700D03*
D30*
X10650Y1787800D03*
D31*
X14000Y1787800D03*
X17300Y1787800D03*
D30*
X20650Y1787800D03*
D31*
X24000Y1787800D03*
X27300Y1787800D03*
D30*
X30650Y1787800D03*
D31*
X34000Y1787800D03*
X37300Y1787800D03*
D30*
X40650Y1787800D03*
D31*
X44000Y1787800D03*
X47300Y1787800D03*
D30*
X50650Y1787800D03*
D31*
X54000Y1787800D03*
X57300Y1787800D03*
D30*
X60650Y1787800D03*
D31*
X64000Y1787800D03*
X67300Y1787800D03*
D30*
X10650Y1787900D03*
D31*
X14000Y1787900D03*
X17300Y1787900D03*
D30*
X20650Y1787900D03*
D31*
X24000Y1787900D03*
X27300Y1787900D03*
D30*
X30650Y1787900D03*
D31*
X34000Y1787900D03*
X37300Y1787900D03*
D30*
X40650Y1787900D03*
D31*
X44000Y1787900D03*
X47300Y1787900D03*
D30*
X50650Y1787900D03*
D31*
X54000Y1787900D03*
X57300Y1787900D03*
D30*
X60650Y1787900D03*
D31*
X64000Y1787900D03*
X67300Y1787900D03*
D30*
X10650Y1788000D03*
D31*
X14000Y1788000D03*
X17300Y1788000D03*
D30*
X20650Y1788000D03*
D31*
X24000Y1788000D03*
X27300Y1788000D03*
D30*
X30650Y1788000D03*
D31*
X34000Y1788000D03*
X37300Y1788000D03*
D30*
X40650Y1788000D03*
D31*
X44000Y1788000D03*
X47300Y1788000D03*
D30*
X50650Y1788000D03*
D31*
X54000Y1788000D03*
X57300Y1788000D03*
D30*
X60650Y1788000D03*
D31*
X64000Y1788000D03*
X67300Y1788000D03*
D30*
X10650Y1788100D03*
D31*
X14000Y1788100D03*
X17300Y1788100D03*
D30*
X20650Y1788100D03*
D31*
X24000Y1788100D03*
X27300Y1788100D03*
D30*
X30650Y1788100D03*
D31*
X34000Y1788100D03*
X37300Y1788100D03*
D30*
X40650Y1788100D03*
D31*
X44000Y1788100D03*
X47300Y1788100D03*
D30*
X50650Y1788100D03*
D31*
X54000Y1788100D03*
X57300Y1788100D03*
D30*
X60650Y1788100D03*
D31*
X64000Y1788100D03*
X67300Y1788100D03*
D30*
X10650Y1788200D03*
D31*
X14000Y1788200D03*
X17300Y1788200D03*
D30*
X20650Y1788200D03*
D31*
X24000Y1788200D03*
X27300Y1788200D03*
D30*
X30650Y1788200D03*
D31*
X34000Y1788200D03*
X37300Y1788200D03*
D30*
X40650Y1788200D03*
D31*
X44000Y1788200D03*
X47300Y1788200D03*
D30*
X50650Y1788200D03*
D31*
X54000Y1788200D03*
X57300Y1788200D03*
D30*
X60650Y1788200D03*
D31*
X64000Y1788200D03*
X67300Y1788200D03*
D30*
X10650Y1788300D03*
D31*
X14000Y1788300D03*
X17300Y1788300D03*
D30*
X20650Y1788300D03*
D31*
X24000Y1788300D03*
X27300Y1788300D03*
D30*
X30650Y1788300D03*
D31*
X34000Y1788300D03*
X37300Y1788300D03*
D30*
X40650Y1788300D03*
D31*
X44000Y1788300D03*
X47300Y1788300D03*
D30*
X50650Y1788300D03*
D31*
X54000Y1788300D03*
X57300Y1788300D03*
D30*
X60650Y1788300D03*
D31*
X64000Y1788300D03*
X67300Y1788300D03*
D32*
X13150Y1790100D03*
D31*
X19000Y1790100D03*
X22300Y1790100D03*
D36*
X29850Y1790100D03*
D31*
X37300Y1790100D03*
X42300Y1790100D03*
X52300Y1790100D03*
D33*
X56500Y1790100D03*
D30*
X60650Y1790100D03*
D31*
X67300Y1790100D03*
D32*
X13150Y1790200D03*
D31*
X19000Y1790200D03*
X22300Y1790200D03*
D36*
X29850Y1790200D03*
D31*
X37300Y1790200D03*
X42300Y1790200D03*
X52300Y1790200D03*
D33*
X56500Y1790200D03*
D30*
X60650Y1790200D03*
D31*
X67300Y1790200D03*
D32*
X13150Y1790300D03*
D31*
X19000Y1790300D03*
X22300Y1790300D03*
D36*
X29850Y1790300D03*
D31*
X37300Y1790300D03*
X42300Y1790300D03*
X52300Y1790300D03*
D33*
X56500Y1790300D03*
D30*
X60650Y1790300D03*
D31*
X67300Y1790300D03*
D32*
X13150Y1790400D03*
D31*
X19000Y1790400D03*
X22300Y1790400D03*
D36*
X29850Y1790400D03*
D31*
X37300Y1790400D03*
X42300Y1790400D03*
X52300Y1790400D03*
D33*
X56500Y1790400D03*
D30*
X60650Y1790400D03*
D31*
X67300Y1790400D03*
D32*
X13150Y1790500D03*
D31*
X19000Y1790500D03*
X22300Y1790500D03*
D36*
X29850Y1790500D03*
D31*
X37300Y1790500D03*
X42300Y1790500D03*
X52300Y1790500D03*
D33*
X56500Y1790500D03*
D30*
X60650Y1790500D03*
D31*
X67300Y1790500D03*
D32*
X13150Y1790600D03*
D31*
X19000Y1790600D03*
X22300Y1790600D03*
D36*
X29850Y1790600D03*
D31*
X37300Y1790600D03*
X42300Y1790600D03*
X52300Y1790600D03*
D33*
X56500Y1790600D03*
D30*
X60650Y1790600D03*
D31*
X67300Y1790600D03*
D32*
X13150Y1790700D03*
D31*
X19000Y1790700D03*
X22300Y1790700D03*
D36*
X29850Y1790700D03*
D31*
X37300Y1790700D03*
X42300Y1790700D03*
X52300Y1790700D03*
D33*
X56500Y1790700D03*
D30*
X60650Y1790700D03*
D31*
X67300Y1790700D03*
D32*
X13150Y1790800D03*
D31*
X19000Y1790800D03*
X22300Y1790800D03*
D36*
X29850Y1790800D03*
D31*
X37300Y1790800D03*
X42300Y1790800D03*
X52300Y1790800D03*
D33*
X56500Y1790800D03*
D30*
X60650Y1790800D03*
D31*
X67300Y1790800D03*
D32*
X13150Y1790900D03*
D31*
X19000Y1790900D03*
X22300Y1790900D03*
D36*
X29850Y1790900D03*
D31*
X37300Y1790900D03*
X42300Y1790900D03*
X52300Y1790900D03*
D33*
X56500Y1790900D03*
D30*
X60650Y1790900D03*
D31*
X67300Y1790900D03*
D32*
X13150Y1791000D03*
D31*
X19000Y1791000D03*
X22300Y1791000D03*
D36*
X29850Y1791000D03*
D31*
X37300Y1791000D03*
X42300Y1791000D03*
X52300Y1791000D03*
D33*
X56500Y1791000D03*
D30*
X60650Y1791000D03*
D31*
X67300Y1791000D03*
D32*
X13150Y1791100D03*
D31*
X19000Y1791100D03*
X22300Y1791100D03*
D36*
X29850Y1791100D03*
D31*
X37300Y1791100D03*
X42300Y1791100D03*
X52300Y1791100D03*
D33*
X56500Y1791100D03*
D30*
X60650Y1791100D03*
D31*
X67300Y1791100D03*
D32*
X13150Y1791200D03*
D31*
X19000Y1791200D03*
X22300Y1791200D03*
D36*
X29850Y1791200D03*
D31*
X37300Y1791200D03*
X42300Y1791200D03*
X52300Y1791200D03*
D33*
X56500Y1791200D03*
D30*
X60650Y1791200D03*
D31*
X67300Y1791200D03*
D32*
X13150Y1791300D03*
D31*
X19000Y1791300D03*
X22300Y1791300D03*
D36*
X29850Y1791300D03*
D31*
X37300Y1791300D03*
X42300Y1791300D03*
X52300Y1791300D03*
D33*
X56500Y1791300D03*
D30*
X60650Y1791300D03*
D31*
X67300Y1791300D03*
D32*
X13150Y1791400D03*
D31*
X19000Y1791400D03*
X22300Y1791400D03*
D36*
X29850Y1791400D03*
D31*
X37300Y1791400D03*
X42300Y1791400D03*
X52300Y1791400D03*
D33*
X56500Y1791400D03*
D30*
X60650Y1791400D03*
D31*
X67300Y1791400D03*
D32*
X13150Y1791500D03*
D31*
X19000Y1791500D03*
X22300Y1791500D03*
D36*
X29850Y1791500D03*
D31*
X37300Y1791500D03*
X42300Y1791500D03*
X52300Y1791500D03*
D33*
X56500Y1791500D03*
D30*
X60650Y1791500D03*
D31*
X67300Y1791500D03*
D32*
X13150Y1791600D03*
D31*
X19000Y1791600D03*
X22300Y1791600D03*
D36*
X29850Y1791600D03*
D31*
X37300Y1791600D03*
X42300Y1791600D03*
X52300Y1791600D03*
D33*
X56500Y1791600D03*
D30*
X60650Y1791600D03*
D31*
X67300Y1791600D03*
D35*
X15650Y1791700D03*
D37*
X23150Y1791700D03*
D35*
X33950Y1791700D03*
D30*
X40650Y1791700D03*
D32*
X48150Y1791700D03*
D31*
X52300Y1791700D03*
D35*
X57350Y1791700D03*
D30*
X65650Y1791700D03*
D35*
X15650Y1791800D03*
D37*
X23150Y1791800D03*
D35*
X33950Y1791800D03*
D30*
X40650Y1791800D03*
D32*
X48150Y1791800D03*
D31*
X52300Y1791800D03*
D35*
X57350Y1791800D03*
D30*
X65650Y1791800D03*
D35*
X15650Y1791900D03*
D37*
X23150Y1791900D03*
D35*
X33950Y1791900D03*
D30*
X40650Y1791900D03*
D32*
X48150Y1791900D03*
D31*
X52300Y1791900D03*
D35*
X57350Y1791900D03*
D30*
X65650Y1791900D03*
D35*
X15650Y1792000D03*
D37*
X23150Y1792000D03*
D35*
X33950Y1792000D03*
D30*
X40650Y1792000D03*
D32*
X48150Y1792000D03*
D31*
X52300Y1792000D03*
D35*
X57350Y1792000D03*
D30*
X65650Y1792000D03*
D35*
X15650Y1792100D03*
D37*
X23150Y1792100D03*
D35*
X33950Y1792100D03*
D30*
X40650Y1792100D03*
D32*
X48150Y1792100D03*
D31*
X52300Y1792100D03*
D35*
X57350Y1792100D03*
D30*
X65650Y1792100D03*
D35*
X15650Y1792200D03*
D37*
X23150Y1792200D03*
D35*
X33950Y1792200D03*
D30*
X40650Y1792200D03*
D32*
X48150Y1792200D03*
D31*
X52300Y1792200D03*
D35*
X57350Y1792200D03*
D30*
X65650Y1792200D03*
D35*
X15650Y1792300D03*
D37*
X23150Y1792300D03*
D35*
X33950Y1792300D03*
D30*
X40650Y1792300D03*
D32*
X48150Y1792300D03*
D31*
X52300Y1792300D03*
D35*
X57350Y1792300D03*
D30*
X65650Y1792300D03*
D35*
X15650Y1792400D03*
D37*
X23150Y1792400D03*
D35*
X33950Y1792400D03*
D30*
X40650Y1792400D03*
D32*
X48150Y1792400D03*
D31*
X52300Y1792400D03*
D35*
X57350Y1792400D03*
D30*
X65650Y1792400D03*
D35*
X15650Y1792500D03*
D37*
X23150Y1792500D03*
D35*
X33950Y1792500D03*
D30*
X40650Y1792500D03*
D32*
X48150Y1792500D03*
D31*
X52300Y1792500D03*
D35*
X57350Y1792500D03*
D30*
X65650Y1792500D03*
D35*
X15650Y1792600D03*
D37*
X23150Y1792600D03*
D35*
X33950Y1792600D03*
D30*
X40650Y1792600D03*
D32*
X48150Y1792600D03*
D31*
X52300Y1792600D03*
D35*
X57350Y1792600D03*
D30*
X65650Y1792600D03*
D35*
X15650Y1792700D03*
D37*
X23150Y1792700D03*
D35*
X33950Y1792700D03*
D30*
X40650Y1792700D03*
D32*
X48150Y1792700D03*
D31*
X52300Y1792700D03*
D35*
X57350Y1792700D03*
D30*
X65650Y1792700D03*
D35*
X15650Y1792800D03*
D37*
X23150Y1792800D03*
D35*
X33950Y1792800D03*
D30*
X40650Y1792800D03*
D32*
X48150Y1792800D03*
D31*
X52300Y1792800D03*
D35*
X57350Y1792800D03*
D30*
X65650Y1792800D03*
D35*
X15650Y1792900D03*
D37*
X23150Y1792900D03*
D35*
X33950Y1792900D03*
D30*
X40650Y1792900D03*
D32*
X48150Y1792900D03*
D31*
X52300Y1792900D03*
D35*
X57350Y1792900D03*
D30*
X65650Y1792900D03*
D35*
X15650Y1793000D03*
D37*
X23150Y1793000D03*
D35*
X33950Y1793000D03*
D30*
X40650Y1793000D03*
D32*
X48150Y1793000D03*
D31*
X52300Y1793000D03*
D35*
X57350Y1793000D03*
D30*
X65650Y1793000D03*
D35*
X15650Y1793100D03*
D37*
X23150Y1793100D03*
D35*
X33950Y1793100D03*
D30*
X40650Y1793100D03*
D32*
X48150Y1793100D03*
D31*
X52300Y1793100D03*
D35*
X57350Y1793100D03*
D30*
X65650Y1793100D03*
D35*
X15650Y1793200D03*
D37*
X23150Y1793200D03*
D35*
X33950Y1793200D03*
D30*
X40650Y1793200D03*
D32*
X48150Y1793200D03*
D31*
X52300Y1793200D03*
D35*
X57350Y1793200D03*
D30*
X65650Y1793200D03*
D35*
X15650Y1793300D03*
D37*
X23150Y1793300D03*
D35*
X33950Y1793300D03*
D30*
X40650Y1793300D03*
D32*
X48150Y1793300D03*
D31*
X52300Y1793300D03*
D35*
X57350Y1793300D03*
D30*
X65650Y1793300D03*
D33*
X11500Y1793400D03*
D31*
X17300Y1793400D03*
X22300Y1793400D03*
D32*
X28150Y1793400D03*
D31*
X34000Y1793400D03*
X37300Y1793400D03*
D30*
X40650Y1793400D03*
D33*
X46500Y1793400D03*
D30*
X50650Y1793400D03*
D31*
X57300Y1793400D03*
X62300Y1793400D03*
D33*
X66500Y1793400D03*
X11500Y1793500D03*
D31*
X17300Y1793500D03*
X22300Y1793500D03*
D32*
X28150Y1793500D03*
D31*
X34000Y1793500D03*
X37300Y1793500D03*
D30*
X40650Y1793500D03*
D33*
X46500Y1793500D03*
D30*
X50650Y1793500D03*
D31*
X57300Y1793500D03*
X62300Y1793500D03*
D33*
X66500Y1793500D03*
X11500Y1793600D03*
D31*
X17300Y1793600D03*
X22300Y1793600D03*
D32*
X28150Y1793600D03*
D31*
X34000Y1793600D03*
X37300Y1793600D03*
D30*
X40650Y1793600D03*
D33*
X46500Y1793600D03*
D30*
X50650Y1793600D03*
D31*
X57300Y1793600D03*
X62300Y1793600D03*
D33*
X66500Y1793600D03*
X11500Y1793700D03*
D31*
X17300Y1793700D03*
X22300Y1793700D03*
D32*
X28150Y1793700D03*
D31*
X34000Y1793700D03*
X37300Y1793700D03*
D30*
X40650Y1793700D03*
D33*
X46500Y1793700D03*
D30*
X50650Y1793700D03*
D31*
X57300Y1793700D03*
X62300Y1793700D03*
D33*
X66500Y1793700D03*
X11500Y1793800D03*
D31*
X17300Y1793800D03*
X22300Y1793800D03*
D32*
X28150Y1793800D03*
D31*
X34000Y1793800D03*
X37300Y1793800D03*
D30*
X40650Y1793800D03*
D33*
X46500Y1793800D03*
D30*
X50650Y1793800D03*
D31*
X57300Y1793800D03*
X62300Y1793800D03*
D33*
X66500Y1793800D03*
X11500Y1793900D03*
D31*
X17300Y1793900D03*
X22300Y1793900D03*
D32*
X28150Y1793900D03*
D31*
X34000Y1793900D03*
X37300Y1793900D03*
D30*
X40650Y1793900D03*
D33*
X46500Y1793900D03*
D30*
X50650Y1793900D03*
D31*
X57300Y1793900D03*
X62300Y1793900D03*
D33*
X66500Y1793900D03*
X11500Y1794000D03*
D31*
X17300Y1794000D03*
X22300Y1794000D03*
D32*
X28150Y1794000D03*
D31*
X34000Y1794000D03*
X37300Y1794000D03*
D30*
X40650Y1794000D03*
D33*
X46500Y1794000D03*
D30*
X50650Y1794000D03*
D31*
X57300Y1794000D03*
X62300Y1794000D03*
D33*
X66500Y1794000D03*
X11500Y1794100D03*
D31*
X17300Y1794100D03*
X22300Y1794100D03*
D32*
X28150Y1794100D03*
D31*
X34000Y1794100D03*
X37300Y1794100D03*
D30*
X40650Y1794100D03*
D33*
X46500Y1794100D03*
D30*
X50650Y1794100D03*
D31*
X57300Y1794100D03*
X62300Y1794100D03*
D33*
X66500Y1794100D03*
X11500Y1794200D03*
D31*
X17300Y1794200D03*
X22300Y1794200D03*
D32*
X28150Y1794200D03*
D31*
X34000Y1794200D03*
X37300Y1794200D03*
D30*
X40650Y1794200D03*
D33*
X46500Y1794200D03*
D30*
X50650Y1794200D03*
D31*
X57300Y1794200D03*
X62300Y1794200D03*
D33*
X66500Y1794200D03*
X11500Y1794300D03*
D31*
X17300Y1794300D03*
X22300Y1794300D03*
D32*
X28150Y1794300D03*
D31*
X34000Y1794300D03*
X37300Y1794300D03*
D30*
X40650Y1794300D03*
D33*
X46500Y1794300D03*
D30*
X50650Y1794300D03*
D31*
X57300Y1794300D03*
X62300Y1794300D03*
D33*
X66500Y1794300D03*
X11500Y1794400D03*
D31*
X17300Y1794400D03*
X22300Y1794400D03*
D32*
X28150Y1794400D03*
D31*
X34000Y1794400D03*
X37300Y1794400D03*
D30*
X40650Y1794400D03*
D33*
X46500Y1794400D03*
D30*
X50650Y1794400D03*
D31*
X57300Y1794400D03*
X62300Y1794400D03*
D33*
X66500Y1794400D03*
X11500Y1794500D03*
D31*
X17300Y1794500D03*
X22300Y1794500D03*
D32*
X28150Y1794500D03*
D31*
X34000Y1794500D03*
X37300Y1794500D03*
D30*
X40650Y1794500D03*
D33*
X46500Y1794500D03*
D30*
X50650Y1794500D03*
D31*
X57300Y1794500D03*
X62300Y1794500D03*
D33*
X66500Y1794500D03*
X11500Y1794600D03*
D31*
X17300Y1794600D03*
X22300Y1794600D03*
D32*
X28150Y1794600D03*
D31*
X34000Y1794600D03*
X37300Y1794600D03*
D30*
X40650Y1794600D03*
D33*
X46500Y1794600D03*
D30*
X50650Y1794600D03*
D31*
X57300Y1794600D03*
X62300Y1794600D03*
D33*
X66500Y1794600D03*
X11500Y1794700D03*
D31*
X17300Y1794700D03*
X22300Y1794700D03*
D32*
X28150Y1794700D03*
D31*
X34000Y1794700D03*
X37300Y1794700D03*
D30*
X40650Y1794700D03*
D33*
X46500Y1794700D03*
D30*
X50650Y1794700D03*
D31*
X57300Y1794700D03*
X62300Y1794700D03*
D33*
X66500Y1794700D03*
X11500Y1794800D03*
D31*
X17300Y1794800D03*
X22300Y1794800D03*
D32*
X28150Y1794800D03*
D31*
X34000Y1794800D03*
X37300Y1794800D03*
D30*
X40650Y1794800D03*
D33*
X46500Y1794800D03*
D30*
X50650Y1794800D03*
D31*
X57300Y1794800D03*
X62300Y1794800D03*
D33*
X66500Y1794800D03*
X11500Y1794900D03*
D31*
X17300Y1794900D03*
X22300Y1794900D03*
D32*
X28150Y1794900D03*
D31*
X34000Y1794900D03*
X37300Y1794900D03*
D30*
X40650Y1794900D03*
D33*
X46500Y1794900D03*
D30*
X50650Y1794900D03*
D31*
X57300Y1794900D03*
X62300Y1794900D03*
D33*
X66500Y1794900D03*
X11500Y1795000D03*
D31*
X17300Y1795000D03*
X22300Y1795000D03*
D32*
X28150Y1795000D03*
D31*
X34000Y1795000D03*
X37300Y1795000D03*
D30*
X40650Y1795000D03*
D33*
X46500Y1795000D03*
D30*
X50650Y1795000D03*
D31*
X57300Y1795000D03*
X62300Y1795000D03*
D33*
X66500Y1795000D03*
D31*
X12300Y1795100D03*
D33*
X16500Y1795100D03*
D31*
X24000Y1795100D03*
D32*
X28150Y1795100D03*
D31*
X32300Y1795100D03*
D30*
X40650Y1795100D03*
X45650Y1795100D03*
D29*
X52300Y1795100D03*
D31*
X59000Y1795100D03*
D33*
X64800Y1795100D03*
D31*
X12300Y1795200D03*
D33*
X16500Y1795200D03*
D31*
X24000Y1795200D03*
D32*
X28150Y1795200D03*
D31*
X32300Y1795200D03*
D30*
X40650Y1795200D03*
X45650Y1795200D03*
D29*
X52300Y1795200D03*
D31*
X59000Y1795200D03*
D33*
X64800Y1795200D03*
D31*
X12300Y1795300D03*
D33*
X16500Y1795300D03*
D31*
X24000Y1795300D03*
D32*
X28150Y1795300D03*
D31*
X32300Y1795300D03*
D30*
X40650Y1795300D03*
X45650Y1795300D03*
D29*
X52300Y1795300D03*
D31*
X59000Y1795300D03*
D33*
X64800Y1795300D03*
D31*
X12300Y1795400D03*
D33*
X16500Y1795400D03*
D31*
X24000Y1795400D03*
D32*
X28150Y1795400D03*
D31*
X32300Y1795400D03*
D30*
X40650Y1795400D03*
X45650Y1795400D03*
D29*
X52300Y1795400D03*
D31*
X59000Y1795400D03*
D33*
X64800Y1795400D03*
D31*
X12300Y1795500D03*
D33*
X16500Y1795500D03*
D31*
X24000Y1795500D03*
D32*
X28150Y1795500D03*
D31*
X32300Y1795500D03*
D30*
X40650Y1795500D03*
X45650Y1795500D03*
D29*
X52300Y1795500D03*
D31*
X59000Y1795500D03*
D33*
X64800Y1795500D03*
D31*
X12300Y1795600D03*
D33*
X16500Y1795600D03*
D31*
X24000Y1795600D03*
D32*
X28150Y1795600D03*
D31*
X32300Y1795600D03*
D30*
X40650Y1795600D03*
X45650Y1795600D03*
D29*
X52300Y1795600D03*
D31*
X59000Y1795600D03*
D33*
X64800Y1795600D03*
D31*
X12300Y1795700D03*
D33*
X16500Y1795700D03*
D31*
X24000Y1795700D03*
D32*
X28150Y1795700D03*
D31*
X32300Y1795700D03*
D30*
X40650Y1795700D03*
X45650Y1795700D03*
D29*
X52300Y1795700D03*
D31*
X59000Y1795700D03*
D33*
X64800Y1795700D03*
D31*
X12300Y1795800D03*
D33*
X16500Y1795800D03*
D31*
X24000Y1795800D03*
D32*
X28150Y1795800D03*
D31*
X32300Y1795800D03*
D30*
X40650Y1795800D03*
X45650Y1795800D03*
D29*
X52300Y1795800D03*
D31*
X59000Y1795800D03*
D33*
X64800Y1795800D03*
D31*
X12300Y1795900D03*
D33*
X16500Y1795900D03*
D31*
X24000Y1795900D03*
D32*
X28150Y1795900D03*
D31*
X32300Y1795900D03*
D30*
X40650Y1795900D03*
X45650Y1795900D03*
D29*
X52300Y1795900D03*
D31*
X59000Y1795900D03*
D33*
X64800Y1795900D03*
D31*
X12300Y1796000D03*
D33*
X16500Y1796000D03*
D31*
X24000Y1796000D03*
D32*
X28150Y1796000D03*
D31*
X32300Y1796000D03*
D30*
X40650Y1796000D03*
X45650Y1796000D03*
D29*
X52300Y1796000D03*
D31*
X59000Y1796000D03*
D33*
X64800Y1796000D03*
D31*
X12300Y1796100D03*
D33*
X16500Y1796100D03*
D31*
X24000Y1796100D03*
D32*
X28150Y1796100D03*
D31*
X32300Y1796100D03*
D30*
X40650Y1796100D03*
X45650Y1796100D03*
D29*
X52300Y1796100D03*
D31*
X59000Y1796100D03*
D33*
X64800Y1796100D03*
D31*
X12300Y1796200D03*
D33*
X16500Y1796200D03*
D31*
X24000Y1796200D03*
D32*
X28150Y1796200D03*
D31*
X32300Y1796200D03*
D30*
X40650Y1796200D03*
X45650Y1796200D03*
D29*
X52300Y1796200D03*
D31*
X59000Y1796200D03*
D33*
X64800Y1796200D03*
D31*
X12300Y1796300D03*
D33*
X16500Y1796300D03*
D31*
X24000Y1796300D03*
D32*
X28150Y1796300D03*
D31*
X32300Y1796300D03*
D30*
X40650Y1796300D03*
X45650Y1796300D03*
D29*
X52300Y1796300D03*
D31*
X59000Y1796300D03*
D33*
X64800Y1796300D03*
D31*
X12300Y1796400D03*
D33*
X16500Y1796400D03*
D31*
X24000Y1796400D03*
D32*
X28150Y1796400D03*
D31*
X32300Y1796400D03*
D30*
X40650Y1796400D03*
X45650Y1796400D03*
D29*
X52300Y1796400D03*
D31*
X59000Y1796400D03*
D33*
X64800Y1796400D03*
D31*
X12300Y1796500D03*
D33*
X16500Y1796500D03*
D31*
X24000Y1796500D03*
D32*
X28150Y1796500D03*
D31*
X32300Y1796500D03*
D30*
X40650Y1796500D03*
X45650Y1796500D03*
D29*
X52300Y1796500D03*
D31*
X59000Y1796500D03*
D33*
X64800Y1796500D03*
D31*
X12300Y1796600D03*
D33*
X16500Y1796600D03*
D31*
X24000Y1796600D03*
D32*
X28150Y1796600D03*
D31*
X32300Y1796600D03*
D30*
X40650Y1796600D03*
X45650Y1796600D03*
D29*
X52300Y1796600D03*
D31*
X59000Y1796600D03*
D33*
X64800Y1796600D03*
D37*
X13150Y1796700D03*
D29*
X24000Y1796700D03*
D30*
X30650Y1796700D03*
D35*
X35650Y1796700D03*
X47350Y1796700D03*
D31*
X52300Y1796700D03*
D35*
X57350Y1796700D03*
X65650Y1796700D03*
D37*
X13150Y1796800D03*
D29*
X24000Y1796800D03*
D30*
X30650Y1796800D03*
D35*
X35650Y1796800D03*
X47350Y1796800D03*
D31*
X52300Y1796800D03*
D35*
X57350Y1796800D03*
X65650Y1796800D03*
D37*
X13150Y1796900D03*
D29*
X24000Y1796900D03*
D30*
X30650Y1796900D03*
D35*
X35650Y1796900D03*
X47350Y1796900D03*
D31*
X52300Y1796900D03*
D35*
X57350Y1796900D03*
X65650Y1796900D03*
D37*
X13150Y1797000D03*
D29*
X24000Y1797000D03*
D30*
X30650Y1797000D03*
D35*
X35650Y1797000D03*
X47350Y1797000D03*
D31*
X52300Y1797000D03*
D35*
X57350Y1797000D03*
X65650Y1797000D03*
D37*
X13150Y1797100D03*
D29*
X24000Y1797100D03*
D30*
X30650Y1797100D03*
D35*
X35650Y1797100D03*
X47350Y1797100D03*
D31*
X52300Y1797100D03*
D35*
X57350Y1797100D03*
X65650Y1797100D03*
D37*
X13150Y1797200D03*
D29*
X24000Y1797200D03*
D30*
X30650Y1797200D03*
D35*
X35650Y1797200D03*
X47350Y1797200D03*
D31*
X52300Y1797200D03*
D35*
X57350Y1797200D03*
X65650Y1797200D03*
D37*
X13150Y1797300D03*
D29*
X24000Y1797300D03*
D30*
X30650Y1797300D03*
D35*
X35650Y1797300D03*
X47350Y1797300D03*
D31*
X52300Y1797300D03*
D35*
X57350Y1797300D03*
X65650Y1797300D03*
D37*
X13150Y1797400D03*
D29*
X24000Y1797400D03*
D30*
X30650Y1797400D03*
D35*
X35650Y1797400D03*
X47350Y1797400D03*
D31*
X52300Y1797400D03*
D35*
X57350Y1797400D03*
X65650Y1797400D03*
D37*
X13150Y1797500D03*
D29*
X24000Y1797500D03*
D30*
X30650Y1797500D03*
D35*
X35650Y1797500D03*
X47350Y1797500D03*
D31*
X52300Y1797500D03*
D35*
X57350Y1797500D03*
X65650Y1797500D03*
D37*
X13150Y1797600D03*
D29*
X24000Y1797600D03*
D30*
X30650Y1797600D03*
D35*
X35650Y1797600D03*
X47350Y1797600D03*
D31*
X52300Y1797600D03*
D35*
X57350Y1797600D03*
X65650Y1797600D03*
D37*
X13150Y1797700D03*
D29*
X24000Y1797700D03*
D30*
X30650Y1797700D03*
D35*
X35650Y1797700D03*
X47350Y1797700D03*
D31*
X52300Y1797700D03*
D35*
X57350Y1797700D03*
X65650Y1797700D03*
D37*
X13150Y1797800D03*
D29*
X24000Y1797800D03*
D30*
X30650Y1797800D03*
D35*
X35650Y1797800D03*
X47350Y1797800D03*
D31*
X52300Y1797800D03*
D35*
X57350Y1797800D03*
X65650Y1797800D03*
D37*
X13150Y1797900D03*
D29*
X24000Y1797900D03*
D30*
X30650Y1797900D03*
D35*
X35650Y1797900D03*
X47350Y1797900D03*
D31*
X52300Y1797900D03*
D35*
X57350Y1797900D03*
X65650Y1797900D03*
D37*
X13150Y1798000D03*
D29*
X24000Y1798000D03*
D30*
X30650Y1798000D03*
D35*
X35650Y1798000D03*
X47350Y1798000D03*
D31*
X52300Y1798000D03*
D35*
X57350Y1798000D03*
X65650Y1798000D03*
D37*
X13150Y1798100D03*
D29*
X24000Y1798100D03*
D30*
X30650Y1798100D03*
D35*
X35650Y1798100D03*
X47350Y1798100D03*
D31*
X52300Y1798100D03*
D35*
X57350Y1798100D03*
X65650Y1798100D03*
D37*
X13150Y1798200D03*
D29*
X24000Y1798200D03*
D30*
X30650Y1798200D03*
D35*
X35650Y1798200D03*
X47350Y1798200D03*
D31*
X52300Y1798200D03*
D35*
X57350Y1798200D03*
X65650Y1798200D03*
D37*
X13150Y1798300D03*
D29*
X24000Y1798300D03*
D30*
X30650Y1798300D03*
D35*
X35650Y1798300D03*
X47350Y1798300D03*
D31*
X52300Y1798300D03*
D35*
X57350Y1798300D03*
X65650Y1798300D03*
D30*
X10650Y1798400D03*
D35*
X22350Y1798400D03*
X28950Y1798400D03*
D30*
X35650Y1798400D03*
D38*
X53150Y1798400D03*
D35*
X63950Y1798400D03*
D30*
X10650Y1798500D03*
D35*
X22350Y1798500D03*
X28950Y1798500D03*
D30*
X35650Y1798500D03*
D38*
X53150Y1798500D03*
D35*
X63950Y1798500D03*
D30*
X10650Y1798600D03*
D35*
X22350Y1798600D03*
X28950Y1798600D03*
D30*
X35650Y1798600D03*
D38*
X53150Y1798600D03*
D35*
X63950Y1798600D03*
D30*
X10650Y1798700D03*
D35*
X22350Y1798700D03*
X28950Y1798700D03*
D30*
X35650Y1798700D03*
D38*
X53150Y1798700D03*
D35*
X63950Y1798700D03*
D30*
X10650Y1798800D03*
D35*
X22350Y1798800D03*
X28950Y1798800D03*
D30*
X35650Y1798800D03*
D38*
X53150Y1798800D03*
D35*
X63950Y1798800D03*
D30*
X10650Y1798900D03*
D35*
X22350Y1798900D03*
X28950Y1798900D03*
D30*
X35650Y1798900D03*
D38*
X53150Y1798900D03*
D35*
X63950Y1798900D03*
D30*
X10650Y1799000D03*
D35*
X22350Y1799000D03*
X28950Y1799000D03*
D30*
X35650Y1799000D03*
D38*
X53150Y1799000D03*
D35*
X63950Y1799000D03*
D30*
X10650Y1799100D03*
D35*
X22350Y1799100D03*
X28950Y1799100D03*
D30*
X35650Y1799100D03*
D38*
X53150Y1799100D03*
D35*
X63950Y1799100D03*
D30*
X10650Y1799200D03*
D35*
X22350Y1799200D03*
X28950Y1799200D03*
D30*
X35650Y1799200D03*
D38*
X53150Y1799200D03*
D35*
X63950Y1799200D03*
D30*
X10650Y1799300D03*
D35*
X22350Y1799300D03*
X28950Y1799300D03*
D30*
X35650Y1799300D03*
D38*
X53150Y1799300D03*
D35*
X63950Y1799300D03*
D30*
X10650Y1799400D03*
D35*
X22350Y1799400D03*
X28950Y1799400D03*
D30*
X35650Y1799400D03*
D38*
X53150Y1799400D03*
D35*
X63950Y1799400D03*
D30*
X10650Y1799500D03*
D35*
X22350Y1799500D03*
X28950Y1799500D03*
D30*
X35650Y1799500D03*
D38*
X53150Y1799500D03*
D35*
X63950Y1799500D03*
D30*
X10650Y1799600D03*
D35*
X22350Y1799600D03*
X28950Y1799600D03*
D30*
X35650Y1799600D03*
D38*
X53150Y1799600D03*
D35*
X63950Y1799600D03*
D30*
X10650Y1799700D03*
D35*
X22350Y1799700D03*
X28950Y1799700D03*
D30*
X35650Y1799700D03*
D38*
X53150Y1799700D03*
D35*
X63950Y1799700D03*
D30*
X10650Y1799800D03*
D35*
X22350Y1799800D03*
X28950Y1799800D03*
D30*
X35650Y1799800D03*
D38*
X53150Y1799800D03*
D35*
X63950Y1799800D03*
D30*
X10650Y1799900D03*
D35*
X22350Y1799900D03*
X28950Y1799900D03*
D30*
X35650Y1799900D03*
D38*
X53150Y1799900D03*
D35*
X63950Y1799900D03*
D30*
X10650Y1800000D03*
D35*
X22350Y1800000D03*
X28950Y1800000D03*
D30*
X35650Y1800000D03*
D38*
X53150Y1800000D03*
D35*
X63950Y1800000D03*
D30*
X10650Y1800100D03*
D31*
X14000Y1800100D03*
X17300Y1800100D03*
D33*
X21500Y1800100D03*
D30*
X25650Y1800100D03*
D29*
X34000Y1800100D03*
D30*
X40650Y1800100D03*
D33*
X44800Y1800100D03*
X49800Y1800100D03*
D30*
X55650Y1800100D03*
D33*
X59800Y1800100D03*
X66500Y1800100D03*
D30*
X10650Y1800200D03*
D31*
X14000Y1800200D03*
X17300Y1800200D03*
D33*
X21500Y1800200D03*
D30*
X25650Y1800200D03*
D29*
X34000Y1800200D03*
D30*
X40650Y1800200D03*
D33*
X44800Y1800200D03*
X49800Y1800200D03*
D30*
X55650Y1800200D03*
D33*
X59800Y1800200D03*
X66500Y1800200D03*
D30*
X10650Y1800300D03*
D31*
X14000Y1800300D03*
X17300Y1800300D03*
D33*
X21500Y1800300D03*
D30*
X25650Y1800300D03*
D29*
X34000Y1800300D03*
D30*
X40650Y1800300D03*
D33*
X44800Y1800300D03*
X49800Y1800300D03*
D30*
X55650Y1800300D03*
D33*
X59800Y1800300D03*
X66500Y1800300D03*
D30*
X10650Y1800400D03*
D31*
X14000Y1800400D03*
X17300Y1800400D03*
D33*
X21500Y1800400D03*
D30*
X25650Y1800400D03*
D29*
X34000Y1800400D03*
D30*
X40650Y1800400D03*
D33*
X44800Y1800400D03*
X49800Y1800400D03*
D30*
X55650Y1800400D03*
D33*
X59800Y1800400D03*
X66500Y1800400D03*
D30*
X10650Y1800500D03*
D31*
X14000Y1800500D03*
X17300Y1800500D03*
D33*
X21500Y1800500D03*
D30*
X25650Y1800500D03*
D29*
X34000Y1800500D03*
D30*
X40650Y1800500D03*
D33*
X44800Y1800500D03*
X49800Y1800500D03*
D30*
X55650Y1800500D03*
D33*
X59800Y1800500D03*
X66500Y1800500D03*
D30*
X10650Y1800600D03*
D31*
X14000Y1800600D03*
X17300Y1800600D03*
D33*
X21500Y1800600D03*
D30*
X25650Y1800600D03*
D29*
X34000Y1800600D03*
D30*
X40650Y1800600D03*
D33*
X44800Y1800600D03*
X49800Y1800600D03*
D30*
X55650Y1800600D03*
D33*
X59800Y1800600D03*
X66500Y1800600D03*
D30*
X10650Y1800700D03*
D31*
X14000Y1800700D03*
X17300Y1800700D03*
D33*
X21500Y1800700D03*
D30*
X25650Y1800700D03*
D29*
X34000Y1800700D03*
D30*
X40650Y1800700D03*
D33*
X44800Y1800700D03*
X49800Y1800700D03*
D30*
X55650Y1800700D03*
D33*
X59800Y1800700D03*
X66500Y1800700D03*
D30*
X10650Y1800800D03*
D31*
X14000Y1800800D03*
X17300Y1800800D03*
D33*
X21500Y1800800D03*
D30*
X25650Y1800800D03*
D29*
X34000Y1800800D03*
D30*
X40650Y1800800D03*
D33*
X44800Y1800800D03*
X49800Y1800800D03*
D30*
X55650Y1800800D03*
D33*
X59800Y1800800D03*
X66500Y1800800D03*
D30*
X10650Y1800900D03*
D31*
X14000Y1800900D03*
X17300Y1800900D03*
D33*
X21500Y1800900D03*
D30*
X25650Y1800900D03*
D29*
X34000Y1800900D03*
D30*
X40650Y1800900D03*
D33*
X44800Y1800900D03*
X49800Y1800900D03*
D30*
X55650Y1800900D03*
D33*
X59800Y1800900D03*
X66500Y1800900D03*
D30*
X10650Y1801000D03*
D31*
X14000Y1801000D03*
X17300Y1801000D03*
D33*
X21500Y1801000D03*
D30*
X25650Y1801000D03*
D29*
X34000Y1801000D03*
D30*
X40650Y1801000D03*
D33*
X44800Y1801000D03*
X49800Y1801000D03*
D30*
X55650Y1801000D03*
D33*
X59800Y1801000D03*
X66500Y1801000D03*
D30*
X10650Y1801100D03*
D31*
X14000Y1801100D03*
X17300Y1801100D03*
D33*
X21500Y1801100D03*
D30*
X25650Y1801100D03*
D29*
X34000Y1801100D03*
D30*
X40650Y1801100D03*
D33*
X44800Y1801100D03*
X49800Y1801100D03*
D30*
X55650Y1801100D03*
D33*
X59800Y1801100D03*
X66500Y1801100D03*
D30*
X10650Y1801200D03*
D31*
X14000Y1801200D03*
X17300Y1801200D03*
D33*
X21500Y1801200D03*
D30*
X25650Y1801200D03*
D29*
X34000Y1801200D03*
D30*
X40650Y1801200D03*
D33*
X44800Y1801200D03*
X49800Y1801200D03*
D30*
X55650Y1801200D03*
D33*
X59800Y1801200D03*
X66500Y1801200D03*
D30*
X10650Y1801300D03*
D31*
X14000Y1801300D03*
X17300Y1801300D03*
D33*
X21500Y1801300D03*
D30*
X25650Y1801300D03*
D29*
X34000Y1801300D03*
D30*
X40650Y1801300D03*
D33*
X44800Y1801300D03*
X49800Y1801300D03*
D30*
X55650Y1801300D03*
D33*
X59800Y1801300D03*
X66500Y1801300D03*
D30*
X10650Y1801400D03*
D31*
X14000Y1801400D03*
X17300Y1801400D03*
D33*
X21500Y1801400D03*
D30*
X25650Y1801400D03*
D29*
X34000Y1801400D03*
D30*
X40650Y1801400D03*
D33*
X44800Y1801400D03*
X49800Y1801400D03*
D30*
X55650Y1801400D03*
D33*
X59800Y1801400D03*
X66500Y1801400D03*
D30*
X10650Y1801500D03*
D31*
X14000Y1801500D03*
X17300Y1801500D03*
D33*
X21500Y1801500D03*
D30*
X25650Y1801500D03*
D29*
X34000Y1801500D03*
D30*
X40650Y1801500D03*
D33*
X44800Y1801500D03*
X49800Y1801500D03*
D30*
X55650Y1801500D03*
D33*
X59800Y1801500D03*
X66500Y1801500D03*
D30*
X10650Y1801600D03*
D31*
X14000Y1801600D03*
X17300Y1801600D03*
D33*
X21500Y1801600D03*
D30*
X25650Y1801600D03*
D29*
X34000Y1801600D03*
D30*
X40650Y1801600D03*
D33*
X44800Y1801600D03*
X49800Y1801600D03*
D30*
X55650Y1801600D03*
D33*
X59800Y1801600D03*
X66500Y1801600D03*
D34*
X16500Y1801700D03*
D31*
X24000Y1801700D03*
D33*
X29800Y1801700D03*
D31*
X34000Y1801700D03*
X42300Y1801700D03*
D39*
X50650Y1801700D03*
D31*
X59000Y1801700D03*
X62300Y1801700D03*
D30*
X65650Y1801700D03*
D34*
X16500Y1801800D03*
D31*
X24000Y1801800D03*
D33*
X29800Y1801800D03*
D31*
X34000Y1801800D03*
X42300Y1801800D03*
D39*
X50650Y1801800D03*
D31*
X59000Y1801800D03*
X62300Y1801800D03*
D30*
X65650Y1801800D03*
D34*
X16500Y1801900D03*
D31*
X24000Y1801900D03*
D33*
X29800Y1801900D03*
D31*
X34000Y1801900D03*
X42300Y1801900D03*
D39*
X50650Y1801900D03*
D31*
X59000Y1801900D03*
X62300Y1801900D03*
D30*
X65650Y1801900D03*
D34*
X16500Y1802000D03*
D31*
X24000Y1802000D03*
D33*
X29800Y1802000D03*
D31*
X34000Y1802000D03*
X42300Y1802000D03*
D39*
X50650Y1802000D03*
D31*
X59000Y1802000D03*
X62300Y1802000D03*
D30*
X65650Y1802000D03*
D34*
X16500Y1802100D03*
D31*
X24000Y1802100D03*
D33*
X29800Y1802100D03*
D31*
X34000Y1802100D03*
X42300Y1802100D03*
D39*
X50650Y1802100D03*
D31*
X59000Y1802100D03*
X62300Y1802100D03*
D30*
X65650Y1802100D03*
D34*
X16500Y1802200D03*
D31*
X24000Y1802200D03*
D33*
X29800Y1802200D03*
D31*
X34000Y1802200D03*
X42300Y1802200D03*
D39*
X50650Y1802200D03*
D31*
X59000Y1802200D03*
X62300Y1802200D03*
D30*
X65650Y1802200D03*
D34*
X16500Y1802300D03*
D31*
X24000Y1802300D03*
D33*
X29800Y1802300D03*
D31*
X34000Y1802300D03*
X42300Y1802300D03*
D39*
X50650Y1802300D03*
D31*
X59000Y1802300D03*
X62300Y1802300D03*
D30*
X65650Y1802300D03*
D34*
X16500Y1802400D03*
D31*
X24000Y1802400D03*
D33*
X29800Y1802400D03*
D31*
X34000Y1802400D03*
X42300Y1802400D03*
D39*
X50650Y1802400D03*
D31*
X59000Y1802400D03*
X62300Y1802400D03*
D30*
X65650Y1802400D03*
D34*
X16500Y1802500D03*
D31*
X24000Y1802500D03*
D33*
X29800Y1802500D03*
D31*
X34000Y1802500D03*
X42300Y1802500D03*
D39*
X50650Y1802500D03*
D31*
X59000Y1802500D03*
X62300Y1802500D03*
D30*
X65650Y1802500D03*
D34*
X16500Y1802600D03*
D31*
X24000Y1802600D03*
D33*
X29800Y1802600D03*
D31*
X34000Y1802600D03*
X42300Y1802600D03*
D39*
X50650Y1802600D03*
D31*
X59000Y1802600D03*
X62300Y1802600D03*
D30*
X65650Y1802600D03*
D34*
X16500Y1802700D03*
D31*
X24000Y1802700D03*
D33*
X29800Y1802700D03*
D31*
X34000Y1802700D03*
X42300Y1802700D03*
D39*
X50650Y1802700D03*
D31*
X59000Y1802700D03*
X62300Y1802700D03*
D30*
X65650Y1802700D03*
D34*
X16500Y1802800D03*
D31*
X24000Y1802800D03*
D33*
X29800Y1802800D03*
D31*
X34000Y1802800D03*
X42300Y1802800D03*
D39*
X50650Y1802800D03*
D31*
X59000Y1802800D03*
X62300Y1802800D03*
D30*
X65650Y1802800D03*
D34*
X16500Y1802900D03*
D31*
X24000Y1802900D03*
D33*
X29800Y1802900D03*
D31*
X34000Y1802900D03*
X42300Y1802900D03*
D39*
X50650Y1802900D03*
D31*
X59000Y1802900D03*
X62300Y1802900D03*
D30*
X65650Y1802900D03*
D34*
X16500Y1803000D03*
D31*
X24000Y1803000D03*
D33*
X29800Y1803000D03*
D31*
X34000Y1803000D03*
X42300Y1803000D03*
D39*
X50650Y1803000D03*
D31*
X59000Y1803000D03*
X62300Y1803000D03*
D30*
X65650Y1803000D03*
D34*
X16500Y1803100D03*
D31*
X24000Y1803100D03*
D33*
X29800Y1803100D03*
D31*
X34000Y1803100D03*
X42300Y1803100D03*
D39*
X50650Y1803100D03*
D31*
X59000Y1803100D03*
X62300Y1803100D03*
D30*
X65650Y1803100D03*
D34*
X16500Y1803200D03*
D31*
X24000Y1803200D03*
D33*
X29800Y1803200D03*
D31*
X34000Y1803200D03*
X42300Y1803200D03*
D39*
X50650Y1803200D03*
D31*
X59000Y1803200D03*
X62300Y1803200D03*
D30*
X65650Y1803200D03*
D34*
X16500Y1803300D03*
D31*
X24000Y1803300D03*
D33*
X29800Y1803300D03*
D31*
X34000Y1803300D03*
X42300Y1803300D03*
D39*
X50650Y1803300D03*
D31*
X59000Y1803300D03*
X62300Y1803300D03*
D30*
X65650Y1803300D03*
X10650Y1803400D03*
D32*
X18150Y1803400D03*
D36*
X26450Y1803400D03*
D35*
X35650Y1803400D03*
D30*
X50650Y1803400D03*
D29*
X59000Y1803400D03*
D33*
X66500Y1803400D03*
D30*
X10650Y1803500D03*
D32*
X18150Y1803500D03*
D36*
X26450Y1803500D03*
D35*
X35650Y1803500D03*
D30*
X50650Y1803500D03*
D29*
X59000Y1803500D03*
D33*
X66500Y1803500D03*
D30*
X10650Y1803600D03*
D32*
X18150Y1803600D03*
D36*
X26450Y1803600D03*
D35*
X35650Y1803600D03*
D30*
X50650Y1803600D03*
D29*
X59000Y1803600D03*
D33*
X66500Y1803600D03*
D30*
X10650Y1803700D03*
D32*
X18150Y1803700D03*
D36*
X26450Y1803700D03*
D35*
X35650Y1803700D03*
D30*
X50650Y1803700D03*
D29*
X59000Y1803700D03*
D33*
X66500Y1803700D03*
D30*
X10650Y1803800D03*
D32*
X18150Y1803800D03*
D36*
X26450Y1803800D03*
D35*
X35650Y1803800D03*
D30*
X50650Y1803800D03*
D29*
X59000Y1803800D03*
D33*
X66500Y1803800D03*
D30*
X10650Y1803900D03*
D32*
X18150Y1803900D03*
D36*
X26450Y1803900D03*
D35*
X35650Y1803900D03*
D30*
X50650Y1803900D03*
D29*
X59000Y1803900D03*
D33*
X66500Y1803900D03*
D30*
X10650Y1804000D03*
D32*
X18150Y1804000D03*
D36*
X26450Y1804000D03*
D35*
X35650Y1804000D03*
D30*
X50650Y1804000D03*
D29*
X59000Y1804000D03*
D33*
X66500Y1804000D03*
D30*
X10650Y1804100D03*
D32*
X18150Y1804100D03*
D36*
X26450Y1804100D03*
D35*
X35650Y1804100D03*
D30*
X50650Y1804100D03*
D29*
X59000Y1804100D03*
D33*
X66500Y1804100D03*
D30*
X10650Y1804200D03*
D32*
X18150Y1804200D03*
D36*
X26450Y1804200D03*
D35*
X35650Y1804200D03*
D30*
X50650Y1804200D03*
D29*
X59000Y1804200D03*
D33*
X66500Y1804200D03*
D30*
X10650Y1804300D03*
D32*
X18150Y1804300D03*
D36*
X26450Y1804300D03*
D35*
X35650Y1804300D03*
D30*
X50650Y1804300D03*
D29*
X59000Y1804300D03*
D33*
X66500Y1804300D03*
D30*
X10650Y1804400D03*
D32*
X18150Y1804400D03*
D36*
X26450Y1804400D03*
D35*
X35650Y1804400D03*
D30*
X50650Y1804400D03*
D29*
X59000Y1804400D03*
D33*
X66500Y1804400D03*
D30*
X10650Y1804500D03*
D32*
X18150Y1804500D03*
D36*
X26450Y1804500D03*
D35*
X35650Y1804500D03*
D30*
X50650Y1804500D03*
D29*
X59000Y1804500D03*
D33*
X66500Y1804500D03*
D30*
X10650Y1804600D03*
D32*
X18150Y1804600D03*
D36*
X26450Y1804600D03*
D35*
X35650Y1804600D03*
D30*
X50650Y1804600D03*
D29*
X59000Y1804600D03*
D33*
X66500Y1804600D03*
D30*
X10650Y1804700D03*
D32*
X18150Y1804700D03*
D36*
X26450Y1804700D03*
D35*
X35650Y1804700D03*
D30*
X50650Y1804700D03*
D29*
X59000Y1804700D03*
D33*
X66500Y1804700D03*
D30*
X10650Y1804800D03*
D32*
X18150Y1804800D03*
D36*
X26450Y1804800D03*
D35*
X35650Y1804800D03*
D30*
X50650Y1804800D03*
D29*
X59000Y1804800D03*
D33*
X66500Y1804800D03*
D30*
X10650Y1804900D03*
D32*
X18150Y1804900D03*
D36*
X26450Y1804900D03*
D35*
X35650Y1804900D03*
D30*
X50650Y1804900D03*
D29*
X59000Y1804900D03*
D33*
X66500Y1804900D03*
D30*
X10650Y1805000D03*
D32*
X18150Y1805000D03*
D36*
X26450Y1805000D03*
D35*
X35650Y1805000D03*
D30*
X50650Y1805000D03*
D29*
X59000Y1805000D03*
D33*
X66500Y1805000D03*
D30*
X15650Y1805100D03*
D31*
X19000Y1805100D03*
X22300Y1805100D03*
D33*
X26500Y1805100D03*
D30*
X30650Y1805100D03*
D33*
X34800Y1805100D03*
D30*
X40650Y1805100D03*
D35*
X48950Y1805100D03*
D31*
X57300Y1805100D03*
D30*
X15650Y1805200D03*
D31*
X19000Y1805200D03*
X22300Y1805200D03*
D33*
X26500Y1805200D03*
D30*
X30650Y1805200D03*
D33*
X34800Y1805200D03*
D30*
X40650Y1805200D03*
D35*
X48950Y1805200D03*
D31*
X57300Y1805200D03*
D30*
X15650Y1805300D03*
D31*
X19000Y1805300D03*
X22300Y1805300D03*
D33*
X26500Y1805300D03*
D30*
X30650Y1805300D03*
D33*
X34800Y1805300D03*
D30*
X40650Y1805300D03*
D35*
X48950Y1805300D03*
D31*
X57300Y1805300D03*
D30*
X15650Y1805400D03*
D31*
X19000Y1805400D03*
X22300Y1805400D03*
D33*
X26500Y1805400D03*
D30*
X30650Y1805400D03*
D33*
X34800Y1805400D03*
D30*
X40650Y1805400D03*
D35*
X48950Y1805400D03*
D31*
X57300Y1805400D03*
D30*
X15650Y1805500D03*
D31*
X19000Y1805500D03*
X22300Y1805500D03*
D33*
X26500Y1805500D03*
D30*
X30650Y1805500D03*
D33*
X34800Y1805500D03*
D30*
X40650Y1805500D03*
D35*
X48950Y1805500D03*
D31*
X57300Y1805500D03*
D30*
X15650Y1805600D03*
D31*
X19000Y1805600D03*
X22300Y1805600D03*
D33*
X26500Y1805600D03*
D30*
X30650Y1805600D03*
D33*
X34800Y1805600D03*
D30*
X40650Y1805600D03*
D35*
X48950Y1805600D03*
D31*
X57300Y1805600D03*
D30*
X15650Y1805700D03*
D31*
X19000Y1805700D03*
X22300Y1805700D03*
D33*
X26500Y1805700D03*
D30*
X30650Y1805700D03*
D33*
X34800Y1805700D03*
D30*
X40650Y1805700D03*
D35*
X48950Y1805700D03*
D31*
X57300Y1805700D03*
D30*
X15650Y1805800D03*
D31*
X19000Y1805800D03*
X22300Y1805800D03*
D33*
X26500Y1805800D03*
D30*
X30650Y1805800D03*
D33*
X34800Y1805800D03*
D30*
X40650Y1805800D03*
D35*
X48950Y1805800D03*
D31*
X57300Y1805800D03*
D30*
X15650Y1805900D03*
D31*
X19000Y1805900D03*
X22300Y1805900D03*
D33*
X26500Y1805900D03*
D30*
X30650Y1805900D03*
D33*
X34800Y1805900D03*
D30*
X40650Y1805900D03*
D35*
X48950Y1805900D03*
D31*
X57300Y1805900D03*
D30*
X15650Y1806000D03*
D31*
X19000Y1806000D03*
X22300Y1806000D03*
D33*
X26500Y1806000D03*
D30*
X30650Y1806000D03*
D33*
X34800Y1806000D03*
D30*
X40650Y1806000D03*
D35*
X48950Y1806000D03*
D31*
X57300Y1806000D03*
D30*
X15650Y1806100D03*
D31*
X19000Y1806100D03*
X22300Y1806100D03*
D33*
X26500Y1806100D03*
D30*
X30650Y1806100D03*
D33*
X34800Y1806100D03*
D30*
X40650Y1806100D03*
D35*
X48950Y1806100D03*
D31*
X57300Y1806100D03*
D30*
X15650Y1806200D03*
D31*
X19000Y1806200D03*
X22300Y1806200D03*
D33*
X26500Y1806200D03*
D30*
X30650Y1806200D03*
D33*
X34800Y1806200D03*
D30*
X40650Y1806200D03*
D35*
X48950Y1806200D03*
D31*
X57300Y1806200D03*
D30*
X15650Y1806300D03*
D31*
X19000Y1806300D03*
X22300Y1806300D03*
D33*
X26500Y1806300D03*
D30*
X30650Y1806300D03*
D33*
X34800Y1806300D03*
D30*
X40650Y1806300D03*
D35*
X48950Y1806300D03*
D31*
X57300Y1806300D03*
D30*
X15650Y1806400D03*
D31*
X19000Y1806400D03*
X22300Y1806400D03*
D33*
X26500Y1806400D03*
D30*
X30650Y1806400D03*
D33*
X34800Y1806400D03*
D30*
X40650Y1806400D03*
D35*
X48950Y1806400D03*
D31*
X57300Y1806400D03*
D30*
X15650Y1806500D03*
D31*
X19000Y1806500D03*
X22300Y1806500D03*
D33*
X26500Y1806500D03*
D30*
X30650Y1806500D03*
D33*
X34800Y1806500D03*
D30*
X40650Y1806500D03*
D35*
X48950Y1806500D03*
D31*
X57300Y1806500D03*
D30*
X15650Y1806600D03*
D31*
X19000Y1806600D03*
X22300Y1806600D03*
D33*
X26500Y1806600D03*
D30*
X30650Y1806600D03*
D33*
X34800Y1806600D03*
D30*
X40650Y1806600D03*
D35*
X48950Y1806600D03*
D31*
X57300Y1806600D03*
X12300Y1806700D03*
D30*
X20650Y1806700D03*
D31*
X24000Y1806700D03*
X32300Y1806700D03*
X37300Y1806700D03*
D37*
X43150Y1806700D03*
D33*
X51500Y1806700D03*
D30*
X55650Y1806700D03*
D29*
X64000Y1806700D03*
D31*
X12300Y1806800D03*
D30*
X20650Y1806800D03*
D31*
X24000Y1806800D03*
X32300Y1806800D03*
X37300Y1806800D03*
D37*
X43150Y1806800D03*
D33*
X51500Y1806800D03*
D30*
X55650Y1806800D03*
D29*
X64000Y1806800D03*
D31*
X12300Y1806900D03*
D30*
X20650Y1806900D03*
D31*
X24000Y1806900D03*
X32300Y1806900D03*
X37300Y1806900D03*
D37*
X43150Y1806900D03*
D33*
X51500Y1806900D03*
D30*
X55650Y1806900D03*
D29*
X64000Y1806900D03*
D31*
X12300Y1807000D03*
D30*
X20650Y1807000D03*
D31*
X24000Y1807000D03*
X32300Y1807000D03*
X37300Y1807000D03*
D37*
X43150Y1807000D03*
D33*
X51500Y1807000D03*
D30*
X55650Y1807000D03*
D29*
X64000Y1807000D03*
D31*
X12300Y1807100D03*
D30*
X20650Y1807100D03*
D31*
X24000Y1807100D03*
X32300Y1807100D03*
X37300Y1807100D03*
D37*
X43150Y1807100D03*
D33*
X51500Y1807100D03*
D30*
X55650Y1807100D03*
D29*
X64000Y1807100D03*
D31*
X12300Y1807200D03*
D30*
X20650Y1807200D03*
D31*
X24000Y1807200D03*
X32300Y1807200D03*
X37300Y1807200D03*
D37*
X43150Y1807200D03*
D33*
X51500Y1807200D03*
D30*
X55650Y1807200D03*
D29*
X64000Y1807200D03*
D31*
X12300Y1807300D03*
D30*
X20650Y1807300D03*
D31*
X24000Y1807300D03*
X32300Y1807300D03*
X37300Y1807300D03*
D37*
X43150Y1807300D03*
D33*
X51500Y1807300D03*
D30*
X55650Y1807300D03*
D29*
X64000Y1807300D03*
D31*
X12300Y1807400D03*
D30*
X20650Y1807400D03*
D31*
X24000Y1807400D03*
X32300Y1807400D03*
X37300Y1807400D03*
D37*
X43150Y1807400D03*
D33*
X51500Y1807400D03*
D30*
X55650Y1807400D03*
D29*
X64000Y1807400D03*
D31*
X12300Y1807500D03*
D30*
X20650Y1807500D03*
D31*
X24000Y1807500D03*
X32300Y1807500D03*
X37300Y1807500D03*
D37*
X43150Y1807500D03*
D33*
X51500Y1807500D03*
D30*
X55650Y1807500D03*
D29*
X64000Y1807500D03*
D31*
X12300Y1807600D03*
D30*
X20650Y1807600D03*
D31*
X24000Y1807600D03*
X32300Y1807600D03*
X37300Y1807600D03*
D37*
X43150Y1807600D03*
D33*
X51500Y1807600D03*
D30*
X55650Y1807600D03*
D29*
X64000Y1807600D03*
D31*
X12300Y1807700D03*
D30*
X20650Y1807700D03*
D31*
X24000Y1807700D03*
X32300Y1807700D03*
X37300Y1807700D03*
D37*
X43150Y1807700D03*
D33*
X51500Y1807700D03*
D30*
X55650Y1807700D03*
D29*
X64000Y1807700D03*
D31*
X12300Y1807800D03*
D30*
X20650Y1807800D03*
D31*
X24000Y1807800D03*
X32300Y1807800D03*
X37300Y1807800D03*
D37*
X43150Y1807800D03*
D33*
X51500Y1807800D03*
D30*
X55650Y1807800D03*
D29*
X64000Y1807800D03*
D31*
X12300Y1807900D03*
D30*
X20650Y1807900D03*
D31*
X24000Y1807900D03*
X32300Y1807900D03*
X37300Y1807900D03*
D37*
X43150Y1807900D03*
D33*
X51500Y1807900D03*
D30*
X55650Y1807900D03*
D29*
X64000Y1807900D03*
D31*
X12300Y1808000D03*
D30*
X20650Y1808000D03*
D31*
X24000Y1808000D03*
X32300Y1808000D03*
X37300Y1808000D03*
D37*
X43150Y1808000D03*
D33*
X51500Y1808000D03*
D30*
X55650Y1808000D03*
D29*
X64000Y1808000D03*
D31*
X12300Y1808100D03*
D30*
X20650Y1808100D03*
D31*
X24000Y1808100D03*
X32300Y1808100D03*
X37300Y1808100D03*
D37*
X43150Y1808100D03*
D33*
X51500Y1808100D03*
D30*
X55650Y1808100D03*
D29*
X64000Y1808100D03*
D31*
X12300Y1808200D03*
D30*
X20650Y1808200D03*
D31*
X24000Y1808200D03*
X32300Y1808200D03*
X37300Y1808200D03*
D37*
X43150Y1808200D03*
D33*
X51500Y1808200D03*
D30*
X55650Y1808200D03*
D29*
X64000Y1808200D03*
D31*
X12300Y1808300D03*
D30*
X20650Y1808300D03*
D31*
X24000Y1808300D03*
X32300Y1808300D03*
X37300Y1808300D03*
D37*
X43150Y1808300D03*
D33*
X51500Y1808300D03*
D30*
X55650Y1808300D03*
D29*
X64000Y1808300D03*
D33*
X11500Y1808400D03*
D31*
X17300Y1808400D03*
D30*
X20650Y1808400D03*
D31*
X24000Y1808400D03*
D32*
X28150Y1808400D03*
D30*
X35650Y1808400D03*
D33*
X46500Y1808400D03*
D32*
X58150Y1808400D03*
D30*
X65650Y1808400D03*
D33*
X11500Y1808500D03*
D31*
X17300Y1808500D03*
D30*
X20650Y1808500D03*
D31*
X24000Y1808500D03*
D32*
X28150Y1808500D03*
D30*
X35650Y1808500D03*
D33*
X46500Y1808500D03*
D32*
X58150Y1808500D03*
D30*
X65650Y1808500D03*
D33*
X11500Y1808600D03*
D31*
X17300Y1808600D03*
D30*
X20650Y1808600D03*
D31*
X24000Y1808600D03*
D32*
X28150Y1808600D03*
D30*
X35650Y1808600D03*
D33*
X46500Y1808600D03*
D32*
X58150Y1808600D03*
D30*
X65650Y1808600D03*
D33*
X11500Y1808700D03*
D31*
X17300Y1808700D03*
D30*
X20650Y1808700D03*
D31*
X24000Y1808700D03*
D32*
X28150Y1808700D03*
D30*
X35650Y1808700D03*
D33*
X46500Y1808700D03*
D32*
X58150Y1808700D03*
D30*
X65650Y1808700D03*
D33*
X11500Y1808800D03*
D31*
X17300Y1808800D03*
D30*
X20650Y1808800D03*
D31*
X24000Y1808800D03*
D32*
X28150Y1808800D03*
D30*
X35650Y1808800D03*
D33*
X46500Y1808800D03*
D32*
X58150Y1808800D03*
D30*
X65650Y1808800D03*
D33*
X11500Y1808900D03*
D31*
X17300Y1808900D03*
D30*
X20650Y1808900D03*
D31*
X24000Y1808900D03*
D32*
X28150Y1808900D03*
D30*
X35650Y1808900D03*
D33*
X46500Y1808900D03*
D32*
X58150Y1808900D03*
D30*
X65650Y1808900D03*
D33*
X11500Y1809000D03*
D31*
X17300Y1809000D03*
D30*
X20650Y1809000D03*
D31*
X24000Y1809000D03*
D32*
X28150Y1809000D03*
D30*
X35650Y1809000D03*
D33*
X46500Y1809000D03*
D32*
X58150Y1809000D03*
D30*
X65650Y1809000D03*
D33*
X11500Y1809100D03*
D31*
X17300Y1809100D03*
D30*
X20650Y1809100D03*
D31*
X24000Y1809100D03*
D32*
X28150Y1809100D03*
D30*
X35650Y1809100D03*
D33*
X46500Y1809100D03*
D32*
X58150Y1809100D03*
D30*
X65650Y1809100D03*
D33*
X11500Y1809200D03*
D31*
X17300Y1809200D03*
D30*
X20650Y1809200D03*
D31*
X24000Y1809200D03*
D32*
X28150Y1809200D03*
D30*
X35650Y1809200D03*
D33*
X46500Y1809200D03*
D32*
X58150Y1809200D03*
D30*
X65650Y1809200D03*
D33*
X11500Y1809300D03*
D31*
X17300Y1809300D03*
D30*
X20650Y1809300D03*
D31*
X24000Y1809300D03*
D32*
X28150Y1809300D03*
D30*
X35650Y1809300D03*
D33*
X46500Y1809300D03*
D32*
X58150Y1809300D03*
D30*
X65650Y1809300D03*
D33*
X11500Y1809400D03*
D31*
X17300Y1809400D03*
D30*
X20650Y1809400D03*
D31*
X24000Y1809400D03*
D32*
X28150Y1809400D03*
D30*
X35650Y1809400D03*
D33*
X46500Y1809400D03*
D32*
X58150Y1809400D03*
D30*
X65650Y1809400D03*
D33*
X11500Y1809500D03*
D31*
X17300Y1809500D03*
D30*
X20650Y1809500D03*
D31*
X24000Y1809500D03*
D32*
X28150Y1809500D03*
D30*
X35650Y1809500D03*
D33*
X46500Y1809500D03*
D32*
X58150Y1809500D03*
D30*
X65650Y1809500D03*
D33*
X11500Y1809600D03*
D31*
X17300Y1809600D03*
D30*
X20650Y1809600D03*
D31*
X24000Y1809600D03*
D32*
X28150Y1809600D03*
D30*
X35650Y1809600D03*
D33*
X46500Y1809600D03*
D32*
X58150Y1809600D03*
D30*
X65650Y1809600D03*
D33*
X11500Y1809700D03*
D31*
X17300Y1809700D03*
D30*
X20650Y1809700D03*
D31*
X24000Y1809700D03*
D32*
X28150Y1809700D03*
D30*
X35650Y1809700D03*
D33*
X46500Y1809700D03*
D32*
X58150Y1809700D03*
D30*
X65650Y1809700D03*
D33*
X11500Y1809800D03*
D31*
X17300Y1809800D03*
D30*
X20650Y1809800D03*
D31*
X24000Y1809800D03*
D32*
X28150Y1809800D03*
D30*
X35650Y1809800D03*
D33*
X46500Y1809800D03*
D32*
X58150Y1809800D03*
D30*
X65650Y1809800D03*
D33*
X11500Y1809900D03*
D31*
X17300Y1809900D03*
D30*
X20650Y1809900D03*
D31*
X24000Y1809900D03*
D32*
X28150Y1809900D03*
D30*
X35650Y1809900D03*
D33*
X46500Y1809900D03*
D32*
X58150Y1809900D03*
D30*
X65650Y1809900D03*
D33*
X11500Y1810000D03*
D31*
X17300Y1810000D03*
D30*
X20650Y1810000D03*
D31*
X24000Y1810000D03*
D32*
X28150Y1810000D03*
D30*
X35650Y1810000D03*
D33*
X46500Y1810000D03*
D32*
X58150Y1810000D03*
D30*
X65650Y1810000D03*
X15650Y1810100D03*
X20650Y1810100D03*
X25650Y1810100D03*
D31*
X29000Y1810100D03*
D33*
X36500Y1810100D03*
D31*
X49000Y1810100D03*
X52300Y1810100D03*
D35*
X57350Y1810100D03*
D31*
X62300Y1810100D03*
X67300Y1810100D03*
D30*
X15650Y1810200D03*
X20650Y1810200D03*
X25650Y1810200D03*
D31*
X29000Y1810200D03*
D33*
X36500Y1810200D03*
D31*
X49000Y1810200D03*
X52300Y1810200D03*
D35*
X57350Y1810200D03*
D31*
X62300Y1810200D03*
X67300Y1810200D03*
D30*
X15650Y1810300D03*
X20650Y1810300D03*
X25650Y1810300D03*
D31*
X29000Y1810300D03*
D33*
X36500Y1810300D03*
D31*
X49000Y1810300D03*
X52300Y1810300D03*
D35*
X57350Y1810300D03*
D31*
X62300Y1810300D03*
X67300Y1810300D03*
D30*
X15650Y1810400D03*
X20650Y1810400D03*
X25650Y1810400D03*
D31*
X29000Y1810400D03*
D33*
X36500Y1810400D03*
D31*
X49000Y1810400D03*
X52300Y1810400D03*
D35*
X57350Y1810400D03*
D31*
X62300Y1810400D03*
X67300Y1810400D03*
D30*
X15650Y1810500D03*
X20650Y1810500D03*
X25650Y1810500D03*
D31*
X29000Y1810500D03*
D33*
X36500Y1810500D03*
D31*
X49000Y1810500D03*
X52300Y1810500D03*
D35*
X57350Y1810500D03*
D31*
X62300Y1810500D03*
X67300Y1810500D03*
D30*
X15650Y1810600D03*
X20650Y1810600D03*
X25650Y1810600D03*
D31*
X29000Y1810600D03*
D33*
X36500Y1810600D03*
D31*
X49000Y1810600D03*
X52300Y1810600D03*
D35*
X57350Y1810600D03*
D31*
X62300Y1810600D03*
X67300Y1810600D03*
D30*
X15650Y1810700D03*
X20650Y1810700D03*
X25650Y1810700D03*
D31*
X29000Y1810700D03*
D33*
X36500Y1810700D03*
D31*
X49000Y1810700D03*
X52300Y1810700D03*
D35*
X57350Y1810700D03*
D31*
X62300Y1810700D03*
X67300Y1810700D03*
D30*
X15650Y1810800D03*
X20650Y1810800D03*
X25650Y1810800D03*
D31*
X29000Y1810800D03*
D33*
X36500Y1810800D03*
D31*
X49000Y1810800D03*
X52300Y1810800D03*
D35*
X57350Y1810800D03*
D31*
X62300Y1810800D03*
X67300Y1810800D03*
D30*
X15650Y1810900D03*
X20650Y1810900D03*
X25650Y1810900D03*
D31*
X29000Y1810900D03*
D33*
X36500Y1810900D03*
D31*
X49000Y1810900D03*
X52300Y1810900D03*
D35*
X57350Y1810900D03*
D31*
X62300Y1810900D03*
X67300Y1810900D03*
D30*
X15650Y1811000D03*
X20650Y1811000D03*
X25650Y1811000D03*
D31*
X29000Y1811000D03*
D33*
X36500Y1811000D03*
D31*
X49000Y1811000D03*
X52300Y1811000D03*
D35*
X57350Y1811000D03*
D31*
X62300Y1811000D03*
X67300Y1811000D03*
D30*
X15650Y1811100D03*
X20650Y1811100D03*
X25650Y1811100D03*
D31*
X29000Y1811100D03*
D33*
X36500Y1811100D03*
D31*
X49000Y1811100D03*
X52300Y1811100D03*
D35*
X57350Y1811100D03*
D31*
X62300Y1811100D03*
X67300Y1811100D03*
D30*
X15650Y1811200D03*
X20650Y1811200D03*
X25650Y1811200D03*
D31*
X29000Y1811200D03*
D33*
X36500Y1811200D03*
D31*
X49000Y1811200D03*
X52300Y1811200D03*
D35*
X57350Y1811200D03*
D31*
X62300Y1811200D03*
X67300Y1811200D03*
D30*
X15650Y1811300D03*
X20650Y1811300D03*
X25650Y1811300D03*
D31*
X29000Y1811300D03*
D33*
X36500Y1811300D03*
D31*
X49000Y1811300D03*
X52300Y1811300D03*
D35*
X57350Y1811300D03*
D31*
X62300Y1811300D03*
X67300Y1811300D03*
D30*
X15650Y1811400D03*
X20650Y1811400D03*
X25650Y1811400D03*
D31*
X29000Y1811400D03*
D33*
X36500Y1811400D03*
D31*
X49000Y1811400D03*
X52300Y1811400D03*
D35*
X57350Y1811400D03*
D31*
X62300Y1811400D03*
X67300Y1811400D03*
D30*
X15650Y1811500D03*
X20650Y1811500D03*
X25650Y1811500D03*
D31*
X29000Y1811500D03*
D33*
X36500Y1811500D03*
D31*
X49000Y1811500D03*
X52300Y1811500D03*
D35*
X57350Y1811500D03*
D31*
X62300Y1811500D03*
X67300Y1811500D03*
D30*
X15650Y1811600D03*
X20650Y1811600D03*
X25650Y1811600D03*
D31*
X29000Y1811600D03*
D33*
X36500Y1811600D03*
D31*
X49000Y1811600D03*
X52300Y1811600D03*
D35*
X57350Y1811600D03*
D31*
X62300Y1811600D03*
X67300Y1811600D03*
D30*
X15650Y1811700D03*
X20650Y1811700D03*
D31*
X27300Y1811700D03*
D30*
X30650Y1811700D03*
D31*
X34000Y1811700D03*
D32*
X43150Y1811700D03*
D30*
X50650Y1811700D03*
D31*
X54000Y1811700D03*
D34*
X61500Y1811700D03*
D30*
X15650Y1811800D03*
X20650Y1811800D03*
D31*
X27300Y1811800D03*
D30*
X30650Y1811800D03*
D31*
X34000Y1811800D03*
D32*
X43150Y1811800D03*
D30*
X50650Y1811800D03*
D31*
X54000Y1811800D03*
D34*
X61500Y1811800D03*
D30*
X15650Y1811900D03*
X20650Y1811900D03*
D31*
X27300Y1811900D03*
D30*
X30650Y1811900D03*
D31*
X34000Y1811900D03*
D32*
X43150Y1811900D03*
D30*
X50650Y1811900D03*
D31*
X54000Y1811900D03*
D34*
X61500Y1811900D03*
D30*
X15650Y1812000D03*
X20650Y1812000D03*
D31*
X27300Y1812000D03*
D30*
X30650Y1812000D03*
D31*
X34000Y1812000D03*
D32*
X43150Y1812000D03*
D30*
X50650Y1812000D03*
D31*
X54000Y1812000D03*
D34*
X61500Y1812000D03*
D30*
X15650Y1812100D03*
X20650Y1812100D03*
D31*
X27300Y1812100D03*
D30*
X30650Y1812100D03*
D31*
X34000Y1812100D03*
D32*
X43150Y1812100D03*
D30*
X50650Y1812100D03*
D31*
X54000Y1812100D03*
D34*
X61500Y1812100D03*
D30*
X15650Y1812200D03*
X20650Y1812200D03*
D31*
X27300Y1812200D03*
D30*
X30650Y1812200D03*
D31*
X34000Y1812200D03*
D32*
X43150Y1812200D03*
D30*
X50650Y1812200D03*
D31*
X54000Y1812200D03*
D34*
X61500Y1812200D03*
D30*
X15650Y1812300D03*
X20650Y1812300D03*
D31*
X27300Y1812300D03*
D30*
X30650Y1812300D03*
D31*
X34000Y1812300D03*
D32*
X43150Y1812300D03*
D30*
X50650Y1812300D03*
D31*
X54000Y1812300D03*
D34*
X61500Y1812300D03*
D30*
X15650Y1812400D03*
X20650Y1812400D03*
D31*
X27300Y1812400D03*
D30*
X30650Y1812400D03*
D31*
X34000Y1812400D03*
D32*
X43150Y1812400D03*
D30*
X50650Y1812400D03*
D31*
X54000Y1812400D03*
D34*
X61500Y1812400D03*
D30*
X15650Y1812500D03*
X20650Y1812500D03*
D31*
X27300Y1812500D03*
D30*
X30650Y1812500D03*
D31*
X34000Y1812500D03*
D32*
X43150Y1812500D03*
D30*
X50650Y1812500D03*
D31*
X54000Y1812500D03*
D34*
X61500Y1812500D03*
D30*
X15650Y1812600D03*
X20650Y1812600D03*
D31*
X27300Y1812600D03*
D30*
X30650Y1812600D03*
D31*
X34000Y1812600D03*
D32*
X43150Y1812600D03*
D30*
X50650Y1812600D03*
D31*
X54000Y1812600D03*
D34*
X61500Y1812600D03*
D30*
X15650Y1812700D03*
X20650Y1812700D03*
D31*
X27300Y1812700D03*
D30*
X30650Y1812700D03*
D31*
X34000Y1812700D03*
D32*
X43150Y1812700D03*
D30*
X50650Y1812700D03*
D31*
X54000Y1812700D03*
D34*
X61500Y1812700D03*
D30*
X15650Y1812800D03*
X20650Y1812800D03*
D31*
X27300Y1812800D03*
D30*
X30650Y1812800D03*
D31*
X34000Y1812800D03*
D32*
X43150Y1812800D03*
D30*
X50650Y1812800D03*
D31*
X54000Y1812800D03*
D34*
X61500Y1812800D03*
D30*
X15650Y1812900D03*
X20650Y1812900D03*
D31*
X27300Y1812900D03*
D30*
X30650Y1812900D03*
D31*
X34000Y1812900D03*
D32*
X43150Y1812900D03*
D30*
X50650Y1812900D03*
D31*
X54000Y1812900D03*
D34*
X61500Y1812900D03*
D30*
X15650Y1813000D03*
X20650Y1813000D03*
D31*
X27300Y1813000D03*
D30*
X30650Y1813000D03*
D31*
X34000Y1813000D03*
D32*
X43150Y1813000D03*
D30*
X50650Y1813000D03*
D31*
X54000Y1813000D03*
D34*
X61500Y1813000D03*
D30*
X15650Y1813100D03*
X20650Y1813100D03*
D31*
X27300Y1813100D03*
D30*
X30650Y1813100D03*
D31*
X34000Y1813100D03*
D32*
X43150Y1813100D03*
D30*
X50650Y1813100D03*
D31*
X54000Y1813100D03*
D34*
X61500Y1813100D03*
D30*
X15650Y1813200D03*
X20650Y1813200D03*
D31*
X27300Y1813200D03*
D30*
X30650Y1813200D03*
D31*
X34000Y1813200D03*
D32*
X43150Y1813200D03*
D30*
X50650Y1813200D03*
D31*
X54000Y1813200D03*
D34*
X61500Y1813200D03*
D30*
X15650Y1813300D03*
X20650Y1813300D03*
D31*
X27300Y1813300D03*
D30*
X30650Y1813300D03*
D31*
X34000Y1813300D03*
D32*
X43150Y1813300D03*
D30*
X50650Y1813300D03*
D31*
X54000Y1813300D03*
D34*
X61500Y1813300D03*
D31*
X12300Y1813400D03*
D30*
X15650Y1813400D03*
D31*
X19000Y1813400D03*
D34*
X26500Y1813400D03*
D33*
X36500Y1813400D03*
D31*
X44000Y1813400D03*
X49000Y1813400D03*
D35*
X57350Y1813400D03*
D31*
X62300Y1813400D03*
X67300Y1813400D03*
X12300Y1813500D03*
D30*
X15650Y1813500D03*
D31*
X19000Y1813500D03*
D34*
X26500Y1813500D03*
D33*
X36500Y1813500D03*
D31*
X44000Y1813500D03*
X49000Y1813500D03*
D35*
X57350Y1813500D03*
D31*
X62300Y1813500D03*
X67300Y1813500D03*
X12300Y1813600D03*
D30*
X15650Y1813600D03*
D31*
X19000Y1813600D03*
D34*
X26500Y1813600D03*
D33*
X36500Y1813600D03*
D31*
X44000Y1813600D03*
X49000Y1813600D03*
D35*
X57350Y1813600D03*
D31*
X62300Y1813600D03*
X67300Y1813600D03*
X12300Y1813700D03*
D30*
X15650Y1813700D03*
D31*
X19000Y1813700D03*
D34*
X26500Y1813700D03*
D33*
X36500Y1813700D03*
D31*
X44000Y1813700D03*
X49000Y1813700D03*
D35*
X57350Y1813700D03*
D31*
X62300Y1813700D03*
X67300Y1813700D03*
X12300Y1813800D03*
D30*
X15650Y1813800D03*
D31*
X19000Y1813800D03*
D34*
X26500Y1813800D03*
D33*
X36500Y1813800D03*
D31*
X44000Y1813800D03*
X49000Y1813800D03*
D35*
X57350Y1813800D03*
D31*
X62300Y1813800D03*
X67300Y1813800D03*
X12300Y1813900D03*
D30*
X15650Y1813900D03*
D31*
X19000Y1813900D03*
D34*
X26500Y1813900D03*
D33*
X36500Y1813900D03*
D31*
X44000Y1813900D03*
X49000Y1813900D03*
D35*
X57350Y1813900D03*
D31*
X62300Y1813900D03*
X67300Y1813900D03*
X12300Y1814000D03*
D30*
X15650Y1814000D03*
D31*
X19000Y1814000D03*
D34*
X26500Y1814000D03*
D33*
X36500Y1814000D03*
D31*
X44000Y1814000D03*
X49000Y1814000D03*
D35*
X57350Y1814000D03*
D31*
X62300Y1814000D03*
X67300Y1814000D03*
X12300Y1814100D03*
D30*
X15650Y1814100D03*
D31*
X19000Y1814100D03*
D34*
X26500Y1814100D03*
D33*
X36500Y1814100D03*
D31*
X44000Y1814100D03*
X49000Y1814100D03*
D35*
X57350Y1814100D03*
D31*
X62300Y1814100D03*
X67300Y1814100D03*
X12300Y1814200D03*
D30*
X15650Y1814200D03*
D31*
X19000Y1814200D03*
D34*
X26500Y1814200D03*
D33*
X36500Y1814200D03*
D31*
X44000Y1814200D03*
X49000Y1814200D03*
D35*
X57350Y1814200D03*
D31*
X62300Y1814200D03*
X67300Y1814200D03*
X12300Y1814300D03*
D30*
X15650Y1814300D03*
D31*
X19000Y1814300D03*
D34*
X26500Y1814300D03*
D33*
X36500Y1814300D03*
D31*
X44000Y1814300D03*
X49000Y1814300D03*
D35*
X57350Y1814300D03*
D31*
X62300Y1814300D03*
X67300Y1814300D03*
X12300Y1814400D03*
D30*
X15650Y1814400D03*
D31*
X19000Y1814400D03*
D34*
X26500Y1814400D03*
D33*
X36500Y1814400D03*
D31*
X44000Y1814400D03*
X49000Y1814400D03*
D35*
X57350Y1814400D03*
D31*
X62300Y1814400D03*
X67300Y1814400D03*
X12300Y1814500D03*
D30*
X15650Y1814500D03*
D31*
X19000Y1814500D03*
D34*
X26500Y1814500D03*
D33*
X36500Y1814500D03*
D31*
X44000Y1814500D03*
X49000Y1814500D03*
D35*
X57350Y1814500D03*
D31*
X62300Y1814500D03*
X67300Y1814500D03*
X12300Y1814600D03*
D30*
X15650Y1814600D03*
D31*
X19000Y1814600D03*
D34*
X26500Y1814600D03*
D33*
X36500Y1814600D03*
D31*
X44000Y1814600D03*
X49000Y1814600D03*
D35*
X57350Y1814600D03*
D31*
X62300Y1814600D03*
X67300Y1814600D03*
X12300Y1814700D03*
D30*
X15650Y1814700D03*
D31*
X19000Y1814700D03*
D34*
X26500Y1814700D03*
D33*
X36500Y1814700D03*
D31*
X44000Y1814700D03*
X49000Y1814700D03*
D35*
X57350Y1814700D03*
D31*
X62300Y1814700D03*
X67300Y1814700D03*
X12300Y1814800D03*
D30*
X15650Y1814800D03*
D31*
X19000Y1814800D03*
D34*
X26500Y1814800D03*
D33*
X36500Y1814800D03*
D31*
X44000Y1814800D03*
X49000Y1814800D03*
D35*
X57350Y1814800D03*
D31*
X62300Y1814800D03*
X67300Y1814800D03*
X12300Y1814900D03*
D30*
X15650Y1814900D03*
D31*
X19000Y1814900D03*
D34*
X26500Y1814900D03*
D33*
X36500Y1814900D03*
D31*
X44000Y1814900D03*
X49000Y1814900D03*
D35*
X57350Y1814900D03*
D31*
X62300Y1814900D03*
X67300Y1814900D03*
X12300Y1815000D03*
D30*
X15650Y1815000D03*
D31*
X19000Y1815000D03*
D34*
X26500Y1815000D03*
D33*
X36500Y1815000D03*
D31*
X44000Y1815000D03*
X49000Y1815000D03*
D35*
X57350Y1815000D03*
D31*
X62300Y1815000D03*
X67300Y1815000D03*
D40*
X26450Y1815100D03*
D33*
X41500Y1815100D03*
D35*
X47350Y1815100D03*
D34*
X54800Y1815100D03*
D33*
X64800Y1815100D03*
D40*
X26450Y1815200D03*
D33*
X41500Y1815200D03*
D35*
X47350Y1815200D03*
D34*
X54800Y1815200D03*
D33*
X64800Y1815200D03*
D40*
X26450Y1815300D03*
D33*
X41500Y1815300D03*
D35*
X47350Y1815300D03*
D34*
X54800Y1815300D03*
D33*
X64800Y1815300D03*
D40*
X26450Y1815400D03*
D33*
X41500Y1815400D03*
D35*
X47350Y1815400D03*
D34*
X54800Y1815400D03*
D33*
X64800Y1815400D03*
D40*
X26450Y1815500D03*
D33*
X41500Y1815500D03*
D35*
X47350Y1815500D03*
D34*
X54800Y1815500D03*
D33*
X64800Y1815500D03*
D40*
X26450Y1815600D03*
D33*
X41500Y1815600D03*
D35*
X47350Y1815600D03*
D34*
X54800Y1815600D03*
D33*
X64800Y1815600D03*
D40*
X26450Y1815700D03*
D33*
X41500Y1815700D03*
D35*
X47350Y1815700D03*
D34*
X54800Y1815700D03*
D33*
X64800Y1815700D03*
D40*
X26450Y1815800D03*
D33*
X41500Y1815800D03*
D35*
X47350Y1815800D03*
D34*
X54800Y1815800D03*
D33*
X64800Y1815800D03*
D40*
X26450Y1815900D03*
D33*
X41500Y1815900D03*
D35*
X47350Y1815900D03*
D34*
X54800Y1815900D03*
D33*
X64800Y1815900D03*
D40*
X26450Y1816000D03*
D33*
X41500Y1816000D03*
D35*
X47350Y1816000D03*
D34*
X54800Y1816000D03*
D33*
X64800Y1816000D03*
D40*
X26450Y1816100D03*
D33*
X41500Y1816100D03*
D35*
X47350Y1816100D03*
D34*
X54800Y1816100D03*
D33*
X64800Y1816100D03*
D40*
X26450Y1816200D03*
D33*
X41500Y1816200D03*
D35*
X47350Y1816200D03*
D34*
X54800Y1816200D03*
D33*
X64800Y1816200D03*
D40*
X26450Y1816300D03*
D33*
X41500Y1816300D03*
D35*
X47350Y1816300D03*
D34*
X54800Y1816300D03*
D33*
X64800Y1816300D03*
D40*
X26450Y1816400D03*
D33*
X41500Y1816400D03*
D35*
X47350Y1816400D03*
D34*
X54800Y1816400D03*
D33*
X64800Y1816400D03*
D40*
X26450Y1816500D03*
D33*
X41500Y1816500D03*
D35*
X47350Y1816500D03*
D34*
X54800Y1816500D03*
D33*
X64800Y1816500D03*
D40*
X26450Y1816600D03*
D33*
X41500Y1816600D03*
D35*
X47350Y1816600D03*
D34*
X54800Y1816600D03*
D33*
X64800Y1816600D03*
D30*
X10650Y1816700D03*
D31*
X14000Y1816700D03*
X17300Y1816700D03*
D30*
X20650Y1816700D03*
D31*
X24000Y1816700D03*
X27300Y1816700D03*
D30*
X30650Y1816700D03*
D31*
X34000Y1816700D03*
X37300Y1816700D03*
D30*
X40650Y1816700D03*
D31*
X44000Y1816700D03*
X47300Y1816700D03*
D30*
X50650Y1816700D03*
D31*
X54000Y1816700D03*
X57300Y1816700D03*
D30*
X60650Y1816700D03*
D31*
X64000Y1816700D03*
X67300Y1816700D03*
D30*
X10650Y1816800D03*
D31*
X14000Y1816800D03*
X17300Y1816800D03*
D30*
X20650Y1816800D03*
D31*
X24000Y1816800D03*
X27300Y1816800D03*
D30*
X30650Y1816800D03*
D31*
X34000Y1816800D03*
X37300Y1816800D03*
D30*
X40650Y1816800D03*
D31*
X44000Y1816800D03*
X47300Y1816800D03*
D30*
X50650Y1816800D03*
D31*
X54000Y1816800D03*
X57300Y1816800D03*
D30*
X60650Y1816800D03*
D31*
X64000Y1816800D03*
X67300Y1816800D03*
D30*
X10650Y1816900D03*
D31*
X14000Y1816900D03*
X17300Y1816900D03*
D30*
X20650Y1816900D03*
D31*
X24000Y1816900D03*
X27300Y1816900D03*
D30*
X30650Y1816900D03*
D31*
X34000Y1816900D03*
X37300Y1816900D03*
D30*
X40650Y1816900D03*
D31*
X44000Y1816900D03*
X47300Y1816900D03*
D30*
X50650Y1816900D03*
D31*
X54000Y1816900D03*
X57300Y1816900D03*
D30*
X60650Y1816900D03*
D31*
X64000Y1816900D03*
X67300Y1816900D03*
D30*
X10650Y1817000D03*
D31*
X14000Y1817000D03*
X17300Y1817000D03*
D30*
X20650Y1817000D03*
D31*
X24000Y1817000D03*
X27300Y1817000D03*
D30*
X30650Y1817000D03*
D31*
X34000Y1817000D03*
X37300Y1817000D03*
D30*
X40650Y1817000D03*
D31*
X44000Y1817000D03*
X47300Y1817000D03*
D30*
X50650Y1817000D03*
D31*
X54000Y1817000D03*
X57300Y1817000D03*
D30*
X60650Y1817000D03*
D31*
X64000Y1817000D03*
X67300Y1817000D03*
D30*
X10650Y1817100D03*
D31*
X14000Y1817100D03*
X17300Y1817100D03*
D30*
X20650Y1817100D03*
D31*
X24000Y1817100D03*
X27300Y1817100D03*
D30*
X30650Y1817100D03*
D31*
X34000Y1817100D03*
X37300Y1817100D03*
D30*
X40650Y1817100D03*
D31*
X44000Y1817100D03*
X47300Y1817100D03*
D30*
X50650Y1817100D03*
D31*
X54000Y1817100D03*
X57300Y1817100D03*
D30*
X60650Y1817100D03*
D31*
X64000Y1817100D03*
X67300Y1817100D03*
D30*
X10650Y1817200D03*
D31*
X14000Y1817200D03*
X17300Y1817200D03*
D30*
X20650Y1817200D03*
D31*
X24000Y1817200D03*
X27300Y1817200D03*
D30*
X30650Y1817200D03*
D31*
X34000Y1817200D03*
X37300Y1817200D03*
D30*
X40650Y1817200D03*
D31*
X44000Y1817200D03*
X47300Y1817200D03*
D30*
X50650Y1817200D03*
D31*
X54000Y1817200D03*
X57300Y1817200D03*
D30*
X60650Y1817200D03*
D31*
X64000Y1817200D03*
X67300Y1817200D03*
D30*
X10650Y1817300D03*
D31*
X14000Y1817300D03*
X17300Y1817300D03*
D30*
X20650Y1817300D03*
D31*
X24000Y1817300D03*
X27300Y1817300D03*
D30*
X30650Y1817300D03*
D31*
X34000Y1817300D03*
X37300Y1817300D03*
D30*
X40650Y1817300D03*
D31*
X44000Y1817300D03*
X47300Y1817300D03*
D30*
X50650Y1817300D03*
D31*
X54000Y1817300D03*
X57300Y1817300D03*
D30*
X60650Y1817300D03*
D31*
X64000Y1817300D03*
X67300Y1817300D03*
D30*
X10650Y1817400D03*
D31*
X14000Y1817400D03*
X17300Y1817400D03*
D30*
X20650Y1817400D03*
D31*
X24000Y1817400D03*
X27300Y1817400D03*
D30*
X30650Y1817400D03*
D31*
X34000Y1817400D03*
X37300Y1817400D03*
D30*
X40650Y1817400D03*
D31*
X44000Y1817400D03*
X47300Y1817400D03*
D30*
X50650Y1817400D03*
D31*
X54000Y1817400D03*
X57300Y1817400D03*
D30*
X60650Y1817400D03*
D31*
X64000Y1817400D03*
X67300Y1817400D03*
D30*
X10650Y1817500D03*
D31*
X14000Y1817500D03*
X17300Y1817500D03*
D30*
X20650Y1817500D03*
D31*
X24000Y1817500D03*
X27300Y1817500D03*
D30*
X30650Y1817500D03*
D31*
X34000Y1817500D03*
X37300Y1817500D03*
D30*
X40650Y1817500D03*
D31*
X44000Y1817500D03*
X47300Y1817500D03*
D30*
X50650Y1817500D03*
D31*
X54000Y1817500D03*
X57300Y1817500D03*
D30*
X60650Y1817500D03*
D31*
X64000Y1817500D03*
X67300Y1817500D03*
D30*
X10650Y1817600D03*
D31*
X14000Y1817600D03*
X17300Y1817600D03*
D30*
X20650Y1817600D03*
D31*
X24000Y1817600D03*
X27300Y1817600D03*
D30*
X30650Y1817600D03*
D31*
X34000Y1817600D03*
X37300Y1817600D03*
D30*
X40650Y1817600D03*
D31*
X44000Y1817600D03*
X47300Y1817600D03*
D30*
X50650Y1817600D03*
D31*
X54000Y1817600D03*
X57300Y1817600D03*
D30*
X60650Y1817600D03*
D31*
X64000Y1817600D03*
X67300Y1817600D03*
D30*
X10650Y1817700D03*
D31*
X14000Y1817700D03*
X17300Y1817700D03*
D30*
X20650Y1817700D03*
D31*
X24000Y1817700D03*
X27300Y1817700D03*
D30*
X30650Y1817700D03*
D31*
X34000Y1817700D03*
X37300Y1817700D03*
D30*
X40650Y1817700D03*
D31*
X44000Y1817700D03*
X47300Y1817700D03*
D30*
X50650Y1817700D03*
D31*
X54000Y1817700D03*
X57300Y1817700D03*
D30*
X60650Y1817700D03*
D31*
X64000Y1817700D03*
X67300Y1817700D03*
D30*
X10650Y1817800D03*
D31*
X14000Y1817800D03*
X17300Y1817800D03*
D30*
X20650Y1817800D03*
D31*
X24000Y1817800D03*
X27300Y1817800D03*
D30*
X30650Y1817800D03*
D31*
X34000Y1817800D03*
X37300Y1817800D03*
D30*
X40650Y1817800D03*
D31*
X44000Y1817800D03*
X47300Y1817800D03*
D30*
X50650Y1817800D03*
D31*
X54000Y1817800D03*
X57300Y1817800D03*
D30*
X60650Y1817800D03*
D31*
X64000Y1817800D03*
X67300Y1817800D03*
D30*
X10650Y1817900D03*
D31*
X14000Y1817900D03*
X17300Y1817900D03*
D30*
X20650Y1817900D03*
D31*
X24000Y1817900D03*
X27300Y1817900D03*
D30*
X30650Y1817900D03*
D31*
X34000Y1817900D03*
X37300Y1817900D03*
D30*
X40650Y1817900D03*
D31*
X44000Y1817900D03*
X47300Y1817900D03*
D30*
X50650Y1817900D03*
D31*
X54000Y1817900D03*
X57300Y1817900D03*
D30*
X60650Y1817900D03*
D31*
X64000Y1817900D03*
X67300Y1817900D03*
D30*
X10650Y1818000D03*
D31*
X14000Y1818000D03*
X17300Y1818000D03*
D30*
X20650Y1818000D03*
D31*
X24000Y1818000D03*
X27300Y1818000D03*
D30*
X30650Y1818000D03*
D31*
X34000Y1818000D03*
X37300Y1818000D03*
D30*
X40650Y1818000D03*
D31*
X44000Y1818000D03*
X47300Y1818000D03*
D30*
X50650Y1818000D03*
D31*
X54000Y1818000D03*
X57300Y1818000D03*
D30*
X60650Y1818000D03*
D31*
X64000Y1818000D03*
X67300Y1818000D03*
D30*
X10650Y1818100D03*
D31*
X14000Y1818100D03*
X17300Y1818100D03*
D30*
X20650Y1818100D03*
D31*
X24000Y1818100D03*
X27300Y1818100D03*
D30*
X30650Y1818100D03*
D31*
X34000Y1818100D03*
X37300Y1818100D03*
D30*
X40650Y1818100D03*
D31*
X44000Y1818100D03*
X47300Y1818100D03*
D30*
X50650Y1818100D03*
D31*
X54000Y1818100D03*
X57300Y1818100D03*
D30*
X60650Y1818100D03*
D31*
X64000Y1818100D03*
X67300Y1818100D03*
D30*
X10650Y1818200D03*
D31*
X14000Y1818200D03*
X17300Y1818200D03*
D30*
X20650Y1818200D03*
D31*
X24000Y1818200D03*
X27300Y1818200D03*
D30*
X30650Y1818200D03*
D31*
X34000Y1818200D03*
X37300Y1818200D03*
D30*
X40650Y1818200D03*
D31*
X44000Y1818200D03*
X47300Y1818200D03*
D30*
X50650Y1818200D03*
D31*
X54000Y1818200D03*
X57300Y1818200D03*
D30*
X60650Y1818200D03*
D31*
X64000Y1818200D03*
X67300Y1818200D03*
D30*
X10650Y1818300D03*
D31*
X14000Y1818300D03*
X17300Y1818300D03*
D30*
X20650Y1818300D03*
D31*
X24000Y1818300D03*
X27300Y1818300D03*
D30*
X30650Y1818300D03*
D31*
X34000Y1818300D03*
X37300Y1818300D03*
D30*
X40650Y1818300D03*
D31*
X44000Y1818300D03*
X47300Y1818300D03*
D30*
X50650Y1818300D03*
D31*
X54000Y1818300D03*
X57300Y1818300D03*
D30*
X60650Y1818300D03*
D31*
X64000Y1818300D03*
X67300Y1818300D03*
D41*
X182525Y60263D03*
X474625Y542863D03*
X477800Y109475D03*
X442875Y128525D03*
X388900Y252350D03*
X493675Y180913D03*
X428588Y60263D03*
X474625Y739713D03*
X487325Y776225D03*
X632525Y60263D03*
X924625Y542863D03*
X927800Y109475D03*
X892875Y128525D03*
X838900Y252350D03*
X943675Y180913D03*
X878588Y60263D03*
X924625Y739713D03*
X937325Y776225D03*
X1082525Y60263D03*
X1374625Y542863D03*
X1377800Y109475D03*
X1342875Y128525D03*
X1288900Y252350D03*
X1393675Y180913D03*
X1328588Y60263D03*
X1374625Y739713D03*
X1387325Y776225D03*
X182525Y1080263D03*
X474625Y1562863D03*
X477800Y1129475D03*
X442875Y1148525D03*
X388900Y1272350D03*
X493675Y1200913D03*
X428588Y1080263D03*
X474625Y1759713D03*
X487325Y1796225D03*
X632525Y1080263D03*
X924625Y1562863D03*
X927800Y1129475D03*
X892875Y1148525D03*
X838900Y1272350D03*
X943675Y1200913D03*
X878588Y1080263D03*
X924625Y1759713D03*
X937325Y1796225D03*
X1082525Y1080263D03*
X1374625Y1562863D03*
X1377800Y1129475D03*
X1342875Y1148525D03*
X1288900Y1272350D03*
X1393675Y1200913D03*
X1328588Y1080263D03*
X1374625Y1759713D03*
X1387325Y1796225D03*
M02*
