G04 EAGLE Gerber RS-274X export*
G75*
%MOMM*%
%FSLAX34Y34*%
%LPD*%
%INBottom Copper*%
%IPPOS*%
%AMOC8*
5,1,8,0,0,1.08239X$1,22.5*%
G01*
G04 Define Apertures*
%ADD10C,6.100000*%
%ADD11C,1.000000*%
%ADD12C,0.502400*%
%ADD13C,0.406400*%
%ADD14C,0.254000*%
G36*
X470318Y2565D02*
X478176Y3810D01*
X478780Y4006D01*
X485869Y7618D01*
X486383Y7991D01*
X492009Y13617D01*
X492382Y14131D01*
X495994Y21220D01*
X496190Y21824D01*
X497435Y29682D01*
X497460Y30000D01*
X497460Y67494D01*
X497779Y68263D01*
X497933Y69057D01*
X497766Y69848D01*
X497338Y70478D01*
X495693Y72122D01*
X494920Y73990D01*
X494920Y76010D01*
X495733Y77972D01*
X495887Y78766D01*
X495733Y79528D01*
X494920Y81490D01*
X494920Y83510D01*
X495733Y85472D01*
X495887Y86266D01*
X495733Y87028D01*
X494920Y88990D01*
X494920Y91010D01*
X495733Y92972D01*
X495887Y93766D01*
X495733Y94528D01*
X494920Y96490D01*
X494920Y98510D01*
X495733Y100472D01*
X495887Y101266D01*
X495733Y102028D01*
X495653Y102219D01*
X495201Y102890D01*
X494524Y103331D01*
X493727Y103473D01*
X492939Y103293D01*
X492283Y102820D01*
X491899Y102219D01*
X491201Y100535D01*
X466331Y75665D01*
X465884Y74991D01*
X465736Y74196D01*
X465909Y73406D01*
X466377Y72746D01*
X467242Y72265D01*
X472753Y70788D01*
X480287Y66439D01*
X486439Y60287D01*
X490788Y52753D01*
X493040Y44350D01*
X493040Y35650D01*
X490788Y27247D01*
X486439Y19713D01*
X480287Y13561D01*
X472753Y9212D01*
X464350Y6960D01*
X455650Y6960D01*
X447247Y9212D01*
X439713Y13561D01*
X433561Y19713D01*
X429212Y27247D01*
X426960Y35650D01*
X426960Y44350D01*
X429185Y52653D01*
X429234Y53460D01*
X428965Y54222D01*
X428420Y54820D01*
X427948Y55036D01*
X427956Y55056D01*
X425726Y55980D01*
X424305Y57401D01*
X423536Y59258D01*
X423536Y61267D01*
X424305Y63124D01*
X425726Y64545D01*
X426511Y64871D01*
X427170Y65311D01*
X441873Y80013D01*
X443553Y80710D01*
X457602Y80710D01*
X458395Y80870D01*
X459039Y81305D01*
X482158Y104424D01*
X482604Y105098D01*
X482753Y105860D01*
X482753Y175472D01*
X483449Y177152D01*
X488626Y182330D01*
X489067Y182989D01*
X489392Y183774D01*
X490813Y185195D01*
X492670Y185965D01*
X494713Y185965D01*
X495444Y185822D01*
X496236Y185989D01*
X496899Y186452D01*
X497329Y187137D01*
X497460Y187854D01*
X497460Y907494D01*
X497779Y908263D01*
X497933Y909057D01*
X497766Y909848D01*
X497338Y910478D01*
X495693Y912122D01*
X494920Y913990D01*
X494920Y916010D01*
X495733Y917972D01*
X495887Y918766D01*
X495733Y919528D01*
X494920Y921490D01*
X494920Y923510D01*
X495733Y925472D01*
X495887Y926266D01*
X495733Y927028D01*
X494920Y928990D01*
X494920Y931010D01*
X495733Y932972D01*
X495887Y933766D01*
X495733Y934528D01*
X494920Y936490D01*
X494920Y938510D01*
X495733Y940472D01*
X495887Y941266D01*
X495733Y942028D01*
X494920Y943990D01*
X494920Y946010D01*
X495693Y947878D01*
X497338Y949522D01*
X497785Y950196D01*
X497933Y950991D01*
X497779Y951737D01*
X497460Y952506D01*
X497460Y970000D01*
X497435Y970318D01*
X496190Y978176D01*
X495994Y978780D01*
X492382Y985869D01*
X492009Y986383D01*
X486383Y992009D01*
X485869Y992382D01*
X478780Y995994D01*
X478176Y996190D01*
X470318Y997435D01*
X470000Y997460D01*
X130000Y997460D01*
X129682Y997435D01*
X121824Y996190D01*
X121220Y995994D01*
X114131Y992382D01*
X113617Y992009D01*
X107991Y986383D01*
X107618Y985869D01*
X104006Y978780D01*
X103810Y978176D01*
X102565Y970318D01*
X102540Y970000D01*
X102540Y952506D01*
X102222Y951737D01*
X102067Y950943D01*
X102234Y950152D01*
X102662Y949522D01*
X104307Y947878D01*
X105080Y946010D01*
X105080Y943990D01*
X104267Y942028D01*
X104113Y941234D01*
X104267Y940472D01*
X105080Y938510D01*
X105080Y936490D01*
X104267Y934528D01*
X104113Y933734D01*
X104267Y932972D01*
X105080Y931010D01*
X105080Y928990D01*
X104267Y927028D01*
X104113Y926234D01*
X104267Y925472D01*
X105080Y923510D01*
X105080Y921490D01*
X104267Y919528D01*
X104113Y918734D01*
X104267Y917972D01*
X105080Y916010D01*
X105080Y913990D01*
X104307Y912122D01*
X102662Y910478D01*
X102215Y909804D01*
X102067Y909009D01*
X102222Y908263D01*
X102540Y907494D01*
X102540Y112506D01*
X102222Y111737D01*
X102067Y110943D01*
X102234Y110152D01*
X102662Y109522D01*
X104307Y107878D01*
X105080Y106010D01*
X105080Y103990D01*
X104267Y102028D01*
X104113Y101234D01*
X104267Y100472D01*
X105080Y98510D01*
X105080Y96490D01*
X104267Y94528D01*
X104113Y93734D01*
X104267Y92972D01*
X105080Y91010D01*
X105080Y88990D01*
X104267Y87028D01*
X104113Y86234D01*
X104267Y85472D01*
X105080Y83510D01*
X105080Y81490D01*
X104267Y79528D01*
X104113Y78734D01*
X104267Y77972D01*
X105080Y76010D01*
X105080Y73990D01*
X104307Y72122D01*
X102662Y70478D01*
X102215Y69804D01*
X102067Y69009D01*
X102222Y68263D01*
X102540Y67494D01*
X102540Y30000D01*
X102565Y29682D01*
X103810Y21824D01*
X104006Y21220D01*
X107618Y14131D01*
X107991Y13617D01*
X113617Y7991D01*
X114131Y7618D01*
X121220Y4006D01*
X121824Y3810D01*
X129682Y2565D01*
X130000Y2540D01*
X470000Y2540D01*
X470318Y2565D01*
G37*
%LPC*%
G36*
X455650Y926960D02*
X447247Y929212D01*
X439713Y933561D01*
X433561Y939713D01*
X429212Y947247D01*
X426960Y955650D01*
X426960Y964350D01*
X429212Y972753D01*
X433561Y980287D01*
X439713Y986439D01*
X447247Y990788D01*
X455650Y993040D01*
X464350Y993040D01*
X472753Y990788D01*
X480287Y986439D01*
X486439Y980287D01*
X490788Y972753D01*
X493040Y964350D01*
X493040Y955650D01*
X490788Y947247D01*
X486439Y939713D01*
X480287Y933561D01*
X472753Y929212D01*
X464350Y926960D01*
X455650Y926960D01*
G37*
G36*
X135650Y926960D02*
X127247Y929212D01*
X119713Y933561D01*
X113561Y939713D01*
X109212Y947247D01*
X106960Y955650D01*
X106960Y964350D01*
X109212Y972753D01*
X113561Y980287D01*
X119713Y986439D01*
X127247Y990788D01*
X135650Y993040D01*
X144350Y993040D01*
X152753Y990788D01*
X160287Y986439D01*
X166439Y980287D01*
X170788Y972753D01*
X173040Y964350D01*
X173040Y955650D01*
X170788Y947247D01*
X166439Y939713D01*
X160287Y933561D01*
X152753Y929212D01*
X144350Y926960D01*
X135650Y926960D01*
G37*
G36*
X467903Y864460D02*
X464030Y866065D01*
X461065Y869030D01*
X459460Y872903D01*
X459460Y877097D01*
X461065Y880970D01*
X464030Y883935D01*
X467903Y885540D01*
X472097Y885540D01*
X475970Y883935D01*
X478935Y880970D01*
X480540Y877097D01*
X480540Y872903D01*
X478935Y869030D01*
X475970Y866065D01*
X472097Y864460D01*
X467903Y864460D01*
G37*
G36*
X407903Y864460D02*
X404030Y866065D01*
X401065Y869030D01*
X399460Y872903D01*
X399460Y877097D01*
X401065Y880970D01*
X404030Y883935D01*
X407903Y885540D01*
X412097Y885540D01*
X415970Y883935D01*
X418935Y880970D01*
X420540Y877097D01*
X420540Y872903D01*
X418935Y869030D01*
X415970Y866065D01*
X412097Y864460D01*
X407903Y864460D01*
G37*
G36*
X187903Y864460D02*
X184030Y866065D01*
X181065Y869030D01*
X179460Y872903D01*
X179460Y877097D01*
X181065Y880970D01*
X184030Y883935D01*
X187903Y885540D01*
X192097Y885540D01*
X195970Y883935D01*
X198935Y880970D01*
X200540Y877097D01*
X200540Y872903D01*
X198935Y869030D01*
X195970Y866065D01*
X192097Y864460D01*
X187903Y864460D01*
G37*
G36*
X127903Y864460D02*
X124030Y866065D01*
X121065Y869030D01*
X119460Y872903D01*
X119460Y877097D01*
X121065Y880970D01*
X124030Y883935D01*
X127903Y885540D01*
X132097Y885540D01*
X135970Y883935D01*
X138935Y880970D01*
X140540Y877097D01*
X140540Y872903D01*
X138935Y869030D01*
X135970Y866065D01*
X132097Y864460D01*
X127903Y864460D01*
G37*
G36*
X473620Y734661D02*
X471763Y735430D01*
X470342Y736851D01*
X469573Y738708D01*
X469573Y740717D01*
X470411Y742740D01*
X470666Y743126D01*
X470815Y743889D01*
X470815Y747428D01*
X470654Y748221D01*
X470197Y748888D01*
X469516Y749323D01*
X468783Y749460D01*
X467903Y749460D01*
X464030Y751065D01*
X461065Y754030D01*
X459460Y757903D01*
X459460Y762097D01*
X461065Y765970D01*
X464030Y768935D01*
X467903Y770540D01*
X472097Y770540D01*
X475970Y768935D01*
X478935Y765970D01*
X479606Y764352D01*
X480058Y763682D01*
X480735Y763240D01*
X481532Y763098D01*
X482320Y763278D01*
X482976Y763751D01*
X483395Y764443D01*
X483515Y765130D01*
X483515Y772049D01*
X483354Y772841D01*
X483106Y773210D01*
X482273Y775220D01*
X482273Y777230D01*
X483042Y779087D01*
X484463Y780508D01*
X486320Y781277D01*
X488330Y781277D01*
X490187Y780508D01*
X491608Y779087D01*
X492377Y777230D01*
X492377Y775220D01*
X491539Y773197D01*
X491284Y772811D01*
X491135Y772049D01*
X491135Y758772D01*
X479030Y746667D01*
X478584Y745993D01*
X478435Y745230D01*
X478435Y743889D01*
X478596Y743096D01*
X478844Y742728D01*
X479677Y740717D01*
X479677Y738708D01*
X478908Y736851D01*
X477487Y735430D01*
X475630Y734661D01*
X473620Y734661D01*
G37*
G36*
X407903Y749460D02*
X404030Y751065D01*
X401065Y754030D01*
X399460Y757903D01*
X399460Y762097D01*
X401065Y765970D01*
X404030Y768935D01*
X407903Y770540D01*
X412097Y770540D01*
X415970Y768935D01*
X418935Y765970D01*
X420540Y762097D01*
X420540Y757903D01*
X418935Y754030D01*
X415970Y751065D01*
X412097Y749460D01*
X407903Y749460D01*
G37*
G36*
X187903Y749460D02*
X184030Y751065D01*
X181065Y754030D01*
X179460Y757903D01*
X179460Y762097D01*
X181065Y765970D01*
X184030Y768935D01*
X187903Y770540D01*
X192097Y770540D01*
X195970Y768935D01*
X198935Y765970D01*
X200540Y762097D01*
X200540Y757903D01*
X198935Y754030D01*
X195970Y751065D01*
X192097Y749460D01*
X187903Y749460D01*
G37*
G36*
X127903Y749460D02*
X124030Y751065D01*
X121065Y754030D01*
X119460Y757903D01*
X119460Y762097D01*
X121065Y765970D01*
X124030Y768935D01*
X127903Y770540D01*
X132097Y770540D01*
X135970Y768935D01*
X138935Y765970D01*
X140540Y762097D01*
X140540Y757903D01*
X138935Y754030D01*
X135970Y751065D01*
X132097Y749460D01*
X127903Y749460D01*
G37*
G36*
X127903Y634460D02*
X124030Y636065D01*
X121065Y639030D01*
X119460Y642903D01*
X119460Y647097D01*
X121065Y650970D01*
X124030Y653935D01*
X127903Y655540D01*
X132097Y655540D01*
X135970Y653935D01*
X138935Y650970D01*
X140540Y647097D01*
X140540Y642903D01*
X138935Y639030D01*
X135970Y636065D01*
X132097Y634460D01*
X127903Y634460D01*
G37*
G36*
X467903Y634460D02*
X464030Y636065D01*
X461065Y639030D01*
X459460Y642903D01*
X459460Y647097D01*
X461065Y650970D01*
X464030Y653935D01*
X467903Y655540D01*
X472097Y655540D01*
X475970Y653935D01*
X478935Y650970D01*
X480540Y647097D01*
X480540Y642903D01*
X478935Y639030D01*
X475970Y636065D01*
X472097Y634460D01*
X467903Y634460D01*
G37*
G36*
X407903Y634460D02*
X404030Y636065D01*
X401065Y639030D01*
X399460Y642903D01*
X399460Y647097D01*
X401065Y650970D01*
X404030Y653935D01*
X407903Y655540D01*
X412097Y655540D01*
X415970Y653935D01*
X418935Y650970D01*
X420540Y647097D01*
X420540Y642903D01*
X418935Y639030D01*
X415970Y636065D01*
X412097Y634460D01*
X407903Y634460D01*
G37*
G36*
X187903Y634460D02*
X184030Y636065D01*
X181065Y639030D01*
X179460Y642903D01*
X179460Y647097D01*
X181065Y650970D01*
X184030Y653935D01*
X187903Y655540D01*
X192097Y655540D01*
X195970Y653935D01*
X198935Y650970D01*
X200540Y647097D01*
X200540Y642903D01*
X198935Y639030D01*
X195970Y636065D01*
X192097Y634460D01*
X187903Y634460D01*
G37*
G36*
X467903Y519460D02*
X464030Y521065D01*
X461065Y524030D01*
X459460Y527903D01*
X459460Y532097D01*
X461065Y535970D01*
X464030Y538935D01*
X467903Y540540D01*
X472097Y540540D01*
X475970Y538935D01*
X478935Y535970D01*
X480540Y532097D01*
X480540Y527903D01*
X478935Y524030D01*
X475970Y521065D01*
X472097Y519460D01*
X467903Y519460D01*
G37*
G36*
X127903Y519460D02*
X124030Y521065D01*
X121065Y524030D01*
X119460Y527903D01*
X119460Y532097D01*
X121065Y535970D01*
X124030Y538935D01*
X127903Y540540D01*
X132097Y540540D01*
X135970Y538935D01*
X138935Y535970D01*
X140540Y532097D01*
X140540Y527903D01*
X138935Y524030D01*
X135970Y521065D01*
X132097Y519460D01*
X127903Y519460D01*
G37*
G36*
X407903Y519460D02*
X404030Y521065D01*
X401065Y524030D01*
X399460Y527903D01*
X399460Y532097D01*
X401065Y535970D01*
X404030Y538935D01*
X407903Y540540D01*
X412097Y540540D01*
X415970Y538935D01*
X418935Y535970D01*
X420540Y532097D01*
X420540Y527903D01*
X418935Y524030D01*
X415970Y521065D01*
X412097Y519460D01*
X407903Y519460D01*
G37*
G36*
X187903Y519460D02*
X184030Y521065D01*
X181065Y524030D01*
X179460Y527903D01*
X179460Y532097D01*
X181065Y535970D01*
X184030Y538935D01*
X187903Y540540D01*
X192097Y540540D01*
X195970Y538935D01*
X198935Y535970D01*
X200540Y532097D01*
X200540Y527903D01*
X198935Y524030D01*
X195970Y521065D01*
X192097Y519460D01*
X187903Y519460D01*
G37*
G36*
X187903Y404460D02*
X184030Y406065D01*
X181065Y409030D01*
X179460Y412903D01*
X179460Y417097D01*
X181065Y420970D01*
X184030Y423935D01*
X187903Y425540D01*
X192097Y425540D01*
X195970Y423935D01*
X198935Y420970D01*
X200540Y417097D01*
X200540Y412903D01*
X198935Y409030D01*
X195970Y406065D01*
X192097Y404460D01*
X187903Y404460D01*
G37*
G36*
X127903Y404460D02*
X124030Y406065D01*
X121065Y409030D01*
X119460Y412903D01*
X119460Y417097D01*
X121065Y420970D01*
X124030Y423935D01*
X127903Y425540D01*
X132097Y425540D01*
X135970Y423935D01*
X138935Y420970D01*
X140540Y417097D01*
X140540Y412903D01*
X138935Y409030D01*
X135970Y406065D01*
X132097Y404460D01*
X127903Y404460D01*
G37*
G36*
X467903Y404460D02*
X464030Y406065D01*
X461065Y409030D01*
X459460Y412903D01*
X459460Y417097D01*
X461065Y420970D01*
X464030Y423935D01*
X467903Y425540D01*
X472097Y425540D01*
X475970Y423935D01*
X478935Y420970D01*
X480540Y417097D01*
X480540Y412903D01*
X478935Y409030D01*
X475970Y406065D01*
X472097Y404460D01*
X467903Y404460D01*
G37*
G36*
X407903Y404460D02*
X404030Y406065D01*
X401065Y409030D01*
X399460Y412903D01*
X399460Y417097D01*
X401065Y420970D01*
X404030Y423935D01*
X407903Y425540D01*
X412097Y425540D01*
X415970Y423935D01*
X418935Y420970D01*
X420540Y417097D01*
X420540Y412903D01*
X418935Y409030D01*
X415970Y406065D01*
X412097Y404460D01*
X407903Y404460D01*
G37*
G36*
X150270Y334724D02*
X151408Y337471D01*
X153529Y339592D01*
X156300Y340740D01*
X161276Y340740D01*
X161276Y334724D01*
X150270Y334724D01*
G37*
G36*
X108470Y334724D02*
X109608Y337471D01*
X111729Y339592D01*
X114500Y340740D01*
X119476Y340740D01*
X119476Y334724D01*
X108470Y334724D01*
G37*
G36*
X122524Y334724D02*
X122524Y340740D01*
X127500Y340740D01*
X130271Y339592D01*
X132392Y337471D01*
X133530Y334724D01*
X122524Y334724D01*
G37*
G36*
X164324Y334724D02*
X164324Y340740D01*
X169300Y340740D01*
X172071Y339592D01*
X174192Y337471D01*
X175330Y334724D01*
X164324Y334724D01*
G37*
G36*
X164324Y325660D02*
X164324Y331676D01*
X175330Y331676D01*
X174192Y328929D01*
X172071Y326808D01*
X169300Y325660D01*
X164324Y325660D01*
G37*
G36*
X156648Y313110D02*
X154520Y313991D01*
X152891Y315620D01*
X152010Y317748D01*
X152010Y320052D01*
X152891Y322180D01*
X154200Y323489D01*
X154647Y324163D01*
X154795Y324958D01*
X154622Y325748D01*
X154154Y326407D01*
X153541Y326803D01*
X153529Y326808D01*
X151408Y328929D01*
X150270Y331676D01*
X161276Y331676D01*
X161276Y324898D01*
X162582Y324898D01*
X162239Y324361D01*
X162103Y323563D01*
X162289Y322776D01*
X162697Y322191D01*
X162709Y322180D01*
X163590Y320052D01*
X163590Y317748D01*
X162709Y315620D01*
X161080Y313991D01*
X158952Y313110D01*
X156648Y313110D01*
G37*
G36*
X122524Y325660D02*
X122524Y331676D01*
X133530Y331676D01*
X132392Y328929D01*
X130271Y326808D01*
X127500Y325660D01*
X122524Y325660D01*
G37*
G36*
X114500Y325660D02*
X111729Y326808D01*
X109608Y328929D01*
X108470Y331676D01*
X119476Y331676D01*
X119476Y325660D01*
X114500Y325660D01*
G37*
G36*
X150270Y248324D02*
X151408Y251071D01*
X153529Y253192D01*
X153541Y253197D01*
X154212Y253649D01*
X154653Y254327D01*
X154795Y255123D01*
X154615Y255912D01*
X154200Y256511D01*
X152891Y257820D01*
X152010Y259948D01*
X152010Y262252D01*
X152891Y264380D01*
X154520Y266009D01*
X156648Y266890D01*
X158952Y266890D01*
X161080Y266009D01*
X162709Y264380D01*
X163590Y262252D01*
X163590Y259948D01*
X162709Y257820D01*
X162697Y257809D01*
X162251Y257135D01*
X162102Y256340D01*
X162276Y255550D01*
X162593Y255102D01*
X161276Y255102D01*
X161276Y248324D01*
X150270Y248324D01*
G37*
G36*
X164324Y248324D02*
X164324Y254340D01*
X169300Y254340D01*
X172071Y253192D01*
X174192Y251071D01*
X175330Y248324D01*
X164324Y248324D01*
G37*
G36*
X108470Y248324D02*
X109608Y251071D01*
X111729Y253192D01*
X114500Y254340D01*
X119476Y254340D01*
X119476Y248324D01*
X108470Y248324D01*
G37*
G36*
X122524Y248324D02*
X122524Y254340D01*
X127500Y254340D01*
X130271Y253192D01*
X132392Y251071D01*
X133530Y248324D01*
X122524Y248324D01*
G37*
G36*
X164324Y239260D02*
X164324Y245276D01*
X175330Y245276D01*
X174192Y242529D01*
X172071Y240408D01*
X169300Y239260D01*
X164324Y239260D01*
G37*
G36*
X156300Y239260D02*
X153529Y240408D01*
X151408Y242529D01*
X150270Y245276D01*
X161276Y245276D01*
X161276Y239260D01*
X156300Y239260D01*
G37*
G36*
X122524Y239260D02*
X122524Y245276D01*
X133530Y245276D01*
X132392Y242529D01*
X130271Y240408D01*
X127500Y239260D01*
X122524Y239260D01*
G37*
G36*
X114500Y239260D02*
X111729Y240408D01*
X109608Y242529D01*
X108470Y245276D01*
X119476Y245276D01*
X119476Y239260D01*
X114500Y239260D01*
G37*
G36*
X172705Y153460D02*
X168463Y155217D01*
X165217Y158463D01*
X163460Y162705D01*
X163460Y167295D01*
X165217Y171537D01*
X168463Y174783D01*
X172705Y176540D01*
X177295Y176540D01*
X181537Y174783D01*
X184783Y171537D01*
X186540Y167295D01*
X186540Y162705D01*
X184783Y158463D01*
X181537Y155217D01*
X177295Y153460D01*
X172705Y153460D01*
G37*
G36*
X127903Y154460D02*
X124030Y156065D01*
X121065Y159030D01*
X119460Y162903D01*
X119460Y167097D01*
X121065Y170970D01*
X124030Y173935D01*
X127903Y175540D01*
X132097Y175540D01*
X135970Y173935D01*
X138935Y170970D01*
X140540Y167097D01*
X140540Y162903D01*
X138935Y159030D01*
X135970Y156065D01*
X132097Y154460D01*
X127903Y154460D01*
G37*
G36*
X135650Y6960D02*
X127247Y9212D01*
X119713Y13561D01*
X113561Y19713D01*
X109212Y27247D01*
X106960Y35650D01*
X106960Y44350D01*
X109212Y52753D01*
X113561Y60287D01*
X119713Y66439D01*
X127247Y70788D01*
X135650Y73040D01*
X144350Y73040D01*
X152753Y70788D01*
X160287Y66439D01*
X166439Y60287D01*
X170788Y52753D01*
X173040Y44350D01*
X173040Y35650D01*
X170788Y27247D01*
X166439Y19713D01*
X160287Y13561D01*
X152753Y9212D01*
X144350Y6960D01*
X135650Y6960D01*
G37*
%LPD*%
G36*
X470318Y1022565D02*
X478176Y1023810D01*
X478780Y1024006D01*
X485869Y1027618D01*
X486383Y1027991D01*
X492009Y1033617D01*
X492382Y1034131D01*
X495994Y1041220D01*
X496190Y1041824D01*
X497435Y1049682D01*
X497460Y1050000D01*
X497460Y1087494D01*
X497779Y1088263D01*
X497933Y1089057D01*
X497766Y1089848D01*
X497338Y1090478D01*
X495693Y1092122D01*
X494920Y1093990D01*
X494920Y1096010D01*
X495733Y1097972D01*
X495887Y1098766D01*
X495733Y1099528D01*
X494920Y1101490D01*
X494920Y1103510D01*
X495733Y1105472D01*
X495887Y1106266D01*
X495733Y1107028D01*
X494920Y1108990D01*
X494920Y1111010D01*
X495733Y1112972D01*
X495887Y1113766D01*
X495733Y1114528D01*
X494920Y1116490D01*
X494920Y1118510D01*
X495733Y1120472D01*
X495887Y1121266D01*
X495733Y1122028D01*
X495653Y1122219D01*
X495201Y1122890D01*
X494524Y1123331D01*
X493727Y1123473D01*
X492939Y1123293D01*
X492283Y1122820D01*
X491899Y1122219D01*
X491201Y1120535D01*
X466331Y1095665D01*
X465884Y1094991D01*
X465736Y1094196D01*
X465909Y1093406D01*
X466377Y1092746D01*
X467242Y1092265D01*
X472753Y1090788D01*
X480287Y1086439D01*
X486439Y1080287D01*
X490788Y1072753D01*
X493040Y1064350D01*
X493040Y1055650D01*
X490788Y1047247D01*
X486439Y1039713D01*
X480287Y1033561D01*
X472753Y1029212D01*
X464350Y1026960D01*
X455650Y1026960D01*
X447247Y1029212D01*
X439713Y1033561D01*
X433561Y1039713D01*
X429212Y1047247D01*
X426960Y1055650D01*
X426960Y1064350D01*
X429185Y1072653D01*
X429234Y1073460D01*
X428965Y1074222D01*
X428420Y1074820D01*
X427948Y1075036D01*
X427956Y1075056D01*
X425726Y1075980D01*
X424305Y1077401D01*
X423536Y1079258D01*
X423536Y1081267D01*
X424305Y1083124D01*
X425726Y1084545D01*
X426511Y1084871D01*
X427170Y1085311D01*
X441873Y1100013D01*
X443553Y1100710D01*
X457602Y1100710D01*
X458395Y1100870D01*
X459039Y1101305D01*
X482158Y1124424D01*
X482604Y1125098D01*
X482753Y1125860D01*
X482753Y1195472D01*
X483449Y1197152D01*
X488626Y1202330D01*
X489067Y1202989D01*
X489392Y1203774D01*
X490813Y1205195D01*
X492670Y1205965D01*
X494713Y1205965D01*
X495444Y1205822D01*
X496236Y1205989D01*
X496899Y1206452D01*
X497329Y1207137D01*
X497460Y1207854D01*
X497460Y1927494D01*
X497779Y1928263D01*
X497933Y1929057D01*
X497766Y1929848D01*
X497338Y1930478D01*
X495693Y1932122D01*
X494920Y1933990D01*
X494920Y1936010D01*
X495733Y1937972D01*
X495887Y1938766D01*
X495733Y1939528D01*
X494920Y1941490D01*
X494920Y1943510D01*
X495733Y1945472D01*
X495887Y1946266D01*
X495733Y1947028D01*
X494920Y1948990D01*
X494920Y1951010D01*
X495733Y1952972D01*
X495887Y1953766D01*
X495733Y1954528D01*
X494920Y1956490D01*
X494920Y1958510D01*
X495733Y1960472D01*
X495887Y1961266D01*
X495733Y1962028D01*
X494920Y1963990D01*
X494920Y1966010D01*
X495693Y1967878D01*
X497338Y1969522D01*
X497785Y1970196D01*
X497933Y1970991D01*
X497779Y1971737D01*
X497460Y1972506D01*
X497460Y1990000D01*
X497435Y1990318D01*
X496190Y1998176D01*
X495994Y1998780D01*
X492382Y2005869D01*
X492009Y2006383D01*
X486383Y2012009D01*
X485869Y2012382D01*
X478780Y2015994D01*
X478176Y2016190D01*
X470318Y2017435D01*
X470000Y2017460D01*
X130000Y2017460D01*
X129682Y2017435D01*
X121824Y2016190D01*
X121220Y2015994D01*
X114131Y2012382D01*
X113617Y2012009D01*
X107991Y2006383D01*
X107618Y2005869D01*
X104006Y1998780D01*
X103810Y1998176D01*
X102565Y1990318D01*
X102540Y1990000D01*
X102540Y1972506D01*
X102222Y1971737D01*
X102067Y1970943D01*
X102234Y1970152D01*
X102662Y1969522D01*
X104307Y1967878D01*
X105080Y1966010D01*
X105080Y1963990D01*
X104267Y1962028D01*
X104113Y1961234D01*
X104267Y1960472D01*
X105080Y1958510D01*
X105080Y1956490D01*
X104267Y1954528D01*
X104113Y1953734D01*
X104267Y1952972D01*
X105080Y1951010D01*
X105080Y1948990D01*
X104267Y1947028D01*
X104113Y1946234D01*
X104267Y1945472D01*
X105080Y1943510D01*
X105080Y1941490D01*
X104267Y1939528D01*
X104113Y1938734D01*
X104267Y1937972D01*
X105080Y1936010D01*
X105080Y1933990D01*
X104307Y1932122D01*
X102662Y1930478D01*
X102215Y1929804D01*
X102067Y1929009D01*
X102222Y1928263D01*
X102540Y1927494D01*
X102540Y1132506D01*
X102222Y1131737D01*
X102067Y1130943D01*
X102234Y1130152D01*
X102662Y1129522D01*
X104307Y1127878D01*
X105080Y1126010D01*
X105080Y1123990D01*
X104267Y1122028D01*
X104113Y1121234D01*
X104267Y1120472D01*
X105080Y1118510D01*
X105080Y1116490D01*
X104267Y1114528D01*
X104113Y1113734D01*
X104267Y1112972D01*
X105080Y1111010D01*
X105080Y1108990D01*
X104267Y1107028D01*
X104113Y1106234D01*
X104267Y1105472D01*
X105080Y1103510D01*
X105080Y1101490D01*
X104267Y1099528D01*
X104113Y1098734D01*
X104267Y1097972D01*
X105080Y1096010D01*
X105080Y1093990D01*
X104307Y1092122D01*
X102662Y1090478D01*
X102215Y1089804D01*
X102067Y1089009D01*
X102222Y1088263D01*
X102540Y1087494D01*
X102540Y1050000D01*
X102565Y1049682D01*
X103810Y1041824D01*
X104006Y1041220D01*
X107618Y1034131D01*
X107991Y1033617D01*
X113617Y1027991D01*
X114131Y1027618D01*
X121220Y1024006D01*
X121824Y1023810D01*
X129682Y1022565D01*
X130000Y1022540D01*
X470000Y1022540D01*
X470318Y1022565D01*
G37*
%LPC*%
G36*
X455650Y1946960D02*
X447247Y1949212D01*
X439713Y1953561D01*
X433561Y1959713D01*
X429212Y1967247D01*
X426960Y1975650D01*
X426960Y1984350D01*
X429212Y1992753D01*
X433561Y2000287D01*
X439713Y2006439D01*
X447247Y2010788D01*
X455650Y2013040D01*
X464350Y2013040D01*
X472753Y2010788D01*
X480287Y2006439D01*
X486439Y2000287D01*
X490788Y1992753D01*
X493040Y1984350D01*
X493040Y1975650D01*
X490788Y1967247D01*
X486439Y1959713D01*
X480287Y1953561D01*
X472753Y1949212D01*
X464350Y1946960D01*
X455650Y1946960D01*
G37*
G36*
X135650Y1946960D02*
X127247Y1949212D01*
X119713Y1953561D01*
X113561Y1959713D01*
X109212Y1967247D01*
X106960Y1975650D01*
X106960Y1984350D01*
X109212Y1992753D01*
X113561Y2000287D01*
X119713Y2006439D01*
X127247Y2010788D01*
X135650Y2013040D01*
X144350Y2013040D01*
X152753Y2010788D01*
X160287Y2006439D01*
X166439Y2000287D01*
X170788Y1992753D01*
X173040Y1984350D01*
X173040Y1975650D01*
X170788Y1967247D01*
X166439Y1959713D01*
X160287Y1953561D01*
X152753Y1949212D01*
X144350Y1946960D01*
X135650Y1946960D01*
G37*
G36*
X467903Y1884460D02*
X464030Y1886065D01*
X461065Y1889030D01*
X459460Y1892903D01*
X459460Y1897097D01*
X461065Y1900970D01*
X464030Y1903935D01*
X467903Y1905540D01*
X472097Y1905540D01*
X475970Y1903935D01*
X478935Y1900970D01*
X480540Y1897097D01*
X480540Y1892903D01*
X478935Y1889030D01*
X475970Y1886065D01*
X472097Y1884460D01*
X467903Y1884460D01*
G37*
G36*
X407903Y1884460D02*
X404030Y1886065D01*
X401065Y1889030D01*
X399460Y1892903D01*
X399460Y1897097D01*
X401065Y1900970D01*
X404030Y1903935D01*
X407903Y1905540D01*
X412097Y1905540D01*
X415970Y1903935D01*
X418935Y1900970D01*
X420540Y1897097D01*
X420540Y1892903D01*
X418935Y1889030D01*
X415970Y1886065D01*
X412097Y1884460D01*
X407903Y1884460D01*
G37*
G36*
X187903Y1884460D02*
X184030Y1886065D01*
X181065Y1889030D01*
X179460Y1892903D01*
X179460Y1897097D01*
X181065Y1900970D01*
X184030Y1903935D01*
X187903Y1905540D01*
X192097Y1905540D01*
X195970Y1903935D01*
X198935Y1900970D01*
X200540Y1897097D01*
X200540Y1892903D01*
X198935Y1889030D01*
X195970Y1886065D01*
X192097Y1884460D01*
X187903Y1884460D01*
G37*
G36*
X127903Y1884460D02*
X124030Y1886065D01*
X121065Y1889030D01*
X119460Y1892903D01*
X119460Y1897097D01*
X121065Y1900970D01*
X124030Y1903935D01*
X127903Y1905540D01*
X132097Y1905540D01*
X135970Y1903935D01*
X138935Y1900970D01*
X140540Y1897097D01*
X140540Y1892903D01*
X138935Y1889030D01*
X135970Y1886065D01*
X132097Y1884460D01*
X127903Y1884460D01*
G37*
G36*
X473620Y1754661D02*
X471763Y1755430D01*
X470342Y1756851D01*
X469573Y1758708D01*
X469573Y1760717D01*
X470411Y1762740D01*
X470666Y1763126D01*
X470815Y1763889D01*
X470815Y1767428D01*
X470654Y1768221D01*
X470197Y1768888D01*
X469516Y1769323D01*
X468783Y1769460D01*
X467903Y1769460D01*
X464030Y1771065D01*
X461065Y1774030D01*
X459460Y1777903D01*
X459460Y1782097D01*
X461065Y1785970D01*
X464030Y1788935D01*
X467903Y1790540D01*
X472097Y1790540D01*
X475970Y1788935D01*
X478935Y1785970D01*
X479606Y1784352D01*
X480058Y1783682D01*
X480735Y1783240D01*
X481532Y1783098D01*
X482320Y1783278D01*
X482976Y1783751D01*
X483395Y1784443D01*
X483515Y1785130D01*
X483515Y1792049D01*
X483354Y1792841D01*
X483106Y1793210D01*
X482273Y1795220D01*
X482273Y1797230D01*
X483042Y1799087D01*
X484463Y1800508D01*
X486320Y1801277D01*
X488330Y1801277D01*
X490187Y1800508D01*
X491608Y1799087D01*
X492377Y1797230D01*
X492377Y1795220D01*
X491539Y1793197D01*
X491284Y1792811D01*
X491135Y1792049D01*
X491135Y1778772D01*
X479030Y1766667D01*
X478584Y1765993D01*
X478435Y1765230D01*
X478435Y1763889D01*
X478596Y1763096D01*
X478844Y1762728D01*
X479677Y1760717D01*
X479677Y1758708D01*
X478908Y1756851D01*
X477487Y1755430D01*
X475630Y1754661D01*
X473620Y1754661D01*
G37*
G36*
X407903Y1769460D02*
X404030Y1771065D01*
X401065Y1774030D01*
X399460Y1777903D01*
X399460Y1782097D01*
X401065Y1785970D01*
X404030Y1788935D01*
X407903Y1790540D01*
X412097Y1790540D01*
X415970Y1788935D01*
X418935Y1785970D01*
X420540Y1782097D01*
X420540Y1777903D01*
X418935Y1774030D01*
X415970Y1771065D01*
X412097Y1769460D01*
X407903Y1769460D01*
G37*
G36*
X187903Y1769460D02*
X184030Y1771065D01*
X181065Y1774030D01*
X179460Y1777903D01*
X179460Y1782097D01*
X181065Y1785970D01*
X184030Y1788935D01*
X187903Y1790540D01*
X192097Y1790540D01*
X195970Y1788935D01*
X198935Y1785970D01*
X200540Y1782097D01*
X200540Y1777903D01*
X198935Y1774030D01*
X195970Y1771065D01*
X192097Y1769460D01*
X187903Y1769460D01*
G37*
G36*
X127903Y1769460D02*
X124030Y1771065D01*
X121065Y1774030D01*
X119460Y1777903D01*
X119460Y1782097D01*
X121065Y1785970D01*
X124030Y1788935D01*
X127903Y1790540D01*
X132097Y1790540D01*
X135970Y1788935D01*
X138935Y1785970D01*
X140540Y1782097D01*
X140540Y1777903D01*
X138935Y1774030D01*
X135970Y1771065D01*
X132097Y1769460D01*
X127903Y1769460D01*
G37*
G36*
X127903Y1654460D02*
X124030Y1656065D01*
X121065Y1659030D01*
X119460Y1662903D01*
X119460Y1667097D01*
X121065Y1670970D01*
X124030Y1673935D01*
X127903Y1675540D01*
X132097Y1675540D01*
X135970Y1673935D01*
X138935Y1670970D01*
X140540Y1667097D01*
X140540Y1662903D01*
X138935Y1659030D01*
X135970Y1656065D01*
X132097Y1654460D01*
X127903Y1654460D01*
G37*
G36*
X467903Y1654460D02*
X464030Y1656065D01*
X461065Y1659030D01*
X459460Y1662903D01*
X459460Y1667097D01*
X461065Y1670970D01*
X464030Y1673935D01*
X467903Y1675540D01*
X472097Y1675540D01*
X475970Y1673935D01*
X478935Y1670970D01*
X480540Y1667097D01*
X480540Y1662903D01*
X478935Y1659030D01*
X475970Y1656065D01*
X472097Y1654460D01*
X467903Y1654460D01*
G37*
G36*
X407903Y1654460D02*
X404030Y1656065D01*
X401065Y1659030D01*
X399460Y1662903D01*
X399460Y1667097D01*
X401065Y1670970D01*
X404030Y1673935D01*
X407903Y1675540D01*
X412097Y1675540D01*
X415970Y1673935D01*
X418935Y1670970D01*
X420540Y1667097D01*
X420540Y1662903D01*
X418935Y1659030D01*
X415970Y1656065D01*
X412097Y1654460D01*
X407903Y1654460D01*
G37*
G36*
X187903Y1654460D02*
X184030Y1656065D01*
X181065Y1659030D01*
X179460Y1662903D01*
X179460Y1667097D01*
X181065Y1670970D01*
X184030Y1673935D01*
X187903Y1675540D01*
X192097Y1675540D01*
X195970Y1673935D01*
X198935Y1670970D01*
X200540Y1667097D01*
X200540Y1662903D01*
X198935Y1659030D01*
X195970Y1656065D01*
X192097Y1654460D01*
X187903Y1654460D01*
G37*
G36*
X467903Y1539460D02*
X464030Y1541065D01*
X461065Y1544030D01*
X459460Y1547903D01*
X459460Y1552097D01*
X461065Y1555970D01*
X464030Y1558935D01*
X467903Y1560540D01*
X472097Y1560540D01*
X475970Y1558935D01*
X478935Y1555970D01*
X480540Y1552097D01*
X480540Y1547903D01*
X478935Y1544030D01*
X475970Y1541065D01*
X472097Y1539460D01*
X467903Y1539460D01*
G37*
G36*
X127903Y1539460D02*
X124030Y1541065D01*
X121065Y1544030D01*
X119460Y1547903D01*
X119460Y1552097D01*
X121065Y1555970D01*
X124030Y1558935D01*
X127903Y1560540D01*
X132097Y1560540D01*
X135970Y1558935D01*
X138935Y1555970D01*
X140540Y1552097D01*
X140540Y1547903D01*
X138935Y1544030D01*
X135970Y1541065D01*
X132097Y1539460D01*
X127903Y1539460D01*
G37*
G36*
X407903Y1539460D02*
X404030Y1541065D01*
X401065Y1544030D01*
X399460Y1547903D01*
X399460Y1552097D01*
X401065Y1555970D01*
X404030Y1558935D01*
X407903Y1560540D01*
X412097Y1560540D01*
X415970Y1558935D01*
X418935Y1555970D01*
X420540Y1552097D01*
X420540Y1547903D01*
X418935Y1544030D01*
X415970Y1541065D01*
X412097Y1539460D01*
X407903Y1539460D01*
G37*
G36*
X187903Y1539460D02*
X184030Y1541065D01*
X181065Y1544030D01*
X179460Y1547903D01*
X179460Y1552097D01*
X181065Y1555970D01*
X184030Y1558935D01*
X187903Y1560540D01*
X192097Y1560540D01*
X195970Y1558935D01*
X198935Y1555970D01*
X200540Y1552097D01*
X200540Y1547903D01*
X198935Y1544030D01*
X195970Y1541065D01*
X192097Y1539460D01*
X187903Y1539460D01*
G37*
G36*
X187903Y1424460D02*
X184030Y1426065D01*
X181065Y1429030D01*
X179460Y1432903D01*
X179460Y1437097D01*
X181065Y1440970D01*
X184030Y1443935D01*
X187903Y1445540D01*
X192097Y1445540D01*
X195970Y1443935D01*
X198935Y1440970D01*
X200540Y1437097D01*
X200540Y1432903D01*
X198935Y1429030D01*
X195970Y1426065D01*
X192097Y1424460D01*
X187903Y1424460D01*
G37*
G36*
X127903Y1424460D02*
X124030Y1426065D01*
X121065Y1429030D01*
X119460Y1432903D01*
X119460Y1437097D01*
X121065Y1440970D01*
X124030Y1443935D01*
X127903Y1445540D01*
X132097Y1445540D01*
X135970Y1443935D01*
X138935Y1440970D01*
X140540Y1437097D01*
X140540Y1432903D01*
X138935Y1429030D01*
X135970Y1426065D01*
X132097Y1424460D01*
X127903Y1424460D01*
G37*
G36*
X467903Y1424460D02*
X464030Y1426065D01*
X461065Y1429030D01*
X459460Y1432903D01*
X459460Y1437097D01*
X461065Y1440970D01*
X464030Y1443935D01*
X467903Y1445540D01*
X472097Y1445540D01*
X475970Y1443935D01*
X478935Y1440970D01*
X480540Y1437097D01*
X480540Y1432903D01*
X478935Y1429030D01*
X475970Y1426065D01*
X472097Y1424460D01*
X467903Y1424460D01*
G37*
G36*
X407903Y1424460D02*
X404030Y1426065D01*
X401065Y1429030D01*
X399460Y1432903D01*
X399460Y1437097D01*
X401065Y1440970D01*
X404030Y1443935D01*
X407903Y1445540D01*
X412097Y1445540D01*
X415970Y1443935D01*
X418935Y1440970D01*
X420540Y1437097D01*
X420540Y1432903D01*
X418935Y1429030D01*
X415970Y1426065D01*
X412097Y1424460D01*
X407903Y1424460D01*
G37*
G36*
X150270Y1354724D02*
X151408Y1357471D01*
X153529Y1359592D01*
X156300Y1360740D01*
X161276Y1360740D01*
X161276Y1354724D01*
X150270Y1354724D01*
G37*
G36*
X108470Y1354724D02*
X109608Y1357471D01*
X111729Y1359592D01*
X114500Y1360740D01*
X119476Y1360740D01*
X119476Y1354724D01*
X108470Y1354724D01*
G37*
G36*
X122524Y1354724D02*
X122524Y1360740D01*
X127500Y1360740D01*
X130271Y1359592D01*
X132392Y1357471D01*
X133530Y1354724D01*
X122524Y1354724D01*
G37*
G36*
X164324Y1354724D02*
X164324Y1360740D01*
X169300Y1360740D01*
X172071Y1359592D01*
X174192Y1357471D01*
X175330Y1354724D01*
X164324Y1354724D01*
G37*
G36*
X164324Y1345660D02*
X164324Y1351676D01*
X175330Y1351676D01*
X174192Y1348929D01*
X172071Y1346808D01*
X169300Y1345660D01*
X164324Y1345660D01*
G37*
G36*
X156648Y1333110D02*
X154520Y1333991D01*
X152891Y1335620D01*
X152010Y1337748D01*
X152010Y1340052D01*
X152891Y1342180D01*
X154200Y1343489D01*
X154647Y1344163D01*
X154795Y1344958D01*
X154622Y1345748D01*
X154154Y1346407D01*
X153541Y1346803D01*
X153529Y1346808D01*
X151408Y1348929D01*
X150270Y1351676D01*
X161276Y1351676D01*
X161276Y1344898D01*
X162582Y1344898D01*
X162239Y1344361D01*
X162103Y1343563D01*
X162289Y1342776D01*
X162697Y1342191D01*
X162709Y1342180D01*
X163590Y1340052D01*
X163590Y1337748D01*
X162709Y1335620D01*
X161080Y1333991D01*
X158952Y1333110D01*
X156648Y1333110D01*
G37*
G36*
X122524Y1345660D02*
X122524Y1351676D01*
X133530Y1351676D01*
X132392Y1348929D01*
X130271Y1346808D01*
X127500Y1345660D01*
X122524Y1345660D01*
G37*
G36*
X114500Y1345660D02*
X111729Y1346808D01*
X109608Y1348929D01*
X108470Y1351676D01*
X119476Y1351676D01*
X119476Y1345660D01*
X114500Y1345660D01*
G37*
G36*
X150270Y1268324D02*
X151408Y1271071D01*
X153529Y1273192D01*
X153541Y1273197D01*
X154212Y1273649D01*
X154653Y1274327D01*
X154795Y1275123D01*
X154615Y1275912D01*
X154200Y1276511D01*
X152891Y1277820D01*
X152010Y1279948D01*
X152010Y1282252D01*
X152891Y1284380D01*
X154520Y1286009D01*
X156648Y1286890D01*
X158952Y1286890D01*
X161080Y1286009D01*
X162709Y1284380D01*
X163590Y1282252D01*
X163590Y1279948D01*
X162709Y1277820D01*
X162697Y1277809D01*
X162251Y1277135D01*
X162102Y1276340D01*
X162276Y1275550D01*
X162593Y1275102D01*
X161276Y1275102D01*
X161276Y1268324D01*
X150270Y1268324D01*
G37*
G36*
X164324Y1268324D02*
X164324Y1274340D01*
X169300Y1274340D01*
X172071Y1273192D01*
X174192Y1271071D01*
X175330Y1268324D01*
X164324Y1268324D01*
G37*
G36*
X108470Y1268324D02*
X109608Y1271071D01*
X111729Y1273192D01*
X114500Y1274340D01*
X119476Y1274340D01*
X119476Y1268324D01*
X108470Y1268324D01*
G37*
G36*
X122524Y1268324D02*
X122524Y1274340D01*
X127500Y1274340D01*
X130271Y1273192D01*
X132392Y1271071D01*
X133530Y1268324D01*
X122524Y1268324D01*
G37*
G36*
X164324Y1259260D02*
X164324Y1265276D01*
X175330Y1265276D01*
X174192Y1262529D01*
X172071Y1260408D01*
X169300Y1259260D01*
X164324Y1259260D01*
G37*
G36*
X156300Y1259260D02*
X153529Y1260408D01*
X151408Y1262529D01*
X150270Y1265276D01*
X161276Y1265276D01*
X161276Y1259260D01*
X156300Y1259260D01*
G37*
G36*
X122524Y1259260D02*
X122524Y1265276D01*
X133530Y1265276D01*
X132392Y1262529D01*
X130271Y1260408D01*
X127500Y1259260D01*
X122524Y1259260D01*
G37*
G36*
X114500Y1259260D02*
X111729Y1260408D01*
X109608Y1262529D01*
X108470Y1265276D01*
X119476Y1265276D01*
X119476Y1259260D01*
X114500Y1259260D01*
G37*
G36*
X172705Y1173460D02*
X168463Y1175217D01*
X165217Y1178463D01*
X163460Y1182705D01*
X163460Y1187295D01*
X165217Y1191537D01*
X168463Y1194783D01*
X172705Y1196540D01*
X177295Y1196540D01*
X181537Y1194783D01*
X184783Y1191537D01*
X186540Y1187295D01*
X186540Y1182705D01*
X184783Y1178463D01*
X181537Y1175217D01*
X177295Y1173460D01*
X172705Y1173460D01*
G37*
G36*
X127903Y1174460D02*
X124030Y1176065D01*
X121065Y1179030D01*
X119460Y1182903D01*
X119460Y1187097D01*
X121065Y1190970D01*
X124030Y1193935D01*
X127903Y1195540D01*
X132097Y1195540D01*
X135970Y1193935D01*
X138935Y1190970D01*
X140540Y1187097D01*
X140540Y1182903D01*
X138935Y1179030D01*
X135970Y1176065D01*
X132097Y1174460D01*
X127903Y1174460D01*
G37*
G36*
X135650Y1026960D02*
X127247Y1029212D01*
X119713Y1033561D01*
X113561Y1039713D01*
X109212Y1047247D01*
X106960Y1055650D01*
X106960Y1064350D01*
X109212Y1072753D01*
X113561Y1080287D01*
X119713Y1086439D01*
X127247Y1090788D01*
X135650Y1093040D01*
X144350Y1093040D01*
X152753Y1090788D01*
X160287Y1086439D01*
X166439Y1080287D01*
X170788Y1072753D01*
X173040Y1064350D01*
X173040Y1055650D01*
X170788Y1047247D01*
X166439Y1039713D01*
X160287Y1033561D01*
X152753Y1029212D01*
X144350Y1026960D01*
X135650Y1026960D01*
G37*
%LPD*%
G36*
X920318Y2565D02*
X928176Y3810D01*
X928780Y4006D01*
X935869Y7618D01*
X936383Y7991D01*
X942009Y13617D01*
X942382Y14131D01*
X945994Y21220D01*
X946190Y21824D01*
X947435Y29682D01*
X947460Y30000D01*
X947460Y67494D01*
X947779Y68263D01*
X947933Y69057D01*
X947766Y69848D01*
X947338Y70478D01*
X945693Y72122D01*
X944920Y73990D01*
X944920Y76010D01*
X945733Y77972D01*
X945887Y78766D01*
X945733Y79528D01*
X944920Y81490D01*
X944920Y83510D01*
X945733Y85472D01*
X945887Y86266D01*
X945733Y87028D01*
X944920Y88990D01*
X944920Y91010D01*
X945733Y92972D01*
X945887Y93766D01*
X945733Y94528D01*
X944920Y96490D01*
X944920Y98510D01*
X945733Y100472D01*
X945887Y101266D01*
X945733Y102028D01*
X945653Y102219D01*
X945201Y102890D01*
X944524Y103331D01*
X943727Y103473D01*
X942939Y103293D01*
X942283Y102820D01*
X941899Y102219D01*
X941201Y100535D01*
X916331Y75665D01*
X915884Y74991D01*
X915736Y74196D01*
X915909Y73406D01*
X916377Y72746D01*
X917242Y72265D01*
X922753Y70788D01*
X930287Y66439D01*
X936439Y60287D01*
X940788Y52753D01*
X943040Y44350D01*
X943040Y35650D01*
X940788Y27247D01*
X936439Y19713D01*
X930287Y13561D01*
X922753Y9212D01*
X914350Y6960D01*
X905650Y6960D01*
X897247Y9212D01*
X889713Y13561D01*
X883561Y19713D01*
X879212Y27247D01*
X876960Y35650D01*
X876960Y44350D01*
X879185Y52653D01*
X879234Y53460D01*
X878965Y54222D01*
X878420Y54820D01*
X877948Y55036D01*
X877956Y55056D01*
X875726Y55980D01*
X874305Y57401D01*
X873536Y59258D01*
X873536Y61267D01*
X874305Y63124D01*
X875726Y64545D01*
X876511Y64871D01*
X877170Y65311D01*
X891873Y80013D01*
X893553Y80710D01*
X907602Y80710D01*
X908395Y80870D01*
X909039Y81305D01*
X932158Y104424D01*
X932604Y105098D01*
X932753Y105860D01*
X932753Y175472D01*
X933449Y177152D01*
X938626Y182330D01*
X939067Y182989D01*
X939392Y183774D01*
X940813Y185195D01*
X942670Y185965D01*
X944713Y185965D01*
X945444Y185822D01*
X946236Y185989D01*
X946899Y186452D01*
X947329Y187137D01*
X947460Y187854D01*
X947460Y907494D01*
X947779Y908263D01*
X947933Y909057D01*
X947766Y909848D01*
X947338Y910478D01*
X945693Y912122D01*
X944920Y913990D01*
X944920Y916010D01*
X945733Y917972D01*
X945887Y918766D01*
X945733Y919528D01*
X944920Y921490D01*
X944920Y923510D01*
X945733Y925472D01*
X945887Y926266D01*
X945733Y927028D01*
X944920Y928990D01*
X944920Y931010D01*
X945733Y932972D01*
X945887Y933766D01*
X945733Y934528D01*
X944920Y936490D01*
X944920Y938510D01*
X945733Y940472D01*
X945887Y941266D01*
X945733Y942028D01*
X944920Y943990D01*
X944920Y946010D01*
X945693Y947878D01*
X947338Y949522D01*
X947785Y950196D01*
X947933Y950991D01*
X947779Y951737D01*
X947460Y952506D01*
X947460Y970000D01*
X947435Y970318D01*
X946190Y978176D01*
X945994Y978780D01*
X942382Y985869D01*
X942009Y986383D01*
X936383Y992009D01*
X935869Y992382D01*
X928780Y995994D01*
X928176Y996190D01*
X920318Y997435D01*
X920000Y997460D01*
X580000Y997460D01*
X579682Y997435D01*
X571824Y996190D01*
X571220Y995994D01*
X564131Y992382D01*
X563617Y992009D01*
X557991Y986383D01*
X557618Y985869D01*
X554006Y978780D01*
X553810Y978176D01*
X552565Y970318D01*
X552540Y970000D01*
X552540Y952506D01*
X552222Y951737D01*
X552067Y950943D01*
X552234Y950152D01*
X552662Y949522D01*
X554307Y947878D01*
X555080Y946010D01*
X555080Y943990D01*
X554267Y942028D01*
X554113Y941234D01*
X554267Y940472D01*
X555080Y938510D01*
X555080Y936490D01*
X554267Y934528D01*
X554113Y933734D01*
X554267Y932972D01*
X555080Y931010D01*
X555080Y928990D01*
X554267Y927028D01*
X554113Y926234D01*
X554267Y925472D01*
X555080Y923510D01*
X555080Y921490D01*
X554267Y919528D01*
X554113Y918734D01*
X554267Y917972D01*
X555080Y916010D01*
X555080Y913990D01*
X554307Y912122D01*
X552662Y910478D01*
X552215Y909804D01*
X552067Y909009D01*
X552222Y908263D01*
X552540Y907494D01*
X552540Y112506D01*
X552222Y111737D01*
X552067Y110943D01*
X552234Y110152D01*
X552662Y109522D01*
X554307Y107878D01*
X555080Y106010D01*
X555080Y103990D01*
X554267Y102028D01*
X554113Y101234D01*
X554267Y100472D01*
X555080Y98510D01*
X555080Y96490D01*
X554267Y94528D01*
X554113Y93734D01*
X554267Y92972D01*
X555080Y91010D01*
X555080Y88990D01*
X554267Y87028D01*
X554113Y86234D01*
X554267Y85472D01*
X555080Y83510D01*
X555080Y81490D01*
X554267Y79528D01*
X554113Y78734D01*
X554267Y77972D01*
X555080Y76010D01*
X555080Y73990D01*
X554307Y72122D01*
X552662Y70478D01*
X552215Y69804D01*
X552067Y69009D01*
X552222Y68263D01*
X552540Y67494D01*
X552540Y30000D01*
X552565Y29682D01*
X553810Y21824D01*
X554006Y21220D01*
X557618Y14131D01*
X557991Y13617D01*
X563617Y7991D01*
X564131Y7618D01*
X571220Y4006D01*
X571824Y3810D01*
X579682Y2565D01*
X580000Y2540D01*
X920000Y2540D01*
X920318Y2565D01*
G37*
%LPC*%
G36*
X905650Y926960D02*
X897247Y929212D01*
X889713Y933561D01*
X883561Y939713D01*
X879212Y947247D01*
X876960Y955650D01*
X876960Y964350D01*
X879212Y972753D01*
X883561Y980287D01*
X889713Y986439D01*
X897247Y990788D01*
X905650Y993040D01*
X914350Y993040D01*
X922753Y990788D01*
X930287Y986439D01*
X936439Y980287D01*
X940788Y972753D01*
X943040Y964350D01*
X943040Y955650D01*
X940788Y947247D01*
X936439Y939713D01*
X930287Y933561D01*
X922753Y929212D01*
X914350Y926960D01*
X905650Y926960D01*
G37*
G36*
X585650Y926960D02*
X577247Y929212D01*
X569713Y933561D01*
X563561Y939713D01*
X559212Y947247D01*
X556960Y955650D01*
X556960Y964350D01*
X559212Y972753D01*
X563561Y980287D01*
X569713Y986439D01*
X577247Y990788D01*
X585650Y993040D01*
X594350Y993040D01*
X602753Y990788D01*
X610287Y986439D01*
X616439Y980287D01*
X620788Y972753D01*
X623040Y964350D01*
X623040Y955650D01*
X620788Y947247D01*
X616439Y939713D01*
X610287Y933561D01*
X602753Y929212D01*
X594350Y926960D01*
X585650Y926960D01*
G37*
G36*
X917903Y864460D02*
X914030Y866065D01*
X911065Y869030D01*
X909460Y872903D01*
X909460Y877097D01*
X911065Y880970D01*
X914030Y883935D01*
X917903Y885540D01*
X922097Y885540D01*
X925970Y883935D01*
X928935Y880970D01*
X930540Y877097D01*
X930540Y872903D01*
X928935Y869030D01*
X925970Y866065D01*
X922097Y864460D01*
X917903Y864460D01*
G37*
G36*
X857903Y864460D02*
X854030Y866065D01*
X851065Y869030D01*
X849460Y872903D01*
X849460Y877097D01*
X851065Y880970D01*
X854030Y883935D01*
X857903Y885540D01*
X862097Y885540D01*
X865970Y883935D01*
X868935Y880970D01*
X870540Y877097D01*
X870540Y872903D01*
X868935Y869030D01*
X865970Y866065D01*
X862097Y864460D01*
X857903Y864460D01*
G37*
G36*
X637903Y864460D02*
X634030Y866065D01*
X631065Y869030D01*
X629460Y872903D01*
X629460Y877097D01*
X631065Y880970D01*
X634030Y883935D01*
X637903Y885540D01*
X642097Y885540D01*
X645970Y883935D01*
X648935Y880970D01*
X650540Y877097D01*
X650540Y872903D01*
X648935Y869030D01*
X645970Y866065D01*
X642097Y864460D01*
X637903Y864460D01*
G37*
G36*
X577903Y864460D02*
X574030Y866065D01*
X571065Y869030D01*
X569460Y872903D01*
X569460Y877097D01*
X571065Y880970D01*
X574030Y883935D01*
X577903Y885540D01*
X582097Y885540D01*
X585970Y883935D01*
X588935Y880970D01*
X590540Y877097D01*
X590540Y872903D01*
X588935Y869030D01*
X585970Y866065D01*
X582097Y864460D01*
X577903Y864460D01*
G37*
G36*
X923620Y734661D02*
X921763Y735430D01*
X920342Y736851D01*
X919573Y738708D01*
X919573Y740717D01*
X920411Y742740D01*
X920666Y743126D01*
X920815Y743889D01*
X920815Y747428D01*
X920654Y748221D01*
X920197Y748888D01*
X919516Y749323D01*
X918783Y749460D01*
X917903Y749460D01*
X914030Y751065D01*
X911065Y754030D01*
X909460Y757903D01*
X909460Y762097D01*
X911065Y765970D01*
X914030Y768935D01*
X917903Y770540D01*
X922097Y770540D01*
X925970Y768935D01*
X928935Y765970D01*
X929606Y764352D01*
X930058Y763682D01*
X930735Y763240D01*
X931532Y763098D01*
X932320Y763278D01*
X932976Y763751D01*
X933395Y764443D01*
X933515Y765130D01*
X933515Y772049D01*
X933354Y772841D01*
X933106Y773210D01*
X932273Y775220D01*
X932273Y777230D01*
X933042Y779087D01*
X934463Y780508D01*
X936320Y781277D01*
X938330Y781277D01*
X940187Y780508D01*
X941608Y779087D01*
X942377Y777230D01*
X942377Y775220D01*
X941539Y773197D01*
X941284Y772811D01*
X941135Y772049D01*
X941135Y758772D01*
X929030Y746667D01*
X928584Y745993D01*
X928435Y745230D01*
X928435Y743889D01*
X928596Y743096D01*
X928844Y742728D01*
X929677Y740717D01*
X929677Y738708D01*
X928908Y736851D01*
X927487Y735430D01*
X925630Y734661D01*
X923620Y734661D01*
G37*
G36*
X857903Y749460D02*
X854030Y751065D01*
X851065Y754030D01*
X849460Y757903D01*
X849460Y762097D01*
X851065Y765970D01*
X854030Y768935D01*
X857903Y770540D01*
X862097Y770540D01*
X865970Y768935D01*
X868935Y765970D01*
X870540Y762097D01*
X870540Y757903D01*
X868935Y754030D01*
X865970Y751065D01*
X862097Y749460D01*
X857903Y749460D01*
G37*
G36*
X637903Y749460D02*
X634030Y751065D01*
X631065Y754030D01*
X629460Y757903D01*
X629460Y762097D01*
X631065Y765970D01*
X634030Y768935D01*
X637903Y770540D01*
X642097Y770540D01*
X645970Y768935D01*
X648935Y765970D01*
X650540Y762097D01*
X650540Y757903D01*
X648935Y754030D01*
X645970Y751065D01*
X642097Y749460D01*
X637903Y749460D01*
G37*
G36*
X577903Y749460D02*
X574030Y751065D01*
X571065Y754030D01*
X569460Y757903D01*
X569460Y762097D01*
X571065Y765970D01*
X574030Y768935D01*
X577903Y770540D01*
X582097Y770540D01*
X585970Y768935D01*
X588935Y765970D01*
X590540Y762097D01*
X590540Y757903D01*
X588935Y754030D01*
X585970Y751065D01*
X582097Y749460D01*
X577903Y749460D01*
G37*
G36*
X577903Y634460D02*
X574030Y636065D01*
X571065Y639030D01*
X569460Y642903D01*
X569460Y647097D01*
X571065Y650970D01*
X574030Y653935D01*
X577903Y655540D01*
X582097Y655540D01*
X585970Y653935D01*
X588935Y650970D01*
X590540Y647097D01*
X590540Y642903D01*
X588935Y639030D01*
X585970Y636065D01*
X582097Y634460D01*
X577903Y634460D01*
G37*
G36*
X917903Y634460D02*
X914030Y636065D01*
X911065Y639030D01*
X909460Y642903D01*
X909460Y647097D01*
X911065Y650970D01*
X914030Y653935D01*
X917903Y655540D01*
X922097Y655540D01*
X925970Y653935D01*
X928935Y650970D01*
X930540Y647097D01*
X930540Y642903D01*
X928935Y639030D01*
X925970Y636065D01*
X922097Y634460D01*
X917903Y634460D01*
G37*
G36*
X857903Y634460D02*
X854030Y636065D01*
X851065Y639030D01*
X849460Y642903D01*
X849460Y647097D01*
X851065Y650970D01*
X854030Y653935D01*
X857903Y655540D01*
X862097Y655540D01*
X865970Y653935D01*
X868935Y650970D01*
X870540Y647097D01*
X870540Y642903D01*
X868935Y639030D01*
X865970Y636065D01*
X862097Y634460D01*
X857903Y634460D01*
G37*
G36*
X637903Y634460D02*
X634030Y636065D01*
X631065Y639030D01*
X629460Y642903D01*
X629460Y647097D01*
X631065Y650970D01*
X634030Y653935D01*
X637903Y655540D01*
X642097Y655540D01*
X645970Y653935D01*
X648935Y650970D01*
X650540Y647097D01*
X650540Y642903D01*
X648935Y639030D01*
X645970Y636065D01*
X642097Y634460D01*
X637903Y634460D01*
G37*
G36*
X917903Y519460D02*
X914030Y521065D01*
X911065Y524030D01*
X909460Y527903D01*
X909460Y532097D01*
X911065Y535970D01*
X914030Y538935D01*
X917903Y540540D01*
X922097Y540540D01*
X925970Y538935D01*
X928935Y535970D01*
X930540Y532097D01*
X930540Y527903D01*
X928935Y524030D01*
X925970Y521065D01*
X922097Y519460D01*
X917903Y519460D01*
G37*
G36*
X577903Y519460D02*
X574030Y521065D01*
X571065Y524030D01*
X569460Y527903D01*
X569460Y532097D01*
X571065Y535970D01*
X574030Y538935D01*
X577903Y540540D01*
X582097Y540540D01*
X585970Y538935D01*
X588935Y535970D01*
X590540Y532097D01*
X590540Y527903D01*
X588935Y524030D01*
X585970Y521065D01*
X582097Y519460D01*
X577903Y519460D01*
G37*
G36*
X857903Y519460D02*
X854030Y521065D01*
X851065Y524030D01*
X849460Y527903D01*
X849460Y532097D01*
X851065Y535970D01*
X854030Y538935D01*
X857903Y540540D01*
X862097Y540540D01*
X865970Y538935D01*
X868935Y535970D01*
X870540Y532097D01*
X870540Y527903D01*
X868935Y524030D01*
X865970Y521065D01*
X862097Y519460D01*
X857903Y519460D01*
G37*
G36*
X637903Y519460D02*
X634030Y521065D01*
X631065Y524030D01*
X629460Y527903D01*
X629460Y532097D01*
X631065Y535970D01*
X634030Y538935D01*
X637903Y540540D01*
X642097Y540540D01*
X645970Y538935D01*
X648935Y535970D01*
X650540Y532097D01*
X650540Y527903D01*
X648935Y524030D01*
X645970Y521065D01*
X642097Y519460D01*
X637903Y519460D01*
G37*
G36*
X637903Y404460D02*
X634030Y406065D01*
X631065Y409030D01*
X629460Y412903D01*
X629460Y417097D01*
X631065Y420970D01*
X634030Y423935D01*
X637903Y425540D01*
X642097Y425540D01*
X645970Y423935D01*
X648935Y420970D01*
X650540Y417097D01*
X650540Y412903D01*
X648935Y409030D01*
X645970Y406065D01*
X642097Y404460D01*
X637903Y404460D01*
G37*
G36*
X577903Y404460D02*
X574030Y406065D01*
X571065Y409030D01*
X569460Y412903D01*
X569460Y417097D01*
X571065Y420970D01*
X574030Y423935D01*
X577903Y425540D01*
X582097Y425540D01*
X585970Y423935D01*
X588935Y420970D01*
X590540Y417097D01*
X590540Y412903D01*
X588935Y409030D01*
X585970Y406065D01*
X582097Y404460D01*
X577903Y404460D01*
G37*
G36*
X917903Y404460D02*
X914030Y406065D01*
X911065Y409030D01*
X909460Y412903D01*
X909460Y417097D01*
X911065Y420970D01*
X914030Y423935D01*
X917903Y425540D01*
X922097Y425540D01*
X925970Y423935D01*
X928935Y420970D01*
X930540Y417097D01*
X930540Y412903D01*
X928935Y409030D01*
X925970Y406065D01*
X922097Y404460D01*
X917903Y404460D01*
G37*
G36*
X857903Y404460D02*
X854030Y406065D01*
X851065Y409030D01*
X849460Y412903D01*
X849460Y417097D01*
X851065Y420970D01*
X854030Y423935D01*
X857903Y425540D01*
X862097Y425540D01*
X865970Y423935D01*
X868935Y420970D01*
X870540Y417097D01*
X870540Y412903D01*
X868935Y409030D01*
X865970Y406065D01*
X862097Y404460D01*
X857903Y404460D01*
G37*
G36*
X600270Y334724D02*
X601408Y337471D01*
X603529Y339592D01*
X606300Y340740D01*
X611276Y340740D01*
X611276Y334724D01*
X600270Y334724D01*
G37*
G36*
X558470Y334724D02*
X559608Y337471D01*
X561729Y339592D01*
X564500Y340740D01*
X569476Y340740D01*
X569476Y334724D01*
X558470Y334724D01*
G37*
G36*
X572524Y334724D02*
X572524Y340740D01*
X577500Y340740D01*
X580271Y339592D01*
X582392Y337471D01*
X583530Y334724D01*
X572524Y334724D01*
G37*
G36*
X614324Y334724D02*
X614324Y340740D01*
X619300Y340740D01*
X622071Y339592D01*
X624192Y337471D01*
X625330Y334724D01*
X614324Y334724D01*
G37*
G36*
X614324Y325660D02*
X614324Y331676D01*
X625330Y331676D01*
X624192Y328929D01*
X622071Y326808D01*
X619300Y325660D01*
X614324Y325660D01*
G37*
G36*
X606648Y313110D02*
X604520Y313991D01*
X602891Y315620D01*
X602010Y317748D01*
X602010Y320052D01*
X602891Y322180D01*
X604200Y323489D01*
X604647Y324163D01*
X604795Y324958D01*
X604622Y325748D01*
X604154Y326407D01*
X603541Y326803D01*
X603529Y326808D01*
X601408Y328929D01*
X600270Y331676D01*
X611276Y331676D01*
X611276Y324898D01*
X612582Y324898D01*
X612239Y324361D01*
X612103Y323563D01*
X612289Y322776D01*
X612697Y322191D01*
X612709Y322180D01*
X613590Y320052D01*
X613590Y317748D01*
X612709Y315620D01*
X611080Y313991D01*
X608952Y313110D01*
X606648Y313110D01*
G37*
G36*
X572524Y325660D02*
X572524Y331676D01*
X583530Y331676D01*
X582392Y328929D01*
X580271Y326808D01*
X577500Y325660D01*
X572524Y325660D01*
G37*
G36*
X564500Y325660D02*
X561729Y326808D01*
X559608Y328929D01*
X558470Y331676D01*
X569476Y331676D01*
X569476Y325660D01*
X564500Y325660D01*
G37*
G36*
X600270Y248324D02*
X601408Y251071D01*
X603529Y253192D01*
X603541Y253197D01*
X604212Y253649D01*
X604653Y254327D01*
X604795Y255123D01*
X604615Y255912D01*
X604200Y256511D01*
X602891Y257820D01*
X602010Y259948D01*
X602010Y262252D01*
X602891Y264380D01*
X604520Y266009D01*
X606648Y266890D01*
X608952Y266890D01*
X611080Y266009D01*
X612709Y264380D01*
X613590Y262252D01*
X613590Y259948D01*
X612709Y257820D01*
X612697Y257809D01*
X612251Y257135D01*
X612102Y256340D01*
X612276Y255550D01*
X612593Y255102D01*
X611276Y255102D01*
X611276Y248324D01*
X600270Y248324D01*
G37*
G36*
X614324Y248324D02*
X614324Y254340D01*
X619300Y254340D01*
X622071Y253192D01*
X624192Y251071D01*
X625330Y248324D01*
X614324Y248324D01*
G37*
G36*
X558470Y248324D02*
X559608Y251071D01*
X561729Y253192D01*
X564500Y254340D01*
X569476Y254340D01*
X569476Y248324D01*
X558470Y248324D01*
G37*
G36*
X572524Y248324D02*
X572524Y254340D01*
X577500Y254340D01*
X580271Y253192D01*
X582392Y251071D01*
X583530Y248324D01*
X572524Y248324D01*
G37*
G36*
X614324Y239260D02*
X614324Y245276D01*
X625330Y245276D01*
X624192Y242529D01*
X622071Y240408D01*
X619300Y239260D01*
X614324Y239260D01*
G37*
G36*
X606300Y239260D02*
X603529Y240408D01*
X601408Y242529D01*
X600270Y245276D01*
X611276Y245276D01*
X611276Y239260D01*
X606300Y239260D01*
G37*
G36*
X572524Y239260D02*
X572524Y245276D01*
X583530Y245276D01*
X582392Y242529D01*
X580271Y240408D01*
X577500Y239260D01*
X572524Y239260D01*
G37*
G36*
X564500Y239260D02*
X561729Y240408D01*
X559608Y242529D01*
X558470Y245276D01*
X569476Y245276D01*
X569476Y239260D01*
X564500Y239260D01*
G37*
G36*
X622705Y153460D02*
X618463Y155217D01*
X615217Y158463D01*
X613460Y162705D01*
X613460Y167295D01*
X615217Y171537D01*
X618463Y174783D01*
X622705Y176540D01*
X627295Y176540D01*
X631537Y174783D01*
X634783Y171537D01*
X636540Y167295D01*
X636540Y162705D01*
X634783Y158463D01*
X631537Y155217D01*
X627295Y153460D01*
X622705Y153460D01*
G37*
G36*
X577903Y154460D02*
X574030Y156065D01*
X571065Y159030D01*
X569460Y162903D01*
X569460Y167097D01*
X571065Y170970D01*
X574030Y173935D01*
X577903Y175540D01*
X582097Y175540D01*
X585970Y173935D01*
X588935Y170970D01*
X590540Y167097D01*
X590540Y162903D01*
X588935Y159030D01*
X585970Y156065D01*
X582097Y154460D01*
X577903Y154460D01*
G37*
G36*
X585650Y6960D02*
X577247Y9212D01*
X569713Y13561D01*
X563561Y19713D01*
X559212Y27247D01*
X556960Y35650D01*
X556960Y44350D01*
X559212Y52753D01*
X563561Y60287D01*
X569713Y66439D01*
X577247Y70788D01*
X585650Y73040D01*
X594350Y73040D01*
X602753Y70788D01*
X610287Y66439D01*
X616439Y60287D01*
X620788Y52753D01*
X623040Y44350D01*
X623040Y35650D01*
X620788Y27247D01*
X616439Y19713D01*
X610287Y13561D01*
X602753Y9212D01*
X594350Y6960D01*
X585650Y6960D01*
G37*
%LPD*%
G36*
X920318Y1022565D02*
X928176Y1023810D01*
X928780Y1024006D01*
X935869Y1027618D01*
X936383Y1027991D01*
X942009Y1033617D01*
X942382Y1034131D01*
X945994Y1041220D01*
X946190Y1041824D01*
X947435Y1049682D01*
X947460Y1050000D01*
X947460Y1087494D01*
X947779Y1088263D01*
X947933Y1089057D01*
X947766Y1089848D01*
X947338Y1090478D01*
X945693Y1092122D01*
X944920Y1093990D01*
X944920Y1096010D01*
X945733Y1097972D01*
X945887Y1098766D01*
X945733Y1099528D01*
X944920Y1101490D01*
X944920Y1103510D01*
X945733Y1105472D01*
X945887Y1106266D01*
X945733Y1107028D01*
X944920Y1108990D01*
X944920Y1111010D01*
X945733Y1112972D01*
X945887Y1113766D01*
X945733Y1114528D01*
X944920Y1116490D01*
X944920Y1118510D01*
X945733Y1120472D01*
X945887Y1121266D01*
X945733Y1122028D01*
X945653Y1122219D01*
X945201Y1122890D01*
X944524Y1123331D01*
X943727Y1123473D01*
X942939Y1123293D01*
X942283Y1122820D01*
X941899Y1122219D01*
X941201Y1120535D01*
X916331Y1095665D01*
X915884Y1094991D01*
X915736Y1094196D01*
X915909Y1093406D01*
X916377Y1092746D01*
X917242Y1092265D01*
X922753Y1090788D01*
X930287Y1086439D01*
X936439Y1080287D01*
X940788Y1072753D01*
X943040Y1064350D01*
X943040Y1055650D01*
X940788Y1047247D01*
X936439Y1039713D01*
X930287Y1033561D01*
X922753Y1029212D01*
X914350Y1026960D01*
X905650Y1026960D01*
X897247Y1029212D01*
X889713Y1033561D01*
X883561Y1039713D01*
X879212Y1047247D01*
X876960Y1055650D01*
X876960Y1064350D01*
X879185Y1072653D01*
X879234Y1073460D01*
X878965Y1074222D01*
X878420Y1074820D01*
X877948Y1075036D01*
X877956Y1075056D01*
X875726Y1075980D01*
X874305Y1077401D01*
X873536Y1079258D01*
X873536Y1081267D01*
X874305Y1083124D01*
X875726Y1084545D01*
X876511Y1084871D01*
X877170Y1085311D01*
X891873Y1100013D01*
X893553Y1100710D01*
X907602Y1100710D01*
X908395Y1100870D01*
X909039Y1101305D01*
X932158Y1124424D01*
X932604Y1125098D01*
X932753Y1125860D01*
X932753Y1195472D01*
X933449Y1197152D01*
X938626Y1202330D01*
X939067Y1202989D01*
X939392Y1203774D01*
X940813Y1205195D01*
X942670Y1205965D01*
X944713Y1205965D01*
X945444Y1205822D01*
X946236Y1205989D01*
X946899Y1206452D01*
X947329Y1207137D01*
X947460Y1207854D01*
X947460Y1927494D01*
X947779Y1928263D01*
X947933Y1929057D01*
X947766Y1929848D01*
X947338Y1930478D01*
X945693Y1932122D01*
X944920Y1933990D01*
X944920Y1936010D01*
X945733Y1937972D01*
X945887Y1938766D01*
X945733Y1939528D01*
X944920Y1941490D01*
X944920Y1943510D01*
X945733Y1945472D01*
X945887Y1946266D01*
X945733Y1947028D01*
X944920Y1948990D01*
X944920Y1951010D01*
X945733Y1952972D01*
X945887Y1953766D01*
X945733Y1954528D01*
X944920Y1956490D01*
X944920Y1958510D01*
X945733Y1960472D01*
X945887Y1961266D01*
X945733Y1962028D01*
X944920Y1963990D01*
X944920Y1966010D01*
X945693Y1967878D01*
X947338Y1969522D01*
X947785Y1970196D01*
X947933Y1970991D01*
X947779Y1971737D01*
X947460Y1972506D01*
X947460Y1990000D01*
X947435Y1990318D01*
X946190Y1998176D01*
X945994Y1998780D01*
X942382Y2005869D01*
X942009Y2006383D01*
X936383Y2012009D01*
X935869Y2012382D01*
X928780Y2015994D01*
X928176Y2016190D01*
X920318Y2017435D01*
X920000Y2017460D01*
X580000Y2017460D01*
X579682Y2017435D01*
X571824Y2016190D01*
X571220Y2015994D01*
X564131Y2012382D01*
X563617Y2012009D01*
X557991Y2006383D01*
X557618Y2005869D01*
X554006Y1998780D01*
X553810Y1998176D01*
X552565Y1990318D01*
X552540Y1990000D01*
X552540Y1972506D01*
X552222Y1971737D01*
X552067Y1970943D01*
X552234Y1970152D01*
X552662Y1969522D01*
X554307Y1967878D01*
X555080Y1966010D01*
X555080Y1963990D01*
X554267Y1962028D01*
X554113Y1961234D01*
X554267Y1960472D01*
X555080Y1958510D01*
X555080Y1956490D01*
X554267Y1954528D01*
X554113Y1953734D01*
X554267Y1952972D01*
X555080Y1951010D01*
X555080Y1948990D01*
X554267Y1947028D01*
X554113Y1946234D01*
X554267Y1945472D01*
X555080Y1943510D01*
X555080Y1941490D01*
X554267Y1939528D01*
X554113Y1938734D01*
X554267Y1937972D01*
X555080Y1936010D01*
X555080Y1933990D01*
X554307Y1932122D01*
X552662Y1930478D01*
X552215Y1929804D01*
X552067Y1929009D01*
X552222Y1928263D01*
X552540Y1927494D01*
X552540Y1132506D01*
X552222Y1131737D01*
X552067Y1130943D01*
X552234Y1130152D01*
X552662Y1129522D01*
X554307Y1127878D01*
X555080Y1126010D01*
X555080Y1123990D01*
X554267Y1122028D01*
X554113Y1121234D01*
X554267Y1120472D01*
X555080Y1118510D01*
X555080Y1116490D01*
X554267Y1114528D01*
X554113Y1113734D01*
X554267Y1112972D01*
X555080Y1111010D01*
X555080Y1108990D01*
X554267Y1107028D01*
X554113Y1106234D01*
X554267Y1105472D01*
X555080Y1103510D01*
X555080Y1101490D01*
X554267Y1099528D01*
X554113Y1098734D01*
X554267Y1097972D01*
X555080Y1096010D01*
X555080Y1093990D01*
X554307Y1092122D01*
X552662Y1090478D01*
X552215Y1089804D01*
X552067Y1089009D01*
X552222Y1088263D01*
X552540Y1087494D01*
X552540Y1050000D01*
X552565Y1049682D01*
X553810Y1041824D01*
X554006Y1041220D01*
X557618Y1034131D01*
X557991Y1033617D01*
X563617Y1027991D01*
X564131Y1027618D01*
X571220Y1024006D01*
X571824Y1023810D01*
X579682Y1022565D01*
X580000Y1022540D01*
X920000Y1022540D01*
X920318Y1022565D01*
G37*
%LPC*%
G36*
X905650Y1946960D02*
X897247Y1949212D01*
X889713Y1953561D01*
X883561Y1959713D01*
X879212Y1967247D01*
X876960Y1975650D01*
X876960Y1984350D01*
X879212Y1992753D01*
X883561Y2000287D01*
X889713Y2006439D01*
X897247Y2010788D01*
X905650Y2013040D01*
X914350Y2013040D01*
X922753Y2010788D01*
X930287Y2006439D01*
X936439Y2000287D01*
X940788Y1992753D01*
X943040Y1984350D01*
X943040Y1975650D01*
X940788Y1967247D01*
X936439Y1959713D01*
X930287Y1953561D01*
X922753Y1949212D01*
X914350Y1946960D01*
X905650Y1946960D01*
G37*
G36*
X585650Y1946960D02*
X577247Y1949212D01*
X569713Y1953561D01*
X563561Y1959713D01*
X559212Y1967247D01*
X556960Y1975650D01*
X556960Y1984350D01*
X559212Y1992753D01*
X563561Y2000287D01*
X569713Y2006439D01*
X577247Y2010788D01*
X585650Y2013040D01*
X594350Y2013040D01*
X602753Y2010788D01*
X610287Y2006439D01*
X616439Y2000287D01*
X620788Y1992753D01*
X623040Y1984350D01*
X623040Y1975650D01*
X620788Y1967247D01*
X616439Y1959713D01*
X610287Y1953561D01*
X602753Y1949212D01*
X594350Y1946960D01*
X585650Y1946960D01*
G37*
G36*
X917903Y1884460D02*
X914030Y1886065D01*
X911065Y1889030D01*
X909460Y1892903D01*
X909460Y1897097D01*
X911065Y1900970D01*
X914030Y1903935D01*
X917903Y1905540D01*
X922097Y1905540D01*
X925970Y1903935D01*
X928935Y1900970D01*
X930540Y1897097D01*
X930540Y1892903D01*
X928935Y1889030D01*
X925970Y1886065D01*
X922097Y1884460D01*
X917903Y1884460D01*
G37*
G36*
X857903Y1884460D02*
X854030Y1886065D01*
X851065Y1889030D01*
X849460Y1892903D01*
X849460Y1897097D01*
X851065Y1900970D01*
X854030Y1903935D01*
X857903Y1905540D01*
X862097Y1905540D01*
X865970Y1903935D01*
X868935Y1900970D01*
X870540Y1897097D01*
X870540Y1892903D01*
X868935Y1889030D01*
X865970Y1886065D01*
X862097Y1884460D01*
X857903Y1884460D01*
G37*
G36*
X637903Y1884460D02*
X634030Y1886065D01*
X631065Y1889030D01*
X629460Y1892903D01*
X629460Y1897097D01*
X631065Y1900970D01*
X634030Y1903935D01*
X637903Y1905540D01*
X642097Y1905540D01*
X645970Y1903935D01*
X648935Y1900970D01*
X650540Y1897097D01*
X650540Y1892903D01*
X648935Y1889030D01*
X645970Y1886065D01*
X642097Y1884460D01*
X637903Y1884460D01*
G37*
G36*
X577903Y1884460D02*
X574030Y1886065D01*
X571065Y1889030D01*
X569460Y1892903D01*
X569460Y1897097D01*
X571065Y1900970D01*
X574030Y1903935D01*
X577903Y1905540D01*
X582097Y1905540D01*
X585970Y1903935D01*
X588935Y1900970D01*
X590540Y1897097D01*
X590540Y1892903D01*
X588935Y1889030D01*
X585970Y1886065D01*
X582097Y1884460D01*
X577903Y1884460D01*
G37*
G36*
X923620Y1754661D02*
X921763Y1755430D01*
X920342Y1756851D01*
X919573Y1758708D01*
X919573Y1760717D01*
X920411Y1762740D01*
X920666Y1763126D01*
X920815Y1763889D01*
X920815Y1767428D01*
X920654Y1768221D01*
X920197Y1768888D01*
X919516Y1769323D01*
X918783Y1769460D01*
X917903Y1769460D01*
X914030Y1771065D01*
X911065Y1774030D01*
X909460Y1777903D01*
X909460Y1782097D01*
X911065Y1785970D01*
X914030Y1788935D01*
X917903Y1790540D01*
X922097Y1790540D01*
X925970Y1788935D01*
X928935Y1785970D01*
X929606Y1784352D01*
X930058Y1783682D01*
X930735Y1783240D01*
X931532Y1783098D01*
X932320Y1783278D01*
X932976Y1783751D01*
X933395Y1784443D01*
X933515Y1785130D01*
X933515Y1792049D01*
X933354Y1792841D01*
X933106Y1793210D01*
X932273Y1795220D01*
X932273Y1797230D01*
X933042Y1799087D01*
X934463Y1800508D01*
X936320Y1801277D01*
X938330Y1801277D01*
X940187Y1800508D01*
X941608Y1799087D01*
X942377Y1797230D01*
X942377Y1795220D01*
X941539Y1793197D01*
X941284Y1792811D01*
X941135Y1792049D01*
X941135Y1778772D01*
X929030Y1766667D01*
X928584Y1765993D01*
X928435Y1765230D01*
X928435Y1763889D01*
X928596Y1763096D01*
X928844Y1762728D01*
X929677Y1760717D01*
X929677Y1758708D01*
X928908Y1756851D01*
X927487Y1755430D01*
X925630Y1754661D01*
X923620Y1754661D01*
G37*
G36*
X857903Y1769460D02*
X854030Y1771065D01*
X851065Y1774030D01*
X849460Y1777903D01*
X849460Y1782097D01*
X851065Y1785970D01*
X854030Y1788935D01*
X857903Y1790540D01*
X862097Y1790540D01*
X865970Y1788935D01*
X868935Y1785970D01*
X870540Y1782097D01*
X870540Y1777903D01*
X868935Y1774030D01*
X865970Y1771065D01*
X862097Y1769460D01*
X857903Y1769460D01*
G37*
G36*
X637903Y1769460D02*
X634030Y1771065D01*
X631065Y1774030D01*
X629460Y1777903D01*
X629460Y1782097D01*
X631065Y1785970D01*
X634030Y1788935D01*
X637903Y1790540D01*
X642097Y1790540D01*
X645970Y1788935D01*
X648935Y1785970D01*
X650540Y1782097D01*
X650540Y1777903D01*
X648935Y1774030D01*
X645970Y1771065D01*
X642097Y1769460D01*
X637903Y1769460D01*
G37*
G36*
X577903Y1769460D02*
X574030Y1771065D01*
X571065Y1774030D01*
X569460Y1777903D01*
X569460Y1782097D01*
X571065Y1785970D01*
X574030Y1788935D01*
X577903Y1790540D01*
X582097Y1790540D01*
X585970Y1788935D01*
X588935Y1785970D01*
X590540Y1782097D01*
X590540Y1777903D01*
X588935Y1774030D01*
X585970Y1771065D01*
X582097Y1769460D01*
X577903Y1769460D01*
G37*
G36*
X577903Y1654460D02*
X574030Y1656065D01*
X571065Y1659030D01*
X569460Y1662903D01*
X569460Y1667097D01*
X571065Y1670970D01*
X574030Y1673935D01*
X577903Y1675540D01*
X582097Y1675540D01*
X585970Y1673935D01*
X588935Y1670970D01*
X590540Y1667097D01*
X590540Y1662903D01*
X588935Y1659030D01*
X585970Y1656065D01*
X582097Y1654460D01*
X577903Y1654460D01*
G37*
G36*
X917903Y1654460D02*
X914030Y1656065D01*
X911065Y1659030D01*
X909460Y1662903D01*
X909460Y1667097D01*
X911065Y1670970D01*
X914030Y1673935D01*
X917903Y1675540D01*
X922097Y1675540D01*
X925970Y1673935D01*
X928935Y1670970D01*
X930540Y1667097D01*
X930540Y1662903D01*
X928935Y1659030D01*
X925970Y1656065D01*
X922097Y1654460D01*
X917903Y1654460D01*
G37*
G36*
X857903Y1654460D02*
X854030Y1656065D01*
X851065Y1659030D01*
X849460Y1662903D01*
X849460Y1667097D01*
X851065Y1670970D01*
X854030Y1673935D01*
X857903Y1675540D01*
X862097Y1675540D01*
X865970Y1673935D01*
X868935Y1670970D01*
X870540Y1667097D01*
X870540Y1662903D01*
X868935Y1659030D01*
X865970Y1656065D01*
X862097Y1654460D01*
X857903Y1654460D01*
G37*
G36*
X637903Y1654460D02*
X634030Y1656065D01*
X631065Y1659030D01*
X629460Y1662903D01*
X629460Y1667097D01*
X631065Y1670970D01*
X634030Y1673935D01*
X637903Y1675540D01*
X642097Y1675540D01*
X645970Y1673935D01*
X648935Y1670970D01*
X650540Y1667097D01*
X650540Y1662903D01*
X648935Y1659030D01*
X645970Y1656065D01*
X642097Y1654460D01*
X637903Y1654460D01*
G37*
G36*
X917903Y1539460D02*
X914030Y1541065D01*
X911065Y1544030D01*
X909460Y1547903D01*
X909460Y1552097D01*
X911065Y1555970D01*
X914030Y1558935D01*
X917903Y1560540D01*
X922097Y1560540D01*
X925970Y1558935D01*
X928935Y1555970D01*
X930540Y1552097D01*
X930540Y1547903D01*
X928935Y1544030D01*
X925970Y1541065D01*
X922097Y1539460D01*
X917903Y1539460D01*
G37*
G36*
X577903Y1539460D02*
X574030Y1541065D01*
X571065Y1544030D01*
X569460Y1547903D01*
X569460Y1552097D01*
X571065Y1555970D01*
X574030Y1558935D01*
X577903Y1560540D01*
X582097Y1560540D01*
X585970Y1558935D01*
X588935Y1555970D01*
X590540Y1552097D01*
X590540Y1547903D01*
X588935Y1544030D01*
X585970Y1541065D01*
X582097Y1539460D01*
X577903Y1539460D01*
G37*
G36*
X857903Y1539460D02*
X854030Y1541065D01*
X851065Y1544030D01*
X849460Y1547903D01*
X849460Y1552097D01*
X851065Y1555970D01*
X854030Y1558935D01*
X857903Y1560540D01*
X862097Y1560540D01*
X865970Y1558935D01*
X868935Y1555970D01*
X870540Y1552097D01*
X870540Y1547903D01*
X868935Y1544030D01*
X865970Y1541065D01*
X862097Y1539460D01*
X857903Y1539460D01*
G37*
G36*
X637903Y1539460D02*
X634030Y1541065D01*
X631065Y1544030D01*
X629460Y1547903D01*
X629460Y1552097D01*
X631065Y1555970D01*
X634030Y1558935D01*
X637903Y1560540D01*
X642097Y1560540D01*
X645970Y1558935D01*
X648935Y1555970D01*
X650540Y1552097D01*
X650540Y1547903D01*
X648935Y1544030D01*
X645970Y1541065D01*
X642097Y1539460D01*
X637903Y1539460D01*
G37*
G36*
X637903Y1424460D02*
X634030Y1426065D01*
X631065Y1429030D01*
X629460Y1432903D01*
X629460Y1437097D01*
X631065Y1440970D01*
X634030Y1443935D01*
X637903Y1445540D01*
X642097Y1445540D01*
X645970Y1443935D01*
X648935Y1440970D01*
X650540Y1437097D01*
X650540Y1432903D01*
X648935Y1429030D01*
X645970Y1426065D01*
X642097Y1424460D01*
X637903Y1424460D01*
G37*
G36*
X577903Y1424460D02*
X574030Y1426065D01*
X571065Y1429030D01*
X569460Y1432903D01*
X569460Y1437097D01*
X571065Y1440970D01*
X574030Y1443935D01*
X577903Y1445540D01*
X582097Y1445540D01*
X585970Y1443935D01*
X588935Y1440970D01*
X590540Y1437097D01*
X590540Y1432903D01*
X588935Y1429030D01*
X585970Y1426065D01*
X582097Y1424460D01*
X577903Y1424460D01*
G37*
G36*
X917903Y1424460D02*
X914030Y1426065D01*
X911065Y1429030D01*
X909460Y1432903D01*
X909460Y1437097D01*
X911065Y1440970D01*
X914030Y1443935D01*
X917903Y1445540D01*
X922097Y1445540D01*
X925970Y1443935D01*
X928935Y1440970D01*
X930540Y1437097D01*
X930540Y1432903D01*
X928935Y1429030D01*
X925970Y1426065D01*
X922097Y1424460D01*
X917903Y1424460D01*
G37*
G36*
X857903Y1424460D02*
X854030Y1426065D01*
X851065Y1429030D01*
X849460Y1432903D01*
X849460Y1437097D01*
X851065Y1440970D01*
X854030Y1443935D01*
X857903Y1445540D01*
X862097Y1445540D01*
X865970Y1443935D01*
X868935Y1440970D01*
X870540Y1437097D01*
X870540Y1432903D01*
X868935Y1429030D01*
X865970Y1426065D01*
X862097Y1424460D01*
X857903Y1424460D01*
G37*
G36*
X600270Y1354724D02*
X601408Y1357471D01*
X603529Y1359592D01*
X606300Y1360740D01*
X611276Y1360740D01*
X611276Y1354724D01*
X600270Y1354724D01*
G37*
G36*
X558470Y1354724D02*
X559608Y1357471D01*
X561729Y1359592D01*
X564500Y1360740D01*
X569476Y1360740D01*
X569476Y1354724D01*
X558470Y1354724D01*
G37*
G36*
X572524Y1354724D02*
X572524Y1360740D01*
X577500Y1360740D01*
X580271Y1359592D01*
X582392Y1357471D01*
X583530Y1354724D01*
X572524Y1354724D01*
G37*
G36*
X614324Y1354724D02*
X614324Y1360740D01*
X619300Y1360740D01*
X622071Y1359592D01*
X624192Y1357471D01*
X625330Y1354724D01*
X614324Y1354724D01*
G37*
G36*
X614324Y1345660D02*
X614324Y1351676D01*
X625330Y1351676D01*
X624192Y1348929D01*
X622071Y1346808D01*
X619300Y1345660D01*
X614324Y1345660D01*
G37*
G36*
X606648Y1333110D02*
X604520Y1333991D01*
X602891Y1335620D01*
X602010Y1337748D01*
X602010Y1340052D01*
X602891Y1342180D01*
X604200Y1343489D01*
X604647Y1344163D01*
X604795Y1344958D01*
X604622Y1345748D01*
X604154Y1346407D01*
X603541Y1346803D01*
X603529Y1346808D01*
X601408Y1348929D01*
X600270Y1351676D01*
X611276Y1351676D01*
X611276Y1344898D01*
X612582Y1344898D01*
X612239Y1344361D01*
X612103Y1343563D01*
X612289Y1342776D01*
X612697Y1342191D01*
X612709Y1342180D01*
X613590Y1340052D01*
X613590Y1337748D01*
X612709Y1335620D01*
X611080Y1333991D01*
X608952Y1333110D01*
X606648Y1333110D01*
G37*
G36*
X572524Y1345660D02*
X572524Y1351676D01*
X583530Y1351676D01*
X582392Y1348929D01*
X580271Y1346808D01*
X577500Y1345660D01*
X572524Y1345660D01*
G37*
G36*
X564500Y1345660D02*
X561729Y1346808D01*
X559608Y1348929D01*
X558470Y1351676D01*
X569476Y1351676D01*
X569476Y1345660D01*
X564500Y1345660D01*
G37*
G36*
X600270Y1268324D02*
X601408Y1271071D01*
X603529Y1273192D01*
X603541Y1273197D01*
X604212Y1273649D01*
X604653Y1274327D01*
X604795Y1275123D01*
X604615Y1275912D01*
X604200Y1276511D01*
X602891Y1277820D01*
X602010Y1279948D01*
X602010Y1282252D01*
X602891Y1284380D01*
X604520Y1286009D01*
X606648Y1286890D01*
X608952Y1286890D01*
X611080Y1286009D01*
X612709Y1284380D01*
X613590Y1282252D01*
X613590Y1279948D01*
X612709Y1277820D01*
X612697Y1277809D01*
X612251Y1277135D01*
X612102Y1276340D01*
X612276Y1275550D01*
X612593Y1275102D01*
X611276Y1275102D01*
X611276Y1268324D01*
X600270Y1268324D01*
G37*
G36*
X614324Y1268324D02*
X614324Y1274340D01*
X619300Y1274340D01*
X622071Y1273192D01*
X624192Y1271071D01*
X625330Y1268324D01*
X614324Y1268324D01*
G37*
G36*
X558470Y1268324D02*
X559608Y1271071D01*
X561729Y1273192D01*
X564500Y1274340D01*
X569476Y1274340D01*
X569476Y1268324D01*
X558470Y1268324D01*
G37*
G36*
X572524Y1268324D02*
X572524Y1274340D01*
X577500Y1274340D01*
X580271Y1273192D01*
X582392Y1271071D01*
X583530Y1268324D01*
X572524Y1268324D01*
G37*
G36*
X614324Y1259260D02*
X614324Y1265276D01*
X625330Y1265276D01*
X624192Y1262529D01*
X622071Y1260408D01*
X619300Y1259260D01*
X614324Y1259260D01*
G37*
G36*
X606300Y1259260D02*
X603529Y1260408D01*
X601408Y1262529D01*
X600270Y1265276D01*
X611276Y1265276D01*
X611276Y1259260D01*
X606300Y1259260D01*
G37*
G36*
X572524Y1259260D02*
X572524Y1265276D01*
X583530Y1265276D01*
X582392Y1262529D01*
X580271Y1260408D01*
X577500Y1259260D01*
X572524Y1259260D01*
G37*
G36*
X564500Y1259260D02*
X561729Y1260408D01*
X559608Y1262529D01*
X558470Y1265276D01*
X569476Y1265276D01*
X569476Y1259260D01*
X564500Y1259260D01*
G37*
G36*
X622705Y1173460D02*
X618463Y1175217D01*
X615217Y1178463D01*
X613460Y1182705D01*
X613460Y1187295D01*
X615217Y1191537D01*
X618463Y1194783D01*
X622705Y1196540D01*
X627295Y1196540D01*
X631537Y1194783D01*
X634783Y1191537D01*
X636540Y1187295D01*
X636540Y1182705D01*
X634783Y1178463D01*
X631537Y1175217D01*
X627295Y1173460D01*
X622705Y1173460D01*
G37*
G36*
X577903Y1174460D02*
X574030Y1176065D01*
X571065Y1179030D01*
X569460Y1182903D01*
X569460Y1187097D01*
X571065Y1190970D01*
X574030Y1193935D01*
X577903Y1195540D01*
X582097Y1195540D01*
X585970Y1193935D01*
X588935Y1190970D01*
X590540Y1187097D01*
X590540Y1182903D01*
X588935Y1179030D01*
X585970Y1176065D01*
X582097Y1174460D01*
X577903Y1174460D01*
G37*
G36*
X585650Y1026960D02*
X577247Y1029212D01*
X569713Y1033561D01*
X563561Y1039713D01*
X559212Y1047247D01*
X556960Y1055650D01*
X556960Y1064350D01*
X559212Y1072753D01*
X563561Y1080287D01*
X569713Y1086439D01*
X577247Y1090788D01*
X585650Y1093040D01*
X594350Y1093040D01*
X602753Y1090788D01*
X610287Y1086439D01*
X616439Y1080287D01*
X620788Y1072753D01*
X623040Y1064350D01*
X623040Y1055650D01*
X620788Y1047247D01*
X616439Y1039713D01*
X610287Y1033561D01*
X602753Y1029212D01*
X594350Y1026960D01*
X585650Y1026960D01*
G37*
%LPD*%
G36*
X1370318Y2565D02*
X1378176Y3810D01*
X1378780Y4006D01*
X1385869Y7618D01*
X1386383Y7991D01*
X1392009Y13617D01*
X1392382Y14131D01*
X1395994Y21220D01*
X1396190Y21824D01*
X1397435Y29682D01*
X1397460Y30000D01*
X1397460Y67494D01*
X1397779Y68263D01*
X1397933Y69057D01*
X1397766Y69848D01*
X1397338Y70478D01*
X1395693Y72122D01*
X1394920Y73990D01*
X1394920Y76010D01*
X1395733Y77972D01*
X1395887Y78766D01*
X1395733Y79528D01*
X1394920Y81490D01*
X1394920Y83510D01*
X1395733Y85472D01*
X1395887Y86266D01*
X1395733Y87028D01*
X1394920Y88990D01*
X1394920Y91010D01*
X1395733Y92972D01*
X1395887Y93766D01*
X1395733Y94528D01*
X1394920Y96490D01*
X1394920Y98510D01*
X1395733Y100472D01*
X1395887Y101266D01*
X1395733Y102028D01*
X1395653Y102219D01*
X1395201Y102890D01*
X1394524Y103331D01*
X1393727Y103473D01*
X1392939Y103293D01*
X1392283Y102820D01*
X1391899Y102219D01*
X1391201Y100535D01*
X1366331Y75665D01*
X1365884Y74991D01*
X1365736Y74196D01*
X1365909Y73406D01*
X1366377Y72746D01*
X1367242Y72265D01*
X1372753Y70788D01*
X1380287Y66439D01*
X1386439Y60287D01*
X1390788Y52753D01*
X1393040Y44350D01*
X1393040Y35650D01*
X1390788Y27247D01*
X1386439Y19713D01*
X1380287Y13561D01*
X1372753Y9212D01*
X1364350Y6960D01*
X1355650Y6960D01*
X1347247Y9212D01*
X1339713Y13561D01*
X1333561Y19713D01*
X1329212Y27247D01*
X1326960Y35650D01*
X1326960Y44350D01*
X1329185Y52653D01*
X1329234Y53460D01*
X1328965Y54222D01*
X1328420Y54820D01*
X1327948Y55036D01*
X1327956Y55056D01*
X1325726Y55980D01*
X1324305Y57401D01*
X1323536Y59258D01*
X1323536Y61267D01*
X1324305Y63124D01*
X1325726Y64545D01*
X1326511Y64871D01*
X1327170Y65311D01*
X1341873Y80013D01*
X1343553Y80710D01*
X1357602Y80710D01*
X1358395Y80870D01*
X1359039Y81305D01*
X1382158Y104424D01*
X1382604Y105098D01*
X1382753Y105860D01*
X1382753Y175472D01*
X1383449Y177152D01*
X1388626Y182330D01*
X1389067Y182989D01*
X1389392Y183774D01*
X1390813Y185195D01*
X1392670Y185965D01*
X1394713Y185965D01*
X1395444Y185822D01*
X1396236Y185989D01*
X1396899Y186452D01*
X1397329Y187137D01*
X1397460Y187854D01*
X1397460Y907494D01*
X1397779Y908263D01*
X1397933Y909057D01*
X1397766Y909848D01*
X1397338Y910478D01*
X1395693Y912122D01*
X1394920Y913990D01*
X1394920Y916010D01*
X1395733Y917972D01*
X1395887Y918766D01*
X1395733Y919528D01*
X1394920Y921490D01*
X1394920Y923510D01*
X1395733Y925472D01*
X1395887Y926266D01*
X1395733Y927028D01*
X1394920Y928990D01*
X1394920Y931010D01*
X1395733Y932972D01*
X1395887Y933766D01*
X1395733Y934528D01*
X1394920Y936490D01*
X1394920Y938510D01*
X1395733Y940472D01*
X1395887Y941266D01*
X1395733Y942028D01*
X1394920Y943990D01*
X1394920Y946010D01*
X1395693Y947878D01*
X1397338Y949522D01*
X1397785Y950196D01*
X1397933Y950991D01*
X1397779Y951737D01*
X1397460Y952506D01*
X1397460Y970000D01*
X1397435Y970318D01*
X1396190Y978176D01*
X1395994Y978780D01*
X1392382Y985869D01*
X1392009Y986383D01*
X1386383Y992009D01*
X1385869Y992382D01*
X1378780Y995994D01*
X1378176Y996190D01*
X1370318Y997435D01*
X1370000Y997460D01*
X1030000Y997460D01*
X1029682Y997435D01*
X1021824Y996190D01*
X1021220Y995994D01*
X1014131Y992382D01*
X1013617Y992009D01*
X1007991Y986383D01*
X1007618Y985869D01*
X1004006Y978780D01*
X1003810Y978176D01*
X1002565Y970318D01*
X1002540Y970000D01*
X1002540Y952506D01*
X1002222Y951737D01*
X1002067Y950943D01*
X1002234Y950152D01*
X1002662Y949522D01*
X1004307Y947878D01*
X1005080Y946010D01*
X1005080Y943990D01*
X1004267Y942028D01*
X1004113Y941234D01*
X1004267Y940472D01*
X1005080Y938510D01*
X1005080Y936490D01*
X1004267Y934528D01*
X1004113Y933734D01*
X1004267Y932972D01*
X1005080Y931010D01*
X1005080Y928990D01*
X1004267Y927028D01*
X1004113Y926234D01*
X1004267Y925472D01*
X1005080Y923510D01*
X1005080Y921490D01*
X1004267Y919528D01*
X1004113Y918734D01*
X1004267Y917972D01*
X1005080Y916010D01*
X1005080Y913990D01*
X1004307Y912122D01*
X1002662Y910478D01*
X1002215Y909804D01*
X1002067Y909009D01*
X1002222Y908263D01*
X1002540Y907494D01*
X1002540Y112506D01*
X1002222Y111737D01*
X1002067Y110943D01*
X1002234Y110152D01*
X1002662Y109522D01*
X1004307Y107878D01*
X1005080Y106010D01*
X1005080Y103990D01*
X1004267Y102028D01*
X1004113Y101234D01*
X1004267Y100472D01*
X1005080Y98510D01*
X1005080Y96490D01*
X1004267Y94528D01*
X1004113Y93734D01*
X1004267Y92972D01*
X1005080Y91010D01*
X1005080Y88990D01*
X1004267Y87028D01*
X1004113Y86234D01*
X1004267Y85472D01*
X1005080Y83510D01*
X1005080Y81490D01*
X1004267Y79528D01*
X1004113Y78734D01*
X1004267Y77972D01*
X1005080Y76010D01*
X1005080Y73990D01*
X1004307Y72122D01*
X1002662Y70478D01*
X1002215Y69804D01*
X1002067Y69009D01*
X1002222Y68263D01*
X1002540Y67494D01*
X1002540Y30000D01*
X1002565Y29682D01*
X1003810Y21824D01*
X1004006Y21220D01*
X1007618Y14131D01*
X1007991Y13617D01*
X1013617Y7991D01*
X1014131Y7618D01*
X1021220Y4006D01*
X1021824Y3810D01*
X1029682Y2565D01*
X1030000Y2540D01*
X1370000Y2540D01*
X1370318Y2565D01*
G37*
%LPC*%
G36*
X1355650Y926960D02*
X1347247Y929212D01*
X1339713Y933561D01*
X1333561Y939713D01*
X1329212Y947247D01*
X1326960Y955650D01*
X1326960Y964350D01*
X1329212Y972753D01*
X1333561Y980287D01*
X1339713Y986439D01*
X1347247Y990788D01*
X1355650Y993040D01*
X1364350Y993040D01*
X1372753Y990788D01*
X1380287Y986439D01*
X1386439Y980287D01*
X1390788Y972753D01*
X1393040Y964350D01*
X1393040Y955650D01*
X1390788Y947247D01*
X1386439Y939713D01*
X1380287Y933561D01*
X1372753Y929212D01*
X1364350Y926960D01*
X1355650Y926960D01*
G37*
G36*
X1035650Y926960D02*
X1027247Y929212D01*
X1019713Y933561D01*
X1013561Y939713D01*
X1009212Y947247D01*
X1006960Y955650D01*
X1006960Y964350D01*
X1009212Y972753D01*
X1013561Y980287D01*
X1019713Y986439D01*
X1027247Y990788D01*
X1035650Y993040D01*
X1044350Y993040D01*
X1052753Y990788D01*
X1060287Y986439D01*
X1066439Y980287D01*
X1070788Y972753D01*
X1073040Y964350D01*
X1073040Y955650D01*
X1070788Y947247D01*
X1066439Y939713D01*
X1060287Y933561D01*
X1052753Y929212D01*
X1044350Y926960D01*
X1035650Y926960D01*
G37*
G36*
X1367903Y864460D02*
X1364030Y866065D01*
X1361065Y869030D01*
X1359460Y872903D01*
X1359460Y877097D01*
X1361065Y880970D01*
X1364030Y883935D01*
X1367903Y885540D01*
X1372097Y885540D01*
X1375970Y883935D01*
X1378935Y880970D01*
X1380540Y877097D01*
X1380540Y872903D01*
X1378935Y869030D01*
X1375970Y866065D01*
X1372097Y864460D01*
X1367903Y864460D01*
G37*
G36*
X1307903Y864460D02*
X1304030Y866065D01*
X1301065Y869030D01*
X1299460Y872903D01*
X1299460Y877097D01*
X1301065Y880970D01*
X1304030Y883935D01*
X1307903Y885540D01*
X1312097Y885540D01*
X1315970Y883935D01*
X1318935Y880970D01*
X1320540Y877097D01*
X1320540Y872903D01*
X1318935Y869030D01*
X1315970Y866065D01*
X1312097Y864460D01*
X1307903Y864460D01*
G37*
G36*
X1087903Y864460D02*
X1084030Y866065D01*
X1081065Y869030D01*
X1079460Y872903D01*
X1079460Y877097D01*
X1081065Y880970D01*
X1084030Y883935D01*
X1087903Y885540D01*
X1092097Y885540D01*
X1095970Y883935D01*
X1098935Y880970D01*
X1100540Y877097D01*
X1100540Y872903D01*
X1098935Y869030D01*
X1095970Y866065D01*
X1092097Y864460D01*
X1087903Y864460D01*
G37*
G36*
X1027903Y864460D02*
X1024030Y866065D01*
X1021065Y869030D01*
X1019460Y872903D01*
X1019460Y877097D01*
X1021065Y880970D01*
X1024030Y883935D01*
X1027903Y885540D01*
X1032097Y885540D01*
X1035970Y883935D01*
X1038935Y880970D01*
X1040540Y877097D01*
X1040540Y872903D01*
X1038935Y869030D01*
X1035970Y866065D01*
X1032097Y864460D01*
X1027903Y864460D01*
G37*
G36*
X1373620Y734661D02*
X1371763Y735430D01*
X1370342Y736851D01*
X1369573Y738708D01*
X1369573Y740717D01*
X1370411Y742740D01*
X1370666Y743126D01*
X1370815Y743889D01*
X1370815Y747428D01*
X1370654Y748221D01*
X1370197Y748888D01*
X1369516Y749323D01*
X1368783Y749460D01*
X1367903Y749460D01*
X1364030Y751065D01*
X1361065Y754030D01*
X1359460Y757903D01*
X1359460Y762097D01*
X1361065Y765970D01*
X1364030Y768935D01*
X1367903Y770540D01*
X1372097Y770540D01*
X1375970Y768935D01*
X1378935Y765970D01*
X1379606Y764352D01*
X1380058Y763682D01*
X1380735Y763240D01*
X1381532Y763098D01*
X1382320Y763278D01*
X1382976Y763751D01*
X1383395Y764443D01*
X1383515Y765130D01*
X1383515Y772049D01*
X1383354Y772841D01*
X1383106Y773210D01*
X1382273Y775220D01*
X1382273Y777230D01*
X1383042Y779087D01*
X1384463Y780508D01*
X1386320Y781277D01*
X1388330Y781277D01*
X1390187Y780508D01*
X1391608Y779087D01*
X1392377Y777230D01*
X1392377Y775220D01*
X1391539Y773197D01*
X1391284Y772811D01*
X1391135Y772049D01*
X1391135Y758772D01*
X1379030Y746667D01*
X1378584Y745993D01*
X1378435Y745230D01*
X1378435Y743889D01*
X1378596Y743096D01*
X1378844Y742728D01*
X1379677Y740717D01*
X1379677Y738708D01*
X1378908Y736851D01*
X1377487Y735430D01*
X1375630Y734661D01*
X1373620Y734661D01*
G37*
G36*
X1307903Y749460D02*
X1304030Y751065D01*
X1301065Y754030D01*
X1299460Y757903D01*
X1299460Y762097D01*
X1301065Y765970D01*
X1304030Y768935D01*
X1307903Y770540D01*
X1312097Y770540D01*
X1315970Y768935D01*
X1318935Y765970D01*
X1320540Y762097D01*
X1320540Y757903D01*
X1318935Y754030D01*
X1315970Y751065D01*
X1312097Y749460D01*
X1307903Y749460D01*
G37*
G36*
X1087903Y749460D02*
X1084030Y751065D01*
X1081065Y754030D01*
X1079460Y757903D01*
X1079460Y762097D01*
X1081065Y765970D01*
X1084030Y768935D01*
X1087903Y770540D01*
X1092097Y770540D01*
X1095970Y768935D01*
X1098935Y765970D01*
X1100540Y762097D01*
X1100540Y757903D01*
X1098935Y754030D01*
X1095970Y751065D01*
X1092097Y749460D01*
X1087903Y749460D01*
G37*
G36*
X1027903Y749460D02*
X1024030Y751065D01*
X1021065Y754030D01*
X1019460Y757903D01*
X1019460Y762097D01*
X1021065Y765970D01*
X1024030Y768935D01*
X1027903Y770540D01*
X1032097Y770540D01*
X1035970Y768935D01*
X1038935Y765970D01*
X1040540Y762097D01*
X1040540Y757903D01*
X1038935Y754030D01*
X1035970Y751065D01*
X1032097Y749460D01*
X1027903Y749460D01*
G37*
G36*
X1027903Y634460D02*
X1024030Y636065D01*
X1021065Y639030D01*
X1019460Y642903D01*
X1019460Y647097D01*
X1021065Y650970D01*
X1024030Y653935D01*
X1027903Y655540D01*
X1032097Y655540D01*
X1035970Y653935D01*
X1038935Y650970D01*
X1040540Y647097D01*
X1040540Y642903D01*
X1038935Y639030D01*
X1035970Y636065D01*
X1032097Y634460D01*
X1027903Y634460D01*
G37*
G36*
X1367903Y634460D02*
X1364030Y636065D01*
X1361065Y639030D01*
X1359460Y642903D01*
X1359460Y647097D01*
X1361065Y650970D01*
X1364030Y653935D01*
X1367903Y655540D01*
X1372097Y655540D01*
X1375970Y653935D01*
X1378935Y650970D01*
X1380540Y647097D01*
X1380540Y642903D01*
X1378935Y639030D01*
X1375970Y636065D01*
X1372097Y634460D01*
X1367903Y634460D01*
G37*
G36*
X1307903Y634460D02*
X1304030Y636065D01*
X1301065Y639030D01*
X1299460Y642903D01*
X1299460Y647097D01*
X1301065Y650970D01*
X1304030Y653935D01*
X1307903Y655540D01*
X1312097Y655540D01*
X1315970Y653935D01*
X1318935Y650970D01*
X1320540Y647097D01*
X1320540Y642903D01*
X1318935Y639030D01*
X1315970Y636065D01*
X1312097Y634460D01*
X1307903Y634460D01*
G37*
G36*
X1087903Y634460D02*
X1084030Y636065D01*
X1081065Y639030D01*
X1079460Y642903D01*
X1079460Y647097D01*
X1081065Y650970D01*
X1084030Y653935D01*
X1087903Y655540D01*
X1092097Y655540D01*
X1095970Y653935D01*
X1098935Y650970D01*
X1100540Y647097D01*
X1100540Y642903D01*
X1098935Y639030D01*
X1095970Y636065D01*
X1092097Y634460D01*
X1087903Y634460D01*
G37*
G36*
X1367903Y519460D02*
X1364030Y521065D01*
X1361065Y524030D01*
X1359460Y527903D01*
X1359460Y532097D01*
X1361065Y535970D01*
X1364030Y538935D01*
X1367903Y540540D01*
X1372097Y540540D01*
X1375970Y538935D01*
X1378935Y535970D01*
X1380540Y532097D01*
X1380540Y527903D01*
X1378935Y524030D01*
X1375970Y521065D01*
X1372097Y519460D01*
X1367903Y519460D01*
G37*
G36*
X1027903Y519460D02*
X1024030Y521065D01*
X1021065Y524030D01*
X1019460Y527903D01*
X1019460Y532097D01*
X1021065Y535970D01*
X1024030Y538935D01*
X1027903Y540540D01*
X1032097Y540540D01*
X1035970Y538935D01*
X1038935Y535970D01*
X1040540Y532097D01*
X1040540Y527903D01*
X1038935Y524030D01*
X1035970Y521065D01*
X1032097Y519460D01*
X1027903Y519460D01*
G37*
G36*
X1307903Y519460D02*
X1304030Y521065D01*
X1301065Y524030D01*
X1299460Y527903D01*
X1299460Y532097D01*
X1301065Y535970D01*
X1304030Y538935D01*
X1307903Y540540D01*
X1312097Y540540D01*
X1315970Y538935D01*
X1318935Y535970D01*
X1320540Y532097D01*
X1320540Y527903D01*
X1318935Y524030D01*
X1315970Y521065D01*
X1312097Y519460D01*
X1307903Y519460D01*
G37*
G36*
X1087903Y519460D02*
X1084030Y521065D01*
X1081065Y524030D01*
X1079460Y527903D01*
X1079460Y532097D01*
X1081065Y535970D01*
X1084030Y538935D01*
X1087903Y540540D01*
X1092097Y540540D01*
X1095970Y538935D01*
X1098935Y535970D01*
X1100540Y532097D01*
X1100540Y527903D01*
X1098935Y524030D01*
X1095970Y521065D01*
X1092097Y519460D01*
X1087903Y519460D01*
G37*
G36*
X1087903Y404460D02*
X1084030Y406065D01*
X1081065Y409030D01*
X1079460Y412903D01*
X1079460Y417097D01*
X1081065Y420970D01*
X1084030Y423935D01*
X1087903Y425540D01*
X1092097Y425540D01*
X1095970Y423935D01*
X1098935Y420970D01*
X1100540Y417097D01*
X1100540Y412903D01*
X1098935Y409030D01*
X1095970Y406065D01*
X1092097Y404460D01*
X1087903Y404460D01*
G37*
G36*
X1027903Y404460D02*
X1024030Y406065D01*
X1021065Y409030D01*
X1019460Y412903D01*
X1019460Y417097D01*
X1021065Y420970D01*
X1024030Y423935D01*
X1027903Y425540D01*
X1032097Y425540D01*
X1035970Y423935D01*
X1038935Y420970D01*
X1040540Y417097D01*
X1040540Y412903D01*
X1038935Y409030D01*
X1035970Y406065D01*
X1032097Y404460D01*
X1027903Y404460D01*
G37*
G36*
X1367903Y404460D02*
X1364030Y406065D01*
X1361065Y409030D01*
X1359460Y412903D01*
X1359460Y417097D01*
X1361065Y420970D01*
X1364030Y423935D01*
X1367903Y425540D01*
X1372097Y425540D01*
X1375970Y423935D01*
X1378935Y420970D01*
X1380540Y417097D01*
X1380540Y412903D01*
X1378935Y409030D01*
X1375970Y406065D01*
X1372097Y404460D01*
X1367903Y404460D01*
G37*
G36*
X1307903Y404460D02*
X1304030Y406065D01*
X1301065Y409030D01*
X1299460Y412903D01*
X1299460Y417097D01*
X1301065Y420970D01*
X1304030Y423935D01*
X1307903Y425540D01*
X1312097Y425540D01*
X1315970Y423935D01*
X1318935Y420970D01*
X1320540Y417097D01*
X1320540Y412903D01*
X1318935Y409030D01*
X1315970Y406065D01*
X1312097Y404460D01*
X1307903Y404460D01*
G37*
G36*
X1050270Y334724D02*
X1051408Y337471D01*
X1053529Y339592D01*
X1056300Y340740D01*
X1061276Y340740D01*
X1061276Y334724D01*
X1050270Y334724D01*
G37*
G36*
X1008470Y334724D02*
X1009608Y337471D01*
X1011729Y339592D01*
X1014500Y340740D01*
X1019476Y340740D01*
X1019476Y334724D01*
X1008470Y334724D01*
G37*
G36*
X1022524Y334724D02*
X1022524Y340740D01*
X1027500Y340740D01*
X1030271Y339592D01*
X1032392Y337471D01*
X1033530Y334724D01*
X1022524Y334724D01*
G37*
G36*
X1064324Y334724D02*
X1064324Y340740D01*
X1069300Y340740D01*
X1072071Y339592D01*
X1074192Y337471D01*
X1075330Y334724D01*
X1064324Y334724D01*
G37*
G36*
X1064324Y325660D02*
X1064324Y331676D01*
X1075330Y331676D01*
X1074192Y328929D01*
X1072071Y326808D01*
X1069300Y325660D01*
X1064324Y325660D01*
G37*
G36*
X1056648Y313110D02*
X1054520Y313991D01*
X1052891Y315620D01*
X1052010Y317748D01*
X1052010Y320052D01*
X1052891Y322180D01*
X1054200Y323489D01*
X1054647Y324163D01*
X1054795Y324958D01*
X1054622Y325748D01*
X1054154Y326407D01*
X1053541Y326803D01*
X1053529Y326808D01*
X1051408Y328929D01*
X1050270Y331676D01*
X1061276Y331676D01*
X1061276Y324898D01*
X1062582Y324898D01*
X1062239Y324361D01*
X1062103Y323563D01*
X1062289Y322776D01*
X1062697Y322191D01*
X1062709Y322180D01*
X1063590Y320052D01*
X1063590Y317748D01*
X1062709Y315620D01*
X1061080Y313991D01*
X1058952Y313110D01*
X1056648Y313110D01*
G37*
G36*
X1022524Y325660D02*
X1022524Y331676D01*
X1033530Y331676D01*
X1032392Y328929D01*
X1030271Y326808D01*
X1027500Y325660D01*
X1022524Y325660D01*
G37*
G36*
X1014500Y325660D02*
X1011729Y326808D01*
X1009608Y328929D01*
X1008470Y331676D01*
X1019476Y331676D01*
X1019476Y325660D01*
X1014500Y325660D01*
G37*
G36*
X1050270Y248324D02*
X1051408Y251071D01*
X1053529Y253192D01*
X1053541Y253197D01*
X1054212Y253649D01*
X1054653Y254327D01*
X1054795Y255123D01*
X1054615Y255912D01*
X1054200Y256511D01*
X1052891Y257820D01*
X1052010Y259948D01*
X1052010Y262252D01*
X1052891Y264380D01*
X1054520Y266009D01*
X1056648Y266890D01*
X1058952Y266890D01*
X1061080Y266009D01*
X1062709Y264380D01*
X1063590Y262252D01*
X1063590Y259948D01*
X1062709Y257820D01*
X1062697Y257809D01*
X1062251Y257135D01*
X1062102Y256340D01*
X1062276Y255550D01*
X1062593Y255102D01*
X1061276Y255102D01*
X1061276Y248324D01*
X1050270Y248324D01*
G37*
G36*
X1064324Y248324D02*
X1064324Y254340D01*
X1069300Y254340D01*
X1072071Y253192D01*
X1074192Y251071D01*
X1075330Y248324D01*
X1064324Y248324D01*
G37*
G36*
X1008470Y248324D02*
X1009608Y251071D01*
X1011729Y253192D01*
X1014500Y254340D01*
X1019476Y254340D01*
X1019476Y248324D01*
X1008470Y248324D01*
G37*
G36*
X1022524Y248324D02*
X1022524Y254340D01*
X1027500Y254340D01*
X1030271Y253192D01*
X1032392Y251071D01*
X1033530Y248324D01*
X1022524Y248324D01*
G37*
G36*
X1064324Y239260D02*
X1064324Y245276D01*
X1075330Y245276D01*
X1074192Y242529D01*
X1072071Y240408D01*
X1069300Y239260D01*
X1064324Y239260D01*
G37*
G36*
X1056300Y239260D02*
X1053529Y240408D01*
X1051408Y242529D01*
X1050270Y245276D01*
X1061276Y245276D01*
X1061276Y239260D01*
X1056300Y239260D01*
G37*
G36*
X1022524Y239260D02*
X1022524Y245276D01*
X1033530Y245276D01*
X1032392Y242529D01*
X1030271Y240408D01*
X1027500Y239260D01*
X1022524Y239260D01*
G37*
G36*
X1014500Y239260D02*
X1011729Y240408D01*
X1009608Y242529D01*
X1008470Y245276D01*
X1019476Y245276D01*
X1019476Y239260D01*
X1014500Y239260D01*
G37*
G36*
X1072705Y153460D02*
X1068463Y155217D01*
X1065217Y158463D01*
X1063460Y162705D01*
X1063460Y167295D01*
X1065217Y171537D01*
X1068463Y174783D01*
X1072705Y176540D01*
X1077295Y176540D01*
X1081537Y174783D01*
X1084783Y171537D01*
X1086540Y167295D01*
X1086540Y162705D01*
X1084783Y158463D01*
X1081537Y155217D01*
X1077295Y153460D01*
X1072705Y153460D01*
G37*
G36*
X1027903Y154460D02*
X1024030Y156065D01*
X1021065Y159030D01*
X1019460Y162903D01*
X1019460Y167097D01*
X1021065Y170970D01*
X1024030Y173935D01*
X1027903Y175540D01*
X1032097Y175540D01*
X1035970Y173935D01*
X1038935Y170970D01*
X1040540Y167097D01*
X1040540Y162903D01*
X1038935Y159030D01*
X1035970Y156065D01*
X1032097Y154460D01*
X1027903Y154460D01*
G37*
G36*
X1035650Y6960D02*
X1027247Y9212D01*
X1019713Y13561D01*
X1013561Y19713D01*
X1009212Y27247D01*
X1006960Y35650D01*
X1006960Y44350D01*
X1009212Y52753D01*
X1013561Y60287D01*
X1019713Y66439D01*
X1027247Y70788D01*
X1035650Y73040D01*
X1044350Y73040D01*
X1052753Y70788D01*
X1060287Y66439D01*
X1066439Y60287D01*
X1070788Y52753D01*
X1073040Y44350D01*
X1073040Y35650D01*
X1070788Y27247D01*
X1066439Y19713D01*
X1060287Y13561D01*
X1052753Y9212D01*
X1044350Y6960D01*
X1035650Y6960D01*
G37*
%LPD*%
G36*
X1370318Y1022565D02*
X1378176Y1023810D01*
X1378780Y1024006D01*
X1385869Y1027618D01*
X1386383Y1027991D01*
X1392009Y1033617D01*
X1392382Y1034131D01*
X1395994Y1041220D01*
X1396190Y1041824D01*
X1397435Y1049682D01*
X1397460Y1050000D01*
X1397460Y1087494D01*
X1397779Y1088263D01*
X1397933Y1089057D01*
X1397766Y1089848D01*
X1397338Y1090478D01*
X1395693Y1092122D01*
X1394920Y1093990D01*
X1394920Y1096010D01*
X1395733Y1097972D01*
X1395887Y1098766D01*
X1395733Y1099528D01*
X1394920Y1101490D01*
X1394920Y1103510D01*
X1395733Y1105472D01*
X1395887Y1106266D01*
X1395733Y1107028D01*
X1394920Y1108990D01*
X1394920Y1111010D01*
X1395733Y1112972D01*
X1395887Y1113766D01*
X1395733Y1114528D01*
X1394920Y1116490D01*
X1394920Y1118510D01*
X1395733Y1120472D01*
X1395887Y1121266D01*
X1395733Y1122028D01*
X1395653Y1122219D01*
X1395201Y1122890D01*
X1394524Y1123331D01*
X1393727Y1123473D01*
X1392939Y1123293D01*
X1392283Y1122820D01*
X1391899Y1122219D01*
X1391201Y1120535D01*
X1366331Y1095665D01*
X1365884Y1094991D01*
X1365736Y1094196D01*
X1365909Y1093406D01*
X1366377Y1092746D01*
X1367242Y1092265D01*
X1372753Y1090788D01*
X1380287Y1086439D01*
X1386439Y1080287D01*
X1390788Y1072753D01*
X1393040Y1064350D01*
X1393040Y1055650D01*
X1390788Y1047247D01*
X1386439Y1039713D01*
X1380287Y1033561D01*
X1372753Y1029212D01*
X1364350Y1026960D01*
X1355650Y1026960D01*
X1347247Y1029212D01*
X1339713Y1033561D01*
X1333561Y1039713D01*
X1329212Y1047247D01*
X1326960Y1055650D01*
X1326960Y1064350D01*
X1329185Y1072653D01*
X1329234Y1073460D01*
X1328965Y1074222D01*
X1328420Y1074820D01*
X1327948Y1075036D01*
X1327956Y1075056D01*
X1325726Y1075980D01*
X1324305Y1077401D01*
X1323536Y1079258D01*
X1323536Y1081267D01*
X1324305Y1083124D01*
X1325726Y1084545D01*
X1326511Y1084871D01*
X1327170Y1085311D01*
X1341873Y1100013D01*
X1343553Y1100710D01*
X1357602Y1100710D01*
X1358395Y1100870D01*
X1359039Y1101305D01*
X1382158Y1124424D01*
X1382604Y1125098D01*
X1382753Y1125860D01*
X1382753Y1195472D01*
X1383449Y1197152D01*
X1388626Y1202330D01*
X1389067Y1202989D01*
X1389392Y1203774D01*
X1390813Y1205195D01*
X1392670Y1205965D01*
X1394713Y1205965D01*
X1395444Y1205822D01*
X1396236Y1205989D01*
X1396899Y1206452D01*
X1397329Y1207137D01*
X1397460Y1207854D01*
X1397460Y1927494D01*
X1397779Y1928263D01*
X1397933Y1929057D01*
X1397766Y1929848D01*
X1397338Y1930478D01*
X1395693Y1932122D01*
X1394920Y1933990D01*
X1394920Y1936010D01*
X1395733Y1937972D01*
X1395887Y1938766D01*
X1395733Y1939528D01*
X1394920Y1941490D01*
X1394920Y1943510D01*
X1395733Y1945472D01*
X1395887Y1946266D01*
X1395733Y1947028D01*
X1394920Y1948990D01*
X1394920Y1951010D01*
X1395733Y1952972D01*
X1395887Y1953766D01*
X1395733Y1954528D01*
X1394920Y1956490D01*
X1394920Y1958510D01*
X1395733Y1960472D01*
X1395887Y1961266D01*
X1395733Y1962028D01*
X1394920Y1963990D01*
X1394920Y1966010D01*
X1395693Y1967878D01*
X1397338Y1969522D01*
X1397785Y1970196D01*
X1397933Y1970991D01*
X1397779Y1971737D01*
X1397460Y1972506D01*
X1397460Y1990000D01*
X1397435Y1990318D01*
X1396190Y1998176D01*
X1395994Y1998780D01*
X1392382Y2005869D01*
X1392009Y2006383D01*
X1386383Y2012009D01*
X1385869Y2012382D01*
X1378780Y2015994D01*
X1378176Y2016190D01*
X1370318Y2017435D01*
X1370000Y2017460D01*
X1030000Y2017460D01*
X1029682Y2017435D01*
X1021824Y2016190D01*
X1021220Y2015994D01*
X1014131Y2012382D01*
X1013617Y2012009D01*
X1007991Y2006383D01*
X1007618Y2005869D01*
X1004006Y1998780D01*
X1003810Y1998176D01*
X1002565Y1990318D01*
X1002540Y1990000D01*
X1002540Y1972506D01*
X1002222Y1971737D01*
X1002067Y1970943D01*
X1002234Y1970152D01*
X1002662Y1969522D01*
X1004307Y1967878D01*
X1005080Y1966010D01*
X1005080Y1963990D01*
X1004267Y1962028D01*
X1004113Y1961234D01*
X1004267Y1960472D01*
X1005080Y1958510D01*
X1005080Y1956490D01*
X1004267Y1954528D01*
X1004113Y1953734D01*
X1004267Y1952972D01*
X1005080Y1951010D01*
X1005080Y1948990D01*
X1004267Y1947028D01*
X1004113Y1946234D01*
X1004267Y1945472D01*
X1005080Y1943510D01*
X1005080Y1941490D01*
X1004267Y1939528D01*
X1004113Y1938734D01*
X1004267Y1937972D01*
X1005080Y1936010D01*
X1005080Y1933990D01*
X1004307Y1932122D01*
X1002662Y1930478D01*
X1002215Y1929804D01*
X1002067Y1929009D01*
X1002222Y1928263D01*
X1002540Y1927494D01*
X1002540Y1132506D01*
X1002222Y1131737D01*
X1002067Y1130943D01*
X1002234Y1130152D01*
X1002662Y1129522D01*
X1004307Y1127878D01*
X1005080Y1126010D01*
X1005080Y1123990D01*
X1004267Y1122028D01*
X1004113Y1121234D01*
X1004267Y1120472D01*
X1005080Y1118510D01*
X1005080Y1116490D01*
X1004267Y1114528D01*
X1004113Y1113734D01*
X1004267Y1112972D01*
X1005080Y1111010D01*
X1005080Y1108990D01*
X1004267Y1107028D01*
X1004113Y1106234D01*
X1004267Y1105472D01*
X1005080Y1103510D01*
X1005080Y1101490D01*
X1004267Y1099528D01*
X1004113Y1098734D01*
X1004267Y1097972D01*
X1005080Y1096010D01*
X1005080Y1093990D01*
X1004307Y1092122D01*
X1002662Y1090478D01*
X1002215Y1089804D01*
X1002067Y1089009D01*
X1002222Y1088263D01*
X1002540Y1087494D01*
X1002540Y1050000D01*
X1002565Y1049682D01*
X1003810Y1041824D01*
X1004006Y1041220D01*
X1007618Y1034131D01*
X1007991Y1033617D01*
X1013617Y1027991D01*
X1014131Y1027618D01*
X1021220Y1024006D01*
X1021824Y1023810D01*
X1029682Y1022565D01*
X1030000Y1022540D01*
X1370000Y1022540D01*
X1370318Y1022565D01*
G37*
%LPC*%
G36*
X1355650Y1946960D02*
X1347247Y1949212D01*
X1339713Y1953561D01*
X1333561Y1959713D01*
X1329212Y1967247D01*
X1326960Y1975650D01*
X1326960Y1984350D01*
X1329212Y1992753D01*
X1333561Y2000287D01*
X1339713Y2006439D01*
X1347247Y2010788D01*
X1355650Y2013040D01*
X1364350Y2013040D01*
X1372753Y2010788D01*
X1380287Y2006439D01*
X1386439Y2000287D01*
X1390788Y1992753D01*
X1393040Y1984350D01*
X1393040Y1975650D01*
X1390788Y1967247D01*
X1386439Y1959713D01*
X1380287Y1953561D01*
X1372753Y1949212D01*
X1364350Y1946960D01*
X1355650Y1946960D01*
G37*
G36*
X1035650Y1946960D02*
X1027247Y1949212D01*
X1019713Y1953561D01*
X1013561Y1959713D01*
X1009212Y1967247D01*
X1006960Y1975650D01*
X1006960Y1984350D01*
X1009212Y1992753D01*
X1013561Y2000287D01*
X1019713Y2006439D01*
X1027247Y2010788D01*
X1035650Y2013040D01*
X1044350Y2013040D01*
X1052753Y2010788D01*
X1060287Y2006439D01*
X1066439Y2000287D01*
X1070788Y1992753D01*
X1073040Y1984350D01*
X1073040Y1975650D01*
X1070788Y1967247D01*
X1066439Y1959713D01*
X1060287Y1953561D01*
X1052753Y1949212D01*
X1044350Y1946960D01*
X1035650Y1946960D01*
G37*
G36*
X1367903Y1884460D02*
X1364030Y1886065D01*
X1361065Y1889030D01*
X1359460Y1892903D01*
X1359460Y1897097D01*
X1361065Y1900970D01*
X1364030Y1903935D01*
X1367903Y1905540D01*
X1372097Y1905540D01*
X1375970Y1903935D01*
X1378935Y1900970D01*
X1380540Y1897097D01*
X1380540Y1892903D01*
X1378935Y1889030D01*
X1375970Y1886065D01*
X1372097Y1884460D01*
X1367903Y1884460D01*
G37*
G36*
X1307903Y1884460D02*
X1304030Y1886065D01*
X1301065Y1889030D01*
X1299460Y1892903D01*
X1299460Y1897097D01*
X1301065Y1900970D01*
X1304030Y1903935D01*
X1307903Y1905540D01*
X1312097Y1905540D01*
X1315970Y1903935D01*
X1318935Y1900970D01*
X1320540Y1897097D01*
X1320540Y1892903D01*
X1318935Y1889030D01*
X1315970Y1886065D01*
X1312097Y1884460D01*
X1307903Y1884460D01*
G37*
G36*
X1087903Y1884460D02*
X1084030Y1886065D01*
X1081065Y1889030D01*
X1079460Y1892903D01*
X1079460Y1897097D01*
X1081065Y1900970D01*
X1084030Y1903935D01*
X1087903Y1905540D01*
X1092097Y1905540D01*
X1095970Y1903935D01*
X1098935Y1900970D01*
X1100540Y1897097D01*
X1100540Y1892903D01*
X1098935Y1889030D01*
X1095970Y1886065D01*
X1092097Y1884460D01*
X1087903Y1884460D01*
G37*
G36*
X1027903Y1884460D02*
X1024030Y1886065D01*
X1021065Y1889030D01*
X1019460Y1892903D01*
X1019460Y1897097D01*
X1021065Y1900970D01*
X1024030Y1903935D01*
X1027903Y1905540D01*
X1032097Y1905540D01*
X1035970Y1903935D01*
X1038935Y1900970D01*
X1040540Y1897097D01*
X1040540Y1892903D01*
X1038935Y1889030D01*
X1035970Y1886065D01*
X1032097Y1884460D01*
X1027903Y1884460D01*
G37*
G36*
X1373620Y1754661D02*
X1371763Y1755430D01*
X1370342Y1756851D01*
X1369573Y1758708D01*
X1369573Y1760717D01*
X1370411Y1762740D01*
X1370666Y1763126D01*
X1370815Y1763889D01*
X1370815Y1767428D01*
X1370654Y1768221D01*
X1370197Y1768888D01*
X1369516Y1769323D01*
X1368783Y1769460D01*
X1367903Y1769460D01*
X1364030Y1771065D01*
X1361065Y1774030D01*
X1359460Y1777903D01*
X1359460Y1782097D01*
X1361065Y1785970D01*
X1364030Y1788935D01*
X1367903Y1790540D01*
X1372097Y1790540D01*
X1375970Y1788935D01*
X1378935Y1785970D01*
X1379606Y1784352D01*
X1380058Y1783682D01*
X1380735Y1783240D01*
X1381532Y1783098D01*
X1382320Y1783278D01*
X1382976Y1783751D01*
X1383395Y1784443D01*
X1383515Y1785130D01*
X1383515Y1792049D01*
X1383354Y1792841D01*
X1383106Y1793210D01*
X1382273Y1795220D01*
X1382273Y1797230D01*
X1383042Y1799087D01*
X1384463Y1800508D01*
X1386320Y1801277D01*
X1388330Y1801277D01*
X1390187Y1800508D01*
X1391608Y1799087D01*
X1392377Y1797230D01*
X1392377Y1795220D01*
X1391539Y1793197D01*
X1391284Y1792811D01*
X1391135Y1792049D01*
X1391135Y1778772D01*
X1379030Y1766667D01*
X1378584Y1765993D01*
X1378435Y1765230D01*
X1378435Y1763889D01*
X1378596Y1763096D01*
X1378844Y1762728D01*
X1379677Y1760717D01*
X1379677Y1758708D01*
X1378908Y1756851D01*
X1377487Y1755430D01*
X1375630Y1754661D01*
X1373620Y1754661D01*
G37*
G36*
X1307903Y1769460D02*
X1304030Y1771065D01*
X1301065Y1774030D01*
X1299460Y1777903D01*
X1299460Y1782097D01*
X1301065Y1785970D01*
X1304030Y1788935D01*
X1307903Y1790540D01*
X1312097Y1790540D01*
X1315970Y1788935D01*
X1318935Y1785970D01*
X1320540Y1782097D01*
X1320540Y1777903D01*
X1318935Y1774030D01*
X1315970Y1771065D01*
X1312097Y1769460D01*
X1307903Y1769460D01*
G37*
G36*
X1087903Y1769460D02*
X1084030Y1771065D01*
X1081065Y1774030D01*
X1079460Y1777903D01*
X1079460Y1782097D01*
X1081065Y1785970D01*
X1084030Y1788935D01*
X1087903Y1790540D01*
X1092097Y1790540D01*
X1095970Y1788935D01*
X1098935Y1785970D01*
X1100540Y1782097D01*
X1100540Y1777903D01*
X1098935Y1774030D01*
X1095970Y1771065D01*
X1092097Y1769460D01*
X1087903Y1769460D01*
G37*
G36*
X1027903Y1769460D02*
X1024030Y1771065D01*
X1021065Y1774030D01*
X1019460Y1777903D01*
X1019460Y1782097D01*
X1021065Y1785970D01*
X1024030Y1788935D01*
X1027903Y1790540D01*
X1032097Y1790540D01*
X1035970Y1788935D01*
X1038935Y1785970D01*
X1040540Y1782097D01*
X1040540Y1777903D01*
X1038935Y1774030D01*
X1035970Y1771065D01*
X1032097Y1769460D01*
X1027903Y1769460D01*
G37*
G36*
X1027903Y1654460D02*
X1024030Y1656065D01*
X1021065Y1659030D01*
X1019460Y1662903D01*
X1019460Y1667097D01*
X1021065Y1670970D01*
X1024030Y1673935D01*
X1027903Y1675540D01*
X1032097Y1675540D01*
X1035970Y1673935D01*
X1038935Y1670970D01*
X1040540Y1667097D01*
X1040540Y1662903D01*
X1038935Y1659030D01*
X1035970Y1656065D01*
X1032097Y1654460D01*
X1027903Y1654460D01*
G37*
G36*
X1367903Y1654460D02*
X1364030Y1656065D01*
X1361065Y1659030D01*
X1359460Y1662903D01*
X1359460Y1667097D01*
X1361065Y1670970D01*
X1364030Y1673935D01*
X1367903Y1675540D01*
X1372097Y1675540D01*
X1375970Y1673935D01*
X1378935Y1670970D01*
X1380540Y1667097D01*
X1380540Y1662903D01*
X1378935Y1659030D01*
X1375970Y1656065D01*
X1372097Y1654460D01*
X1367903Y1654460D01*
G37*
G36*
X1307903Y1654460D02*
X1304030Y1656065D01*
X1301065Y1659030D01*
X1299460Y1662903D01*
X1299460Y1667097D01*
X1301065Y1670970D01*
X1304030Y1673935D01*
X1307903Y1675540D01*
X1312097Y1675540D01*
X1315970Y1673935D01*
X1318935Y1670970D01*
X1320540Y1667097D01*
X1320540Y1662903D01*
X1318935Y1659030D01*
X1315970Y1656065D01*
X1312097Y1654460D01*
X1307903Y1654460D01*
G37*
G36*
X1087903Y1654460D02*
X1084030Y1656065D01*
X1081065Y1659030D01*
X1079460Y1662903D01*
X1079460Y1667097D01*
X1081065Y1670970D01*
X1084030Y1673935D01*
X1087903Y1675540D01*
X1092097Y1675540D01*
X1095970Y1673935D01*
X1098935Y1670970D01*
X1100540Y1667097D01*
X1100540Y1662903D01*
X1098935Y1659030D01*
X1095970Y1656065D01*
X1092097Y1654460D01*
X1087903Y1654460D01*
G37*
G36*
X1367903Y1539460D02*
X1364030Y1541065D01*
X1361065Y1544030D01*
X1359460Y1547903D01*
X1359460Y1552097D01*
X1361065Y1555970D01*
X1364030Y1558935D01*
X1367903Y1560540D01*
X1372097Y1560540D01*
X1375970Y1558935D01*
X1378935Y1555970D01*
X1380540Y1552097D01*
X1380540Y1547903D01*
X1378935Y1544030D01*
X1375970Y1541065D01*
X1372097Y1539460D01*
X1367903Y1539460D01*
G37*
G36*
X1027903Y1539460D02*
X1024030Y1541065D01*
X1021065Y1544030D01*
X1019460Y1547903D01*
X1019460Y1552097D01*
X1021065Y1555970D01*
X1024030Y1558935D01*
X1027903Y1560540D01*
X1032097Y1560540D01*
X1035970Y1558935D01*
X1038935Y1555970D01*
X1040540Y1552097D01*
X1040540Y1547903D01*
X1038935Y1544030D01*
X1035970Y1541065D01*
X1032097Y1539460D01*
X1027903Y1539460D01*
G37*
G36*
X1307903Y1539460D02*
X1304030Y1541065D01*
X1301065Y1544030D01*
X1299460Y1547903D01*
X1299460Y1552097D01*
X1301065Y1555970D01*
X1304030Y1558935D01*
X1307903Y1560540D01*
X1312097Y1560540D01*
X1315970Y1558935D01*
X1318935Y1555970D01*
X1320540Y1552097D01*
X1320540Y1547903D01*
X1318935Y1544030D01*
X1315970Y1541065D01*
X1312097Y1539460D01*
X1307903Y1539460D01*
G37*
G36*
X1087903Y1539460D02*
X1084030Y1541065D01*
X1081065Y1544030D01*
X1079460Y1547903D01*
X1079460Y1552097D01*
X1081065Y1555970D01*
X1084030Y1558935D01*
X1087903Y1560540D01*
X1092097Y1560540D01*
X1095970Y1558935D01*
X1098935Y1555970D01*
X1100540Y1552097D01*
X1100540Y1547903D01*
X1098935Y1544030D01*
X1095970Y1541065D01*
X1092097Y1539460D01*
X1087903Y1539460D01*
G37*
G36*
X1087903Y1424460D02*
X1084030Y1426065D01*
X1081065Y1429030D01*
X1079460Y1432903D01*
X1079460Y1437097D01*
X1081065Y1440970D01*
X1084030Y1443935D01*
X1087903Y1445540D01*
X1092097Y1445540D01*
X1095970Y1443935D01*
X1098935Y1440970D01*
X1100540Y1437097D01*
X1100540Y1432903D01*
X1098935Y1429030D01*
X1095970Y1426065D01*
X1092097Y1424460D01*
X1087903Y1424460D01*
G37*
G36*
X1027903Y1424460D02*
X1024030Y1426065D01*
X1021065Y1429030D01*
X1019460Y1432903D01*
X1019460Y1437097D01*
X1021065Y1440970D01*
X1024030Y1443935D01*
X1027903Y1445540D01*
X1032097Y1445540D01*
X1035970Y1443935D01*
X1038935Y1440970D01*
X1040540Y1437097D01*
X1040540Y1432903D01*
X1038935Y1429030D01*
X1035970Y1426065D01*
X1032097Y1424460D01*
X1027903Y1424460D01*
G37*
G36*
X1367903Y1424460D02*
X1364030Y1426065D01*
X1361065Y1429030D01*
X1359460Y1432903D01*
X1359460Y1437097D01*
X1361065Y1440970D01*
X1364030Y1443935D01*
X1367903Y1445540D01*
X1372097Y1445540D01*
X1375970Y1443935D01*
X1378935Y1440970D01*
X1380540Y1437097D01*
X1380540Y1432903D01*
X1378935Y1429030D01*
X1375970Y1426065D01*
X1372097Y1424460D01*
X1367903Y1424460D01*
G37*
G36*
X1307903Y1424460D02*
X1304030Y1426065D01*
X1301065Y1429030D01*
X1299460Y1432903D01*
X1299460Y1437097D01*
X1301065Y1440970D01*
X1304030Y1443935D01*
X1307903Y1445540D01*
X1312097Y1445540D01*
X1315970Y1443935D01*
X1318935Y1440970D01*
X1320540Y1437097D01*
X1320540Y1432903D01*
X1318935Y1429030D01*
X1315970Y1426065D01*
X1312097Y1424460D01*
X1307903Y1424460D01*
G37*
G36*
X1050270Y1354724D02*
X1051408Y1357471D01*
X1053529Y1359592D01*
X1056300Y1360740D01*
X1061276Y1360740D01*
X1061276Y1354724D01*
X1050270Y1354724D01*
G37*
G36*
X1008470Y1354724D02*
X1009608Y1357471D01*
X1011729Y1359592D01*
X1014500Y1360740D01*
X1019476Y1360740D01*
X1019476Y1354724D01*
X1008470Y1354724D01*
G37*
G36*
X1022524Y1354724D02*
X1022524Y1360740D01*
X1027500Y1360740D01*
X1030271Y1359592D01*
X1032392Y1357471D01*
X1033530Y1354724D01*
X1022524Y1354724D01*
G37*
G36*
X1064324Y1354724D02*
X1064324Y1360740D01*
X1069300Y1360740D01*
X1072071Y1359592D01*
X1074192Y1357471D01*
X1075330Y1354724D01*
X1064324Y1354724D01*
G37*
G36*
X1064324Y1345660D02*
X1064324Y1351676D01*
X1075330Y1351676D01*
X1074192Y1348929D01*
X1072071Y1346808D01*
X1069300Y1345660D01*
X1064324Y1345660D01*
G37*
G36*
X1056648Y1333110D02*
X1054520Y1333991D01*
X1052891Y1335620D01*
X1052010Y1337748D01*
X1052010Y1340052D01*
X1052891Y1342180D01*
X1054200Y1343489D01*
X1054647Y1344163D01*
X1054795Y1344958D01*
X1054622Y1345748D01*
X1054154Y1346407D01*
X1053541Y1346803D01*
X1053529Y1346808D01*
X1051408Y1348929D01*
X1050270Y1351676D01*
X1061276Y1351676D01*
X1061276Y1344898D01*
X1062582Y1344898D01*
X1062239Y1344361D01*
X1062103Y1343563D01*
X1062289Y1342776D01*
X1062697Y1342191D01*
X1062709Y1342180D01*
X1063590Y1340052D01*
X1063590Y1337748D01*
X1062709Y1335620D01*
X1061080Y1333991D01*
X1058952Y1333110D01*
X1056648Y1333110D01*
G37*
G36*
X1022524Y1345660D02*
X1022524Y1351676D01*
X1033530Y1351676D01*
X1032392Y1348929D01*
X1030271Y1346808D01*
X1027500Y1345660D01*
X1022524Y1345660D01*
G37*
G36*
X1014500Y1345660D02*
X1011729Y1346808D01*
X1009608Y1348929D01*
X1008470Y1351676D01*
X1019476Y1351676D01*
X1019476Y1345660D01*
X1014500Y1345660D01*
G37*
G36*
X1050270Y1268324D02*
X1051408Y1271071D01*
X1053529Y1273192D01*
X1053541Y1273197D01*
X1054212Y1273649D01*
X1054653Y1274327D01*
X1054795Y1275123D01*
X1054615Y1275912D01*
X1054200Y1276511D01*
X1052891Y1277820D01*
X1052010Y1279948D01*
X1052010Y1282252D01*
X1052891Y1284380D01*
X1054520Y1286009D01*
X1056648Y1286890D01*
X1058952Y1286890D01*
X1061080Y1286009D01*
X1062709Y1284380D01*
X1063590Y1282252D01*
X1063590Y1279948D01*
X1062709Y1277820D01*
X1062697Y1277809D01*
X1062251Y1277135D01*
X1062102Y1276340D01*
X1062276Y1275550D01*
X1062593Y1275102D01*
X1061276Y1275102D01*
X1061276Y1268324D01*
X1050270Y1268324D01*
G37*
G36*
X1064324Y1268324D02*
X1064324Y1274340D01*
X1069300Y1274340D01*
X1072071Y1273192D01*
X1074192Y1271071D01*
X1075330Y1268324D01*
X1064324Y1268324D01*
G37*
G36*
X1008470Y1268324D02*
X1009608Y1271071D01*
X1011729Y1273192D01*
X1014500Y1274340D01*
X1019476Y1274340D01*
X1019476Y1268324D01*
X1008470Y1268324D01*
G37*
G36*
X1022524Y1268324D02*
X1022524Y1274340D01*
X1027500Y1274340D01*
X1030271Y1273192D01*
X1032392Y1271071D01*
X1033530Y1268324D01*
X1022524Y1268324D01*
G37*
G36*
X1064324Y1259260D02*
X1064324Y1265276D01*
X1075330Y1265276D01*
X1074192Y1262529D01*
X1072071Y1260408D01*
X1069300Y1259260D01*
X1064324Y1259260D01*
G37*
G36*
X1056300Y1259260D02*
X1053529Y1260408D01*
X1051408Y1262529D01*
X1050270Y1265276D01*
X1061276Y1265276D01*
X1061276Y1259260D01*
X1056300Y1259260D01*
G37*
G36*
X1022524Y1259260D02*
X1022524Y1265276D01*
X1033530Y1265276D01*
X1032392Y1262529D01*
X1030271Y1260408D01*
X1027500Y1259260D01*
X1022524Y1259260D01*
G37*
G36*
X1014500Y1259260D02*
X1011729Y1260408D01*
X1009608Y1262529D01*
X1008470Y1265276D01*
X1019476Y1265276D01*
X1019476Y1259260D01*
X1014500Y1259260D01*
G37*
G36*
X1072705Y1173460D02*
X1068463Y1175217D01*
X1065217Y1178463D01*
X1063460Y1182705D01*
X1063460Y1187295D01*
X1065217Y1191537D01*
X1068463Y1194783D01*
X1072705Y1196540D01*
X1077295Y1196540D01*
X1081537Y1194783D01*
X1084783Y1191537D01*
X1086540Y1187295D01*
X1086540Y1182705D01*
X1084783Y1178463D01*
X1081537Y1175217D01*
X1077295Y1173460D01*
X1072705Y1173460D01*
G37*
G36*
X1027903Y1174460D02*
X1024030Y1176065D01*
X1021065Y1179030D01*
X1019460Y1182903D01*
X1019460Y1187097D01*
X1021065Y1190970D01*
X1024030Y1193935D01*
X1027903Y1195540D01*
X1032097Y1195540D01*
X1035970Y1193935D01*
X1038935Y1190970D01*
X1040540Y1187097D01*
X1040540Y1182903D01*
X1038935Y1179030D01*
X1035970Y1176065D01*
X1032097Y1174460D01*
X1027903Y1174460D01*
G37*
G36*
X1035650Y1026960D02*
X1027247Y1029212D01*
X1019713Y1033561D01*
X1013561Y1039713D01*
X1009212Y1047247D01*
X1006960Y1055650D01*
X1006960Y1064350D01*
X1009212Y1072753D01*
X1013561Y1080287D01*
X1019713Y1086439D01*
X1027247Y1090788D01*
X1035650Y1093040D01*
X1044350Y1093040D01*
X1052753Y1090788D01*
X1060287Y1086439D01*
X1066439Y1080287D01*
X1070788Y1072753D01*
X1073040Y1064350D01*
X1073040Y1055650D01*
X1070788Y1047247D01*
X1066439Y1039713D01*
X1060287Y1033561D01*
X1052753Y1029212D01*
X1044350Y1026960D01*
X1035650Y1026960D01*
G37*
%LPD*%
D10*
X40000Y1970000D03*
X1460000Y1970000D03*
X1460000Y50000D03*
X40000Y50000D03*
D11*
X116000Y333200D02*
X126000Y333200D01*
X126000Y246800D02*
X116000Y246800D01*
X157800Y246800D02*
X167800Y246800D01*
X167800Y333200D02*
X157800Y333200D01*
D10*
X460000Y960000D03*
X140000Y40000D03*
X460000Y40000D03*
X140000Y960000D03*
D11*
X566000Y333200D02*
X576000Y333200D01*
X576000Y246800D02*
X566000Y246800D01*
X607800Y246800D02*
X617800Y246800D01*
X617800Y333200D02*
X607800Y333200D01*
D10*
X910000Y960000D03*
X590000Y40000D03*
X910000Y40000D03*
X590000Y960000D03*
D11*
X1016000Y333200D02*
X1026000Y333200D01*
X1026000Y246800D02*
X1016000Y246800D01*
X1057800Y246800D02*
X1067800Y246800D01*
X1067800Y333200D02*
X1057800Y333200D01*
D10*
X1360000Y960000D03*
X1040000Y40000D03*
X1360000Y40000D03*
X1040000Y960000D03*
D11*
X126000Y1353200D02*
X116000Y1353200D01*
X116000Y1266800D02*
X126000Y1266800D01*
X157800Y1266800D02*
X167800Y1266800D01*
X167800Y1353200D02*
X157800Y1353200D01*
D10*
X460000Y1980000D03*
X140000Y1060000D03*
X460000Y1060000D03*
X140000Y1980000D03*
D11*
X566000Y1353200D02*
X576000Y1353200D01*
X576000Y1266800D02*
X566000Y1266800D01*
X607800Y1266800D02*
X617800Y1266800D01*
X617800Y1353200D02*
X607800Y1353200D01*
D10*
X910000Y1980000D03*
X590000Y1060000D03*
X910000Y1060000D03*
X590000Y1980000D03*
D11*
X1016000Y1353200D02*
X1026000Y1353200D01*
X1026000Y1266800D02*
X1016000Y1266800D01*
X1057800Y1266800D02*
X1067800Y1266800D01*
X1067800Y1353200D02*
X1057800Y1353200D01*
D10*
X1360000Y1980000D03*
X1040000Y1060000D03*
X1360000Y1060000D03*
X1040000Y1980000D03*
D12*
X182525Y60263D03*
X474625Y542863D03*
X477800Y109475D03*
X442875Y128525D03*
X388900Y252350D03*
X493675Y180913D03*
D13*
X487325Y174563D01*
X487325Y103125D01*
X460338Y76138D01*
X444463Y76138D01*
X428588Y60263D01*
D12*
X428588Y60263D03*
X474625Y739713D03*
D14*
X474625Y747650D01*
X487325Y760350D01*
X487325Y776225D01*
D12*
X487325Y776225D03*
X632525Y60263D03*
X924625Y542863D03*
X927800Y109475D03*
X892875Y128525D03*
X838900Y252350D03*
X943675Y180913D03*
D13*
X937325Y174563D01*
X937325Y103125D01*
X910338Y76138D01*
X894463Y76138D01*
X878588Y60263D01*
D12*
X878588Y60263D03*
X924625Y739713D03*
D14*
X924625Y747650D01*
X937325Y760350D01*
X937325Y776225D01*
D12*
X937325Y776225D03*
X1082525Y60263D03*
X1374625Y542863D03*
X1377800Y109475D03*
X1342875Y128525D03*
X1288900Y252350D03*
X1393675Y180913D03*
D13*
X1387325Y174563D01*
X1387325Y103125D01*
X1360338Y76138D01*
X1344463Y76138D01*
X1328588Y60263D01*
D12*
X1328588Y60263D03*
X1374625Y739713D03*
D14*
X1374625Y747650D01*
X1387325Y760350D01*
X1387325Y776225D01*
D12*
X1387325Y776225D03*
X182525Y1080263D03*
X474625Y1562863D03*
X477800Y1129475D03*
X442875Y1148525D03*
X388900Y1272350D03*
X493675Y1200913D03*
D13*
X487325Y1194563D01*
X487325Y1123125D01*
X460338Y1096138D01*
X444463Y1096138D01*
X428588Y1080263D01*
D12*
X428588Y1080263D03*
X474625Y1759713D03*
D14*
X474625Y1767650D01*
X487325Y1780350D01*
X487325Y1796225D01*
D12*
X487325Y1796225D03*
X632525Y1080263D03*
X924625Y1562863D03*
X927800Y1129475D03*
X892875Y1148525D03*
X838900Y1272350D03*
X943675Y1200913D03*
D13*
X937325Y1194563D01*
X937325Y1123125D01*
X910338Y1096138D01*
X894463Y1096138D01*
X878588Y1080263D01*
D12*
X878588Y1080263D03*
X924625Y1759713D03*
D14*
X924625Y1767650D01*
X937325Y1780350D01*
X937325Y1796225D01*
D12*
X937325Y1796225D03*
X1082525Y1080263D03*
X1374625Y1562863D03*
X1377800Y1129475D03*
X1342875Y1148525D03*
X1288900Y1272350D03*
X1393675Y1200913D03*
D13*
X1387325Y1194563D01*
X1387325Y1123125D01*
X1360338Y1096138D01*
X1344463Y1096138D01*
X1328588Y1080263D01*
D12*
X1328588Y1080263D03*
X1374625Y1759713D03*
D14*
X1374625Y1767650D01*
X1387325Y1780350D01*
X1387325Y1796225D01*
D12*
X1387325Y1796225D03*
M02*
