M48
;GenerationSoftware,Autodesk,EAGLE,9.7.0*%
;CreationDate,2022-03-22T04:45:52Z*%
FMAT,2
ICI,OFF
METRIC,TZ,000.000
T8C0.350
T7C0.400
T6C0.508
T5C0.650
T4C1.600
T3C1.800
T2C3.100
%
G90
M71
T2
X91000Y4000
X4000Y197000
X59000Y106000
X46000Y96000
X4000Y5000
X91000Y106000
X146000Y5000
X146000Y197000
X59000Y198000
X46000Y4000
X104000Y198000
X136000Y198000
X104000Y106000
X14000Y4000
X14000Y96000
X91000Y96000
X59000Y4000
X136000Y106000
X59000Y96000
X136000Y96000
X104000Y4000
X136000Y4000
X104000Y96000
X46000Y198000
X14000Y106000
X46000Y106000
X14000Y198000
X91000Y198000
T3
X17500Y118500
X107500Y16500
X62500Y16500
X107500Y118500
X17500Y16500
X62500Y118500
T4
X86000Y41500
X92000Y41500
X58000Y16500
X41000Y87500
X47000Y87500
X41000Y76000
X47000Y76000
X41000Y64500
X47000Y64500
X19000Y87500
X13000Y87500
X19000Y76000
X13000Y76000
X19000Y64500
X13000Y64500
X19000Y53000
X13000Y53000
X19000Y41500
X13000Y41500
X41000Y53000
X47000Y53000
X41000Y41500
X47000Y41500
X13000Y16500
X137000Y53000
X131000Y53000
X103000Y41500
X109000Y41500
X103000Y53000
X109000Y53000
X103000Y64500
X109000Y64500
X103000Y76000
X109000Y76000
X103000Y87500
X109000Y87500
X137000Y64500
X131000Y64500
X137000Y76000
X131000Y76000
X137000Y87500
X131000Y87500
X13000Y118500
X47000Y143500
X41000Y143500
X47000Y155000
X41000Y155000
X13000Y143500
X19000Y143500
X13000Y155000
X19000Y155000
X13000Y166500
X19000Y166500
X13000Y178000
X19000Y178000
X13000Y189500
X19000Y189500
X47000Y166500
X41000Y166500
X47000Y178000
X47000Y189500
X41000Y189500
X58000Y118500
X92000Y143500
X86000Y143500
X92000Y155000
X86000Y155000
X58000Y143500
X64000Y143500
X58000Y155000
X64000Y155000
X58000Y166500
X64000Y166500
X58000Y178000
X64000Y178000
X58000Y189500
X64000Y189500
X92000Y166500
X86000Y166500
X92000Y178000
X86000Y178000
X92000Y189500
X86000Y189500
X103000Y118500
X137000Y143500
X131000Y143500
X137000Y155000
X131000Y155000
X109000Y143500
X103000Y155000
X109000Y155000
X103000Y166500
X109000Y166500
X103000Y178000
X109000Y178000
X103000Y189500
X109000Y189500
X137000Y166500
X131000Y166500
X137000Y178000
X131000Y178000
X137000Y189500
X131000Y189500
X92000Y64500
X103000Y143500
X131000Y41500
X137000Y41500
X103000Y16500
X86000Y87500
X92000Y87500
X86000Y76000
X92000Y76000
X86000Y64500
X64000Y87500
X58000Y87500
X64000Y76000
X58000Y76000
X64000Y64500
X58000Y64500
X64000Y53000
X58000Y53000
X64000Y41500
X58000Y41500
X86000Y53000
X92000Y53000
X41000Y178000
T5
X105780Y26110
X15780Y26110
X15780Y31890
X105780Y133890
X105780Y128110
X15780Y133890
X60780Y133890
X60780Y128110
X15780Y128110
X60780Y31890
X60780Y26110
X105780Y31890
T6
X10000Y196500
X10000Y193500
X140000Y195000
X140000Y194250
X140000Y195750
X140000Y196500
X140000Y193500
X142000Y195000
X142000Y194250
X142000Y195750
X142000Y196500
X142000Y193500
X140000Y111000
X140000Y110250
X140000Y111750
X140000Y112500
X140000Y109500
X142000Y111000
X142000Y110250
X142000Y111750
X142000Y112500
X142000Y109500
X140000Y93000
X140000Y92250
X140000Y93750
X140000Y94500
X140000Y91500
X142000Y93000
X142000Y92250
X142000Y93750
X142000Y94500
X142000Y91500
X140000Y9000
X8000Y111000
X140000Y9750
X140000Y10500
X140000Y7500
X142000Y9000
X142000Y8250
X142000Y9750
X142000Y10500
X142000Y7500
X140000Y8250
X50000Y193500
X55000Y93000
X55000Y93750
X55000Y92250
X55000Y91500
X55000Y94500
X50000Y93000
X50000Y93750
X50000Y92250
X50000Y91500
X50000Y94500
X55000Y9000
X55000Y9750
X55000Y8250
X55000Y7500
X55000Y10500
X50000Y9000
X50000Y9750
X50000Y8250
X50000Y7500
X50000Y10500
X100000Y93000
X100000Y93750
X100000Y92250
X100000Y91500
X100000Y94500
X95000Y93000
X95000Y93750
X95000Y92250
X95000Y91500
X95000Y94500
X100000Y9000
X100000Y9750
X100000Y8250
X100000Y7500
X100000Y10500
X95000Y9000
X95000Y9750
X95000Y8250
X95000Y7500
X95000Y10500
X55000Y195000
X55000Y195750
X55000Y194250
X55000Y193500
X55000Y196500
X50000Y195000
X50000Y195750
X50000Y194250
X50000Y196500
X55000Y111000
X55000Y111750
X55000Y110250
X55000Y109500
X55000Y112500
X50000Y111000
X50000Y111750
X50000Y110250
X50000Y109500
X50000Y112500
X100000Y195000
X100000Y195750
X100000Y194250
X100000Y193500
X100000Y196500
X95000Y195000
X95000Y195750
X95000Y194250
X95000Y193500
X95000Y196500
X100000Y111000
X100000Y111750
X100000Y110250
X100000Y109500
X100000Y112500
X95000Y111000
X95000Y111750
X95000Y110250
X95000Y109500
X95000Y112500
X8000Y9000
X8000Y8250
X8000Y9750
X8000Y10500
X8000Y7500
X10000Y9000
X10000Y8250
X10000Y9750
X10000Y10500
X10000Y7500
X8000Y93000
X8000Y92250
X8000Y93750
X8000Y94500
X8000Y91500
X10000Y93000
X10000Y92250
X10000Y93750
X10000Y94500
X10000Y91500
X8000Y110250
X8000Y111750
X8000Y112500
X8000Y109500
X10000Y111000
X10000Y110250
X10000Y111750
X10000Y112500
X10000Y109500
X8000Y195000
X8000Y194250
X8000Y195750
X8000Y196500
X8000Y193500
X10000Y195000
X10000Y194250
X10000Y195750
T7
X16280Y24680
X16280Y33320
X57100Y33320
X57100Y24680
X12100Y33320
X12100Y24680
X61280Y24680
X61280Y33320
X102100Y33320
X102100Y24680
X106280Y24680
X106280Y33320
X12100Y135320
X12100Y126680
X16280Y126680
X16280Y135320
X57100Y135320
X57100Y126680
X61280Y126680
X61280Y135320
X102100Y135320
X102100Y126680
X106280Y126680
X106280Y135320
T8
X128890Y25235
X134288Y12852
X137780Y10947
X137463Y54286
X108252Y6026
X93732Y77623
X92462Y73971
X18253Y6026
X87859Y6026
X94367Y18091
X83890Y25235
X89287Y12852
X132859Y108026
X92780Y10947
X92462Y54286
X49367Y120091
X94367Y120091
X83890Y127235
X63252Y6026
X48732Y77623
X47462Y73971
X42859Y6026
X89287Y114852
X92780Y112947
X92462Y156286
X63252Y108026
X49367Y18091
X38890Y25235
X44287Y12852
X47780Y10947
X48732Y179622
X47462Y175971
X42859Y108026
X38890Y127235
X47462Y54286
X138733Y179622
X137463Y175971
X139368Y120091
X44287Y114852
X47780Y112947
X47462Y156286
X18253Y108026
X128890Y127235
X134288Y114852
X137780Y112947
X137463Y156286
X138733Y77623
X137463Y73971
X132859Y6026
X139368Y18091
X108252Y108026
X93732Y179622
X92462Y175971
X87859Y108026
M30